<?xml version="1.0" encoding="utf-8"?>
<!-- Generator: Adobe Illustrator 26.3.1, SVG Export Plug-In . SVG Version: 6.00 Build 0)  -->
<svg version="1.1" id="Layer_1" xmlns="http://www.w3.org/2000/svg" xmlns:xlink="http://www.w3.org/1999/xlink" x="0px" y="0px"
	 viewBox="0 0 1798.3 396.3" style="enable-background:new 0 0 1798.3 396.3;" xml:space="preserve">
<style type="text/css">
	.st0{fill:#00539F;}
	.st1{fill:#F4AF00;}
	.st2{fill:#D4007A;}
	.st3{fill:#E53527;}
	.st4{fill:#EE7F00;}
	.st5{fill:#89BA17;}
	.st6{fill:#00A7E3;}
</style>
<path class="st0" d="M5.4,25.2c14.1,0,28.2,0.1,42.3,0.1c23.3,0,46.6,0,69.8,0h3.9v20H25.9v63.4h94.8v20.2H25.9v79.5h94.9v20.2H9.4
	c-1.4,0-2.7,0.1-4,0.1L5.4,25.2z"/>
<path class="st0" d="M1437.8,105.1V78.4h19.1v149.9H1438v-24.7c-3.3,3.2-6,6-8.9,8.7c-22.3,20-48.3,25.5-76.1,15.9
	c-28.3-9.8-45.7-30.7-51-60.5c-7.6-42.3,16.2-73.6,44.4-86.6c27.5-12.7,65.4-9.5,89,21.1C1436,103,1436.6,103.7,1437.8,105.1z
	 M1439,154.1c1-33-25.2-60.9-58.3-61c-37.1-0.2-60.3,30.4-60.3,60.2c0,33.5,26.8,61.3,59.2,61.2
	C1410.1,214.3,1439.5,191.5,1439,154.1L1439,154.1z"/>
<path class="st0" d="M459.6,153.7c1.2,36.7-28.5,78.6-77.7,78.8c-50.2,0.2-78.4-41.6-79.2-77.3c-0.8-41.1,32.1-81.8,79.7-81
	C425.6,74.8,459.5,109.3,459.6,153.7z M381.6,93.4c-30.4-0.6-58.9,25.5-59,60.2c-0.1,31.7,22.5,59.5,57.7,60.3
	c32.7,0.8,59-25.1,59.7-58.7S414.6,94.1,381.6,93.4L381.6,93.4z"/>
<path class="st0" d="M1024.2,232.4c-47.2-0.8-78-42.3-75.6-83.6c2.1-37.2,33.1-76.8,82.7-74.5c43.6,2,75.4,39.6,74.3,81.9
	C1104.6,193.7,1074.5,234.5,1024.2,232.4z M1027,93.4c-32.5,0-58.5,27.2-58.5,61.2c0,33.3,25.8,59.3,58.6,59.3
	c33.4,0,58.6-26.1,58.5-60.8C1085.6,120.6,1058.9,93.3,1027,93.4z"/>
<path class="st0" d="M1269.1,228.4h-19.3v-3.6c0-23.8,0.2-47.7-0.1-71.5c-0.2-10.6-0.5-21.3-2.5-31.7c-4.6-23.3-22.2-31.4-42.8-28.9
	c-23.6,2.8-42.7,22.7-45.1,46.4c-1,9.3-1.5,18.7-1.6,28.1c-0.2,19.1-0.1,38.3-0.1,57.4v3.8h-19.3v-150h19.2v23.7
	c4.1-3.6,8.8-7.7,13.5-11.7c15.3-13,32.9-18.4,52.7-15.2c22.6,3.7,38.9,20.1,42.8,43.2c1.6,9.6,2.5,19.3,2.6,29
	c0.4,26.1,0.1,52.1,0.1,78.2C1269.2,226.4,1269.1,227.3,1269.1,228.4z"/>
<path class="st0" d="M847.2,188l15.3,10.1c-5.2,8.1-12,15-20.1,20.2c-16.5,10.9-34.8,14.6-54.3,13.9c-16.6-0.6-32-4.8-45.6-14.7
	c-25.6-18.7-36.9-44.1-31.9-75.4c5.2-32.3,24.3-54.1,55.6-63.8c27.2-8.5,53.5-4.8,77.7,10.8c7.8,5,13.8,12,18.6,20.3l-14,8.7
	c-4.2-3.6-8.2-6.9-12-10.3c-23.4-20.9-70.4-22.3-94.5,8.3c-27.3,34.6-8.7,86.9,34.6,96.3c27,5.9,50.2-1.1,68.6-22.3
	C845.8,189.4,846.4,188.8,847.2,188z"/>
<path class="st0" d="M547.4,78.4h19.5v3.7c0,26.4-0.1,52.8,0.2,79.2c-0.1,7.7,0.9,15.4,2.8,22.9c4.7,16.6,20.1,27.9,38,29.1
	c9.7,0.6,19.3-0.2,28-4.9c14.5-7.7,21.9-20.1,22.2-36.4c0.5-29.6,0.5-59.3,0.7-88.9c0-1.4,0-2.9,0-4.5h20v3
	c0,24.8,0.4,49.7-0.2,74.5c-0.2,11-1.5,22-3.9,32.8c-5.2,23-23.9,39.3-47.3,42.5c-12.2,1.7-24.3,1.7-36.2-1.7
	c-23-6.5-36.6-22.1-41-45.3c-1.7-9.2-2.7-18.6-2.8-28c-0.4-24.7-0.1-49.5-0.1-74.2L547.4,78.4z"/>
<path class="st0" d="M139.9,78.3h20.5l50.2,127.1c3.3-8.5,6.5-16.5,9.6-24.5c13-33.2,26-66.5,38.9-99.8c0.9-2.2,1.8-3.1,4.3-3
	c5.7,0.2,11.4,0.1,17.6,0.1c-0.4,1.1-0.5,2-0.9,2.9c-19.3,48.2-38.7,96.5-58.1,144.7c-0.7,1.8-1.5,2.6-3.6,2.6
	c-5.2-0.2-10.5,0.1-15.8-0.1c-1.3-0.1-2.5-0.9-3.1-2c-19.9-49-39.8-98-59.5-147C140,79,139.9,78.6,139.9,78.3z"/>
<path class="st0" d="M492.4,20.5h19.1v207.9h-19.1V20.5z"/>
<path class="st0" d="M915.6,228.4c-0.6,0.1-1.2,0.1-1.7,0.1h-17.3V78.5h19L915.6,228.4z"/>
<path class="st0" d="M906.3,16.4c8.8-0.5,16.4,6.3,16.9,15.1c0.5,8.8-6.3,16.4-15.1,16.9c-0.7,0-1.4,0-2.1,0
	c-8.8-0.7-15.4-8.4-14.7-17.2C891.9,23.2,898.3,16.9,906.3,16.4z"/>
<path class="st1" d="M1138.8,287.9V279h50v8.9h-20.3v82.3h-9.3v-82.3H1138.8z"/>
<path class="st1" d="M1266.4,347.8l7.3,3.8c-2.1,4.3-4.9,8.1-8.3,11.4c-3.1,2.9-6.7,5.1-10.6,6.6c-4.3,1.6-8.8,2.3-13.3,2.3
	c-11,0-19.6-3.6-25.8-10.8c-6-6.7-9.3-15.4-9.3-24.5c-0.1-8.3,2.7-16.4,7.9-22.9c6.7-8.5,15.6-12.8,26.8-12.8
	c11.5,0,20.7,4.4,27.6,13.1c4.9,6.2,7.4,13.8,7.4,23.1h-60.7c0.2,7.8,2.7,14.3,7.5,19.3c4.7,4.9,11.2,7.7,17.9,7.5
	c3.4,0,6.8-0.6,10-1.8c3-1.1,5.8-2.7,8.3-4.8C1262,354.6,1264.5,351.4,1266.4,347.8z M1266.4,329.6c-0.9-4-2.6-7.8-5.1-11.1
	c-2.4-2.9-5.4-5.2-8.8-6.7c-3.6-1.7-7.5-2.6-11.5-2.5c-6.3-0.1-12.4,2.2-17.1,6.4c-3.5,3.1-6.1,7.8-7.9,14L1266.4,329.6z"/>
<path class="st1" d="M1366.8,316.7l-6.9,4.3c-5.9-7.9-14.1-11.8-24.3-11.8c-8.2,0-15,2.6-20.5,7.9c-5.3,5-8.3,12-8.1,19.3
	c0,4.9,1.3,9.7,3.8,13.9c2.4,4.3,6,7.8,10.3,10.1c4.5,2.4,9.5,3.7,14.7,3.6c9.9,0,18-4,24.3-11.8l6.9,4.5c-3.2,4.9-7.7,8.8-13,11.3
	c-5.8,2.8-12.2,4.1-18.6,4c-10.7,0-19.5-3.4-26.5-10.2c-6.9-6.4-10.7-15.4-10.6-24.7c0-6.4,1.7-12.7,4.9-18.2
	c3.2-5.5,7.9-10.1,13.6-13.1c5.9-3.2,12.6-4.8,19.3-4.7c4.4,0,8.8,0.7,12.9,2c3.8,1.2,7.4,3,10.6,5.3
	C1362.4,310.6,1364.9,313.5,1366.8,316.7z"/>
<path class="st1" d="M1392.6,276.7h8.7v38.1c3.1-4.2,7-7.8,11.6-10.4c4.2-2.3,8.9-3.5,13.7-3.4c4.8-0.1,9.4,1.3,13.4,3.8
	c3.9,2.5,6.9,6.1,8.7,10.3c1.9,4.3,2.8,11.1,2.8,20.3v34.7h-8.7V338c0-7.8-0.3-13-0.9-15.6c-1.1-4.5-3-7.8-5.9-10.1
	c-2.8-2.3-6.5-3.4-11.1-3.4c-5.2,0-10.2,1.8-14.1,5.2c-4,3.3-6.9,7.8-8.2,12.9c-0.8,3.3-1.2,9.5-1.2,18.4v24.7h-8.7L1392.6,276.7z"
	/>
<path class="st2" d="M1769.5,239.9c-8.1,0.1-14.8-6.4-14.9-14.5c-0.1-8.1,6.3-14.8,14.4-15.1c8.4-0.1,15.2,6.6,15.3,14.9
	c0,0,0,0,0,0.1C1784.2,233.4,1777.6,239.9,1769.5,239.9z"/>
<path class="st3" d="M1722,253c0,8.1-6.6,14.7-14.7,14.7c-0.1,0-0.1,0-0.2,0c-7.9-0.1-14.1-6.6-14-14.5c0-0.1,0-0.1,0-0.2
	c0.3-8.1,7.1-14.5,15.2-14.4C1716.1,238.9,1722.2,245.3,1722,253z"/>
<path class="st4" d="M1664.5,273c-0.1,7.9-6.2,14.4-13.5,14.3s-13.4-6.9-13.2-14.7c0.2-7.6,6.3-14,13.2-14
	C1658.3,258.6,1664.6,265.2,1664.5,273z"/>
<path class="st3" d="M1690.3,199.1c0-8,6.9-14.5,15.2-14.3c7.2,0.1,13,5.8,13,12.7c0,7.5-6.9,14.2-14.8,14.4
	c-7.1,0.4-13.1-5-13.5-12.1C1690.4,199.5,1690.3,199.3,1690.3,199.1z"/>
<path class="st3" d="M1755.6,174.5c-8,0.1-14.2-5.4-14.4-12.6c-0.2-6.7,6.1-12.6,13.6-12.9c7.8-0.3,14.4,5.4,14.6,12.4
	C1769.6,168.8,1763.6,174.4,1755.6,174.5z"/>
<path class="st1" d="M1666,220.3c-0.1,8-6.6,14.5-14.3,14.4c-6.8-0.1-11.8-5.4-11.8-12.6c0-8.1,6.9-15.1,14.7-14.8
	C1661.4,207.5,1666.2,213,1666,220.3z"/>
<path class="st5" d="M1669.7,170.6c0,7.6-7.5,14.7-15.3,14.5c-5.7,0-10.3-4.5-10.3-10.2c0,0,0,0,0,0c0-7.5,7.7-14.6,15.4-14.5
	C1665.4,160.6,1669.7,164.8,1669.7,170.6z"/>
<path class="st1" d="M1623.8,246.3c0,8-5.8,14.6-12.6,14.5c-5.9-0.1-10.2-5.3-10.2-12.5c-0.1-7.9,5.8-14.8,12.4-14.5
	C1619.2,233.9,1623.8,239.4,1623.8,246.3z"/>
<path class="st5" d="M1699.3,159.9c-6.7,0-11.9-4.3-12.1-10c-0.2-6.8,7.1-13.1,15-13.1c6.7,0,11.9,4.4,12,10.1
	C1714.3,153.8,1707.4,159.9,1699.3,159.9z"/>
<path class="st5" d="M1627.3,196.4c0,7.8-6.2,14.9-13.2,15c-5.5,0.2-9.3-4-9.2-10.1c0.1-7.6,6.8-14.8,13.6-14.7
	C1623.9,186.7,1627.3,190.4,1627.3,196.4z"/>
<path class="st6" d="M1569.7,272.1c0.1-7.4,4.2-13.1,9.2-13s9,5.9,8.9,13c-0.1,1.5-0.3,3-0.7,4.4c-1.3,4.4-3.6,8.3-8.6,8.2
	c-5.4-0.1-7.4-4.5-8.5-9.1C1569.8,274.5,1569.7,273.3,1569.7,272.1z"/>
<path class="st6" d="M1658.3,141.7c-4-0.3-7.7-2.1-7.7-7.6c0-6.2,8.5-12.7,15.9-12.4c4.7,0.2,8,2.3,8.2,7.3
	C1675,135.3,1666.8,141.8,1658.3,141.7z"/>
<path class="st6" d="M1633.6,150.9c0.2,8.4-7.6,16.4-14.5,16.1c-4.7-0.1-7-2.9-6.9-7.5c0.2-6.5,7.4-13.8,13.9-14.1
	C1630.8,145.2,1633.4,147.5,1633.6,150.9z"/>
<path class="st6" d="M1590.5,223.5c-0.4,7.7-5.9,14.5-11.4,14.1c-4.4-0.3-7-4.6-6.6-10.7c0.5-7.3,5.8-14.1,11-14
	C1587.7,213,1590.8,217.7,1590.5,223.5z"/>
<path class="st6" d="M1702.1,119.6c-4.4-0.2-8.9-1.1-10-6.2s2.8-7.9,6.9-9.7c5.4-2.3,10.9-2.9,15.8,1.2c2.2,1.7,2.7,4.7,1.4,7.1
	C1713.4,117.7,1708.2,119.5,1702.1,119.6z"/>
<path class="st6" d="M1745,87.9c6.8,0.1,12,3.3,12,7.3s-5.4,7.3-12.1,7.2s-11.9-3.4-12-7.5S1738.1,87.8,1745,87.9z"/>
<path class="st6" d="M1579.2,185.9c0.8-5.5,3.4-10.5,9-13.5c4.5-2.5,8.2-0.4,8.8,4.6c0.6,5.5-4.2,13.6-9.4,15.7
	C1582.7,194.6,1579.1,191.9,1579.2,185.9z"/>
<path class="st0" d="M1625.6,129.9c-2.9-0.2-4.9-2.3-3-6.3c2.8-5.8,7.7-9.2,13.9-10.4c4.7-0.9,6.8,2.2,5,6.6
	C1639.5,125,1632.2,130.1,1625.6,129.9z"/>
<path class="st0" d="M1549,253c-0.1-5.1,0.8-8.4,2.7-11.3c1.2-1.9,2.7-3.5,5.2-3.1s3.5,2.5,4,4.6c1.2,4.6,0.7,9.5-1.3,13.8
	c-1.2,2.4-2.8,4.9-5.7,4.6c-3.2-0.4-4.2-3.3-4.7-6.2C1549.1,254.6,1549,253.8,1549,253z"/>
<path class="st0" d="M1548.1,291.5c0.2-1.3,0.3-2.3,0.5-3.4c0.6-2.8,1.3-6,4.6-6.4c3.7-0.5,5.1,2.8,6.2,5.6c1.8,4.2,1.9,9,0.4,13.3
	c-0.8,2.1-1.8,4-4.3,4.3s-3.9-1.7-4.9-3.6C1548.8,298.2,1548.3,294.8,1548.1,291.5z"/>
<path class="st0" d="M1666.2,107.8c-3.1,0-5.6-0.1-6.7-2.6c-1.2-2.8,0.5-5,2.6-6.6c4.1-3.3,8.8-5.4,14.2-4.9
	c4.8,0.5,6.3,3.8,3.3,7.5C1676,105.6,1671.1,107.4,1666.2,107.8z"/>
<path class="st0" d="M1554.2,212.7c0.4-4.8,2.3-9.4,5.5-13c1.1-1.3,2.6-2.6,4.4-2.1c2.1,0.6,2.8,2.6,2.9,4.6c0.2,4.7-1.2,9.4-4,13.2
	c-1.5,2.1-3.3,4.5-6.2,3.6C1553.7,218.1,1554.4,214.9,1554.2,212.7z"/>
<path class="st0" d="M1606.5,141.4c-0.6,5-7,12.1-12,13.4c-3.8,1-5.3-0.7-4.9-4.4c0.5-4.6,7.5-12.2,12.1-13.4
	C1605.6,136.1,1606.8,137.9,1606.5,141.4z"/>
<path class="st0" d="M1712,79.1c2.6,0.2,6.9-0.4,7.5,3.5c0.6,3.7-3.3,5-6.3,6.2c-3.8,1.4-8,1.7-12,0.7c-1.8-0.2-3.2-1.5-3.7-3.2
	c-0.5-1.9,1-3.2,2.4-4.1C1703.5,80,1707.7,78.9,1712,79.1z"/>
<circle class="st4" cx="1650.8" cy="337.6" r="12.6"/>
<ellipse class="st4" cx="1611.7" cy="297.8" rx="11.1" ry="13.4"/>
<ellipse transform="matrix(0.9568 -0.2907 0.2907 0.9568 -24.5188 473.0525)" class="st6" cx="1579.9" cy="319" rx="8.6" ry="12.8"/>
<ellipse transform="matrix(0.9568 -0.2907 0.2907 0.9568 -30.0326 467.5683)" class="st0" cx="1558.7" cy="334.9" rx="5.3" ry="11.2"/>
<ellipse transform="matrix(0.9219 -0.3875 0.3875 0.9219 -16.5969 642.493)" class="st6" cx="1584.9" cy="362.4" rx="7.3" ry="12"/>
</svg>
