<svg id="Layer_1" data-name="Layer 1" xmlns="http://www.w3.org/2000/svg" viewBox="0 0 2211.96 792.23"><defs><style>.cls-1{fill:#bbb;}</style></defs><path class="cls-1" d="M216.52,252.75q21.15.06,42.3.1,34.92,0,69.84,0h3.9v20H237v63.44h94.8V356.5H237V436h94.86v20.18H220.55c-1.35,0-2.69.07-4,.1Z"/><path class="cls-1" d="M1648.9,332.72V306H1668V455.87h-18.93V431.14c-3.28,3.19-6,6.05-8.94,8.7-22.27,20-48.26,25.52-76.08,15.9-28.32-9.78-45.66-30.74-51-60.46-7.6-42.33,16.16-73.58,44.42-86.61,27.5-12.7,65.36-9.55,89,21.12C1647.1,330.54,1647.72,331.26,1648.9,332.72Zm1.24,49c1-32.95-25.19-60.91-58.34-61-37.06-.16-60.27,30.37-60.27,60.16,0,33.48,26.76,61.29,59.21,61.16C1621.22,441.84,1650.62,419.06,1650.14,381.71Z"/><path class="cls-1" d="M670.66,381.32c1.18,36.74-28.53,78.56-77.74,78.8-50.16.25-78.44-41.63-79.15-77.33-.81-41.13,32.12-81.79,79.72-81.05C636.66,302.41,670.64,336.85,670.66,381.32Zm-78-60.37c-30.42-.57-58.86,25.52-59,60.15-.1,31.69,22.45,59.48,57.65,60.34,32.74.8,59-25.09,59.69-58.66S625.7,321.65,592.64,321Z"/><path class="cls-1" d="M1235.33,460c-47.19-.75-78-42.33-75.6-83.61,2.13-37.23,33.08-76.79,82.66-74.52,43.59,2,75.43,39.58,74.3,81.89C1315.69,421.3,1285.56,462.11,1235.33,460Zm2.77-139c-32.54,0-58.51,27.21-58.5,61.21,0,33.28,25.77,59.34,58.62,59.29,33.4,0,58.56-26.15,58.53-60.75C1296.73,348.15,1270,320.91,1238.1,321Z"/><path class="cls-1" d="M1480.19,456h-19.33V452.4c0-23.84.24-47.68-.11-71.52-.16-10.57-.5-21.33-2.54-31.66-4.59-23.26-22.19-31.39-42.78-28.94-23.57,2.8-42.68,22.71-45.12,46.37-1,9.32-1.46,18.73-1.58,28.1-.23,19.14-.07,38.28-.07,57.42V456h-19.28v-150h19.25v23.68c4.13-3.59,8.79-7.7,13.51-11.73,15.26-13,32.91-18.38,52.68-15.16,22.6,3.68,38.86,20.14,42.76,43.2a189.27,189.27,0,0,1,2.64,29c.36,26.07.12,52.15.12,78.23C1480.34,454,1480.25,454.9,1480.19,456Z"/><path class="cls-1" d="M1058.28,415.62l15.28,10.08a67.61,67.61,0,0,1-20.08,20.23c-16.48,10.89-34.85,14.6-54.28,13.94-16.56-.57-32.05-4.84-45.56-14.71-25.6-18.71-36.92-44.08-31.93-75.36C926.88,337.45,946,315.7,977.3,306c27.24-8.45,53.51-4.82,77.69,10.81,7.81,5.05,13.75,12,18.6,20.26l-14,8.7c-4.24-3.65-8.16-6.93-12-10.33-23.39-20.88-70.4-22.29-94.5,8.28-27.26,34.6-8.71,86.88,34.62,96.3,27,5.87,50.21-1.07,68.56-22.33C1056.9,417,1057.53,416.42,1058.28,415.62Z"/><path class="cls-1" d="M758.47,305.93H778v3.7c0,26.4-.12,52.81.24,79.22A89.88,89.88,0,0,0,781,411.71c4.65,16.64,20.06,27.94,38,29.07,9.73.61,19.28-.19,28-4.86,14.53-7.73,21.94-20.13,22.2-36.42.47-29.64.52-59.28.74-88.93,0-1.44,0-2.88,0-4.55h20v3c0,24.84.39,49.69-.17,74.52a167.86,167.86,0,0,1-3.88,32.84c-5.18,23.05-23.89,39.29-47.29,42.51-12.19,1.68-24.35,1.71-36.25-1.67-23-6.55-36.57-22.06-41-45.26a161,161,0,0,1-2.75-28c-.37-24.73-.13-49.46-.13-74.19Z"/><path class="cls-1" d="M351,305.87h20.52L421.76,433c3.34-8.51,6.49-16.48,9.61-24.46q19.49-49.87,38.91-99.78c.85-2.18,1.84-3.09,4.3-3,5.69.22,11.4.07,17.57.07-.35,1.12-.55,2-.89,2.86q-29,72.36-58.05,144.74c-.71,1.79-1.51,2.65-3.6,2.58-5.25-.17-10.52.06-15.77-.15a4.23,4.23,0,0,1-3.15-2q-29.88-73.47-59.54-147A4.9,4.9,0,0,1,351,305.87Z"/><path class="cls-1" d="M703.55,248.06h19.11V455.93H703.55Z"/><path class="cls-1" d="M1126.75,456c-.64.06-1.17.15-1.71.15h-17.31V306.07h19Z"/><path class="cls-1" d="M1117.43,244a16,16,0,1,1-.33,31.93,16,16,0,0,1,.33-31.93Z"/><path class="cls-1" d="M1349.9,515.48v-8.93h50v8.93h-20.34v82.29h-9.3V515.48Z"/><path class="cls-1" d="M1477.55,575.39l7.31,3.84a40,40,0,0,1-8.31,11.41,33,33,0,0,1-10.62,6.6,37,37,0,0,1-13.34,2.27q-16.52,0-25.82-10.82a36.51,36.51,0,0,1-9.31-24.47,36.05,36.05,0,0,1,7.88-22.88q10-12.76,26.75-12.77,17.25,0,27.56,13.08,7.32,9.24,7.45,23.07h-60.71q.24,11.76,7.51,19.27a24,24,0,0,0,17.94,7.52,28.94,28.94,0,0,0,10-1.79,26.46,26.46,0,0,0,8.29-4.76A40.85,40.85,0,0,0,1477.55,575.39Zm0-18.17a28.88,28.88,0,0,0-5.06-11.1,24,24,0,0,0-8.79-6.7,26.81,26.81,0,0,0-11.48-2.54,24.77,24.77,0,0,0-17.08,6.38q-5.22,4.65-7.88,14Z"/><path class="cls-1" d="M1577.91,544.32,1571,548.6q-8.92-11.85-24.35-11.85-12.32,0-20.47,7.93a25.88,25.88,0,0,0-8.14,19.26,27.35,27.35,0,0,0,3.75,13.88,26.2,26.2,0,0,0,10.28,10.1,29.93,29.93,0,0,0,14.65,3.59q14.87,0,24.28-11.85l6.88,4.53a32.5,32.5,0,0,1-13,11.3,41.48,41.48,0,0,1-18.57,4q-16,0-26.54-10.17a33.09,33.09,0,0,1-10.55-24.74,35.44,35.44,0,0,1,4.93-18.21,34.78,34.78,0,0,1,13.55-13.11,39.58,39.58,0,0,1,19.29-4.71,41.35,41.35,0,0,1,12.93,2,36.12,36.12,0,0,1,10.57,5.34A29.11,29.11,0,0,1,1577.91,544.32Z"/><path class="cls-1" d="M1603.74,504.26h8.68v38.13A37,37,0,0,1,1624,532a28.18,28.18,0,0,1,13.71-3.44,23.92,23.92,0,0,1,13.42,3.84,22.9,22.9,0,0,1,8.65,10.33q2.81,6.48,2.79,20.31v34.72h-8.68V565.59q0-11.65-.93-15.57-1.6-6.69-5.86-10.07T1636,536.57a21.39,21.39,0,0,0-14.11,5.21,24.4,24.4,0,0,0-8.21,12.89q-1.25,5-1.24,18.36v24.74h-8.68Z"/><path class="cls-1" d="M1980.61,467.52A14.77,14.77,0,0,1,1965.69,453a15,15,0,0,1,14.42-15.13,15.14,15.14,0,0,1,15.33,15A14.89,14.89,0,0,1,1980.61,467.52Z"/><path class="cls-1" d="M1933.1,480.58a14.7,14.7,0,0,1-14.83,14.73,14.25,14.25,0,0,1-14-14.65,15,15,0,0,1,15.24-14.4A14,14,0,0,1,1933.1,480.58Z"/><path class="cls-1" d="M1875.58,500.61c-.09,7.94-6.17,14.38-13.54,14.33s-13.44-6.89-13.18-14.67c.25-7.59,6.28-14,13.25-14C1869.45,486.17,1875.66,492.79,1875.58,500.61Z"/><path class="cls-1" d="M1901.45,426.69c0-8,6.86-14.48,15.23-14.33,7.19.12,13,5.77,13,12.66,0,7.5-6.9,14.24-14.75,14.41A12.8,12.8,0,0,1,1901.45,426.69Z"/><path class="cls-1" d="M1966.66,402.11c-8,.11-14.22-5.37-14.43-12.62-.19-6.69,6.07-12.64,13.56-12.88,7.79-.26,14.4,5.36,14.64,12.43C1980.69,396.37,1974.75,402,1966.66,402.11Z"/><path class="cls-1" d="M1877.14,447.84c-.13,8-6.56,14.49-14.28,14.4-6.82-.08-11.82-5.41-11.84-12.61,0-8.11,6.92-15.09,14.7-14.79C1872.49,435.11,1877.26,440.53,1877.14,447.84Z"/><path class="cls-1" d="M1880.79,398.21c0,7.56-7.54,14.72-15.27,14.54a10.27,10.27,0,0,1-10.32-10.22c0-7.48,7.65-14.64,15.38-14.49C1876.55,388.15,1880.8,392.38,1880.79,398.21Z"/><path class="cls-1" d="M1834.86,473.92c0,8-5.78,14.62-12.56,14.48-5.94-.12-10.19-5.31-10.24-12.53-.06-7.94,5.77-14.76,12.45-14.55C1830.34,461.49,1834.87,467,1834.86,473.92Z"/><path class="cls-1" d="M1910.44,387.45c-6.73,0-11.94-4.32-12.08-10-.15-6.78,7.05-13.09,15-13.09,6.67,0,11.86,4.37,12,10.08C1925.45,381.42,1918.54,387.46,1910.44,387.45Z"/><path class="cls-1" d="M1838.41,424c0,7.78-6.15,14.86-13.15,15.05-5.54.16-9.28-4-9.19-10.14.12-7.61,6.76-14.81,13.58-14.74C1835,414.23,1838.38,418,1838.41,424Z"/><path class="cls-1" d="M1780.78,499.72c.09-7.4,4.22-13.07,9.23-13s9,5.91,8.89,13a17.39,17.39,0,0,1-.73,4.41c-1.29,4.37-3.61,8.31-8.6,8.21-5.37-.1-7.36-4.48-8.5-9.08A20,20,0,0,1,1780.78,499.72Z"/><path class="cls-1" d="M1869.39,369.26c-4-.26-7.67-2.08-7.65-7.56,0-6.23,8.54-12.7,15.93-12.38,4.68.21,8,2.28,8.18,7.3C1886.08,362.92,1877.9,369.41,1869.39,369.26Z"/><path class="cls-1" d="M1844.71,378.47c.17,8.35-7.59,16.35-14.49,16.15-4.74-.14-7-2.85-6.89-7.53.2-6.46,7.42-13.83,13.91-14.11C1841.89,372.79,1844.52,375.06,1844.71,378.47Z"/><path class="cls-1" d="M1801.64,451.06c-.39,7.68-5.89,14.49-11.4,14.11-4.36-.3-7-4.58-6.61-10.74.46-7.31,5.8-14.09,11-13.95C1798.84,440.59,1801.94,445.25,1801.64,451.06Z"/><path class="cls-1" d="M1913.23,347.2c-4.42-.16-8.92-1.1-10-6.17s2.77-7.9,6.86-9.67c5.38-2.32,10.88-2.86,15.85,1.18a5.47,5.47,0,0,1,1.38,7.06C1924.49,345.25,1919.33,347.05,1913.23,347.2Z"/><path class="cls-1" d="M1956.12,315.49c6.82.09,12,3.29,12,7.34s-5.36,7.27-12.08,7.17-11.91-3.38-12-7.47S1949.19,315.39,1956.12,315.49Z"/><path class="cls-1" d="M1790.3,413.51c.81-5.55,3.45-10.55,9-13.55,4.48-2.45,8.2-.4,8.77,4.58.63,5.51-4.23,13.61-9.44,15.72C1793.8,422.21,1790.2,419.5,1790.3,413.51Z"/><path class="cls-1" d="M1836.71,357.51c-2.93-.2-4.86-2.26-3-6.27,2.75-5.81,7.69-9.22,13.91-10.36,4.71-.86,6.83,2.16,5,6.61C1850.64,352.6,1843.26,357.63,1836.71,357.51Z"/><path class="cls-1" d="M1760.13,480.58c-.08-5.07.81-8.36,2.68-11.34,1.17-1.88,2.66-3.55,5.16-3.12s3.49,2.45,4,4.58a20.26,20.26,0,0,1-1.34,13.85c-1.16,2.37-2.83,4.88-5.69,4.57-3.23-.35-4.2-3.32-4.65-6.21A11.34,11.34,0,0,1,1760.13,480.58Z"/><path class="cls-1" d="M1759.2,519.07c.19-1.26.28-2.33.52-3.38.62-2.79,1.35-6,4.59-6.37,3.68-.48,5.11,2.76,6.18,5.57a18.36,18.36,0,0,1,.41,13.29c-.79,2.11-1.85,4-4.34,4.26s-3.86-1.69-4.93-3.58C1759.89,525.79,1759.44,522.36,1759.2,519.07Z"/><path class="cls-1" d="M1877.27,335.35c-3.08,0-5.63-.14-6.71-2.65-1.22-2.82.53-5,2.57-6.65,4.1-3.34,8.75-5.44,14.15-4.93,4.79.45,6.28,3.76,3.33,7.54C1887.12,333.14,1882.17,335,1877.27,335.35Z"/><path class="cls-1" d="M1765.28,440.29a22.26,22.26,0,0,1,5.51-13c1.14-1.3,2.59-2.61,4.41-2.08,2.09.6,2.82,2.6,2.92,4.58a20.61,20.61,0,0,1-4,13.24c-1.49,2.09-3.32,4.52-6.22,3.61C1764.76,445.64,1765.49,442.49,1765.28,440.29Z"/><path class="cls-1" d="M1817.56,369c-.55,5-7,12.12-12,13.37-3.82.95-5.33-.7-4.92-4.35.51-4.63,7.49-12.16,12.13-13.38C1816.73,363.64,1817.91,365.47,1817.56,369Z"/><path class="cls-1" d="M1923.11,306.65c2.64.23,6.86-.36,7.49,3.55.61,3.74-3.3,5.05-6.3,6.22a20.4,20.4,0,0,1-12,.73,4.49,4.49,0,0,1-3.72-3.18c-.46-1.92,1-3.18,2.45-4.12A20.8,20.8,0,0,1,1923.11,306.65Z"/><circle class="cls-1" cx="1861.93" cy="565.22" r="12.62"/><ellipse class="cls-1" cx="1822.83" cy="525.36" rx="11.08" ry="13.39"/><ellipse class="cls-1" cx="1790.98" cy="546.66" rx="8.55" ry="12.81" transform="translate(-81.57 544.21) rotate(-16.9)"/><ellipse class="cls-1" cx="1769.76" cy="562.48" rx="5.26" ry="11.19" transform="translate(-87.08 538.72) rotate(-16.9)"/><ellipse class="cls-1" cx="1796" cy="589.84" rx="7.29" ry="11.95" transform="translate(-88.23 742.2) rotate(-22.8)"/></svg>