<?xml version="1.0" encoding="utf-8"?>
<!-- Generator: Adobe Illustrator 23.0.2, SVG Export Plug-In . SVG Version: 6.00 Build 0)  -->
<svg version="1.1" id="Layer_1" xmlns="http://www.w3.org/2000/svg" xmlns:xlink="http://www.w3.org/1999/xlink" x="0px" y="0px"
	 viewBox="0 0 2217 792.2" style="enable-background:new 0 0 2217 792.2;" xml:space="preserve">
<style type="text/css">
	.st0{fill:#BBBBBB;}
	.st1{fill:#005AA9;}
	.st2{display:none;}
</style>
<g>
	<g>
		<path class="st0" d="M1134,569.9h34.9c-1.6,5.8-4.2,10.8-7.6,14.7c-3.6,4.3-8.3,7.7-14.1,10.3c-5.8,2.6-11.9,3.9-18.3,3.9
			c-10.5,0-19.6-3.6-27-10.9c-7.4-7.2-11.1-16.1-11.1-26.4c0-7.6,2-14.8,5.9-21.4c3.9-6.6,9.4-12,16.3-16.1c6.9-4,14.1-6,21.6-6
			c6.7,0,13.3,1.6,19.6,5c6.3,3.3,11.9,8.1,16.7,14.2l0.6,0.8l9.3-6.8l-0.6-0.8c-12-15.6-27.3-23.4-45.2-23.4
			c-9.9,0-19.3,2.5-27.9,7.4c-8.6,4.9-15.4,11.7-20.4,20.1c-4.9,8.4-7.4,17.7-7.4,27.4c0,13.7,4.8,25.2,14.1,34.3
			c9.4,9.1,21.6,13.7,36.5,13.7c14.5,0,26.9-4.7,36.6-14c9.8-9.3,15.2-21.5,16.2-36.4l0.1-1.1h-48.8L1134,569.9L1134,569.9z"/>
		<polygon class="st0" points="1211.7,607.5 1222.6,607.5 1236.2,507.1 1225.3,507.1 		"/>
		<path class="st0" d="M1320.3,537.2c-5.2-3-10.9-4.5-17.1-4.5c-7.5,0-14.5,1.9-20.9,5.5c-6.4,3.7-11.6,8.9-15.2,15.4
			c-3.7,6.5-5.5,13.8-5.5,21.4c0,9.8,3.3,18.2,9.6,24.6c6.3,6.4,14.4,9.7,24.3,9.7c7.8,0,15-1.8,21.2-5.4
			c6.2-3.5,11.3-8.7,14.9-15.2c3.7-6.5,5.5-13.7,5.5-21.2c0-6.7-1.4-12.7-4.4-18C1329.6,544.3,1325.6,540.1,1320.3,537.2z
			 M1311.3,595c-4.5,2.6-9.6,3.9-15,3.9c-7.1,0-12.8-2.3-17.2-6.8c-4.4-4.5-6.7-10.4-6.7-17.6c0-5.7,1.3-11.1,3.9-15.9
			s6.3-8.6,11.2-11.3c4.8-2.8,10-4.1,15.5-4.1c4.3,0,8.2,1.1,11.9,3.1c3.5,2,6.4,4.9,8.3,8.5c2,3.6,3,7.9,3,12.6
			c0,5.7-1.3,11.1-4,16.1l0,0C1319.5,588.6,1315.8,592.4,1311.3,595z"/>
		<path class="st0" d="M1416.1,532.7c-9.9,0-18.9,3.7-27,11l4.9-36.6h-11.2l-13.6,100.5h11.4l1.4-11.9c3,4.3,6.5,7.6,10.4,9.8
			c4.6,2.6,10,3.9,16.1,3.9c11.2,0,20.9-4.2,29.2-12.4c8.2-8.3,12.3-18.4,12.3-29.8c0-10-3.3-18.4-9.6-24.8
			C1434.3,535.9,1426.1,532.7,1416.1,532.7z M1399.5,547c4.7-2.7,9.9-4,15.6-4c7.2,0,13.1,2.2,17.5,6.7c4.4,4.4,6.7,10.3,6.7,17.6
			c0,8.9-3.1,16.5-9.1,22.6c-6,6.1-13.3,9.2-21.8,9.2c-7.1,0-13-2.2-17.4-6.7c-4.5-4.4-6.7-10.2-6.7-17.3c0-5.9,1.4-11.5,4.1-16.4
			C1391.1,553.5,1394.8,549.7,1399.5,547z"/>
		<path class="st0" d="M1548.7,546.2c-2.9-4.2-6.3-7.5-10.2-9.7c-4.6-2.6-10-3.8-16.1-3.8c-11.2,0-21,4.2-29.3,12.4
			c-8.2,8.3-12.4,18.4-12.4,29.8c0,10,3.3,18.4,9.6,24.8c6.4,6.4,14.6,9.7,24.5,9.7c9.9,0,19-3.6,26.9-10.9l-1.1,9.1h11.2l9.8-73
			h-11.4L1548.7,546.2z M1542.5,583.5c-2.7,5-6.5,8.9-11.1,11.6c-4.7,2.7-9.8,4-15.6,4c-7.2,0-13-2.2-17.4-6.7
			c-4.4-4.4-6.7-10.3-6.7-17.6c0-8.9,3.1-16.5,9.1-22.6c6-6.1,13.3-9.2,21.7-9.2c7.2,0,13,2.2,17.4,6.6c4.4,4.4,6.7,10.2,6.7,17.3
			C1546.6,572.9,1545.3,578.5,1542.5,583.5z"/>
		<polygon class="st0" points="1602.8,507.1 1589.1,607.5 1600,607.5 1613.6,507.1 		"/>
	</g>
	<g>
		<path class="st0" d="M217.5,239.7h111.2v19h-91.8v60.8h91v19h-91v76.2h91v19H217.5V239.7z"/>
		<g>
			<g>
				<polygon class="st0" points="413.8,412.2 413.8,412.2 413.7,412.1 413.7,412.1 				"/>
				<polygon class="st0" points="345.9,290.2 365.6,290.2 413.7,412.1 413.7,412.1 413.8,412.2 413.8,412.2 413.7,412.1 
					461.4,290.2 481.1,290.2 423.6,433.5 423.6,433.5 404,433.5 403.9,433.5 				"/>
			</g>
			<g>
				<polygon class="st1" points="413.8,412.2 413.8,412.2 413.7,412.1 413.7,412.1 				"/>
				<polygon class="st0" points="345.9,290.2 365.6,290.2 413.7,412.1 413.7,412.1 413.8,412.2 413.8,412.2 413.7,412.1 
					461.4,290.2 481.1,290.2 423.6,433.5 423.6,433.5 404,433.5 403.9,433.5 				"/>
			</g>
		</g>
		<path class="st0" d="M576.8,286.5c22.1,0,40.4,8,55,24c13.2,14.6,19.8,31.9,19.8,51.8c0,20-7,37.6-20.9,52.6
			c-14,15-31.9,22.5-53.8,22.5c-22,0-40-7.5-54-22.5c-14-15-20.9-32.5-20.9-52.6c0-19.9,6.6-37.1,19.8-51.7
			C536.3,294.5,554.6,286.5,576.8,286.5z M576.8,304.6c-15.4,0-28.5,5.7-39.6,17c-11,11.3-16.5,25.1-16.5,41.2c0,10.4,2.5,20,7.5,29
			c5,9,11.8,15.9,20.4,20.8c8.6,4.9,18,7.3,28.2,7.3c10.2,0,19.6-2.4,28.2-7.3c8.6-4.9,15.4-11.8,20.4-20.8c5-9,7.5-18.6,7.5-29
			c0-16.1-5.5-29.8-16.6-41.2S592,304.6,576.8,304.6z"/>
		<path class="st0" d="M683,234.8h18.5v198.9H683V234.8z"/>
		<path class="st0" d="M737.5,290.2H756v67c0,16.4,0.9,27.6,2.6,33.8c2.6,8.8,7.7,15.7,15.1,20.8c7.4,5.1,16.3,7.7,26.6,7.7
			c10.3,0,19-2.5,26.2-7.5c7.2-5,12.1-11.5,14.9-19.6c1.8-5.5,2.8-17.3,2.8-35.2v-67h18.9v70.4c0,19.8-2.3,34.7-6.9,44.7
			c-4.6,10-11.6,17.9-20.8,23.5c-9.3,5.7-20.9,8.5-34.9,8.5c-14,0-25.7-2.8-35-8.5c-9.4-5.7-16.4-13.6-21-23.7
			c-4.6-10.2-6.9-25.4-6.9-45.8V290.2z"/>
		<path class="st0" d="M1043.4,320l-14.6,9.1c-12.6-16.8-29.9-25.2-51.8-25.2c-17.5,0-32,5.6-43.5,16.9
			c-11.5,11.2-17.3,24.9-17.3,41c0,10.5,2.7,20.3,8,29.5c5.3,9.2,12.6,16.4,21.9,21.5c9.3,5.1,19.7,7.6,31.2,7.6
			c21.1,0,38.3-8.4,51.6-25.2l14.6,9.6c-6.9,10.3-16.1,18.3-27.6,24c-11.6,5.7-24.7,8.5-39.5,8.5c-22.7,0-41.5-7.2-56.4-21.6
			c-15-14.4-22.4-32-22.4-52.6c0-13.9,3.5-26.8,10.5-38.7c7-11.9,16.6-21.2,28.8-27.9c12.2-6.7,25.9-10,41-10
			c9.5,0,18.7,1.4,27.5,4.4c8.8,2.9,16.3,6.7,22.5,11.3C1033.8,306.9,1039,312.8,1043.4,320z"/>
		<path class="st0" d="M1085.2,231.1c4.2,0,7.8,1.5,10.8,4.5c3,3,4.5,6.6,4.5,10.8c0,4.1-1.5,7.7-4.5,10.7c-3,3-6.6,4.5-10.8,4.5
			c-4.1,0-7.7-1.5-10.6-4.5c-3-3-4.5-6.6-4.5-10.7c0-4.2,1.5-7.8,4.5-10.8C1077.6,232.6,1081.1,231.1,1085.2,231.1z M1076.1,290.2
			h18.5v143.5h-18.5V290.2z"/>
		<path class="st0" d="M1200.8,286.5c22.1,0,40.4,8,55,24c13.2,14.6,19.8,31.9,19.8,51.8c0,20-7,37.6-20.9,52.6
			c-14,15-31.9,22.5-53.8,22.5c-22,0-40-7.5-54-22.5c-14-15-20.9-32.5-20.9-52.6c0-19.9,6.6-37.1,19.8-51.7
			C1160.3,294.5,1178.7,286.5,1200.8,286.5z M1200.8,304.6c-15.4,0-28.5,5.7-39.6,17c-11,11.3-16.5,25.1-16.5,41.2
			c0,10.4,2.5,20,7.5,29c5,9,11.8,15.9,20.4,20.8c8.6,4.9,18,7.3,28.2,7.3c10.2,0,19.6-2.4,28.2-7.3c8.6-4.9,15.4-11.8,20.4-20.8
			c5-9,7.5-18.6,7.5-29c0-16.1-5.5-29.8-16.6-41.2C1229.2,310.2,1216.1,304.6,1200.8,304.6z"/>
		<path class="st0" d="M1309.8,290.2h18.5v25.7c7.4-9.8,15.6-17.2,24.5-22.1c9-4.9,18.7-7.3,29.3-7.3c10.7,0,20.2,2.7,28.6,8.2
			c8.3,5.5,14.4,12.8,18.4,22c4,9.2,5.9,23.6,5.9,43.1v73.9h-18.5v-68.5c0-16.5-0.7-27.6-2.1-33.1c-2.1-9.5-6.2-16.6-12.3-21.4
			c-6.1-4.8-14-7.2-23.7-7.2c-11.2,0-21.2,3.7-30,11.1c-8.8,7.4-14.7,16.5-17.5,27.4c-1.8,7.1-2.6,20.1-2.6,39v52.6h-18.5V290.2z"/>
		<path class="st0" d="M1617.5,290.2v143.5h-18.2V409c-7.7,9.4-16.4,16.5-26.1,21.2c-9.6,4.7-20.2,7.1-31.6,7.1
			c-20.3,0-37.7-7.4-52-22.1c-14.4-14.7-21.6-32.6-21.6-53.8c0-20.7,7.3-38.3,21.8-53c14.5-14.7,32-22,52.4-22
			c11.8,0,22.4,2.5,32,7.5c9.5,5,17.9,12.5,25.1,22.6v-26.4H1617.5z M1543.7,304.3c-10.3,0-19.8,2.5-28.5,7.6
			c-8.7,5.1-15.6,12.1-20.8,21.3c-5.1,9.1-7.7,18.8-7.7,29c0,10.1,2.6,19.8,7.8,29c5.2,9.2,12.1,16.4,20.9,21.5
			c8.7,5.1,18.1,7.7,28.1,7.7c10.1,0,19.7-2.5,28.7-7.6c9-5.1,16-12,20.9-20.7c4.9-8.7,7.3-18.5,7.3-29.4c0-16.6-5.5-30.5-16.4-41.6
			C1573.2,309.9,1559.7,304.3,1543.7,304.3z"/>
	</g>
	<g>
		<g>
			<path class="st0" d="M1936.7,449.9c-0.4,23.7-35.8,24.2-35.8,0.1C1901.7,427.2,1936.8,426.2,1936.7,449.9z"/>
			<path class="st0" d="M1978.5,371.3c-22.8,0.1-23.9-30.2-1.1-31.5C2000.2,339.1,2001.9,371.1,1978.5,371.3z"/>
		</g>
		<g>
			<path class="st0" d="M1879.7,482.8c-0.7,23.6-33.1,23-33.1-0.4C1848,459.3,1879.4,459.7,1879.7,482.8z"/>
			<path class="st0" d="M1903.9,386.9c-0.5-21.2,34.2-24.5,34.9-2.1C1938.5,405.8,1904.7,409.8,1903.9,386.9z"/>
			<path class="st0" d="M1881.8,417.4c0.2,20.8-31.9,25-32.3,2.2C1849.1,398.5,1881.8,393.8,1881.8,417.4z"/>
		</g>
		<g>
			<path class="st0" d="M1976.5,502.8c-23.9-0.1-24.4-35.7-0.6-36.7C2000.3,466.1,2001.1,502.1,1976.5,502.8z"/>
			<path class="st0" d="M1878.5,547.1c-0.4,20.6-30.9,20.6-31.3,0C1847.6,526.6,1878.1,526.6,1878.5,547.1z"/>
		</g>
		<g>
			<path class="st0" d="M1886.2,356c0.6,17.7-30.2,26.7-31.6,5.4C1854,344.1,1885,334.4,1886.2,356z"/>
			<path class="st0" d="M1829.4,449.7c0.3,20.7-27.9,25.3-28.2,2.4C1800.8,431,1828.8,427,1829.4,449.7z"/>
			<path class="st0" d="M1923,342.6c-23-0.8-16.6-28.8,3.5-28.6C1949.2,314.9,1943.3,343.2,1923,342.6z"/>
			<path class="st0" d="M1833.8,387.9c1.1,17.7-26.9,28.1-27.6,6.1C1805.6,376.9,1832.8,366.3,1833.8,387.9z"/>
			<path class="st0" d="M1828.2,513.4c-0.1,21.7-27.3,21.7-27.4,0C1800.9,491.7,1828.1,491.7,1828.2,513.4z"/>
		</g>
		<g>
			<path class="st0" d="M1831.7,305.6c-13.5-2.8,5.4-21.1,13.6-20.6C1862.5,284.3,1844.8,307.3,1831.7,305.6z"/>
			<path class="st0" d="M1736.8,457.9c-1.6-10.1,9.1-27.2,14.6-12.2C1756.6,462.7,1738.8,480.9,1736.8,457.9z"/>
			<path class="st0" d="M1735.7,505.6c0-11.1,9.1-18.4,14-5.2c2.5,6.6,3.6,19.3-4.9,21.7C1737.3,521.7,1736.4,511.3,1735.7,505.6z"
				/>
			<path class="st0" d="M1881.9,278.2c-8.6,1.2-11.9-6.8-5.2-11.5c5.1-6.5,30-10.9,21.6,3.3C1894.1,275.4,1888,277.7,1881.9,278.2z"
				/>
			<path class="st0" d="M1743.2,408.1c0.9-6.8,4.6-18.6,12.2-18.7c7.6,4.3,2.4,16.4-1.4,22.1
				C1749.5,419.1,1742.2,416.9,1743.2,408.1z"/>
			<path class="st0" d="M1808,319.9c0.7,7.3-20.9,26.8-20.9,11.2C1786.6,324.2,1808.1,304.1,1808,319.9z"/>
			<path class="st0" d="M1938.6,242.6c3.3,0.3,8.5-0.5,9.3,4.4c1,9.3-24.5,13.2-27.2,4.7C1920.8,244.5,1932.3,242.7,1938.6,242.6z"
				/>
			<path class="st0" d="M1755,557.4c5.3,17.4-7.2,21.1-12.4,3.8C1737.3,543.9,1749.7,540.1,1755,557.4z"/>
		</g>
		<g>
			<path class="st0" d="M1762.5,481.6c0.2-21.2,22.7-20.8,22.5,0C1784.2,502.3,1762.4,502.4,1762.5,481.6z"/>
			<path class="st0" d="M1872.1,320.2c-19.7-2.5-5.2-26.1,10.2-24.7C1902.7,297.6,1888.9,321.6,1872.1,320.2z"/>
			<path class="st0" d="M1841.6,331.5c1.7,15.1-25.1,30.6-26.5,10.7C1814.4,330.4,1838.1,315.7,1841.6,331.5z"/>
			<path class="st0" d="M1788.3,421.4c-0.5,9.5-7.3,18-14.1,17.5c-15.2-1.8-6.7-31.6,5.4-30.6
				C1784.8,408.5,1788.6,414.2,1788.3,421.4z"/>
			<path class="st0" d="M1926.4,292.8c-14.1,0.9-17.4-15.1-3.8-19.6c7.6-4.7,25.9-1.6,21.3,10.2
				C1940.4,290.4,1934,292.6,1926.4,292.8z"/>
			<path class="st0" d="M1979.5,253.6c19.7,0.2,19.2,18.3-0.1,18C1960.1,271.3,1959.6,253.2,1979.5,253.6z"/>
			<path class="st0" d="M1774.2,374.9c-0.6-9.8,18.3-28.3,22-11.1C1798.7,375.4,1775.9,396.3,1774.2,374.9z"/>
			<path class="st0" d="M1785.2,536.7c5.9,19.9-14.1,26-20.3,6.1C1759,522.9,1779.1,516.8,1785.2,536.7z"/>
			<path class="st0" d="M1789.6,589.7c7.5,17.9-9.1,24.9-16.6,7C1765.5,578.8,1782.1,571.9,1789.6,589.7z"/>
		</g>
	</g>
</g>
<g class="st2">
</g>
</svg>
