<?xml version="1.0" encoding="utf-8"?>
<!-- Generator: Adobe Illustrator 27.9.0, SVG Export Plug-In . SVG Version: 6.00 Build 0)  -->
<svg version="1.1" id="Layer_1" xmlns="http://www.w3.org/2000/svg" xmlns:xlink="http://www.w3.org/1999/xlink" x="0px" y="0px"
	 viewBox="0 0 2000.4 792.2" style="enable-background:new 0 0 2000.4 792.2;" xml:space="preserve">
<style type="text/css">
	.st0{fill:#10A7E3;}
	.st1{fill:#E53527;}
	.st2{fill:#F4AF00;}
	.st3{fill:#D4007A;}
	.st4{fill:#89BA17;}
	.st5{fill:#00539F;}
	.st6{fill:#005AA9;}
</style>
<g>
	<g>
		<g>
			<path class="st0" d="M917.4,570.4h34.9c-1.6,5.8-4.2,10.8-7.6,14.7c-3.6,4.3-8.3,7.8-14.2,10.3c-5.8,2.6-12,3.9-18.3,3.9
				c-10.5,0-19.6-3.6-27-10.9c-7.4-7.2-11.1-16.1-11.1-26.4c0-7.6,2-14.8,5.9-21.4c3.9-6.6,9.4-12.1,16.3-16.1s14.2-6,21.6-6
				c6.7,0,13.3,1.6,19.6,5c6.3,3.3,12,8.1,16.7,14.3l0.6,0.8l9.3-6.8l-0.6-0.8c-12.1-15.6-27.4-23.4-45.3-23.4
				c-10,0-19.3,2.5-27.9,7.4c-8.6,4.9-15.4,11.7-20.4,20.1c-4.9,8.4-7.4,17.7-7.4,27.5c0,13.7,4.8,25.3,14.1,34.4
				c9.4,9.1,21.6,13.7,36.6,13.7c14.5,0,26.9-4.7,36.7-14s15.2-21.5,16.2-36.5l0.1-1.1h-48.8L917.4,570.4L917.4,570.4z"/>
			<polygon class="st0" points="995.3,608.1 1006.2,608.1 1019.8,507.5 1008.8,507.5 			"/>
			<path class="st0" d="M1104,537.6c-5.2-3-10.9-4.5-17.1-4.5c-7.5,0-14.5,1.9-21,5.6c-6.4,3.7-11.6,8.9-15.2,15.4
				c-3.7,6.5-5.6,13.8-5.6,21.4c0,9.9,3.3,18.2,9.6,24.6c6.3,6.4,14.5,9.7,24.3,9.7c7.8,0,15-1.8,21.2-5.4
				c6.2-3.5,11.3-8.7,14.9-15.2c3.7-6.5,5.6-13.7,5.6-21.2c0-6.7-1.4-12.7-4.4-18C1113.3,544.8,1109.2,540.6,1104,537.6z
				 M1095,595.5c-4.5,2.6-9.6,3.9-15,3.9c-7.1,0-12.8-2.3-17.2-6.8c-4.4-4.5-6.7-10.4-6.7-17.6c0-5.7,1.3-11.1,3.9-15.9
				c2.6-4.8,6.3-8.6,11.2-11.3c4.8-2.8,10-4.1,15.5-4.1c4.3,0,8.2,1.1,11.9,3.1c3.5,2,6.4,4.9,8.3,8.5c2,3.6,3,7.9,3,12.6
				c0,5.7-1.3,11.1-4,16.1l0,0C1103.1,589.1,1099.5,593,1095,595.5z"/>
			<path class="st0" d="M1199.9,533.2c-10,0-18.9,3.7-27,11l4.9-36.7h-11.2L1153,608.1h11.4l1.4-11.9c3,4.3,6.5,7.6,10.4,9.8
				c4.6,2.6,10,3.9,16.1,3.9c11.2,0,21-4.2,29.2-12.4c8.2-8.3,12.3-18.4,12.3-29.9c0-10-3.3-18.4-9.6-24.8
				C1218.1,536.4,1209.8,533.2,1199.9,533.2z M1183.2,547.5c4.7-2.7,10-4,15.6-4c7.2,0,13.1,2.2,17.5,6.7c4.4,4.4,6.7,10.3,6.7,17.6
				c0,8.9-3.1,16.6-9.1,22.6c-6,6.1-13.3,9.2-21.8,9.2c-7.1,0-13-2.2-17.4-6.7c-4.5-4.4-6.7-10.2-6.7-17.3c0-5.9,1.4-11.5,4.1-16.5
				C1174.8,554,1178.5,550.2,1183.2,547.5z"/>
			<path class="st0" d="M1332.6,546.6c-2.9-4.2-6.3-7.5-10.2-9.7c-4.6-2.6-10-3.8-16.1-3.8c-11.2,0-21.1,4.2-29.3,12.4
				c-8.2,8.3-12.4,18.4-12.4,29.9c0,10,3.3,18.4,9.6,24.8c6.4,6.4,14.6,9.7,24.5,9.7c10,0,19-3.6,26.9-10.9l-1.1,9.1h11.2l9.9-73.1
				h-11.4L1332.6,546.6z M1326.4,584.1c-2.7,5-6.5,8.9-11.1,11.6c-4.7,2.7-9.9,4-15.6,4c-7.2,0-13-2.2-17.4-6.7
				c-4.4-4.4-6.7-10.3-6.7-17.6c0-8.9,3.1-16.6,9.1-22.6c6-6.1,13.3-9.2,21.7-9.2c7.2,0,13,2.2,17.4,6.6c4.4,4.4,6.7,10.2,6.7,17.3
				C1330.5,573.4,1329.2,579,1326.4,584.1z"/>
			<polygon class="st0" points="1386.8,507.5 1373.1,608.1 1384,608.1 1397.6,507.5 			"/>
		</g>
		<g>
			<path class="st0" d="M917.4,570.4h34.9c-1.6,5.8-4.2,10.8-7.6,14.7c-3.6,4.3-8.3,7.8-14.2,10.3c-5.8,2.6-12,3.9-18.3,3.9
				c-10.5,0-19.6-3.6-27-10.9c-7.4-7.2-11.1-16.1-11.1-26.4c0-7.6,2-14.8,5.9-21.4c3.9-6.6,9.4-12.1,16.3-16.1s14.2-6,21.6-6
				c6.7,0,13.3,1.6,19.6,5c6.3,3.3,12,8.1,16.7,14.3l0.6,0.8l9.3-6.8l-0.6-0.8c-12.1-15.6-27.4-23.4-45.3-23.4
				c-10,0-19.3,2.5-27.9,7.4c-8.6,4.9-15.4,11.7-20.4,20.1c-4.9,8.4-7.4,17.7-7.4,27.5c0,13.7,4.8,25.3,14.1,34.4
				c9.4,9.1,21.6,13.7,36.6,13.7c14.5,0,26.9-4.7,36.7-14s15.2-21.5,16.2-36.5l0.1-1.1h-48.8L917.4,570.4L917.4,570.4z"/>
			<polygon class="st0" points="995.3,608.1 1006.2,608.1 1019.8,507.5 1008.8,507.5 			"/>
			<path class="st0" d="M1104,537.6c-5.2-3-10.9-4.5-17.1-4.5c-7.5,0-14.5,1.9-21,5.6c-6.4,3.7-11.6,8.9-15.2,15.4
				c-3.7,6.5-5.6,13.8-5.6,21.4c0,9.9,3.3,18.2,9.6,24.6c6.3,6.4,14.5,9.7,24.3,9.7c7.8,0,15-1.8,21.2-5.4
				c6.2-3.5,11.3-8.7,14.9-15.2c3.7-6.5,5.6-13.7,5.6-21.2c0-6.7-1.4-12.7-4.4-18C1113.3,544.8,1109.2,540.6,1104,537.6z
				 M1095,595.5c-4.5,2.6-9.6,3.9-15,3.9c-7.1,0-12.8-2.3-17.2-6.8c-4.4-4.5-6.7-10.4-6.7-17.6c0-5.7,1.3-11.1,3.9-15.9
				c2.6-4.8,6.3-8.6,11.2-11.3c4.8-2.8,10-4.1,15.5-4.1c4.3,0,8.2,1.1,11.9,3.1c3.5,2,6.4,4.9,8.3,8.5c2,3.6,3,7.9,3,12.6
				c0,5.7-1.3,11.1-4,16.1l0,0C1103.1,589.1,1099.5,593,1095,595.5z"/>
			<path class="st0" d="M1199.9,533.2c-10,0-18.9,3.7-27,11l4.9-36.7h-11.2L1153,608.1h11.4l1.4-11.9c3,4.3,6.5,7.6,10.4,9.8
				c4.6,2.6,10,3.9,16.1,3.9c11.2,0,21-4.2,29.2-12.4c8.2-8.3,12.3-18.4,12.3-29.9c0-10-3.3-18.4-9.6-24.8
				C1218.1,536.4,1209.8,533.2,1199.9,533.2z M1183.2,547.5c4.7-2.7,10-4,15.6-4c7.2,0,13.1,2.2,17.5,6.7c4.4,4.4,6.7,10.3,6.7,17.6
				c0,8.9-3.1,16.6-9.1,22.6c-6,6.1-13.3,9.2-21.8,9.2c-7.1,0-13-2.2-17.4-6.7c-4.5-4.4-6.7-10.2-6.7-17.3c0-5.9,1.4-11.5,4.1-16.5
				C1174.8,554,1178.5,550.2,1183.2,547.5z"/>
			<path class="st0" d="M1332.6,546.6c-2.9-4.2-6.3-7.5-10.2-9.7c-4.6-2.6-10-3.8-16.1-3.8c-11.2,0-21.1,4.2-29.3,12.4
				c-8.2,8.3-12.4,18.4-12.4,29.9c0,10,3.3,18.4,9.6,24.8c6.4,6.4,14.6,9.7,24.5,9.7c10,0,19-3.6,26.9-10.9l-1.1,9.1h11.2l9.9-73.1
				h-11.4L1332.6,546.6z M1326.4,584.1c-2.7,5-6.5,8.9-11.1,11.6c-4.7,2.7-9.9,4-15.6,4c-7.2,0-13-2.2-17.4-6.7
				c-4.4-4.4-6.7-10.3-6.7-17.6c0-8.9,3.1-16.6,9.1-22.6c6-6.1,13.3-9.2,21.7-9.2c7.2,0,13,2.2,17.4,6.6c4.4,4.4,6.7,10.2,6.7,17.3
				C1330.5,573.4,1329.2,579,1326.4,584.1z"/>
			<polygon class="st0" points="1386.8,507.5 1373.1,608.1 1384,608.1 1397.6,507.5 			"/>
		</g>
	</g>
	<g>
		<g>
			<path class="st1" d="M1721.1,450.3c-0.4,23.7-35.8,24.2-35.8,0.1C1686,427.6,1721.2,426.5,1721.1,450.3z"/>
			<path class="st1" d="M1762.9,371.6c-22.8,0.1-23.9-30.2-1.1-31.6C1784.6,339.3,1786.3,371.4,1762.9,371.6z"/>
		</g>
		<g>
			<path class="st2" d="M1664,483.2c-0.7,23.6-33.1,23.1-33.1-0.4C1632.3,459.6,1663.7,460.1,1664,483.2z"/>
			<path class="st2" d="M1688.2,387.2c-0.5-21.2,34.3-24.5,34.9-2.1C1722.9,406.2,1689,410.2,1688.2,387.2z"/>
			<path class="st2" d="M1666,417.7c0.2,20.9-32,25.1-32.3,2.2C1633.3,398.8,1666,394.1,1666,417.7z"/>
		</g>
		<g>
			<path class="st3" d="M1760.9,503.2c-23.9-0.1-24.4-35.7-0.6-36.8C1784.7,466.5,1785.5,502.5,1760.9,503.2z"/>
			<path class="st3" d="M1662.8,547.6c-0.4,20.6-30.9,20.6-31.3,0C1631.9,527,1662.4,527,1662.8,547.6z"/>
		</g>
		<g>
			<path class="st4" d="M1670.5,356.3c0.6,17.7-30.2,26.7-31.7,5.4C1638.3,344.3,1669.3,334.7,1670.5,356.3z"/>
			<path class="st4" d="M1613.6,450.1c0.3,20.8-27.9,25.4-28.2,2.4C1585,431.3,1613,427.4,1613.6,450.1z"/>
			<path class="st4" d="M1707.3,342.9c-23.1-0.8-16.7-28.8,3.5-28.6C1733.6,315.1,1727.7,343.5,1707.3,342.9z"/>
			<path class="st4" d="M1618,388.3c1.1,17.7-26.9,28.1-27.7,6.1C1589.8,377.2,1617,366.6,1618,388.3z"/>
			<path class="st4" d="M1612.4,513.8c-0.1,21.7-27.4,21.7-27.5,0C1585.1,492.1,1612.4,492.1,1612.4,513.8z"/>
		</g>
		<g>
			<g>
				<path class="st5" d="M1615.9,305.9c-13.5-2.8,5.4-21.2,13.6-20.6C1646.8,284.5,1629,307.5,1615.9,305.9z"/>
				<path class="st5" d="M1521,458.3c-1.6-10.1,9.1-27.3,14.6-12.3C1540.8,463.1,1523,481.3,1521,458.3z"/>
				<path class="st5" d="M1519.8,506.1c0-11.1,9.1-18.4,14-5.2c2.5,6.6,3.6,19.3-4.9,21.7C1521.4,522.1,1520.5,511.7,1519.8,506.1z"
					/>
				<path class="st5" d="M1666.1,278.4c-8.6,1.2-11.9-6.8-5.2-11.5c5.1-6.5,30.1-10.9,21.6,3.3
					C1678.4,275.6,1672.3,277.9,1666.1,278.4z"/>
				<path class="st5" d="M1527.4,408.4c0.9-6.8,4.6-18.7,12.3-18.8c7.6,4.3,2.4,16.5-1.4,22.1
					C1533.7,419.5,1526.3,417.3,1527.4,408.4z"/>
				<path class="st5" d="M1592.2,320.1c0.7,7.3-21,26.8-21,11.2C1570.8,324.4,1592.3,304.3,1592.2,320.1z"/>
				<path class="st5" d="M1723,242.8c3.3,0.3,8.5-0.5,9.3,4.4c1,9.3-24.5,13.2-27.3,4.7C1705.1,244.7,1716.7,242.9,1723,242.8z"/>
				<path class="st5" d="M1539.1,557.9c5.3,17.4-7.2,21.2-12.4,3.8C1521.4,544.3,1533.9,540.6,1539.1,557.9z"/>
			</g>
			<g>
				<path class="st5" d="M1615.9,305.9c-13.5-2.8,5.4-21.2,13.6-20.6C1646.8,284.5,1629,307.5,1615.9,305.9z"/>
				<path class="st5" d="M1521,458.3c-1.6-10.1,9.1-27.3,14.6-12.3C1540.8,463.1,1523,481.3,1521,458.3z"/>
				<path class="st5" d="M1519.8,506.1c0-11.1,9.1-18.4,14-5.2c2.5,6.6,3.6,19.3-4.9,21.7C1521.4,522.1,1520.5,511.7,1519.8,506.1z"
					/>
				<path class="st5" d="M1666.1,278.4c-8.6,1.2-11.9-6.8-5.2-11.5c5.1-6.5,30.1-10.9,21.6,3.3
					C1678.4,275.6,1672.3,277.9,1666.1,278.4z"/>
				<path class="st5" d="M1527.4,408.4c0.9-6.8,4.6-18.7,12.3-18.8c7.6,4.3,2.4,16.5-1.4,22.1
					C1533.7,419.5,1526.3,417.3,1527.4,408.4z"/>
				<path class="st5" d="M1592.2,320.1c0.7,7.3-21,26.8-21,11.2C1570.8,324.4,1592.3,304.3,1592.2,320.1z"/>
				<path class="st5" d="M1723,242.8c3.3,0.3,8.5-0.5,9.3,4.4c1,9.3-24.5,13.2-27.3,4.7C1705.1,244.7,1716.7,242.9,1723,242.8z"/>
				<path class="st5" d="M1539.1,557.9c5.3,17.4-7.2,21.2-12.4,3.8C1521.4,544.3,1533.9,540.6,1539.1,557.9z"/>
			</g>
		</g>
		<g>
			<path class="st0" d="M1546.6,482c0.2-21.2,22.7-20.9,22.5,0C1568.4,502.7,1546.5,502.8,1546.6,482z"/>
			<path class="st0" d="M1656.4,320.4c-19.7-2.5-5.2-26.1,10.2-24.7C1687,297.8,1673.2,321.8,1656.4,320.4z"/>
			<path class="st0" d="M1625.8,331.8c1.7,15.1-25.2,30.6-26.5,10.7C1598.6,330.6,1622.3,315.9,1625.8,331.8z"/>
			<path class="st0" d="M1572.4,421.8c-0.5,9.5-7.3,18-14.2,17.5c-15.2-1.8-6.7-31.7,5.4-30.6C1569,408.8,1572.8,414.6,1572.4,421.8
				z"/>
			<path class="st0" d="M1710.7,293c-14.2,0.9-17.4-15.1-3.8-19.6c7.6-4.7,25.9-1.6,21.3,10.2C1724.7,290.6,1718.3,292.8,1710.7,293
				z"/>
			<path class="st0" d="M1763.9,253.8c19.7,0.2,19.2,18.3-0.1,18C1744.5,271.5,1743.9,253.3,1763.9,253.8z"/>
			<path class="st0" d="M1558.4,375.2c-0.6-9.8,18.3-28.3,22-11.1C1582.9,375.7,1560.1,396.6,1558.4,375.2z"/>
			<path class="st0" d="M1569.4,537.2c5.9,19.9-14.2,26-20.3,6.1C1543.2,523.4,1563.3,517.3,1569.4,537.2z"/>
			<path class="st0" d="M1573.8,590.3c7.5,17.9-9.1,24.9-16.7,7C1549.7,579.4,1566.2,572.4,1573.8,590.3z"/>
		</g>
	</g>
	<g>
		<g>
			<path class="st5" d="M0,239.6h111.3v19H19.4v60.9h91.1v19H19.4v76.3h91.1v19H0V239.6z"/>
			<g>
				<polygon class="st5" points="196.5,412.3 196.5,412.3 196.4,412.2 196.4,412.2 				"/>
				<polygon class="st5" points="128.6,290.2 148.2,290.2 196.4,412.2 196.4,412.2 196.5,412.3 196.5,412.3 196.4,412.2 
					244.1,290.2 263.9,290.2 206.3,433.7 206.2,433.7 186.6,433.7 186.6,433.7 				"/>
			</g>
			<path class="st5" d="M359.7,286.5c22.1,0,40.5,8,55,24c13.2,14.6,19.8,31.9,19.8,51.9c0,20.1-7,37.6-21,52.6
				s-31.9,22.5-53.9,22.5s-40.1-7.5-54-22.5c-14-15-21-32.5-21-52.6c0-19.9,6.6-37.1,19.8-51.8C319.1,294.6,337.5,286.5,359.7,286.5
				z M359.6,304.6c-15.4,0-28.6,5.7-39.6,17c-11,11.4-16.6,25.1-16.6,41.2c0,10.4,2.5,20.1,7.6,29.1c5,9,11.8,15.9,20.4,20.8
				c8.6,4.9,18,7.3,28.2,7.3s19.7-2.4,28.2-7.3c8.6-4.9,15.4-11.8,20.4-20.8s7.6-18.7,7.6-29.1c0-16.1-5.5-29.8-16.6-41.2
				C388.1,310.3,374.9,304.6,359.6,304.6z"/>
			<path class="st5" d="M466,234.7h18.5v199.1H466V234.7z"/>
			<path class="st5" d="M520.5,290.2H539v67.1c0,16.4,0.9,27.6,2.6,33.8c2.6,8.8,7.7,15.8,15.1,20.9s16.3,7.7,26.6,7.7
				c10.3,0,19.1-2.5,26.2-7.5c7.2-5,12.1-11.5,14.9-19.6c1.9-5.5,2.8-17.3,2.8-35.3v-67.1h18.9v70.5c0,19.8-2.3,34.7-6.9,44.8
				c-4.6,10-11.6,17.9-20.9,23.6s-20.9,8.5-34.9,8.5s-25.7-2.8-35.1-8.5c-9.4-5.7-16.4-13.6-21-23.8c-4.6-10.2-6.9-25.5-6.9-45.9
				v-69.2H520.5z"/>
			<path class="st5" d="M826.7,320l-14.7,9.1c-12.7-16.8-29.9-25.2-51.8-25.2c-17.5,0-32,5.6-43.6,16.9s-17.3,24.9-17.3,41
				c0,10.5,2.7,20.3,8,29.5c5.3,9.2,12.6,16.4,21.9,21.5c9.3,5.1,19.7,7.7,31.2,7.7c21.1,0,38.3-8.4,51.7-25.2l14.7,9.6
				c-6.9,10.3-16.1,18.4-27.7,24.1c-11.6,5.7-24.8,8.6-39.6,8.6c-22.7,0-41.5-7.2-56.5-21.7c-15-14.4-22.4-32-22.4-52.7
				c0-13.9,3.5-26.8,10.5-38.8c7-11.9,16.6-21.2,28.8-27.9c12.2-6.7,25.9-10,41.1-10c9.5,0,18.7,1.5,27.5,4.4
				c8.8,2.9,16.3,6.7,22.5,11.4C817.2,306.9,822.4,312.8,826.7,320z"/>
			<path class="st5" d="M868.7,231c4.2,0,7.8,1.5,10.8,4.5s4.5,6.6,4.5,10.8c0,4.1-1.5,7.7-4.5,10.7c-3,3-6.6,4.5-10.8,4.5
				c-4.1,0-7.7-1.5-10.6-4.5c-3-3-4.5-6.6-4.5-10.7c0-4.2,1.5-7.8,4.5-10.8C861,232.5,864.5,231,868.7,231z M859.5,290.2H878v143.7
				h-18.5V290.2z"/>
			<path class="st5" d="M984.4,286.5c22.1,0,40.5,8,55,24c13.2,14.6,19.8,31.9,19.8,51.9c0,20.1-7,37.6-21,52.6
				s-31.9,22.5-53.9,22.5s-40.1-7.5-54-22.5c-14-15-21-32.5-21-52.6c0-19.9,6.6-37.1,19.8-51.8C943.8,294.6,962.2,286.5,984.4,286.5
				z M984.3,304.6c-15.4,0-28.6,5.7-39.6,17c-11,11.4-16.6,25.1-16.6,41.2c0,10.4,2.5,20.1,7.6,29.1s11.8,15.9,20.4,20.8
				s18,7.3,28.2,7.3s19.7-2.4,28.2-7.3c8.6-4.9,15.4-11.8,20.4-20.8s7.6-18.7,7.6-29.1c0-16.1-5.5-29.8-16.6-41.2
				C1012.8,310.3,999.6,304.6,984.3,304.6z"/>
			<path class="st5" d="M1093.5,290.2h18.5v25.7c7.4-9.9,15.6-17.2,24.6-22.1s18.8-7.3,29.3-7.3c10.7,0,20.3,2.7,28.6,8.2
				c8.3,5.5,14.5,12.8,18.4,22.1c4,9.2,5.9,23.6,5.9,43.2v73.9h-18.5v-68.5c0-16.5-0.7-27.6-2.1-33.1c-2.1-9.5-6.2-16.7-12.3-21.5
				c-6.1-4.8-14-7.2-23.8-7.2c-11.2,0-21.2,3.7-30,11.1s-14.7,16.6-17.5,27.5c-1.8,7.1-2.6,20.2-2.6,39.1V434h-18.5V290.2z"/>
			<path class="st5" d="M1401.5,290.2v143.7h-18.2v-24.7c-7.7,9.4-16.4,16.5-26.1,21.3c-9.6,4.8-20.2,7.1-31.6,7.1
				c-20.3,0-37.7-7.4-52.1-22.1s-21.6-32.7-21.6-53.8c0-20.7,7.3-38.4,21.8-53.1s32-22.1,52.4-22.1c11.8,0,22.5,2.5,32,7.5
				s17.9,12.5,25.2,22.6v-26.4H1401.5z M1327.6,304.3c-10.3,0-19.8,2.5-28.5,7.6s-15.6,12.2-20.8,21.3c-5.1,9.1-7.7,18.8-7.7,29
				c0,10.1,2.6,19.8,7.8,29c5.2,9.2,12.2,16.4,20.9,21.6c8.7,5.1,18.1,7.7,28.2,7.7s19.7-2.6,28.8-7.7c9.1-5.1,16-12,20.9-20.7
				s7.3-18.5,7.3-29.4c0-16.6-5.5-30.5-16.4-41.7C1357.1,309.9,1343.6,304.3,1327.6,304.3z"/>
		</g>
		<g>
			<path class="st5" d="M0,239.6h111.3v19H19.4v60.9h91.1v19H19.4v76.3h91.1v19H0V239.6z"/>
			<g>
				<polygon class="st6" points="196.5,412.3 196.5,412.3 196.4,412.2 196.4,412.2 				"/>
				<polygon class="st5" points="128.6,290.2 148.2,290.2 196.4,412.2 196.4,412.2 196.5,412.3 196.5,412.3 196.4,412.2 
					244.1,290.2 263.9,290.2 206.3,433.7 206.2,433.7 186.6,433.7 186.6,433.7 				"/>
			</g>
			<path class="st5" d="M359.7,286.5c22.1,0,40.5,8,55,24c13.2,14.6,19.8,31.9,19.8,51.9c0,20.1-7,37.6-21,52.6
				s-31.9,22.5-53.9,22.5s-40.1-7.5-54-22.5c-14-15-21-32.5-21-52.6c0-19.9,6.6-37.1,19.8-51.8C319.1,294.6,337.5,286.5,359.7,286.5
				z M359.6,304.6c-15.4,0-28.6,5.7-39.6,17c-11,11.4-16.6,25.1-16.6,41.2c0,10.4,2.5,20.1,7.6,29.1c5,9,11.8,15.9,20.4,20.8
				c8.6,4.9,18,7.3,28.2,7.3s19.7-2.4,28.2-7.3c8.6-4.9,15.4-11.8,20.4-20.8s7.6-18.7,7.6-29.1c0-16.1-5.5-29.8-16.6-41.2
				C388.1,310.3,374.9,304.6,359.6,304.6z"/>
			<path class="st5" d="M466,234.7h18.5v199.1H466V234.7z"/>
			<path class="st5" d="M520.5,290.2H539v67.1c0,16.4,0.9,27.6,2.6,33.8c2.6,8.8,7.7,15.8,15.1,20.9s16.3,7.7,26.6,7.7
				c10.3,0,19.1-2.5,26.2-7.5c7.2-5,12.1-11.5,14.9-19.6c1.9-5.5,2.8-17.3,2.8-35.3v-67.1h18.9v70.5c0,19.8-2.3,34.7-6.9,44.8
				c-4.6,10-11.6,17.9-20.9,23.6s-20.9,8.5-34.9,8.5s-25.7-2.8-35.1-8.5c-9.4-5.7-16.4-13.6-21-23.8c-4.6-10.2-6.9-25.5-6.9-45.9
				v-69.2H520.5z"/>
			<path class="st5" d="M826.7,320l-14.7,9.1c-12.7-16.8-29.9-25.2-51.8-25.2c-17.5,0-32,5.6-43.6,16.9s-17.3,24.9-17.3,41
				c0,10.5,2.7,20.3,8,29.5c5.3,9.2,12.6,16.4,21.9,21.5c9.3,5.1,19.7,7.7,31.2,7.7c21.1,0,38.3-8.4,51.7-25.2l14.7,9.6
				c-6.9,10.3-16.1,18.4-27.7,24.1c-11.6,5.7-24.8,8.6-39.6,8.6c-22.7,0-41.5-7.2-56.5-21.7c-15-14.4-22.4-32-22.4-52.7
				c0-13.9,3.5-26.8,10.5-38.8c7-11.9,16.6-21.2,28.8-27.9c12.2-6.7,25.9-10,41.1-10c9.5,0,18.7,1.5,27.5,4.4
				c8.8,2.9,16.3,6.7,22.5,11.4C817.2,306.9,822.4,312.8,826.7,320z"/>
			<path class="st5" d="M868.7,231c4.2,0,7.8,1.5,10.8,4.5s4.5,6.6,4.5,10.8c0,4.1-1.5,7.7-4.5,10.7c-3,3-6.6,4.5-10.8,4.5
				c-4.1,0-7.7-1.5-10.6-4.5c-3-3-4.5-6.6-4.5-10.7c0-4.2,1.5-7.8,4.5-10.8C861,232.5,864.5,231,868.7,231z M859.5,290.2H878v143.7
				h-18.5V290.2z"/>
			<path class="st5" d="M984.4,286.5c22.1,0,40.5,8,55,24c13.2,14.6,19.8,31.9,19.8,51.9c0,20.1-7,37.6-21,52.6
				s-31.9,22.5-53.9,22.5s-40.1-7.5-54-22.5c-14-15-21-32.5-21-52.6c0-19.9,6.6-37.1,19.8-51.8C943.8,294.6,962.2,286.5,984.4,286.5
				z M984.3,304.6c-15.4,0-28.6,5.7-39.6,17c-11,11.4-16.6,25.1-16.6,41.2c0,10.4,2.5,20.1,7.6,29.1s11.8,15.9,20.4,20.8
				s18,7.3,28.2,7.3s19.7-2.4,28.2-7.3c8.6-4.9,15.4-11.8,20.4-20.8s7.6-18.7,7.6-29.1c0-16.1-5.5-29.8-16.6-41.2
				C1012.8,310.3,999.6,304.6,984.3,304.6z"/>
			<path class="st5" d="M1093.5,290.2h18.5v25.7c7.4-9.9,15.6-17.2,24.6-22.1s18.8-7.3,29.3-7.3c10.7,0,20.3,2.7,28.6,8.2
				c8.3,5.5,14.5,12.8,18.4,22.1c4,9.2,5.9,23.6,5.9,43.2v73.9h-18.5v-68.5c0-16.5-0.7-27.6-2.1-33.1c-2.1-9.5-6.2-16.7-12.3-21.5
				c-6.1-4.8-14-7.2-23.8-7.2c-11.2,0-21.2,3.7-30,11.1s-14.7,16.6-17.5,27.5c-1.8,7.1-2.6,20.2-2.6,39.1V434h-18.5V290.2z"/>
			<path class="st5" d="M1401.5,290.2v143.7h-18.2v-24.7c-7.7,9.4-16.4,16.5-26.1,21.3c-9.6,4.8-20.2,7.1-31.6,7.1
				c-20.3,0-37.7-7.4-52.1-22.1s-21.6-32.7-21.6-53.8c0-20.7,7.3-38.4,21.8-53.1s32-22.1,52.4-22.1c11.8,0,22.5,2.5,32,7.5
				s17.9,12.5,25.2,22.6v-26.4H1401.5z M1327.6,304.3c-10.3,0-19.8,2.5-28.5,7.6s-15.6,12.2-20.8,21.3c-5.1,9.1-7.7,18.8-7.7,29
				c0,10.1,2.6,19.8,7.8,29c5.2,9.2,12.2,16.4,20.9,21.6c8.7,5.1,18.1,7.7,28.2,7.7s19.7-2.6,28.8-7.7c9.1-5.1,16-12,20.9-20.7
				s7.3-18.5,7.3-29.4c0-16.6-5.5-30.5-16.4-41.7C1357.1,309.9,1343.6,304.3,1327.6,304.3z"/>
		</g>
	</g>
</g>
</svg>
