<svg id="Layer_1" data-name="Layer 1" xmlns="http://www.w3.org/2000/svg" viewBox="0 0 300 300"><title>tmfe Artboard 1 copy 39redes</title><path id="Path_1" data-name="Path 1" d="M235.56,107a22.32,22.32,0,0,0-15.78-15.79C205.85,87.5,150,87.5,150,87.5s-55.87,0-69.77,3.73A22.37,22.37,0,0,0,64.44,107a249.16,249.16,0,0,0,0,86,22.35,22.35,0,0,0,15.79,15.79c14,3.73,69.77,3.73,69.77,3.73s55.87,0,69.78-3.73A22.32,22.32,0,0,0,235.56,193,249.16,249.16,0,0,0,235.56,107ZM132.15,176.79V123.25L178.54,150Z"/></svg>