<svg id="Layer_1" data-name="Layer 1" xmlns="http://www.w3.org/2000/svg" viewBox="0 0 300 300"><title>tmfe Artboard 1 copy 40redes</title><g id="Group_3" data-name="Group 3"><g id="Group_2" data-name="Group 2"><path id="Path_2" data-name="Path 2" d="M157.1,139.44c1.88-2.12,3.43-4.27,5.37-6.1A29.53,29.53,0,0,1,183.72,125a48.51,48.51,0,0,1,13.35,1.63,26.11,26.11,0,0,1,18.54,19.5,81.51,81.51,0,0,1,2.47,22.33c0,15.88-.05,31.75,0,47.63,0,1.48-.42,1.88-1.88,1.86q-12.27-.09-24.54,0c-1.44,0-1.75-.42-1.74-1.79q.08-22.67,0-45.32a41,41,0,0,0-1.32-11.25,12.65,12.65,0,0,0-13.91-9.86,15.2,15.2,0,0,0-16,14.41c0,.26,0,.51,0,.77a56,56,0,0,0-.43,7.08q0,22.05,0,44.08c0,1.46-.36,1.9-1.86,1.88q-12.34-.09-24.71,0c-1.32,0-1.7-.35-1.7-1.68q.06-43.64,0-87.27c0-1.44.47-1.77,1.83-1.76q11.73.09,23.47,0c1.44,0,1.81.45,1.78,1.81C157.1,132.49,157.1,136,157.1,139.44Z"/><path id="Path_3" data-name="Path 3" d="M112.3,172.68v43.18c0,1.59-.39,2.08-2,2.06q-12.27-.12-24.53,0c-1.31,0-1.7-.32-1.7-1.68q.06-43.69,0-87.4c0-1.21.28-1.64,1.55-1.63,8.29.05,16.59.07,24.88,0,1.6,0,1.82.6,1.81,2Q112.27,150.9,112.3,172.68Z"/><path id="Path_4" data-name="Path 4" d="M114.56,98.33A16.34,16.34,0,1,1,98.14,82.08h.12A16.41,16.41,0,0,1,114.56,98.33Z"/></g></g></svg>