<?xml version="1.0" encoding="utf-8"?>
<!-- Generator: Adobe Illustrator 27.9.0, SVG Export Plug-In . SVG Version: 6.00 Build 0)  -->
<svg version="1.1" id="Layer_1" xmlns="http://www.w3.org/2000/svg" xmlns:xlink="http://www.w3.org/1999/xlink" x="0px" y="0px"
	 viewBox="0 0 1452.6 560.7" style="enable-background:new 0 0 1452.6 560.7;" xml:space="preserve">
<style type="text/css">
	.st0{fill:#00539F;}
	.st1{fill:#EE7F00;}
	.st2{fill:#E53527;}
	.st3{fill:#D4007A;}
	.st4{fill:#89BA17;}
	.st5{fill:#F4AF00;}
	.st6{fill:#00A7E3;}
</style>
<g>
	<polygon class="st0" points="9.4,150.7 123.3,150.7 123.3,170.2 29.3,170.2 29.3,232.4 122.5,232.4 122.5,251.9 29.3,251.9 
		29.3,330 122.5,330 122.5,349.4 9.4,349.4 	"/>
	<polygon class="st0" points="210.4,327.4 210.4,327.4 210.3,327.3 210.3,327.3 	"/>
	<polygon class="st0" points="140.9,202.5 161,202.5 210.3,327.3 210.3,327.3 210.4,327.4 210.4,327.4 210.3,327.3 259.1,202.5 
		279.4,202.5 220.4,349.3 220.4,349.3 200.3,349.3 200.3,349.3 	"/>
	<path class="st0" d="M377.4,198.7c22.6,0,41.4,8.2,56.3,24.6c13.5,15,20.3,32.6,20.3,53.1c0,20.5-7.2,38.5-21.4,53.8
		c-14.3,15.4-32.7,23-55.1,23c-22.6,0-41-7.7-55.3-23c-14.3-15.4-21.4-33.3-21.4-53.8c0-20.4,6.8-38,20.3-53
		C335.8,206.9,354.6,198.7,377.4,198.7 M377.3,217.2c-15.7,0-29.2,5.8-40.5,17.4c-11.3,11.6-16.9,25.7-16.9,42.1
		c0,10.6,2.6,20.5,7.7,29.7c5.2,9.2,12.1,16.3,20.9,21.3c8.8,5,18.4,7.5,28.9,7.5c10.5,0,20.1-2.5,28.9-7.5
		c8.8-5,15.7-12.1,20.9-21.3c5.1-9.2,7.7-19.1,7.7-29.7c0-16.5-5.7-30.5-17-42.1S392.9,217.2,377.3,217.2"/>
	<rect x="486.1" y="145.7" class="st0" width="18.9" height="203.7"/>
	<path class="st0" d="M541.9,202.5h18.9v68.6c0,16.8,0.9,28.3,2.7,34.6c2.7,9,7.9,16.1,15.5,21.3c7.6,5.2,16.7,7.8,27.3,7.8
		c10.5,0,19.5-2.5,26.8-7.6c7.4-5.1,12.4-11.8,15.2-20.1c1.9-5.7,2.8-17.7,2.8-36.1v-68.6h19.3v72.1c0,20.3-2.4,35.5-7.1,45.8
		c-4.7,10.3-11.8,18.3-21.3,24.1c-9.5,5.8-21.4,8.7-35.7,8.7c-14.3,0-26.3-2.9-35.9-8.7c-9.6-5.8-16.8-13.9-21.5-24.3
		c-4.7-10.4-7.1-26-7.1-46.9V202.5z"/>
	<path class="st0" d="M855.2,233l-15,9.3c-13-17.2-30.6-25.8-53-25.8c-17.9,0-32.8,5.8-44.6,17.3c-11.8,11.5-17.7,25.5-17.7,42
		c0,10.7,2.7,20.8,8.2,30.2c5.4,9.4,12.9,16.8,22.4,22c9.5,5.2,20.1,7.8,31.9,7.8c21.6,0,39.2-8.6,52.9-25.8l15,9.9
		c-7,10.6-16.5,18.8-28.3,24.6c-11.8,5.8-25.3,8.8-40.5,8.8c-23.2,0-42.5-7.4-57.8-22.2c-15.3-14.8-23-32.7-23-53.9
		c0-14.2,3.6-27.4,10.7-39.6c7.2-12.2,17-21.7,29.5-28.6c12.5-6.8,26.5-10.3,42-10.3c9.7,0,19.1,1.5,28.2,4.5c9,3,16.7,6.8,23,11.6
		C845.4,219.5,850.7,225.6,855.2,233"/>
	<path class="st0" d="M898,141.9c4.3,0,8,1.5,11,4.6c3,3.1,4.6,6.8,4.6,11.1c0,4.2-1.5,7.9-4.6,10.9c-3,3.1-6.7,4.6-11,4.6
		c-4.2,0-7.8-1.5-10.9-4.6c-3-3.1-4.6-6.7-4.6-10.9c0-4.3,1.5-8,4.6-11.1C890.2,143.5,893.8,141.9,898,141.9 M888.7,202.5h18.9v147
		h-18.9V202.5z"/>
	<path class="st0" d="M1016.4,198.7c22.6,0,41.4,8.2,56.3,24.6c13.5,15,20.3,32.6,20.3,53.1c0,20.5-7.2,38.5-21.4,53.8
		c-14.3,15.4-32.7,23-55.1,23c-22.6,0-41-7.7-55.3-23c-14.3-15.4-21.5-33.3-21.5-53.8c0-20.4,6.8-38,20.3-53
		C974.9,206.9,993.7,198.7,1016.4,198.7 M1016.4,217.2c-15.7,0-29.2,5.8-40.5,17.4c-11.3,11.6-16.9,25.7-16.9,42.1
		c0,10.6,2.6,20.5,7.7,29.7c5.2,9.2,12.1,16.3,20.9,21.3c8.8,5,18.4,7.5,28.9,7.5c10.5,0,20.1-2.5,28.9-7.5
		c8.8-5,15.7-12.1,20.9-21.3c5.1-9.2,7.7-19.1,7.7-29.7c0-16.5-5.7-30.5-17-42.1S1032,217.2,1016.4,217.2"/>
	<path class="st0" d="M1128,202.5h18.9v26.3c7.6-10.1,15.9-17.6,25.1-22.6c9.2-5,19.2-7.5,30-7.5c11,0,20.7,2.8,29.2,8.4
		c8.5,5.6,14.8,13.1,18.8,22.6c4.1,9.5,6.1,24.2,6.1,44.2v75.6h-18.9v-70.1c0-16.9-0.7-28.2-2.1-33.9c-2.2-9.7-6.4-17-12.6-21.9
		c-6.2-4.9-14.3-7.4-24.3-7.4c-11.4,0-21.7,3.8-30.7,11.3c-9.1,7.6-15,16.9-17.9,28.1c-1.8,7.3-2.7,20.6-2.7,40v53.9H1128V202.5z"/>
	<path class="st0" d="M1443.2,202.5v147h-18.6v-25.3c-7.9,9.6-16.8,16.9-26.7,21.7c-9.9,4.9-20.6,7.3-32.4,7.3
		c-20.8,0-38.6-7.5-53.3-22.6c-14.7-15.1-22.1-33.4-22.1-55c0-21.2,7.4-39.3,22.3-54.3c14.9-15,32.7-22.6,53.6-22.6
		c12.1,0,23,2.6,32.8,7.7c9.8,5.1,18.3,12.8,25.7,23.1v-27H1443.2z M1367.6,216.9c-10.5,0-20.2,2.6-29.1,7.8
		c-8.9,5.2-16,12.4-21.3,21.8c-5.3,9.4-7.9,19.2-7.9,29.7c0,10.3,2.7,20.2,8,29.7c5.3,9.4,12.4,16.8,21.4,22.1
		c9,5.3,18.6,7.9,28.8,7.9c10.3,0,20.1-2.6,29.4-7.8c9.3-5.2,16.4-12.3,21.4-21.2c5-8.9,7.5-18.9,7.5-30.1c0-17-5.6-31.2-16.8-42.6
		C1397.8,222.6,1384,216.9,1367.6,216.9"/>
	<path class="st1" d="M1235.2,387.5c4.3,0,8,1.5,11,4.6c3,3.1,4.6,6.8,4.6,11.1c0,4.2-1.5,7.9-4.6,10.9c-3,3.1-6.7,4.6-11,4.6
		c-4.2,0-7.8-1.5-10.9-4.6c-3-3.1-4.6-6.7-4.6-10.9c0-4.3,1.5-8,4.6-11.1C1227.3,389.1,1231,387.5,1235.2,387.5"/>
	<path class="st2" d="M1321.6,387.5c4.3,0,8,1.5,11,4.6c3,3.1,4.6,6.8,4.6,11.1c0,4.2-1.5,7.9-4.6,10.9c-3,3.1-6.7,4.6-11,4.6
		c-4.2,0-7.8-1.5-10.9-4.6c-3-3.1-4.6-6.7-4.6-10.9c0-4.3,1.5-8,4.6-11.1C1313.7,389.1,1317.3,387.5,1321.6,387.5"/>
	<path class="st3" d="M1405.3,387.5c4.3,0,8,1.5,11,4.6c3,3.1,4.6,6.7,4.6,11.1c0,4.2-1.5,7.9-4.6,10.9c-3,3.1-6.7,4.6-11,4.6
		c-4.2,0-7.8-1.5-10.9-4.6c-3-3.1-4.6-6.7-4.6-10.9c0-4.3,1.5-8,4.6-11.1C1397.5,389.1,1401.1,387.5,1405.3,387.5"/>
	<path class="st4" d="M1065.3,387.5c4.3,0,8,1.5,11,4.6c3,3.1,4.6,6.8,4.6,11.1c0,4.2-1.5,7.9-4.6,10.9c-3,3.1-6.7,4.6-11,4.6
		c-4.2,0-7.8-1.5-10.9-4.6c-3-3.1-4.6-6.7-4.6-10.9c0-4.3,1.5-8,4.6-11.1C1057.5,389.1,1061.1,387.5,1065.3,387.5"/>
	<path class="st5" d="M1151.7,387.5c4.3,0,8,1.5,11,4.6c3.1,3.1,4.6,6.8,4.6,11.1c0,4.2-1.5,7.9-4.6,10.9c-3,3.1-6.7,4.6-11,4.6
		c-4.2,0-7.8-1.5-10.9-4.6c-3-3.1-4.6-6.7-4.6-10.9c0-4.3,1.5-8,4.6-11.1C1143.8,389.1,1147.5,387.5,1151.7,387.5"/>
	<path class="st6" d="M980.2,387.5c4.3,0,8,1.5,11,4.6c3.1,3.1,4.6,6.8,4.6,11.1c0,4.2-1.5,7.9-4.6,10.9c-3,3.1-6.7,4.6-11,4.6
		c-4.2,0-7.8-1.5-10.9-4.6c-3-3.1-4.6-6.7-4.6-10.9c0-4.3,1.5-8,4.6-11.1C972.3,389.1,976,387.5,980.2,387.5"/>
</g>
</svg>
