<?xml version="1.0" encoding="utf-8"?>
<!-- Generator: Adobe Illustrator 27.9.0, SVG Export Plug-In . SVG Version: 6.00 Build 0)  -->
<svg version="1.1" id="Layer_1" xmlns="http://www.w3.org/2000/svg" xmlns:xlink="http://www.w3.org/1999/xlink" x="0px" y="0px"
	 viewBox="0 0 2333.7 900.8" style="enable-background:new 0 0 2333.7 900.8;" xml:space="preserve">
<style type="text/css">
	.st0{fill:#BBBBBB;}
</style>
<polygon class="st0" points="449.9,321.7 563.9,321.7 563.9,341.2 469.8,341.2 469.8,403.5 563.1,403.5 563.1,423 469.8,423 
	469.8,501.1 563.1,501.1 563.1,520.6 449.9,520.6 "/>
<polygon class="st0" points="651,498.5 651,498.5 651,498.4 651,498.4 "/>
<polygon class="st0" points="581.5,373.5 601.7,373.5 651,498.4 651,498.4 651,498.5 651,498.5 651,498.4 699.8,373.5 720.1,373.5 
	661.1,520.4 661.1,520.4 641,520.4 641,520.4 "/>
<path class="st0" d="M818.1,369.7c22.7,0,41.4,8.2,56.3,24.6c13.5,15,20.3,32.7,20.3,53.1c0,20.5-7.2,38.5-21.5,53.9
	c-14.3,15.4-32.7,23-55.2,23c-22.6,0-41-7.7-55.3-23c-14.3-15.4-21.5-33.3-21.5-53.9c0-20.4,6.8-38,20.3-53
	C776.6,378,795.4,369.7,818.1,369.7 M818.1,388.2c-15.7,0-29.3,5.8-40.6,17.4c-11.3,11.6-17,25.7-17,42.2c0,10.6,2.6,20.5,7.7,29.7
	c5.1,9.2,12.1,16.3,20.9,21.3c8.8,5,18.4,7.5,28.9,7.5c10.5,0,20.1-2.5,28.9-7.5c8.8-5,15.7-12.1,20.9-21.3
	c5.2-9.2,7.7-19.1,7.7-29.7c0-16.5-5.7-30.6-17-42.2C847.2,394,833.7,388.2,818.1,388.2"/>
<rect x="926.9" y="316.7" class="st0" width="18.9" height="203.8"/>
<path class="st0" d="M982.8,373.5h18.9v68.7c0,16.8,0.9,28.3,2.7,34.6c2.7,9,7.9,16.1,15.5,21.4c7.6,5.2,16.7,7.8,27.3,7.8
	c10.6,0,19.5-2.5,26.9-7.6c7.4-5.1,12.4-11.8,15.2-20.1c1.9-5.7,2.8-17.7,2.8-36.1v-68.7h19.3v72.2c0,20.3-2.4,35.5-7.1,45.8
	c-4.7,10.3-11.8,18.3-21.4,24.1c-9.5,5.8-21.4,8.7-35.8,8.7c-14.3,0-26.3-2.9-35.9-8.7c-9.6-5.8-16.8-13.9-21.5-24.3
	c-4.7-10.4-7.1-26.1-7.1-47V373.5z"/>
<path class="st0" d="M1296.2,404.1l-15,9.3c-13-17.2-30.6-25.8-53.1-25.8c-17.9,0-32.8,5.8-44.6,17.3c-11.8,11.5-17.7,25.5-17.7,42
	c0,10.7,2.7,20.8,8.2,30.2c5.4,9.5,12.9,16.8,22.4,22c9.5,5.2,20.1,7.8,31.9,7.8c21.6,0,39.2-8.6,52.9-25.8l15,9.9
	c-7,10.6-16.5,18.8-28.3,24.6c-11.9,5.8-25.4,8.8-40.5,8.8c-23.2,0-42.5-7.4-57.8-22.2c-15.3-14.8-23-32.8-23-53.9
	c0-14.2,3.6-27.5,10.7-39.7c7.2-12.2,17-21.7,29.5-28.6c12.5-6.8,26.5-10.3,42-10.3c9.7,0,19.1,1.5,28.2,4.5
	c9.1,3,16.7,6.8,23.1,11.6C1286.4,390.6,1291.8,396.7,1296.2,404.1"/>
<path class="st0" d="M1339.1,312.9c4.3,0,8,1.5,11,4.6c3,3.1,4.6,6.8,4.6,11.1c0,4.2-1.5,7.9-4.6,11c-3.1,3.1-6.7,4.6-11,4.6
	c-4.2,0-7.9-1.5-10.9-4.6c-3.1-3.1-4.6-6.7-4.6-11c0-4.3,1.5-8,4.6-11.1C1331.3,314.5,1334.9,312.9,1339.1,312.9 M1329.7,373.5h18.9
	v147.1h-18.9V373.5z"/>
<path class="st0" d="M1457.6,369.7c22.7,0,41.4,8.2,56.3,24.6c13.5,15,20.3,32.7,20.3,53.1c0,20.5-7.2,38.5-21.5,53.9
	c-14.3,15.4-32.7,23-55.2,23c-22.6,0-41-7.7-55.3-23c-14.3-15.4-21.5-33.3-21.5-53.9c0-20.4,6.8-38,20.3-53
	C1416,378,1434.8,369.7,1457.6,369.7 M1457.5,388.2c-15.7,0-29.3,5.8-40.6,17.4c-11.3,11.6-16.9,25.7-16.9,42.2
	c0,10.6,2.6,20.5,7.7,29.7c5.2,9.2,12.1,16.3,20.9,21.3c8.8,5,18.4,7.5,28.9,7.5c10.5,0,20.1-2.5,28.9-7.5
	c8.8-5,15.7-12.1,20.9-21.3c5.2-9.2,7.7-19.1,7.7-29.7c0-16.5-5.7-30.6-17-42.2C1486.7,394,1473.2,388.2,1457.5,388.2"/>
<path class="st0" d="M1569.2,373.5h18.9v26.4c7.6-10.1,15.9-17.6,25.1-22.6c9.2-5,19.2-7.5,30-7.5c11,0,20.7,2.8,29.3,8.4
	c8.5,5.6,14.8,13.1,18.9,22.6c4.1,9.5,6.1,24.2,6.1,44.2v75.7h-18.9v-70.2c0-16.9-0.7-28.2-2.1-33.9c-2.2-9.7-6.4-17.1-12.6-22
	c-6.2-4.9-14.3-7.4-24.3-7.4c-11.4,0-21.7,3.8-30.8,11.4c-9.1,7.6-15,16.9-17.9,28.1c-1.8,7.3-2.7,20.6-2.7,40v53.9h-18.9V373.5z"/>
<path class="st0" d="M1884.6,373.5v147.1h-18.6v-25.3c-7.9,9.6-16.8,16.9-26.7,21.8c-9.9,4.9-20.7,7.3-32.4,7.3
	c-20.8,0-38.6-7.5-53.3-22.6c-14.7-15.1-22.1-33.5-22.1-55.1c0-21.2,7.4-39.3,22.3-54.3c14.9-15,32.7-22.6,53.7-22.6
	c12.1,0,23,2.6,32.8,7.7c9.8,5.1,18.4,12.8,25.7,23.1v-27H1884.6z M1809,388c-10.5,0-20.3,2.6-29.2,7.8c-8.9,5.2-16,12.4-21.3,21.8
	c-5.3,9.4-7.9,19.3-7.9,29.7c0,10.4,2.7,20.3,8,29.7c5.3,9.5,12.4,16.8,21.4,22.1s18.6,7.9,28.8,7.9c10.4,0,20.2-2.6,29.4-7.8
	c9.3-5.2,16.4-12.3,21.4-21.2c5-8.9,7.5-19,7.5-30.1c0-17-5.6-31.2-16.8-42.7C1839.1,393.7,1825.3,388,1809,388"/>
<path class="st0" d="M1676.5,558.7c4.3,0,8,1.5,11,4.6c3.1,3.1,4.6,6.8,4.6,11.1c0,4.2-1.5,7.9-4.6,10.9c-3.1,3.1-6.7,4.6-11,4.6
	c-4.2,0-7.9-1.5-10.9-4.6c-3-3.1-4.6-6.7-4.6-10.9c0-4.3,1.5-8,4.6-11.1C1668.6,560.2,1672.2,558.7,1676.5,558.7"/>
<path class="st0" d="M1762.9,558.7c4.3,0,8,1.5,11,4.6c3,3.1,4.6,6.8,4.6,11.1c0,4.2-1.5,7.9-4.6,10.9c-3.1,3.1-6.7,4.6-11,4.6
	c-4.2,0-7.9-1.5-10.9-4.6c-3.1-3.1-4.6-6.7-4.6-10.9c0-4.3,1.5-8,4.6-11.1C1755,560.2,1758.7,558.7,1762.9,558.7"/>
<path class="st0" d="M1846.7,558.7c4.3,0,8,1.5,11,4.6c3,3.1,4.6,6.8,4.6,11.1c0,4.2-1.5,7.9-4.6,11c-3.1,3.1-6.7,4.6-11,4.6
	c-4.2,0-7.8-1.5-10.9-4.6c-3.1-3.1-4.6-6.7-4.6-11c0-4.3,1.5-8,4.6-11.1C1838.9,560.2,1842.5,558.7,1846.7,558.7"/>
<path class="st0" d="M1506.5,558.7c4.3,0,8,1.5,11,4.6c3,3.1,4.6,6.8,4.6,11.1c0,4.2-1.5,7.9-4.6,10.9c-3.1,3.1-6.7,4.6-11,4.6
	c-4.2,0-7.9-1.5-10.9-4.6c-3-3.1-4.6-6.7-4.6-10.9c0-4.3,1.5-8,4.6-11.1C1498.6,560.2,1502.3,558.7,1506.5,558.7"/>
<path class="st0" d="M1592.9,558.7c4.3,0,8,1.5,11,4.6c3.1,3.1,4.6,6.8,4.6,11.1c0,4.2-1.5,7.9-4.6,10.9c-3,3.1-6.7,4.6-11,4.6
	c-4.2,0-7.9-1.5-10.9-4.6c-3-3.1-4.6-6.7-4.6-10.9c0-4.3,1.5-8,4.6-11.1C1585.1,560.2,1588.7,558.7,1592.9,558.7"/>
<path class="st0" d="M1421.3,558.7c4.3,0,8,1.5,11,4.6c3.1,3.1,4.6,6.8,4.6,11.1c0,4.2-1.5,7.9-4.6,10.9c-3.1,3.1-6.7,4.6-11,4.6
	c-4.2,0-7.9-1.5-10.9-4.6c-3-3.1-4.6-6.7-4.6-10.9c0-4.3,1.5-8,4.6-11.1C1413.5,560.2,1417.1,558.7,1421.3,558.7"/>
</svg>
