<svg id="Layer_1" data-name="Layer 1" xmlns="http://www.w3.org/2000/svg" viewBox="0 0 215.25 212.24"><defs><style>.cls-1{fill:#f8b31c;}.cls-2{fill:#002138;}.cls-3{fill:#596b7d;}</style></defs><title>logosArtboard 12 copy 51</title><path class="cls-1" d="M28,116.12a11.83,11.83,0,0,0,2.15.12c5.64,0,9.34-3,9.34-9.57,0-5.88-3.33-8.68-8.69-8.68a13.36,13.36,0,0,0-2.8.24ZM21.86,93.85a49.28,49.28,0,0,1,8.31-.61c5.24,0,8.65.85,11.24,2.84C44.25,98.19,46,101.6,46,106.47c0,5.23-1.91,8.84-4.51,11.07-2.87,2.4-7.3,3.53-12.65,3.53a53.74,53.74,0,0,1-7-.4Z"/><path class="cls-1" d="M67.05,114.42c0,2.59.09,4.7.17,6.37H61.86l-.29-2.8h-.12a7.07,7.07,0,0,1-6.2,3.24c-4.06,0-7-2.51-7-8.64V101h6.17v10.67c0,2.88.93,4.62,3.12,4.62a3.26,3.26,0,0,0,3.08-2.15,3.14,3.14,0,0,0,.25-1.34V101h6.16Z"/><path class="cls-1" d="M79.7,116.81c2.44,0,3.94-2.39,3.94-6,0-2.92-1.14-5.93-3.94-5.93s-4,3-4,6c0,3.37,1.42,5.92,4,5.92Zm-.12,4.43c-5.8,0-10.26-3.82-10.26-10.23S73.54,100.5,80,100.5c6,0,10.1,4.18,10.1,10.18,0,7.23-5.15,10.56-10.43,10.56Z"/><path class="cls-1" d="M108.19,120.3a14,14,0,0,1-5.52.94c-6.41,0-10.51-3.94-10.51-10.19,0-5.8,4-10.55,11.36-10.55a14.49,14.49,0,0,1,4.71.77l-1,4.59a8.39,8.39,0,0,0-3.45-.61,5.14,5.14,0,0,0-5.32,5.56,5.2,5.2,0,0,0,5.44,5.6,8.83,8.83,0,0,0,3.53-.65Z"/><path class="cls-2" d="M120,95.59v14.59c0,4.36,1.65,6.58,4.59,6.58s4.66-2.1,4.66-6.58V95.59h5.71v14.22c0,7.82-4,11.54-10.56,11.54-6.39,0-10.15-3.53-10.15-11.62V95.59Z"/><path class="cls-2" d="M157.58,120.22a16.07,16.07,0,0,1-6.5,1.13c-8.76,0-13.27-5.49-13.27-12.71,0-8.65,6.16-13.46,13.83-13.46a14.85,14.85,0,0,1,6.24,1.13l-1.16,4.55a12.41,12.41,0,0,0-4.82-.94c-4.55,0-8.08,2.74-8.08,8.38,0,5.08,3,8.27,8.12,8.27a14.4,14.4,0,0,0,4.78-.82Z"/><path class="cls-3" d="M164.08,118a14.13,14.13,0,0,0,20.85,0h-.31c-.09.1-.19.19-.28.28a13.89,13.89,0,0,1-19.67,0c-.09-.09-.19-.18-.28-.28Zm1.25,0,0,0s0,0,0,0V118h-.07Zm2.92,0s0,.07,0,.13a4.92,4.92,0,0,1-.26.48l-.21.39c-.12.21-.22.39-.28.48s-.09.1-.14.08l-.08,0s0,0,0,0,0,0,0,0l.29.15c.12.06.3.2.47.3a1.21,1.21,0,0,0,.9.15,1,1,0,0,0,.59-.49.92.92,0,0,0,.1-.7,1.33,1.33,0,0,0-.76-.75l-.35-.19-.07,0Zm1.8,0a10.52,10.52,0,0,0,8.91,0h-.53a10.18,10.18,0,0,1-3.32.75.49.49,0,0,1-.49-.47V118h-.23v.28a.49.49,0,0,1-.5.47,10.12,10.12,0,0,1-3.31-.75Zm10.43,0c-.14.09-.42.23-.47.26l-.33.17s0,0,0,0h0l.1,0c.08,0,.12,0,.16.08s.08.13.28.47l.22.4c.11.2.21.38.25.48s0,.13,0,.16a.18.18,0,0,1-.07,0s0,0,0,0,0,0,.06,0l.28-.16.63-.34c.09,0,.1,0,.09-.12s-.08-.21-.11-.27l0,0s0,0,0,0,0,.16,0,.22a.59.59,0,0,1-.2.15c-.22.13-.28.11-.37,0l-.19-.35-.1-.18v0l.32-.17a.14.14,0,0,1,.18,0,.35.35,0,0,1,.05.08h0v-.06l-.07-.15c-.06-.12-.07-.17-.08-.18h0s0,0,0,0a.26.26,0,0,1-.09.1l-.36.2,0,0-.31-.57v0l.32-.17c.12,0,.16,0,.2,0a.12.12,0,0,1,.05.08l0,0v0l-.07-.16a0,0,0,0,0,0,0Zm-11.33,1.57a.8.8,0,0,1-.5.46.85.85,0,0,1-.6-.12c-.18-.11-.24-.2-.25-.26a.71.71,0,0,1,.07-.18s.12-.22.25-.46l.15-.29c.1-.17.21-.37.26-.44s0,0,.05,0l.15.06a1,1,0,0,1,.52.58.85.85,0,0,1-.1.68m2.16-.31-.11,0-.62-.21-.34-.13s-.06,0-.06,0,0,0,0,0l.1,0c.07,0,.07.09.05.18s0,.14-.17.52l-.15.42c-.08.23-.14.42-.19.52s-.06.11-.11.11l-.1,0s0,0,0,0,0,0,0,0l.31.09.66.25c.1,0,.12,0,.16,0a1.57,1.57,0,0,0,.12-.26v0l0,0a.23.23,0,0,1-.17.14.6.6,0,0,1-.24-.05c-.25-.08-.28-.13-.22-.3s.1-.3.13-.38l.06-.19,0,0,.34.12c.09,0,.11.09.1.15a.29.29,0,0,1,0,.09l0,0,0,0,.07-.16c.05-.12.08-.16.08-.17v0l-.05,0s-.07,0-.13,0l-.39-.13v0l.22-.61,0,0,.34.13c.12.06.13.09.14.14a.25.25,0,0,1,0,.1v0l0,0a1.11,1.11,0,0,0,.07-.16,1,1,0,0,0,.07-.15v0Zm2.92.49-.25-.07-.37-.06a1.15,1.15,0,0,0-.83.2,1,1,0,0,0-.11,1.46,1.23,1.23,0,0,0,.85.36,1.18,1.18,0,0,0,.47,0s.06,0,.07-.07a1.51,1.51,0,0,0,.09-.33l0,0s0,0,0,0a.31.31,0,0,1-.1.16c-.11.12-.25.13-.48.11a.87.87,0,0,1-.73-1,.88.88,0,0,1,.29-.65.71.71,0,0,1,.5-.11.76.76,0,0,1,.51.2.37.37,0,0,1,.08.24s0,.06,0,.06,0,0,0,0,0-.19,0-.28,0-.12,0-.14,0,0,0,0m2.75,1.63h-.13c-.08,0-.1-.05-.12-.12s0-.31-.08-.55l-.06-.45c0-.38-.05-.46-.05-.54s0-.13.07-.16h.08s0,0,0,0,0,0-.06,0l-.32.05-.37,0s0,0,0,0,0,0,0,0h.1c.09,0,.11,0,.13.13l.07.54v.08l-1,.11h0v0c0-.39-.05-.46-.06-.55s0-.13.08-.15l.07,0s0,0,0,0,0,0-.06,0l-.32,0-.37,0s-.06,0,0,0,0,0,0,0h.1c.09,0,.12,0,.13.14a3.74,3.74,0,0,1,.07.54l.06.45a5.07,5.07,0,0,1,.05.54c0,.07,0,.14-.05.15l-.09,0s0,0,0,0,0,0,.05,0l.32,0,.4,0s0,0,0,0,0,0,0,0h-.14c-.08,0-.09-.06-.11-.13a5.34,5.34,0,0,1-.08-.55l0-.22v0l1-.11h0l0,.22c0,.24.06.44.06.55s0,.13-.06.15l-.09,0s0,0,0,0,0,0,.06,0l.32,0,.4,0s.05,0,0,0,0,0,0,0m1.44-.39-.13,0c-.08,0-.11,0-.13-.09a5.2,5.2,0,0,1-.17-.54l-.12-.44c-.11-.37-.13-.44-.15-.53s0-.13.05-.16l.07,0,0,0s0,0-.06,0-.24.07-.3.1l-.32.08s-.06,0-.06,0h.05l.09,0q.09,0,.12.12c0,.08,0,.14.16.52l.12.44a3.93,3.93,0,0,1,.14.54c0,.07,0,.12,0,.14a.19.19,0,0,1-.09,0s0,0,0,0,0,0,.06,0l.31-.1.38-.1s.05,0,0,0,0,0,0,0m1.65-.94s0,0,0,0v0a.47.47,0,0,1,0,.17c0,.09-.13.13-.26.18a.55.55,0,0,1-.31.06c-.07,0-.13-.19-.25-.5l-.16-.43-.19-.5c0-.09,0-.14,0-.18l.09,0s0,0,0,0,0,0,0,0l-.33.13-.33.12s-.05,0,0,0,0,0,0,0l.09,0c.08,0,.11,0,.15.09s.06.15.2.51l.16.42c.09.23.16.41.19.52s0,.13,0,.16l-.08,0s0,0,0,0,0,0,0,0,.24-.1.3-.12l.71-.26c.12,0,.13-.06.12-.12a2.06,2.06,0,0,0-.07-.29"/><path class="cls-3" d="M161.26,113.4a14.15,14.15,0,0,0,2.82,4.59h.31a13.77,13.77,0,0,1-2.88-4.59Zm1.38,0-.22.47s0,.09,0,.11.05,0,.1,0l1.42-.55.08,0h-.53l-.59.26h0s.06-.12.12-.25Zm1.6,0,0,.09,0,0s0,0,0-.06l0-.06Zm1,0a10.55,10.55,0,0,0,4.84,4.59h.53a10.35,10.35,0,0,1-5.13-4.59Zm2.62,0s0,0,0,.06h0s0,0,0,0h0s0,0,0,0-.05.39-.16,1.47v0a.36.36,0,0,0,.16.27.58.58,0,0,0,.32.1h0a.55.55,0,0,0,.31-.1.35.35,0,0,0,.15-.27v0c0-.38-.06-.57-.06-.66s0-.09,0-.1h0s0-.17-.08-.74v-.05h-.06v-.06h-.12v.06h-.25v-.06Zm2.09,0s0,0,0,0h0l.11.19.11.21a.73.73,0,0,0,.24.31,1.06,1.06,0,0,0,.2.12.8.8,0,0,0-.16.16.79.79,0,0,0-.13.26h0l0,.24h0l.05.25h0a.84.84,0,0,0,.18.24,1.5,1.5,0,0,0,.18.14l-.13.11h0a.57.57,0,0,0-.11.25s0,.07,0,.1a1.35,1.35,0,0,0,0,.18.59.59,0,0,0,.12.22l.08.09h0l.07,0h0a.1.1,0,0,0,0,0,.25.25,0,0,0-.06.15v0a.3.3,0,0,0,.05.15.25.25,0,0,0,.15.1l.12,0v0l0,0h0v.16h.06l0,0v0l0,0h-.06a.27.27,0,0,0,0,.08.17.17,0,0,0,.14.08.18.18,0,0,0,.15-.09.2.2,0,0,0,0-.08v-.22a.41.41,0,0,0,.19-.11.32.32,0,0,0,.13-.24h0a.3.3,0,0,0-.08-.2.73.73,0,0,0,.28-.53V116a.48.48,0,0,0-.06-.25.57.57,0,0,0-.18-.2h0l.11-.07a.66.66,0,0,0,.22-.22.8.8,0,0,0,.08-.33v-.07a.66.66,0,0,0,0-.14.67.67,0,0,0-.24-.39l0,0h0l.19-.16h0l.18-.22h0l.1-.19,0-.08.07-.1h0a.19.19,0,0,1,0-.06l0,0h-.14l0,0h0l-.07.11a.3.3,0,0,1,0,.08,1.74,1.74,0,0,0-.1.19L172,114l-.18.15-.08,0-.18-.09,0,0V114l.05,0h0l.22-.18.15-.24h0l.08-.15h-.14l-.05.11h0l-.14.21-.18.14,0-.46h-.11l0,.51V114h0l-.08-.05-.25-.1,0-.49h-.11v.44h0l0,0-.13-.08s-.08,0-.08-.06l-.2-.26h-.13a2.65,2.65,0,0,0,.24.33.2.2,0,0,0,.07.06l.13.08.07,0h0l.09,0,.06,0,.06,0,.18.08.14.07.06,0,.05,0h0l.19.11h0a.48.48,0,0,1,.21.33.6.6,0,0,1,0,.12v.06a.52.52,0,0,1-.06.28.49.49,0,0,1-.19.19.51.51,0,0,1-.18.09l-.06,0h0l-.05,0-.06,0-.06,0,.06,0,.06,0h0l.05,0a1.21,1.21,0,0,0,.16-.16.26.26,0,0,0,.09-.18v0a.44.44,0,0,0-.11-.27h0a.52.52,0,0,0-.11-.1l0,0h0l-.06,0a.91.91,0,0,0-.14-.07l-.17-.07h0l0,0h0l-.06,0-.23-.08h0a.92.92,0,0,1-.24-.13.71.71,0,0,1-.21-.27l-.12-.22-.08-.15Zm4.47,0V118h.23V113.4Zm.9,0,0,0a1,1,0,0,0,1.2,0l0,0h-.21a.93.93,0,0,1-.84,0Zm1.52,0-1,1.59,0,.05,0,0a.33.33,0,0,1,.1.27v0a.36.36,0,0,1-.05.21l0,.09,1.61.29a.43.43,0,0,0,.39.29h0a.41.41,0,0,0,.35-.18l.62.14,0,.64h0a.17.17,0,0,0,.17.18.18.18,0,0,0,.17-.18l0-.54.76.18.06-.09h0l1.54-2.18v-.08a.28.28,0,0,1-.11-.15.44.44,0,0,1,0-.18.2.2,0,0,1,0-.11l0,0-.05-.09-.24,0a2.76,2.76,0,0,1-.37,0,3.06,3.06,0,0,1-.49-.15h-.26a.9.9,0,0,0,.22.11,3.8,3.8,0,0,0,.51.15,1.91,1.91,0,0,0,.39,0h.12l-.75,1.07-.69,1h-.09l-.23,0h0a1,1,0,0,1-.27,0l.17-2.35h-.11l-.17,2.31v.12l0,.35v.11l0,.57a.06.06,0,0,1-.12,0h0l0-.6v-.12l0-.41v-.14l-.1-1.49v-.2l0-.49h-.11l0,.66-.88,1.46a.71.71,0,0,0-.22-.2.73.73,0,0,0-.43-.13h0l-.47,0h-.14l-.2,0-.06,0-.11,0-.09,0h0l-.18-.08h0l1-1.59Zm4.8,0,0,0a.94.94,0,0,0,.6.19,1,1,0,0,0,.6-.19l0,0h-.21a.93.93,0,0,1-.84,0Zm1.95,0a10.56,10.56,0,0,1-1.93,2.51,10.21,10.21,0,0,1-3.2,2.08H179a10.55,10.55,0,0,0,4.84-4.59Zm1,0-.09.16s0,0,0,.06,0,0,0,0a.39.39,0,0,1,.06-.11c0-.07.09-.07.16,0l.52.22.41.19.5.22c.08,0,.11.08.09.15a.64.64,0,0,1,0,.07v0s0,0,.05,0,.09-.23.11-.29.11-.21.15-.3,0-.06,0-.07l0,0,0,.08c0,.05-.09.05-.17,0l-.5-.21-.33-.15Zm2.92,0a13.77,13.77,0,0,1-2.88,4.59h.31a14,14,0,0,0,2.82-4.59ZM165.39,118l-.06-.07a.14.14,0,0,1,0-.18l.39-.39.33-.31a5,5,0,0,1,.4-.37c.06,0,.11-.08.16,0a.45.45,0,0,1,.07.07h0l0-.06c-.07-.07-.19-.18-.23-.23s-.15-.16-.27-.29h0v0l.08.1c0,.06,0,.11,0,.17a4.66,4.66,0,0,1-.39.39l-.74.72-.05,0-.08-.07a.42.42,0,0,1-.11-.25.54.54,0,0,1,.18-.38.41.41,0,0,1,.54,0s.06,0,.07,0v0l0,0a.62.62,0,0,0-.89,0,.49.49,0,0,0-.12.31.63.63,0,0,0,.22.45c.08.08.2.18.27.26l.22.24Zm3,0-.25-.14s0,0-.06,0l0,0,.08.06s0,0,0,0Zm12.36,0c0-.09,0-.12-.05-.13h0l0,0-.09.06-.09,0Zm-15.7-3.37a1,1,0,0,0-1.46-.31.93.93,0,0,0-.24,1.39,1,1,0,0,0,1.42.34,1,1,0,0,0,.28-1.42m-.54,1.17c-.53.35-.85.15-1-.09a.82.82,0,0,1,.38-1.14c.62-.41.92-.11,1,0a.85.85,0,0,1-.38,1.19m20.67-1.4a1,1,0,0,0-.81-.14,1.25,1.25,0,0,0-.71.58,1.36,1.36,0,0,0-.21.42s0,.06,0,.1a2.2,2.2,0,0,0,.25.23h.05s0,0,0-.06a.29.29,0,0,1-.1-.17.55.55,0,0,1,.14-.47,1,1,0,0,1,1.63.38.6.6,0,0,1-.13.49.72.72,0,0,1-.41.35.38.38,0,0,1-.26,0,0,0,0,0,0-.06,0s0,0,0,.06l.23.16.1.08h0l.18-.19a2.6,2.6,0,0,0,.22-.3,1.13,1.13,0,0,0,.22-.83,1,1,0,0,0-.43-.64m-1.86,1.45c-.06-.13-.09-.23,0-.32l.05-.06v0l0,0a3,3,0,0,0-.21.22c-.05.06-.14.13-.19.19l0,.05h0l0,0c.06-.06.1,0,.13,0a1.16,1.16,0,0,1,.09.14l.16.36v0l-.39.42h0l-.53-.23a0,0,0,0,1,0,0v0s0,0-.07,0-.28.27-.34.34-.08.09-.06.11l0,0,.08-.07s.12-.06.36,0c.39.16,1.43.59,1.58.64s.09,0,.1,0,0,0,0-.13Zm.37,1.29-.62-.28v0l.33-.34h0l.29.61v0Zm-5-2.87.09,1.26a.79.79,0,0,0-.44-.14h-.13a.84.84,0,0,0-.24.06Zm-.5,1.7-.07,0a.27.27,0,0,1-.27.15h0a.3.3,0,0,1-.3-.23l0,0-1.57-.3a.48.48,0,0,0,0-.18v-.06a.52.52,0,0,0,0-.18l.09,0,.23.09.08,0,.17,0h.19l.47,0a.61.61,0,0,1,.37.12.62.62,0,0,1,.23.25h.09a.7.7,0,0,1,.39-.18h.11a.67.67,0,0,1,.41.15h0l0,0,0,.44Zm1.07.24,0-.33a1.36,1.36,0,0,0,.27,0l.25,0h0a.62.62,0,0,0,0,.21v.06h0s0,0,0,0h0a.5.5,0,0,0,0,.13Zm2.07-2.32a1,1,0,0,0,0,.15.38.38,0,0,0,.11.16L180,116.31h0a1,1,0,0,1,0-.1l0-.08v0h0a.57.57,0,0,1,0-.18s0-.07,0-.08l.1-.14,1.27-1.81Zm-13.11-.31.07.61a.67.67,0,0,1,0,.1h0s0,.15.08.74h0a.29.29,0,0,1-.11.18.52.52,0,0,1-.24.08.53.53,0,0,1-.26-.08c-.05,0-.12-.12-.11-.18h0l.14-1.32c0-.07,0-.11,0-.14Zm2.66,3.38h0s-.06,0-.08-.06a.08.08,0,0,1,0-.08v0a.09.09,0,0,1,0-.08.3.3,0,0,1,.08-.07l.12,0V117Zm.36.36h0v0s0,0,0,0l0,0v0h0v-.61l.07,0,.08,0Zm.33-.56h0c0,.07,0,.1-.09.16a.23.23,0,0,1-.11.07v-.09a.66.66,0,0,0,0-.14h0a.05.05,0,0,0,0,0s0,0,0,0l-.05,0h0l0,0-.12,0H171l-.23-.08-.07,0v0l-.05-.05a.57.57,0,0,1-.1-.19.93.93,0,0,1,0-.14v-.08a.48.48,0,0,1,.09-.19l.16-.14.11,0,.1,0h0l0,0-.05,0-.07,0a.28.28,0,0,0-.1.17.37.37,0,0,0,0,.09.2.2,0,0,0,0,.11.22.22,0,0,0,.1.11l.07,0h0l0,0,.06,0,.07,0h0l.08,0,.06,0h0l.07,0,0,0h0a.16.16,0,0,1,.08.15Zm-.59-.55s0,0,0,0a.1.1,0,0,1-.06,0s0,0,0-.07,0,0,0-.06a.39.39,0,0,1,.06-.11Zm.1-.38.08,0,.13.07v.36l-.12.09-.06,0Zm.65-.06a.34.34,0,0,1,0,.19V116a.65.65,0,0,1-.06.23.64.64,0,0,1-.2.23l-.12-.06h0l0,0,0,0h0l.06,0,.05,0,.07,0h0a.26.26,0,0,0,.08-.19v0h0a.37.37,0,0,0-.1-.17l0,0,0,0h0l0,0-.17-.08h0l0,0h-.06l-.06,0-.13,0-.07,0h0l-.07,0-.11-.08a.75.75,0,0,1-.15-.2l0-.23,0-.22h0a.71.71,0,0,1,.11-.21.6.6,0,0,1,.21-.18h0l.22.07h0v.15h0s-.06.06-.08.07a.6.6,0,0,0-.14.2.51.51,0,0,0,0,.13v0a.44.44,0,0,0,.1.16.91.91,0,0,0,.16.13l0,0a0,0,0,0,1,0,0h0l.06,0,.06,0a0,0,0,0,1,0,0h0l.15.08.06,0h0l.05,0,.06,0,.11,0a.29.29,0,0,1,.14.15m-.33.36v-.18a.11.11,0,0,1,0,.06v0a.18.18,0,0,1,0,.1m-.47-1.44v.43l-.07-.06s-.06-.06-.06-.11v0a.31.31,0,0,1,0-.09.53.53,0,0,1,.11-.15m.11-.27.11,0,.19.1,0,.6c-.05,0-.11,0-.2.08l-.06,0,0-.63v-.15m.39.67,0-.45,0,0a.37.37,0,0,1,.09.21v0s0,.06-.06.11a.27.27,0,0,1-.07.08"/><path class="cls-3" d="M160.62,111.11a14.63,14.63,0,0,0,.64,2.29h.25a14.8,14.8,0,0,1-.66-2.3Zm.9,0v.06c0,.09,0,.18,0,.26s0,.09,0,.11,0,0,.05,0a1.45,1.45,0,0,0,.3,0s0,0,0,0l0,0-.09,0c-.07,0-.09-.09-.12-.24l0-.14Zm2.79,0a10.29,10.29,0,0,0,.9,2.29h.24a10.73,10.73,0,0,1-.92-2.3Zm1.16,0,.36.2v0a1.24,1.24,0,0,0,0,.27h0a1.15,1.15,0,0,0,.09.28l.05.12.13.19.15.17h0l.16.12h0l.18.14a1.83,1.83,0,0,0,.24.13l.19.09.2.07.2.06.15,0,.14.06a.16.16,0,0,1,.09.13v.19h.11v-.17a.26.26,0,0,0-.14-.23h0l-.15-.07h0l-.16,0-.19-.06-.19-.07-.19-.08a1.59,1.59,0,0,1-.22-.13l-.18-.13c-.06-.05-.1-.07-.15-.12a1,1,0,0,1-.14-.15.67.67,0,0,1-.11-.18.24.24,0,0,1-.05-.1.89.89,0,0,1-.09-.26h0a.86.86,0,0,1,0-.22v-.13a.59.59,0,0,1,0-.13h-.12s0,0,0,.07l-.13-.07Zm1.13,0a1.6,1.6,0,0,0,0,.23v.07a1.11,1.11,0,0,0,0,.19,1.54,1.54,0,0,0,0,.17l0,0,.1.19a.56.56,0,0,0,.1.15.87.87,0,0,0,.27.23.8.8,0,0,0,.19.13h0l.33.13.28.12h0l.1,0,.09.07a.3.3,0,0,1,.07.17v.38h.12V113h0a.41.41,0,0,0-.13-.26l-.08-.06v-.2a.51.51,0,0,0,.17,0,.68.68,0,0,0,.26-.07.55.55,0,0,0,.32-.36l.91-.49a1.58,1.58,0,0,0-.05.38h-.21v.44h1.39l0,1h.12l0-1h.43l0,1h.11l0-1h1.32V112h-.18a1.62,1.62,0,0,0-.11-.58.27.27,0,0,0,0-.12h0a.25.25,0,0,0,.23-.18h-.13a.12.12,0,0,1-.1,0h-.5v.11h.36a.15.15,0,0,1-.14.13h-.45v.11h.45a.28.28,0,0,0,.13,0,1.93,1.93,0,0,1,.09.5h-2.77a1.93,1.93,0,0,1,.08-.49l.11,0h.46v-.11H170a.12.12,0,0,1-.09,0h0l0,0a.14.14,0,0,1,0-.07h.36v-.11h-.5a.14.14,0,0,1-.11,0h-.13a.26.26,0,0,0,.24.17h0v0h0s0,0,0,0a.21.21,0,0,0,0,.07s0,0,0,0l-1,.55a.39.39,0,0,0-.18,0,.6.6,0,0,0,.18-.41h0l.63-.43h-.19l-.53.35h-.15a.52.52,0,0,0,.14-.36h-.11a.46.46,0,0,1-.2.36.43.43,0,0,1-.25.11.13.13,0,0,1,0-.06.52.52,0,0,1,.18-.35l.06,0H168l-.06,0h-.2a.28.28,0,0,1,.11.08l.07.08a.43.43,0,0,1,.09.25s0,0,0,.06a.43.43,0,0,1-.25-.11.44.44,0,0,1-.2-.37h-.12a.57.57,0,0,0,.14.35h0l-.15,0v0l-.52-.35Zm3.83.11h.12v-.11h-.12Zm1.43,0H172v-.11h-.11Zm2.53,2.18h.23v-2.29h-.23Zm1.4-2.29-.73,1.7h0v.06a.69.69,0,0,0,.25.53h.2a.41.41,0,0,1-.11-.07.53.53,0,0,1-.22-.4h1.51a.59.59,0,0,1-.22.4l-.12.07h.21a.69.69,0,0,0,.25-.53v0h0v0h0l-.73-1.7h-.25Zm2.74,0,.12,1.89-.26,0h0a2.31,2.31,0,0,1-.54,0,1.45,1.45,0,0,1-.51-.21h-.08l-.41.63H177l.34-.52a1.33,1.33,0,0,0,.49.2,2.67,2.67,0,0,0,.56.06h0l.27,0,0,.28h.12l0-.27V113l-.12-1.9Zm1,0-.15,2.13v.15h.11v-.08l0,0h.26a.53.53,0,0,1,.26.07l.05,0h.25l-.25-.13a.57.57,0,0,0-.31-.09h-.29l.15-2.08Zm2.57,0-.72,1.7h0v.06a.68.68,0,0,0,.24.53h.21a.41.41,0,0,1-.11-.07.56.56,0,0,1-.22-.4H183a.59.59,0,0,1-.22.4l-.12.07h.21a.69.69,0,0,0,.25-.53v-.06h0l-.72-1.7h-.25Zm2.36,0a10.86,10.86,0,0,1-.92,2.29h.25a11.22,11.22,0,0,0,.9-2.3Zm1.65,0a1.59,1.59,0,0,0,.33.09,1,1,0,0,0,.61-.1Zm2,0a13.92,13.92,0,0,1-.65,2.29h.24a13.92,13.92,0,0,0,.65-2.29ZM163,113.4l.25-.56c.14-.35.33-.78.42-1a.36.36,0,0,0,0-.1s0,0-.09,0l-1.52.58c-.13,0-.19,0-.24,0l0-.06s0,0,0,0,0,0,0,.07l.1.23.11.29s0,.06,0,0,0,0,0,0a.4.4,0,0,1,0-.13c0-.06,0-.1.19-.16l1.06-.46h0c0,.06-.23.52-.33.74s-.17.41-.25.59Zm1,0c.15-.05.21-.06.25,0h.07c0-.1-.09-.18-.09-.2s-.05-.14-.11-.3,0-.05,0,0,0,0,0,0a.42.42,0,0,1,0,.13s0,.11-.23.18l-.4.18Zm6.08,0,0,0h0a.39.39,0,0,0-.28-.23h-.1a.41.41,0,0,0-.19,0h-.12a.39.39,0,0,1-.18-.06L169,113v0a.36.36,0,0,1,.26-.19l.15,0,.15,0h0l.25.1a2,2,0,0,1,.23.17s.06,0,.09.08l0,0h0l.14.21h.14a2.88,2.88,0,0,1-.18-.28l0,0-.07-.08a.6.6,0,0,0-.08-.08,2.71,2.71,0,0,0-.25-.17h0l-.26-.11h0a.63.63,0,0,0-.19,0l-.18,0a.57.57,0,0,0-.33.24h0l-.18,0h-.14l.14.11h.07l.15,0h0l.13.11h0a.38.38,0,0,0,.23.08h0l.11,0h0a.24.24,0,0,1,.14,0h.07a.29.29,0,0,1,.21.16Zm1.95,0h0a1.34,1.34,0,0,1,.16-.23.86.86,0,0,1,.2-.18,1.45,1.45,0,0,1,.25-.12,1.29,1.29,0,0,1,.21-.07h0a.34.34,0,0,1,.14,0H173a.55.55,0,0,1,.22.06h0l.15.1V113l-.14.1-.14.07-.12,0h-.09l-.07,0-.11,0h0a.29.29,0,0,0-.25.14l-.07.08s0,0,0,.06h.14l.07-.07a.19.19,0,0,1,.16-.1h0l.06,0,.1,0H173l.16,0h0l.15-.08.15-.1.16,0h.07l.08-.06.06,0h-.14l-.16-.08h0v0h0l-.2-.14h0a.53.53,0,0,0-.26-.08H173a.51.51,0,0,0-.17,0h0a1,1,0,0,0-.24.08,1.58,1.58,0,0,0-.26.13h0a.87.87,0,0,0-.23.2,1.56,1.56,0,0,0-.17.25l0,.06Zm13.48,0-.08,0a4.36,4.36,0,0,1-.51-.24c-.07,0-.1-.07-.09-.12a.46.46,0,0,0,0-.09s0,0,0,0,0,0-.05,0l-.12.3-.09.2Zm1.68-1.42s0,0,0,0a.34.34,0,0,1,0,.08c0,.08-.09.09-.18.06l-.51-.18-.43-.14c-.22-.08-.42-.14-.52-.19s-.11-.06-.11-.12a.92.92,0,0,1,0-.09s0,0,0,0,0,0,0,0-.08.25-.1.31-.14.35-.26.7c0,.13,0,.14,0,.18l.26.13s0,0,.05,0l0,0a.32.32,0,0,1-.12-.11c-.05-.08,0-.18,0-.31s.1-.25.15-.27.23,0,.54.12l.43.15.52.18c.08,0,.11.07.1.14a.36.36,0,0,1,0,.1s0,0,0,0,0,0,0,0l.1-.34.12-.33s0-.05,0-.06m-4.87-.75.66,1.58h-.66Zm-6.44,0v1.58h-.67Zm.11,0,.68,1.58H176Zm6.21,0v1.57h-.66Zm-13.56.34h.07a.47.47,0,0,1-.23.35.5.5,0,0,1-.27.1h0a.42.42,0,0,1,.12-.29.43.43,0,0,1,.35-.16m-.47.12,0,.06v-.06h0m-.45.82-.32-.13h0a.52.52,0,0,1-.19-.11,1.31,1.31,0,0,1-.25-.22.66.66,0,0,1-.08-.13l0-.07.41.23h0a.54.54,0,0,0,.32.37.63.63,0,0,0,.26.07.39.39,0,0,0,.18,0v.16h0Zm0-.59a.47.47,0,0,1-.23-.35h.07a.41.41,0,0,1,.34.16.43.43,0,0,1,.13.29h0a.45.45,0,0,1-.27-.1m.32.44-.16,0a.58.58,0,0,1-.21-.05.44.44,0,0,1-.25-.27l.15,0a.56.56,0,0,1,.23.06.45.45,0,0,1,.24.25m-.68-.81h0a.55.55,0,0,0,.18.39.8.8,0,0,0-.21,0l-.55-.31a.77.77,0,0,1,0-.27v-.07a1.23,1.23,0,0,1,0-.19Zm.66.58h0v0l0,0m0-.44h0v0l0,0m.15.44h0l0,0Zm.38.21a.58.58,0,0,1-.21.05l-.16,0a.45.45,0,0,1,.24-.25.56.56,0,0,1,.23-.06l.15,0a.47.47,0,0,1-.25.27m2.4,0h-1.26v-.2h3.15v.2Zm2.13.51-.06.06,0,0,0,0,0,0,0,0,.06-.06,0,0Zm-3.68,0-.06.06,0,0,0,0,.05,0v0l.07-.06v0l-.06-.06Z"/><path class="cls-3" d="M160.37,108.81a14.58,14.58,0,0,0,.25,2.3h.23a14.58,14.58,0,0,1-.25-2.3Zm.89,0c0,.07,0,.13,0,.17v.33s0,.06,0,.06,0,0,0,0a.28.28,0,0,1,0-.09c0-.06,0-.09.14-.1l.55,0h.45c.24,0,.45,0,.56,0s.12,0,.13.07,0,0,0,.09,0,0,0,0,0,0,0,0,0-.26,0-.32v-.12h-1.94Zm2.72,0a10.12,10.12,0,0,0,.33,2.29h.22a9.86,9.86,0,0,1-.33-2,.52.52,0,0,1,.07-.25Zm10.33,0a.44.44,0,0,1,.08.25v2h.23v-2a.43.43,0,0,1,.07-.25Zm10.42,0a.43.43,0,0,1,.07.25,10.56,10.56,0,0,1-.32,2h.22a10.91,10.91,0,0,0,.34-2.3Zm2.55,0h0Zm1.13,0a14.33,14.33,0,0,1-.25,2.29h.23a14.58,14.58,0,0,0,.25-2.3Zm-26.74,2.3,0-.23,1-.19.54-.08c.07,0,.13,0,.15,0a.46.46,0,0,1,0,.09s0,0,0,0,0,0,0-.06,0-.26-.06-.31,0-.24-.06-.41,0,0,0,0,0,0,0,0a.71.71,0,0,1,0,.14c0,.08,0,.1-.12.12l-.54.11-1,.18-.05-.32c0-.23,0-.31.09-.32h0s.05,0,.05,0,0,0-.05,0l-.29,0s-.06,0-.05,0a1.64,1.64,0,0,1,.07.24l.16.94Zm4,0-.65-.37-.05.1.47.27Zm.27,0s0,0,0-.07a1.25,1.25,0,0,1,.1-.27l0,0a.93.93,0,0,1,.05-.1l.08-.11.14-.15.19-.16h0l.09-.07.13-.07h0a1.34,1.34,0,0,1,.27-.13l.15-.05.11,0h0l.25,0h.28a1.27,1.27,0,0,1,.34,0,1,1,0,0,1,.28.09l.15.08.09,0h0l-.1,0h0l-.2,0h-.57l-.25.06h0l-.13,0-.11,0h0l-.17.1h0l-.18.15-.05,0,0,0-.11.15h0l-.1.17h0l0,.12,0,.12h0v0h.24l-.1-.07,0-.15.1-.15.09-.13.43.45h0v.06h.11v0h0a.47.47,0,0,1,.17,0h.22l0,0a.41.41,0,0,0-.11-.07l-.06-.06a.55.55,0,0,1-.12-.3.35.35,0,0,1,0-.13.47.47,0,0,1,.3.28.86.86,0,0,1,.05.24v.06h.16a.13.13,0,0,1,0-.06.64.64,0,0,1,.06-.24.47.47,0,0,1,.3-.28.69.69,0,0,1,0,.13.48.48,0,0,1-.12.3l-.08.08-.06,0-.06,0h.23a.48.48,0,0,1,.18,0h0v0h.12V111h0l1.38-1.49-.08-.08L168.63,111h-.11a.53.53,0,0,0,.09-.3.52.52,0,0,0,0-.21l.12-.26.1,0a.55.55,0,0,1,.23.14l.08-.08-.15-.18h0l-.15-.12h0l.38-.83-.11,0-.36.81-.16-.08a1.06,1.06,0,0,0-.3-.1,1.49,1.49,0,0,0-.36,0h-.29l-.26,0h0l-.32-.65-.1.05.3.63-.13,0a1.51,1.51,0,0,0-.29.13l-.15.09-.55-.58-.08.07.54.57h0a1.63,1.63,0,0,0-.2.17l-.15.16-.08.12-.65-.45-.07.1.66.45,0,0a1.06,1.06,0,0,0-.1.3.31.31,0,0,0,0,.08Zm3.47,0,.06,0s0,0,0,0h.13a.19.19,0,0,1,0-.07h.62v-.12h-.74a.13.13,0,0,1-.13-.12h1a.1.1,0,0,1,.06.09v.22h.12v-.22a.21.21,0,0,0-.07-.15,1.33,1.33,0,0,1,.73-.2,1.28,1.28,0,0,1,.71.2.21.21,0,0,0-.07.15v.22H172v-.22a.1.1,0,0,1,.06-.09h1a.13.13,0,0,1-.13.12h-.74V111h.63a.33.33,0,0,1,0,.06h.13a.2.2,0,0,0,0-.07.25.25,0,0,0,.25-.25h0v-.1h-1.11a1.5,1.5,0,0,0-1.69,0h-.3l.64-.44-.06-.09-.78.53h-.61v.11h0a.24.24,0,0,0,.12.21l-.14.1Zm6.47,0H176l-.09-.22h2.57v.22h.12l0-.34h-2.87a.27.27,0,0,1-.22-.24v0a.26.26,0,0,1,.22-.26h0a.27.27,0,0,1,.18.08.23.23,0,0,1,.08.18v.08h.06l.54,0a4.62,4.62,0,0,0,1-.13,3.33,3.33,0,0,0,.6-.16,1.86,1.86,0,0,0,.47-.29l.06,0-.05,0a.41.41,0,0,1-.1-.26.37.37,0,0,1,0-.2.4.4,0,0,1,.14-.17.7.7,0,0,1,.23-.07.79.79,0,0,1,.23.07.4.4,0,0,1,.14.17.49.49,0,0,1,.05.2.42.42,0,0,1-.11.26l0,0,0,0a2.29,2.29,0,0,0,.47.29,3.43,3.43,0,0,0,.61.16,4.56,4.56,0,0,0,1.05.13l.54,0h.06v-.08a.23.23,0,0,1,.08-.18.27.27,0,0,1,.19-.08h0a.25.25,0,0,1,.21.26v0a.25.25,0,0,1-.22.24h-2.87l0,.34h.12v-.22h2.53l-.1.22h.26l-.09-.22h.17a.39.39,0,0,0,.33-.34v0a.38.38,0,0,0-.32-.38h-.05a.4.4,0,0,0-.38.35l-.48,0a4.93,4.93,0,0,1-1-.12,2.85,2.85,0,0,1-.59-.16,1.47,1.47,0,0,1-.4-.24.47.47,0,0,0,.09-.28.54.54,0,0,0-.06-.25.46.46,0,0,0-.18-.21.71.71,0,0,0-.28-.1h0a.76.76,0,0,0-.29.1.63.63,0,0,0-.18.21.54.54,0,0,0-.06.25.48.48,0,0,0,.1.28,1.47,1.47,0,0,1-.4.24,2.85,2.85,0,0,1-.59.16,4.93,4.93,0,0,1-1,.12l-.48,0a.4.4,0,0,0-.38-.35h-.06a.38.38,0,0,0-.31.38v0a.39.39,0,0,0,.33.34h.13l-.09.22Zm11.15,0a1,1,0,0,0,.49-.81,1,1,0,1,0-2-.3,1,1,0,0,0,.57,1.1Zm.38-.9a.82.82,0,0,1-1,.62c-.74-.1-.76-.53-.74-.71a.85.85,0,0,1,1.06-.65c.64.09.75.45.71.74m-19.86.75h-.13l-.41-.43.17-.14.17-.09h0l.1.19a.57.57,0,0,0,0,.18.54.54,0,0,0,.1.3m.41-.59v.33a.6.6,0,0,0-.39-.3l-.08-.16.11,0,.24,0,.29,0h.24l.17,0-.11.26a.6.6,0,0,0-.35.27v-.32Z"/><path class="cls-3" d="M160.5,106.51a13.7,13.7,0,0,0-.13,1.93c0,.12,0,.25,0,.37h.23c0-.13,0-.25,0-.37a13.7,13.7,0,0,1,.13-1.93Zm2.82,0h0Zm.83,0a10.27,10.27,0,0,0-.18,1.93c0,.12,0,.24,0,.36h.3a.47.47,0,0,1,.4-.24h9.22a.49.49,0,0,1,.42.24h.37a.5.5,0,0,1,.43-.24h9.21a.5.5,0,0,1,.41.24h.3v-.37a11.17,11.17,0,0,0-.17-1.93h-.22a11.33,11.33,0,0,1,.16,1.32.5.5,0,0,1-.48.49h-9.21a.51.51,0,0,1-.5-.49v-1.32h-.23v1.32a.5.5,0,0,1-.49.49h-9.22a.5.5,0,0,1-.48-.49,9.52,9.52,0,0,1,.17-1.32Zm3.84,0,0,0h0l.07.09v0a.25.25,0,0,0,0,.14h0l.1.14s0,0,0,0h0l-.32.28a.49.49,0,0,0-.2.39v.06h1.8v-.06a.52.52,0,0,0-.18-.39h0L169,107a.12.12,0,0,1,0-.09v-.21l.06,0a.23.23,0,0,0,.09-.18H169a.15.15,0,0,1,0,.08l0,0,0,0h-.12l-.22.06a.26.26,0,0,0-.17.07l0,0,0,0h0l0-.06h0a.16.16,0,0,1,0-.08v0a0,0,0,0,1,0,0l0,0v0h0l0,0h0l0,0h-.2v0H168Zm3.06,0v1.25h1v-1.25H172v1.14h-.81v-1.14Zm5,0-.54,1.25.1,0,.51-.81v.76h5.76v-.66l.43.74.1,0-.5-1.28h-.12l0,.08.06.14h0l.15.38-.15-.26h0l-.11-.2h0l-.08-.15h-.19v1.13h-.4v-1.13H181v1.13h-.13v-1.13h-.11v1.13h-.41v-1.13h-.12v1.13h-.13v-1.13H180v1.13h-.39v-1.13h-.12v1.13h-.12v-1.13h-.11v1.13h-.44v-1.13h-.11v1.13h-.13v-1.13h-.11v1.13h-.4v-1.13H178v1.13h-.13v-1.13h-.12v1.13h-.41v-1.13h-.12v1.13h-.12v-1.13H177v1.13h-.4v-1.13h-.22l-.05.09-.06.09-.06.09-.21.34.21-.49.05-.12Zm10,0-.39.23s-.06,0-.06,0l0,0s0,0,0,.08c0,.2.06.39.08.48s0,.12,0,.11l0,0s0-.07,0-.11,0-.14.24-.27l.71-.45Zm2.22,0a13.7,13.7,0,0,1,.13,1.93v.36h.23v-.37a15.11,15.11,0,0,0-.12-1.92Zm-26.9,2.3a.11.11,0,0,1-.07-.09.2.2,0,0,1,0-.07s0,0,0,0,0,0,0,0,0,.1,0,.15Zm1.82,0c0-.08,0-.18,0-.29s0,0,0,0,0,0,0,0a.57.57,0,0,1,0,.13c0,.07,0,.09-.12.11l-.56,0h.74Zm24.45,0v0a2.13,2.13,0,0,1,0-.24l0-1a2.11,2.11,0,0,1,0-.26.42.42,0,0,1,0-.11s0,0,0,0l-.3,0s0,0,0,0l0,0,.09,0c.06,0,.07.1.08.25v.38l-1.05,0a4.91,4.91,0,0,1-.55,0c-.07,0-.13,0-.14-.07a.28.28,0,0,1,0-.09s0,0,0,0,0,0,0,.06,0,.26,0,.32,0,.23,0,.4,0,0,0,0,0,0,0,0a.57.57,0,0,1,0-.13c0-.08.06-.09.14-.1s.31,0,.55,0l1,0v.33c0,.23-.07.3-.14.31h0s-.05,0-.05,0l0,0ZM161.28,108s0,0,0,0a.3.3,0,0,1,0-.1c0-.08.06-.1.15-.1l.54,0,.46,0a4.13,4.13,0,0,1,.54,0c.08,0,.13,0,.14.08a.28.28,0,0,1,0,.09s0,0,0,0,0,0,0-.05,0-.26,0-.32,0-.23,0-.39,0-.06,0-.06,0,0,0,0l0,.13c0,.07-.07.09-.14.09l-.55,0h-.21l0,0s0-.32,0-.38.07-.12.11-.12a.13.13,0,0,1,.08,0h0s0,0-.05,0l-.19,0-.16,0,0,0,0,0a.15.15,0,0,1,0,.11.49.49,0,0,1,0,.12l0,.33,0,0-.64-.05s0,0,0,0l0-.39c0-.1.05-.15.09-.16h.1s0,0,0,0l0,0-.21,0-.12,0,0,0,0,0v.11s0,.58-.05.68,0,.23,0,.36,0,.06,0,.07m15.17-.39h-.16v-.83l.16-.25Zm5.36,0h-.16v-1l.16.27Zm-12.6-.25a.33.33,0,0,1,.14.24h-1.56a.38.38,0,0,1,.15-.24h0l.33-.28h0a.21.21,0,0,0,.07-.16l.06-.07a.21.21,0,0,1,.15-.07h0l.21,0h0V107a.26.26,0,0,0,.09.18Z"/><path class="cls-3" d="M162.75,99.63a.5.5,0,0,1-.17.21l-.06,0h-.1l-.1,0a.4.4,0,0,0-.18,0h0l-.17,0-.18.08a.28.28,0,0,0-.1.12.25.25,0,0,0,0,.14v.1a.46.46,0,0,0,.09.17.38.38,0,0,0,.13.1l.14.06h.15a1,1,0,0,0,.36-.07,2.84,2.84,0,0,0,.38-.17,14.15,14.15,0,0,0-2.39,6.13h.23a13.87,13.87,0,0,1,2.69-6.47l.17-.21a1.56,1.56,0,0,1,.16-.2h-.3l-.15.19.06-.1h0l0-.09h-.13v0a1.37,1.37,0,0,1-.14.21.41.41,0,0,1-.12.14l-.14.12a3,3,0,0,1-.45.21.75.75,0,0,1-.27,0h-.1l-.07,0-.08-.06s0,0,0-.06v-.1l0,0h0a.28.28,0,0,1,.1-.06h.14l.1,0a.74.74,0,0,0,.18,0h.05l.11,0a.28.28,0,0,0,.13-.07.71.71,0,0,0,.25-.3l0-.09Zm3.35,0,.07.09a.72.72,0,0,0,1.16.19.83.83,0,0,0,.24-.28h-.16a.81.81,0,0,1-.12.14.47.47,0,0,1-.32.11.61.61,0,0,1-.45-.25Zm2.64,0a10.51,10.51,0,0,0-4.59,6.88h.22a10.35,10.35,0,0,1,4.47-6.7l.3-.18Zm2.31,0v1.75h-1.76v1.05h1.76v4.08h.11v-4.19H169.4v-.83h1.76v-.1h0V99.63Zm.92,0v1.86h1.79v.83H172v4.19h.12v-4.08h1.79v-1.05h-1.79V99.63Zm2.42,0v6.88h.23V99.63Zm5.48,0a2.9,2.9,0,0,1,.29.19,10.28,10.28,0,0,1,4.48,6.69h.23a10.58,10.58,0,0,0-4.59-6.88Zm1.41,0,.17.13.21.18h0v0l0,0c-.06-.06-.06-.09,0-.13a.36.36,0,0,1,.13-.09l.06,0Zm1.05,0,.25.21v0l-.2.55s0,0,0,0h-.05s0,0,.05.06.3.26.37.32.09.07.11,0l0,0-.08-.08s-.06-.12,0-.36.15-.48.25-.78h-.32l0,.08h0l-.09-.08Zm2.94,0a.39.39,0,0,0,.08.1l.11.14a1.47,1.47,0,0,1,.1.13,13.87,13.87,0,0,1,2.72,6.51h.24a14.1,14.1,0,0,0-2.38-6.09,1.12,1.12,0,0,0,.26.11,1.27,1.27,0,0,0,.46.09H187a.38.38,0,0,0,.13-.06.33.33,0,0,0,.14-.1.34.34,0,0,0,.08-.17.31.31,0,0,0,0-.1.39.39,0,0,0,0-.14.38.38,0,0,0-.1-.12.6.6,0,0,0-.19-.08l-.16,0h0a.39.39,0,0,0-.17,0l-.1,0h-.11l-.05,0c-.07-.06-.1-.08-.1-.09s0,0-.07-.12H186a.93.93,0,0,0,0,.1,1.09,1.09,0,0,0,.1.17l.14.12a.27.27,0,0,0,.14.07l.11,0h.05a.65.65,0,0,0,.17,0l.1,0H187l.11,0,0,0v.1a.11.11,0,0,1,0,.06l-.08.06-.07,0h-.09a1.16,1.16,0,0,1-.38-.07,1.46,1.46,0,0,1-.36-.2L186,100s0,0,0,0a.64.64,0,0,1-.13-.15h0l-.1-.17h0l0,0h-.14l0,.09h0s0,0,0,0l-.09-.11Zm-21.92,6.88s0,0,0,0l.06-.31.1-.39s0,0,0-.06,0,0,0,0l0,.13c0,.07-.08.08-.15.07l-.55-.12-.44-.1c-.38-.09-.45-.1-.53-.13s-.12,0-.12-.12a.17.17,0,0,1,0-.08l0-.05s0,0,0,.05-.05.24-.06.31-.06.23-.08.32,0,.06,0,.07l0,0a.11.11,0,0,1,0-.08c0-.06.07-.07.15-.06l.54.12.44.1c.24.06.44.1.54.14s.11,0,.11.1a.28.28,0,0,1,0,.09v0Zm4.76,0,0-.13v-.1c0-.06,0-.08.09-.13l.06-.05.06,0h.06l.15,0,.14,0a.37.37,0,0,0,.16-.09,0,0,0,0,0,0,0,.13.13,0,0,0,.06-.07l0-.06h0v0h0l.05.08,0,.11v.1a.2.2,0,0,1-.08.12h0l0,0-.06,0h0a.5.5,0,0,1-.24.06h0l-.18.06,0,0h0l-.06,0-.07,0h0l0,0h.21l.12-.05.13,0,.13,0h0l.07,0,0,0h0l0,0h0a.16.16,0,0,1,0,.12h0v0h.11v0a.23.23,0,0,0-.07-.19h0l0,0s0,0,0,0a.45.45,0,0,0,.12-.16v-.16l0-.12h0l-.06-.1h0l-.09-.09a.28.28,0,0,1,.07-.17,2,2,0,0,1,.35-.29l.34-.24a1.07,1.07,0,0,0,.23-.3,1.17,1.17,0,0,0,.15-.72v-.06h-3v.12a1.16,1.16,0,0,0,.13.67.93.93,0,0,0,.24.3l.33.24a1.7,1.7,0,0,1,.28.21l-.06,0h0l-.5-.19c-.17-.1-.3-.16-.41-.24a.86.86,0,0,1-.24-.31.8.8,0,0,1-.08-.4,1.45,1.45,0,0,1,0-.28,1.49,1.49,0,0,1,0-.19l.08-.15s0-.06.12-.12a1.28,1.28,0,0,1,.49-.19h.28l.11,0h0a1.25,1.25,0,0,0,.52.24h.07a1.32,1.32,0,0,0,.27,0,1.13,1.13,0,0,0,.4-.18l0,0h.06l.16,0a.56.56,0,0,0,.12-.09l.06,0h-.19a.72.72,0,0,1-.19,0h0v0h0l-.14-.15-.12-.11h0l-.13-.06-.17-.07-.17,0c-.15,0-.27.06-.33,0-.25,0-.49-.07-.72-.07a.83.83,0,0,0-.22,0,2.81,2.81,0,0,0-.42.18h0a1.44,1.44,0,0,0-.28.26,1.91,1.91,0,0,0-.2.31h0a1.74,1.74,0,0,0-.13.37,1.59,1.59,0,0,0,0,.36.53.53,0,0,0,0,.13,1.59,1.59,0,0,0,.08.39,1.82,1.82,0,0,0,1.15,1.06,3.74,3.74,0,0,0,.84.27.33.33,0,0,0-.1.06.35.35,0,0,0-.12.19.24.24,0,0,0,0,.08.31.31,0,0,0,0,.08h0l0,.1Zm8.11,0h0l.06-.13,1.28-3h0l0-.06h0l0-.06h0l.15-.36,0,0,0-.06.55-1.27,0,0a1.19,1.19,0,0,0,.3.29.89.89,0,0,0,.33.1h.24l-.07.1-.09.14h0l-.43.68,0,.06,0,.06-.23.35h0l0,.06h0l0,.06h0l-2,3.09h.22v-.12l.4-.63v.75h.11v-.85h0l.61-1h2.92l.51.89h0v.93h.12v-.79l.4.69v.1h.19L180,103.42h0l0-.06h0l0-.06h0l-.2-.35,0-.06,0-.06-.39-.68h0l.11-.16.08-.13h0l.11,0a.65.65,0,0,0,.23-.15h0l.13-.18h0l.52,1.35,0,.06,0,.06.13.35h0l0,.06h0l0,.06h0l1.16,3h0l0,.07H182l0-.09v-1h.18a1.07,1.07,0,0,0,1-1,1.21,1.21,0,0,0,0-.19.93.93,0,0,0-.33-.73.91.91,0,0,0-.66-.27h-.23l.37-.47h-1.72l-.57-1.49A.83.83,0,0,0,180,101a.9.9,0,1,0-1.79,0,.86.86,0,0,0,.08.36l0,.14-.57,1.31h-2.06l.35.47a.93.93,0,0,0-.62.27.9.9,0,0,0-.33.73h0a1.28,1.28,0,0,0,0,.19,1.07,1.07,0,0,0,1,1h.13v.91l-.07.16Zm1.09,0v-.82a.22.22,0,0,1,.2-.18h0a.21.21,0,0,1,.18.16v.84h.11v-.86h0a.31.31,0,0,0-.27-.25h-.05a.33.33,0,0,0-.32.28v.83Zm.77,0v-.82a.21.21,0,0,1,.2-.18h0a.2.2,0,0,1,.17.16v.84h.12v-.86h0a.3.3,0,0,0-.27-.25h0a.31.31,0,0,0-.31.28v.83Zm.75,0v-.82a.57.57,0,0,1,.09-.15l.13-.05.13.05a1.13,1.13,0,0,1,.09.15v.82h.11v-.84h0a.46.46,0,0,0-.13-.2.37.37,0,0,0-.19-.08v0a.37.37,0,0,0-.19.08.39.39,0,0,0-.13.2h0v.84Zm.79,0v-.84a.19.19,0,0,1,.17-.16h0a.2.2,0,0,1,.2.18v.82h.12v-.83a.32.32,0,0,0-.32-.28h0a.31.31,0,0,0-.27.25v.86Zm.76,0v-.85a.22.22,0,0,1,.17-.15h0a.21.21,0,0,1,.21.18v.82h.11v-.83h0a.32.32,0,0,0-.32-.28h0a.33.33,0,0,0-.28.25v.86Zm6.27,0,.74-.46c.05,0,.07,0,.06-.07s0,0-.11-.06l-1.7-.35c-.14,0-.23-.06-.27-.18l0-.08,0,0s0,0,0,0a3,3,0,0,0,.06.3c0,.08,0,.19,0,.27s0,0,0,0,0,0,0,0v0c0-.08,0-.11.06-.12a.48.48,0,0,1,.16,0l.39.07,0,0,.1.57v0l-.11.06Zm-24-1.44a.94.94,0,0,0,.82,0,1.24,1.24,0,0,0,.59-.71,1.26,1.26,0,0,0,.12-.45.1.1,0,0,0,0-.09,3.35,3.35,0,0,0-.3-.19h0s0,0,0,.05a.49.49,0,0,1,.13.15.55.55,0,0,1-.05.49.86.86,0,0,1-1.15.41.88.88,0,0,1-.53-.47.67.67,0,0,1,0-.51.72.72,0,0,1,.34-.42.31.31,0,0,1,.25,0s.06,0,.07,0,0,0,0,0l-.26-.11-.12-.07-.05,0c0,.07-.09.14-.14.23s-.1.19-.16.33a1.14,1.14,0,0,0,0,.86,1,1,0,0,0,.54.54m.07-2.55,0,0,.06-.08s.09,0,.17,0l.48.27.39.22.48.29c.06,0,.09.09.07.13a.63.63,0,0,1,0,.09s0,0,0,0,0,0,.05,0l.15-.28c0-.06.13-.2.21-.35v0l0,0a.52.52,0,0,1-.08.11c-.05.07-.1.06-.16,0l-.49-.27-.4-.23-.47-.28c-.07,0-.1-.09-.08-.15s0,0,0-.08v0s0,0-.05,0l-.15.27a2.48,2.48,0,0,0-.17.29s0,.05,0,.06m2-.19c.08.12.12.21.06.31l0,.07v0s0,0,.05,0a2.82,2.82,0,0,0,.17-.25,1.77,1.77,0,0,0,.16-.22v0l0,0,0,0c-.05.07-.09.07-.13,0a.46.46,0,0,1-.1-.12l-.22-.33v0l.34-.47h0l.56.16a.05.05,0,0,1,0,.05v0s0,0,.06,0l.3-.39c0-.07.06-.09,0-.11l0,0-.07.08c-.05,0-.12.08-.37,0l-1.65-.41c-.06,0-.09,0-.1,0s0,.05,0,.12Zm-.55-1.23.65.19v0l-.28.38h0l-.38-.57v0Zm18.77,0a.23.23,0,0,1-.06-.07l0,0s0,0,0,.06l.21.25c.08.1.2.3.32.44a1.11,1.11,0,0,0,.78.48,1,1,0,0,0,.73-.23.91.91,0,0,0,.35-.61,1.35,1.35,0,0,0-.42-1l-.25-.31a3.26,3.26,0,0,1-.23-.29s0,0-.05,0v0l.05.08c0,.08,0,.12,0,.18s-.12.1-.42.35l-.35.28-.44.34c-.06,0-.11.06-.16,0m.39.25a.61.61,0,0,1,.14-.14l.4-.33.25-.21.4-.32h.06s.09.07.12.11a1,1,0,0,1,.26.73.89.89,0,0,1-.34.6.84.84,0,0,1-.64.23.76.76,0,0,1-.51-.34.45.45,0,0,1-.14-.33m1.62,2.47a1.32,1.32,0,0,0,.07.93,1.36,1.36,0,0,0,.23.4.08.08,0,0,0,.09,0l.34-.07,0,0s0,0-.06,0a.36.36,0,0,1-.2,0c-.14,0-.22-.16-.3-.38a.86.86,0,0,1,.54-1.09.88.88,0,0,1,.71,0,.63.63,0,0,1,.33.39.76.76,0,0,1,.05.54.39.39,0,0,1-.18.18s-.06,0-.05,0,0,0,.07,0a2.39,2.39,0,0,1,.26-.1l.13,0a0,0,0,0,0,0,0c0-.08,0-.16-.06-.26a2.68,2.68,0,0,0-.11-.35,1.16,1.16,0,0,0-.56-.65,1,1,0,0,0-.77,0,1,1,0,0,0-.58.58m1.3,2.09.66.12h0l0,0-.58.34h0l-.08-.47Zm-7.1-4.19a.67.67,0,1,0-.67-.66.67.67,0,0,0,.67.66m0-1.21a.55.55,0,0,1,.55.55.56.56,0,0,1-.55.55.55.55,0,0,1-.55-.55.54.54,0,0,1,.55-.55m.42,2.48.2.35h-1.25l.23-.35Zm-.75-.12.36-.57.32.57Zm1,.59.66,1.16H177.7l.74-1.16Zm2.29,0a.78.78,0,0,1,.58.23.83.83,0,0,1,.3.65c0,.06,0,.12,0,.18a1,1,0,0,1-.87.85H182a.75.75,0,0,1-.72-.69v0a.5.5,0,0,1,.11-.33.55.55,0,0,1,.35-.19h.08a.34.34,0,0,1,.35.28v0a.33.33,0,0,1-.19.29l0,.1a.4.4,0,0,0,.26-.39v0a.45.45,0,0,0-.46-.39h-.11a.72.72,0,0,0-.4.23.58.58,0,0,0-.14.33l-.42-1.09Zm-.31,2v.73l-.35-.92a.8.8,0,0,0,.35.19M182,103l-.28.35h-1l-.13-.35Zm-2.89-2.71a.78.78,0,0,1,.78.78.8.8,0,0,1-.11.4l-.13.16-.16.12,0,0-.08,0h-.05l-.24,0H179a.77.77,0,0,1-.62-.75.78.78,0,0,1,.78-.78m-2.85,5.84v-.67a1.06,1.06,0,0,0,.37-.18Zm-.42-3.13h1.78l-.16.35h-1.36Zm-.5.77.07-.07h0a.86.86,0,0,1,.59-.23h1.41l-.48,1.11a.64.64,0,0,0-.14-.35.72.72,0,0,0-.4-.23h-.11a.45.45,0,0,0-.46.39v0a.41.41,0,0,0,.27.39l0-.1a.31.31,0,0,1-.19-.29v0a.34.34,0,0,1,.35-.28h.08a.5.5,0,0,1,.34.19.46.46,0,0,1,.12.33v0a.74.74,0,0,1-.74.69H176a1,1,0,0,1-.88-.85c0-.06,0-.12,0-.18a.84.84,0,0,1,.22-.58m-6.76-.62s.09,0,.09-.07,0-.07-.09-.07-.09,0-.09.07,0,.07.09.07m-1.23,2.52a1.68,1.68,0,0,1-1.08-1,1.31,1.31,0,0,1-.08-.36v-.12a1.93,1.93,0,0,1,0-.33,3.65,3.65,0,0,1,.12-.36,1.38,1.38,0,0,1,.19-.28,1.58,1.58,0,0,1,.26-.25,2.82,2.82,0,0,1,.39-.17.62.62,0,0,1,.19,0c.21,0,.45.07.72.07.1,0,.21,0,.33,0l.14,0,.15.06.11,0a.88.88,0,0,1,.1.1l.12.14h0l0,.08h0a.79.79,0,0,1-.34.14,1.05,1.05,0,0,1-.24,0h-.05c-.12,0-.2,0-.47-.22l0,0-.13,0h-.33a1.51,1.51,0,0,0-.53.2.59.59,0,0,0-.16.17.61.61,0,0,1-.07.14h0v0s0,.1,0,.2a1,1,0,0,0,0,.3.91.91,0,0,0,.09.45.82.82,0,0,0,.28.35,3.5,3.5,0,0,0,.42.26h0l.55.2.21,0h0l0,.13a.08.08,0,0,1,0,0v.24a3.42,3.42,0,0,1-.84-.27m-.19-1.71H170a1,1,0,0,1-.13.61,1,1,0,0,1-.21.26,3.43,3.43,0,0,1-.33.23,2.17,2.17,0,0,0-.37.32.58.58,0,0,0-.11.29v0l0,0a.21.21,0,0,1-.07.11h0a.31.31,0,0,1-.12,0h0l-.15,0-.11,0h0v-.31h0s0,0,0-.06a.36.36,0,0,0,0-.1.41.41,0,0,0-.05-.09.05.05,0,0,0,0,0,1.61,1.61,0,0,0-.37-.32c-.14-.1-.25-.16-.33-.23a1,1,0,0,1-.21-.26,1.13,1.13,0,0,1-.12-.62Z"/><path class="cls-3" d="M162.68,97.33l0,.18a.64.64,0,0,0-.26.23.51.51,0,0,0-.08.29.71.71,0,0,0,0,.21l0,0,.08.11,0,0a.61.61,0,0,0,.34.14l.12,0h0c0,.11,0,.22-.06.35s-.05.26-.07.36a1.9,1.9,0,0,1-.13.34H163a1.11,1.11,0,0,0,.11-.3c0-.12,0-.23.07-.36a1.62,1.62,0,0,0,0-.19l.11-.45a.3.3,0,0,1,.07-.13l0,0a.4.4,0,0,1,.15,0h.08l.08,0h0a.22.22,0,0,1,.13.08.35.35,0,0,1,.08.12v0a.18.18,0,0,1-.07.15l-.08,0a.19.19,0,0,1-.09,0l-.07,0v.08a1.35,1.35,0,0,1-.05.29,2.47,2.47,0,0,1-.19.49,1.31,1.31,0,0,1-.13.23h.13a3,3,0,0,0,.3-.69,1.14,1.14,0,0,0,0-.24h.06a.3.3,0,0,0,.15,0,.28.28,0,0,0,.12-.24v-.08a.61.61,0,0,0-.07-.14l.22,0h0l.22,0a.58.58,0,0,0,.32-.16.54.54,0,0,0,.18-.27.71.71,0,0,0,0-.27.92.92,0,0,0,0-.16h-.11a.92.92,0,0,1,0,.16.66.66,0,0,1,0,.23.7.7,0,0,1-.15.23.49.49,0,0,1-.28.13l-.2,0-.26,0h0a.71.71,0,0,0-.21,0h-.14a.25.25,0,0,0-.12,0,.21.21,0,0,0-.13,0h0l-.07.06a.39.39,0,0,1-.1.08,1.2,1.2,0,0,1-.19.1h-.09a.41.41,0,0,1-.21-.1l-.06-.08a.5.5,0,0,1,0-.12.31.31,0,0,1,.05-.17c0-.07.14-.14.23-.17l0,0,.23,0h.06a1.1,1.1,0,0,1,.25,0l.25,0,.32.05h.17a.31.31,0,0,0,.26-.14.33.33,0,0,0,0-.17V97.4a.17.17,0,0,0,0-.07h-.12s0,0,0,.08v0a.2.2,0,0,1,0,.11.19.19,0,0,1-.16.09H164l-.31-.06h0l-.25,0a1.31,1.31,0,0,0-.27,0h-.07l-.17,0,0,0h0l-.08,0,.08,0h0l0,0s0,0,0-.06l-.07-.16Zm.2,0a.76.76,0,0,0,.06.16l0-.16Zm2.67,0,.18,0a14.4,14.4,0,0,0-2.28,2.27h.3s0,0,0,0c.29-.35.59-.68.91-1a13.75,13.75,0,0,1,1.47-1.28Zm2,0a0,0,0,0,0,0,0l.67,1.37c.1.2.12.27.08.32l-.1.06,0,0s0,0,.06,0l.25-.14.28-.13s.05,0,.05-.06,0,0-.05,0a.65.65,0,0,1-.13,0s-.11,0-.21-.21l-.52-1h0l.84.29c.36.12.8.27,1,.33a.15.15,0,0,0,.11,0s0,0,0-.1l-.45-.92h-.21l.32.6h0c-.06,0-.54-.19-.77-.26l-1-.34Zm2.91,0c.08.24.14.42.17.53s0,.12,0,.14l-.08,0s0,0,0,0,0,0,.05,0l.31-.11.38-.11s0,0,0,0,0,0,0,0l-.13,0c-.08,0-.11,0-.14-.08s-.08-.24-.15-.43Zm1.64,0,.1.16c.07.12.09.15.12.14s.05,0,.09-.2,0-.06,0-.1Zm1.43,0a.07.07,0,0,1-.05,0h-.09s0,0,0,0,0,0,0,0l.33,0c.15,0,.32,0,.71,0,.09,0,.12,0,.13-.07s0,0,0,0Zm1.63,0H175s-.05,0-.05,0,0,0,.05,0l.31,0,.37,0s.06,0,.06,0l0,0-.12,0a.1.1,0,0,1-.08-.07Zm1.09,0a.71.71,0,0,0,.16.18.57.57,0,0,0,.27.08l.24,0h0l0,0a.83.83,0,0,0,.34.16.67.67,0,0,0,.42,0,.5.5,0,0,0,.35-.36.44.44,0,0,0,0-.1h-.3a.42.42,0,0,1,0,.16.32.32,0,0,1-.41.19.37.37,0,0,1-.29-.35H177l-.06.2v0h-.08a.64.64,0,0,1-.27-.21s0,0,0,0Zm2.6,0,0,.12a4.48,4.48,0,0,1-.22.52c0,.07-.06.1-.11.1l-.09,0s0,0,0,0,0,0,0,0l.31.11.37.15s0,0,.06,0,0,0,0,0l-.11-.06c-.07,0-.07-.09-.05-.16a4.65,4.65,0,0,1,.19-.52l.08-.24Zm1.57,0-.15.23-.24.38a4.12,4.12,0,0,1-.3.46c-.05.06-.09.1-.14.08a.2.2,0,0,1-.08,0h-.05s0,0,0,0l.28.16c.11.07.29.22.45.32a1.18,1.18,0,0,0,.89.2,1,1,0,0,0,.62-.46,1,1,0,0,0,.14-.69,1.17,1.17,0,0,0-.56-.69h-.22a1,1,0,0,1,.44.58.89.89,0,0,1-.13.68.72.72,0,0,1-1.13.27c-.17-.11-.22-.21-.22-.26s0-.13.07-.19l.28-.44.17-.28a3.9,3.9,0,0,0,.22-.36Zm2.46,0a13.75,13.75,0,0,1,1.47,1.28q.49.49.93,1h.29a14.4,14.4,0,0,0-2.28-2.27l.18,0Zm1.13,0a.92.92,0,0,0,0,.16.71.71,0,0,0,0,.27h0a.61.61,0,0,0,.18.27.57.57,0,0,0,.33.16h0l.21,0h0l.22,0a.51.51,0,0,0-.07.15h0s0,0,0,.08a.3.3,0,0,0,.13.24.27.27,0,0,0,.15,0h.05c0,.08,0,.15,0,.24a3.49,3.49,0,0,0,.29.69h.14a1.31,1.31,0,0,1-.13-.23,2.47,2.47,0,0,1-.19-.49,1.47,1.47,0,0,1-.05-.29v-.08l-.07,0-.08,0a.16.16,0,0,1-.09,0,.17.17,0,0,1-.07-.15v0a.35.35,0,0,1,.08-.12.31.31,0,0,1,.13-.08l.08,0h.08a.45.45,0,0,1,.16,0l0,0a.29.29,0,0,1,.06.1.06.06,0,0,0,0,.06c0,.14.05.37.12.62a3.3,3.3,0,0,0,.21.65h.25a2.86,2.86,0,0,1-.24-.7,2,2,0,0,1-.07-.4l.13,0h0a.53.53,0,0,0,.39-.16h0l.08-.13h0a.55.55,0,0,0,.07-.24.5.5,0,0,0-.06-.24.48.48,0,0,0-.29-.25h0s0-.11,0-.16h-.06a.88.88,0,0,1,0,.15.36.36,0,0,1,0,.09h0l0,0h0l0,0h0a0,0,0,0,0,0,0,.36.36,0,0,0,0-.09l0-.15h-.19a1.17,1.17,0,0,1-.06.2h-.2a1.41,1.41,0,0,0-.28,0l-.24,0h0l-.3.06h-.16a.2.2,0,0,1-.17-.09.2.2,0,0,1,0-.11v0s0-.06,0-.08h-.12a.17.17,0,0,1,0,.07v.06a.26.26,0,0,0,.05.17.3.3,0,0,0,.26.14H185l.32-.05h0l.24,0h0a1.23,1.23,0,0,1,.26,0h.25l0,0,.14,0h0a.25.25,0,0,1,.16.14.24.24,0,0,1,0,.13.21.21,0,0,1,0,.12h0l-.07.11a.36.36,0,0,1-.24.09h0a.43.43,0,0,1-.23-.08h0l-.07-.06-.07-.06h0a.26.26,0,0,0-.14,0,.23.23,0,0,0-.11,0h-.15a.76.76,0,0,0-.21,0h0l-.27,0-.2,0a.46.46,0,0,1-.27-.13.63.63,0,0,1-.19-.46v-.16Zm-17.48,2.3-.1-.12-.22-.29a4.33,4.33,0,0,1-.33-.43c-.05-.07-.06-.12,0-.17l.06-.05v0s0,0,0,0l-.25.2-.3.22s0,0,0,.06h.05l.08-.06a.14.14,0,0,1,.18,0c.06.06.1.12.34.43l.16.2Zm1,0a.59.59,0,0,0,.07-.2,1,1,0,0,0-.28-.76l-.17-.22c-.25-.3-.29-.36-.34-.43s-.06-.12,0-.17l0-.06,0,0s0,0,0,0l-.23.19-.24.18s0,0,0,.05h0l.07,0c.08,0,.12,0,.18,0l.34.42.2.26c.16.21.3.39.27.59a.6.6,0,0,1-.06.19Zm1.57,0a10.29,10.29,0,0,1,4.76-1.48.49.49,0,0,1,.49.47v1h.23v-1a.5.5,0,0,1,.5-.47,10.28,10.28,0,0,1,4.75,1.48h.41a10.55,10.55,0,0,0-11.55,0Zm2,0v0h.8v0h.12v-.15h-1v.15Zm10.65,0,.29-.16h0l.19.16h.2l-.27-.23v0l.59-.33h0v0l-.2.56H183c.12-.39.25-.76.27-.84s0-.09,0-.11-.05,0-.13,0l-1.53.82c-.12.06-.22.1-.32,0l-.06,0h0s0,0,0,0l.07.06Z"/><path class="cls-3" d="M163.72,95a1.55,1.55,0,0,0,0,.21.66.66,0,0,0,0,.13,1.3,1.3,0,0,0,.07.41,1.34,1.34,0,0,0-1,.69,1,1,0,0,0-.14.51,1.28,1.28,0,0,0,0,.19.61.61,0,0,1,0,.15h.2l-.05-.17c0-.07,0-.12,0-.17a.9.9,0,0,1,.12-.42,1.2,1.2,0,0,1,1-.63H164l0-.06a1.89,1.89,0,0,1-.09-.5v-.09c0-.08,0-.17,0-.24Zm.18,0a1.69,1.69,0,0,0-.05.24v.09a1.89,1.89,0,0,0,.09.5l0,.06h-.07a1.17,1.17,0,0,0-.95.63.82.82,0,0,0-.13.42c0,.05,0,.1,0,.17l.05.17h0c0-.07,0-.14,0-.18a1,1,0,0,1,0-.16.77.77,0,0,1,.11-.39,1.1,1.1,0,0,1,.91-.6.12.12,0,0,0,.09,0,.16.16,0,0,0,0-.1,1.69,1.69,0,0,1-.09-.47s0-.06,0-.1A1,1,0,0,1,164,95Zm.85,0a.78.78,0,0,0-.16.49,1.49,1.49,0,0,0,.43,1A1.32,1.32,0,0,0,166,97a.77.77,0,0,0,.49-.17.86.86,0,0,0,.37-.68,1.27,1.27,0,0,0-.18-.6l.41-.45.1.11.07.08,0,.06.05,0h0l.11.13a.14.14,0,0,0,.1,0l.08,0,.06-.05h0l.06,0a2.92,2.92,0,0,1,.53-.37H168a3.12,3.12,0,0,0-.45.33h0l-.05,0h0a1.43,1.43,0,0,1-.13-.13l0,0,.22-.19h-.17l-.13.1h0l-.09-.11h-.28l-.42.45,0,0a1.09,1.09,0,0,1,.19.58.74.74,0,0,1-.32.59.68.68,0,0,1-.42.15,1.27,1.27,0,0,1-.85-.43,1.38,1.38,0,0,1-.39-.89.64.64,0,0,1,.2-.49ZM166,95l.08,0,0,0,.07-.08Zm4,0a14.07,14.07,0,0,0-4.18,2.25v0a2.48,2.48,0,0,1-.41-.08,1.46,1.46,0,0,1-.51-.23l-.14-.08.06.15a1.36,1.36,0,0,1,.06.29v0H165v0c0-.07,0-.12,0-.17a2.3,2.3,0,0,0,.42.17l.16,0h.59A13.89,13.89,0,0,1,170.78,95Zm8.23,0a13.89,13.89,0,0,1,4.64,2.29h.58l.16,0a1.94,1.94,0,0,0,.41-.17.79.79,0,0,0,0,.17v0h.11v0a.94.94,0,0,1,.06-.29l.05-.15-.14.08a1.34,1.34,0,0,1-.5.23,2.48,2.48,0,0,1-.41.08v0l-.24-.19h0l.06,0h0l0-.07h0l0-.06h0L183,97l0,0,0-.09a.43.43,0,0,0,0-.07l.24-.16h.07a.44.44,0,0,0,0,.1l0,0h0a.34.34,0,0,0,0,.09l0,.06a.12.12,0,0,0,.06.06h0a.19.19,0,0,0,.12,0,2.31,2.31,0,0,0,.28-.17l.31-.23.19-.16h0l.29-.37.06-.07a.08.08,0,0,0,.07,0h.15a1.34,1.34,0,0,1,1.22.64c0,.09.08.16.1.22a1,1,0,0,1,0,.17.71.71,0,0,1,0,.14.85.85,0,0,1-.05.21h.19c0-.07,0-.14,0-.19s0-.11,0-.15a1,1,0,0,0-.15-.47,1.49,1.49,0,0,0-1.1-.73,1.49,1.49,0,0,1,1.1.73,1,1,0,0,1,.15.47.86.86,0,0,1,0,.15s0,.12,0,.19h.05a.74.74,0,0,0,0-.18,1,1,0,0,0,0-.17.69.69,0,0,0,0-.25,2.35,2.35,0,0,0-.11-.24,1.53,1.53,0,0,0-1.37-.76l.1-.24a1.18,1.18,0,0,0,.1-.38V95h-.18v0h0a1.13,1.13,0,0,1-.1.34,2.32,2.32,0,0,1-.26.39,1.13,1.13,0,0,1-.1.13l-.29.37-.18.15-.31.23-.14.1-.12.06-.06,0h0v-.06a.22.22,0,0,0,0-.08h0a.88.88,0,0,1,.07-.25v0a.78.78,0,0,0,.07-.17l-.11,0h0l-.06.15s0,0,0,0l0,0,0,0h0a.19.19,0,0,1-.11-.09.75.75,0,0,1,0-.15s0-.12,0-.12v-.08l-.08,0h0a.39.39,0,0,1-.17,0h0l-.12-.06,0,0,.12-.1a.73.73,0,0,0,.19-.2,1.32,1.32,0,0,0,.13-.32v0a.13.13,0,0,0,0-.1l0-.07a.45.45,0,0,1,0-.12V95h-.11s0,0,0,.08a.77.77,0,0,0,0,.15,1,1,0,0,0,0,.1l0,0h0a1.35,1.35,0,0,1-.11.26l-.06-.07-.08-.1,0,0v-.09h0s0-.06,0-.08v0l0,0s0,0,0,0a.08.08,0,0,0-.08-.07l-.06,0,0-.06v0h-.13a.72.72,0,0,1-.67.38,1.26,1.26,0,0,1-.33,0h0a2.11,2.11,0,0,0-.84-.22h-.15l-.24,0-.08-.15H180l.12.24,0,0,.32-.06h.13a2,2,0,0,1,.79.22h0a1.15,1.15,0,0,0,.37.06.93.93,0,0,0,.29-.05l0,.05a.12.12,0,0,0,.13.09h0a.11.11,0,0,0,.08,0h.19l.08.08.08.09-.1.1a.35.35,0,0,0-.09.07s-.05,0-.06,0h0v0a.11.11,0,0,0,0,.08.48.48,0,0,0,.22.13h.06a.86.86,0,0,0,.17,0v.05a.45.45,0,0,0,.06.2h0l0,0-.21.14-.11,0-.11,0,0,0h0l-.07,0,0,0a.11.11,0,0,0-.05.09v0A14.11,14.11,0,0,0,179,95Zm-13.75,2.29a.35.35,0,0,0-.13-.2l0,0,.07-.08a.34.34,0,0,0,0-.19v0a.31.31,0,0,0,0-.16.41.41,0,0,0-.39-.27h-.13a.5.5,0,0,0-.27.16.37.37,0,0,0-.07.14l-.05.12.11,0a1,1,0,0,0,0-.14.24.24,0,0,1,.06-.09.34.34,0,0,1,.2-.13H164l.13,0a.35.35,0,0,1,.15.17.6.6,0,0,1,0,.12v0a.49.49,0,0,1,0,.14.22.22,0,0,1-.18.11h0v.12h0a.19.19,0,0,1,.14,0,.19.19,0,0,1,.08.11Zm3.28,0-.1,0c-.06,0-.1,0-.12,0s0,0,0,.06Zm1.65,0-.26-.53c-.06-.13-.07-.19,0-.24l.06,0s0,0,0,0,0,0-.06,0l-.22.13-.28.13s-.06,0,0,.05,0,0,0,0l.13-.05c.06,0,.11,0,.18.17l.23.42Zm1.38,0,0-.11-.15-.43c-.12-.37-.14-.44-.16-.52s0-.13.05-.17l.07,0,0,0s0,0-.06,0l-.3.11-.31.09s-.06,0-.06,0h0l.09,0c.06,0,.1,0,.13.12s.05.14.17.51l.14.43h.34Zm1.63,0c0-.15.1-.41.18-.74s.12-.48.18-.74a.5.5,0,0,1,.1-.25.17.17,0,0,1,.12,0s0,0,0,0,0,0-.06,0l-.24.06-.27,0s-.07,0-.06,0h.15l0,0a.38.38,0,0,1,0,.1c0,.18-.22,1-.28,1.35h0l-.64-1.07a1.93,1.93,0,0,1-.1-.19l0-.06.1,0,0,0s0,0-.06,0l-.31.06-.37,0s-.07,0-.06,0l0,0h.1c.1,0,.15,0,.23.16l.81,1.27Zm2.14,0a1.31,1.31,0,0,0,0-.27s0,0,0,0,0,0,0,0,0,.16-.11.19a1,1,0,0,1-.24,0c-.26,0-.31,0-.31-.21s0-.32,0-.4v-.21l0,0h.37c.09,0,.13,0,.14.1a.28.28,0,0,1,0,.09l0,0,0,0a1.23,1.23,0,0,1,0-.17.86.86,0,0,1,0-.19l0,0,0,0a.24.24,0,0,1-.12,0h-.41l0,0v-.65l0,0h.36c.13,0,.16,0,.18.09s0,.07,0,.09l0,0,0,0v-.16c0-.12,0-.15,0-.17l0,0h0l-.1,0h-1s-.06,0,0,0,0,0,0,0h.1c.09,0,.11.06.11.14s0,.16,0,.55v.45a4.89,4.89,0,0,1,0,.55.3.3,0,0,1,0,.1Zm1,0a.19.19,0,0,1,0-.08c0-.11,0-.31.06-.55v0l0,0,.22,0,0,0,.21.38c.06.1.1.18.15.25h.34c-.13-.17-.27-.42-.46-.72a.73.73,0,0,0,.41-.53.47.47,0,0,0-.13-.37.86.86,0,0,0-.46-.17l-.36,0-.35,0s-.06,0-.06,0,0,0,0,0l.1,0c.08,0,.1.07.09.15a4.66,4.66,0,0,1-.06.54l-.05.46c0,.23,0,.43-.08.54s0,.11-.07.12Zm1.55,0a.53.53,0,0,1,0-.13v0s0,0-.05.06a.54.54,0,0,1,0,.12Zm1,0a.89.89,0,0,0-.26-.65l-.05-.07c-.17-.21-.2-.31-.17-.43A.28.28,0,0,1,178,96a.29.29,0,0,1,.23.19.24.24,0,0,1,0,.18s0,.05,0,.05,0,0,.06-.07.08-.26.08-.29l0,0a1.35,1.35,0,0,0-.32-.13c-.35-.09-.63,0-.7.31a.73.73,0,0,0,.21.69l.09.13a.59.59,0,0,1,.15.3Zm1.08,0,.07-.19c.15-.36.17-.43.21-.5s.07-.12.14-.11l.08,0h0s0,0,0,0l-.3-.1-.31-.13s-.06,0-.06,0l0,0,.08,0s.06.08,0,.17L179,97l-.12.3Zm1.6,0,.05-.07,0,0,.15.08.05,0h.22l-.17-.11-.34-.2-.31-.2s0,0-.06,0l0,0,.08.06c.06.06.05.11,0,.19l-.14.23Zm3.86,0a.22.22,0,0,1,.22-.16h0v-.12a.22.22,0,0,1-.18-.11h0a.21.21,0,0,1,0-.14v0a.27.27,0,0,1,0-.12.35.35,0,0,1,.15-.17.31.31,0,0,1,.13,0h.1a.36.36,0,0,1,.21.13.2.2,0,0,1,.05.09s0,.09,0,.14l.11,0a.56.56,0,0,1,0-.12.46.46,0,0,0-.09-.14.44.44,0,0,0-.26-.16H185a.46.46,0,0,0-.19,0,.41.41,0,0,0-.2.23.5.5,0,0,0,0,.16v0a.36.36,0,0,0,0,.19l.07.09-.06,0a.39.39,0,0,0-.12.2Zm-2.35-1.81h0v0l.06,0h.06l.08,0h0l0,0h0v-.09a.17.17,0,0,0,0-.08v0l.05-.06h0l0,0,0,.06s0,.06,0,.08h0v.07l0,.06v0l.1.12.08.09h0l-.08-.08-.09-.09h-.16l-.06,0h0s0,0-.06,0h0l.08,0m-.11,0h0l0,0a.85.85,0,0,0,.39-.25v0a.17.17,0,0,0,0,.07v.07l0,0,0,0h0l-.06,0,0,0,0,.06s0,0-.07,0m.37-.37Zm-.16,1.56h.1l.08,0,.13.06.05,0,0,0a.58.58,0,0,1,.05.11l0,.05c-.16-.11-.31-.23-.48-.34Zm.44.15h0l0,0h0l0,0a.44.44,0,0,0-.15-.08l-.1,0h-.09l0,0h.06l0,0h0l.1,0,.11.06h0l.25-.17,0,0-.27.17,0,0,.06.09a.36.36,0,0,1,0,.09h0l0,0h0l.06,0,0,0h0l0,0h-.07a.25.25,0,0,0,0-.07l0-.11m2.16-1h0m-19.42-.47a.34.34,0,0,0-.22.07.33.33,0,0,0-.11.26.59.59,0,0,0,.17.39.62.62,0,0,0,.44.22.34.34,0,0,0,.22-.07.31.31,0,0,0,.11-.25.6.6,0,0,0-.17-.4.61.61,0,0,0-.44-.22m.43.78a.24.24,0,0,1-.15,0,.5.5,0,0,1-.36-.17.55.55,0,0,1-.14-.32.22.22,0,0,1,.07-.17.24.24,0,0,1,.15,0,.52.52,0,0,1,.36.18.49.49,0,0,1,.14.32.24.24,0,0,1-.07.16m9.62.26.09-.78,0,0a.32.32,0,0,1,.14,0,.51.51,0,0,1,.13.88.2.2,0,0,1-.18,0,.38.38,0,0,1-.19,0s0,0,0,0"/><path class="cls-3" d="M165.41,92.74a.41.41,0,0,0,0,.16.38.38,0,0,0,.07.22,1.82,1.82,0,0,0,.12.19l-2.11.11a.1.1,0,0,0-.08,0,.11.11,0,0,0,0,.08l.07,1.28a.1.1,0,0,0,.11.1h.23a.56.56,0,0,1,0,.12h.18l0-.12h0a.66.66,0,0,1,0-.11v0l-.11,0,.11,0v0a.66.66,0,0,0,0,.11h0l0,.12H164l.08-.19a.09.09,0,0,0,0,0h.26l0-.29.53,0v.29l.48,0v-.06c0-.26,0-.43,0-.52l1-.05.05.06h0l.23.29-.48.52a1.34,1.34,0,0,0-.69-.22.9.9,0,0,0-.51.16.8.8,0,0,0-.13.13h.16l0,0a.71.71,0,0,1,.44-.15A1.2,1.2,0,0,1,166,95h.19l.46-.5c.12.16.24.3.34.42h0l-.07.07h.28l-.05-.06h0l.18-.15a3.48,3.48,0,0,1,.39-.27l.2-.11,0,0v-.1a.28.28,0,0,1,.17-.27.27.27,0,0,1,.12,0,.3.3,0,0,1,.24.12l0,0,0,0,.24-.08.44-.13h0l.19,0v0h0l0,.2a5.48,5.48,0,0,0-1.16.32,4.18,4.18,0,0,0-.88.58h.18a3.61,3.61,0,0,1,.75-.47,4,4,0,0,1,.76-.25l.37-.07v.06h0a1.05,1.05,0,0,1,0,.18h-.08A4.06,4.06,0,0,0,168,95h.23l.23-.12a3.76,3.76,0,0,1,.66-.23l.21,0h.07a.42.42,0,0,0,.12,0l0,0v-.06s0-.11,0-.2h0s0,0,0-.06h0c0-.08,0-.18,0-.3l.75,0a1.25,1.25,0,0,0,.34.53.77.77,0,0,0,.52.18l.24,0a.78.78,0,0,0,.54-.4,1.37,1.37,0,0,0,.16-.68,1.41,1.41,0,0,0,0-.2,1.58,1.58,0,0,0-.17-.56h-.13a1.48,1.48,0,0,1,.19.57c0,.07,0,.13,0,.19a1.24,1.24,0,0,1-.15.62.65.65,0,0,1-.46.34l-.22,0a.69.69,0,0,1-.45-.16,1.26,1.26,0,0,1-.32-.52v0h0l-.8,0h0v0c0-.15-.06-.31-.1-.49l.91-.05v0a1.31,1.31,0,0,1,.12-.45h-.13a1.4,1.4,0,0,0-.1.39l-.84,0c0-.07,0-.14,0-.21l0-.18h0s0,0,0,0h-.12a.08.08,0,0,0,0,0v0h0l-.18,0-.24,0a3.59,3.59,0,0,0-.66.2l0,0a.24.24,0,0,0-.11-.06.26.26,0,0,0-.15,0,.33.33,0,0,0-.17,0,.39.39,0,0,0-.23.29.25.25,0,0,0,0,.09v0h0a4.49,4.49,0,0,0-.58.38l-.23.19-.13.11-.08-.1-.24-.33.22-.2.14-.12a4.2,4.2,0,0,1,.85-.59h-.24a5.94,5.94,0,0,0-.8.59l-.13.13-.11.1-.07-.09-.06-.09,0,0a5.3,5.3,0,0,1,.49-.41l.29-.2h-.21l-.15.1c-.17.13-.4.34-.52.44h0l-.2-.28h0a.33.33,0,0,1,0-.15.27.27,0,0,1,0-.12Zm7.74,0h0l0,.22a.26.26,0,0,1-.09.18.25.25,0,0,1-.15,0,.29.29,0,0,1-.2-.07.34.34,0,0,1-.1-.16l0,0h0l-.29.09a0,0,0,0,0,0,.06,1.71,1.71,0,0,1,.09.43v0a1.1,1.1,0,0,1-.06.37V94l0,0a2.72,2.72,0,0,0,1.44-.39,2.21,2.21,0,0,0,.36-.23l0,0v0a3.34,3.34,0,0,1-.33-.32l-.19-.23h-.14a2.21,2.21,0,0,0,.25.3,3.84,3.84,0,0,0,.27.29,1.5,1.5,0,0,1-.28.18,2.74,2.74,0,0,1-.42.21,2.38,2.38,0,0,1-.9.16,1.2,1.2,0,0,0,.05-.33v-.06a2.39,2.39,0,0,0-.08-.39l.18-.06a.33.33,0,0,0,.12.17.45.45,0,0,0,.27.1.35.35,0,0,0,.23-.09h0a.32.32,0,0,0,.12-.26h0l0-.18.09,0Zm.77,0a2.52,2.52,0,0,0,.55.49h.06a2.32,2.32,0,0,0,.5-.49h-.15a1.9,1.9,0,0,1-.38.37,3,3,0,0,1-.43-.37Zm1.42,0-.19.23h0l-.32.32,0,0,0,0a2.21,2.21,0,0,0,.36.23,2.72,2.72,0,0,0,1.45.39l.05,0v-.06a1.1,1.1,0,0,1-.06-.37v0a2.31,2.31,0,0,1,.09-.43s0-.06,0-.06l-.29-.09h0l0,0a.27.27,0,0,1-.1.16.28.28,0,0,1-.19.07.25.25,0,0,1-.16,0,.26.26,0,0,1-.09-.17l0-.23h-.2l.08,0,0,.18h0a.32.32,0,0,0,.12.26.36.36,0,0,0,.24.09.42.42,0,0,0,.26-.1.33.33,0,0,0,.12-.17l.18.06a2.39,2.39,0,0,0-.08.39v.06a1.2,1.2,0,0,0,.05.33,2.2,2.2,0,0,1-.9-.16,2.65,2.65,0,0,1-.41-.21,1.6,1.6,0,0,1-.29-.18l.28-.29a3.15,3.15,0,0,0,.24-.3Zm1.52,0a.21.21,0,0,0-.08.17h0a.43.43,0,0,0,0,.11l0,0L177,93s0,.06.05.12a.76.76,0,0,1,.06.18v.06a.2.2,0,0,1,0,.07h0a.28.28,0,0,1-.06.15l0,0,0,0a3.37,3.37,0,0,1,.29.35l.12.19,0,.11,0,.25v0c-.23,0-.45-.09-.68-.12h0a.05.05,0,0,0,0-.07,9.07,9.07,0,0,1-1.15-.37c-.25-.1-.39-.16-.64-.28h-.06l-.34.19-.34-.19h-.06c-.25.12-.39.18-.64.28a9.07,9.07,0,0,1-1.15.37.07.07,0,0,0,0,.07h0A14.6,14.6,0,0,0,170,95h.78a13.86,13.86,0,0,1,7.45,0H179c-.39-.13-.78-.24-1.18-.34v-.23l-.11-.17a2.44,2.44,0,0,0-.14-.34,2.1,2.1,0,0,0-.15-.3l.1-.11a.63.63,0,0,0,.07-.12,1.09,1.09,0,0,0,.05-.17l0,0a.42.42,0,0,1,.07.24v0h0l.17.16.19.14.14.11,0,0,.17-.07.49.1a1.37,1.37,0,0,0,.35.37h0c.5.28.64.45.72.6h.13l0-.05a1.91,1.91,0,0,0-.77-.65.89.89,0,0,1-.43-.71.7.7,0,0,1,.07-.31,1.92,1.92,0,0,1,.39-.43h0a1.06,1.06,0,0,1,.15-.15h-.33l0,.13a1.77,1.77,0,0,0-.34.4,1.42,1.42,0,0,0,0,.16l-.11.12,0,0a.66.66,0,0,1-.21.15h-.17l-.25-.2,0-.09a.53.53,0,0,0,0-.16s0-.1,0-.16,0-.06,0-.09v0l0,0h0l.07,0,.19-.16h-.17l-.08.06-.13.08,0,0,0,0a.11.11,0,0,0,0,0h0v0h0s0,.06,0,.09v.12a.41.41,0,0,1,0,.12c0,.05,0,.1,0,.14v0l.32.27h0a.54.54,0,0,0,.17,0h.06a.64.64,0,0,0,.2-.11v.07h0l0,.1-.3-.06h0l-.13.05-.12-.09h0l-.19-.14-.14-.13a.53.53,0,0,0-.09-.3.41.41,0,0,0-.14-.15l-.09-.07v.11a.42.42,0,0,1-.06.25.22.22,0,0,1-.05.1l-.12.13,0,0,0,0c.07.13.11.2.17.33a3.45,3.45,0,0,1,.14.34h0l.1.16v.06l-.2,0,0-.21h0l0-.13h0l-.14-.21h0a2.85,2.85,0,0,0-.27-.32.29.29,0,0,0,.07-.16s0-.06,0-.09,0-.05,0-.08h0a.65.65,0,0,0-.07-.21,1.42,1.42,0,0,0-.08-.18l0-.06-.09.06a.09.09,0,0,1,.08-.09h0v0s0,0,0,0Zm3.34,0,.21.54-.58.73,0,0h0l1,0,.56.77h0l.25-.91.62-.17.4.19a1.91,1.91,0,0,0-.1.52h0a2,2,0,0,1-.1.58h0l0,0h.13l0-.08.05,0h.11v0h.11v-.17h-.2s0,0,0,0v0h0l0-.25,0-.33a1.93,1.93,0,0,1,.08-.27,1,1,0,0,1,.15-.25l.11-.14a.6.6,0,0,1,.11-.1l.11-.09a1.19,1.19,0,0,1,.25-.13l.06,0a.13.13,0,0,1,0,.07s0,.07,0,.12a.28.28,0,0,1,0,.09,1.28,1.28,0,0,1,0,.17,1.38,1.38,0,0,1-.08.27l0,.07-.05.1-.06.13.22-.08,0,0h.11V94h0v0h.05l0,0h0l0,0,0,0h.12l.06,0,0-.06a.25.25,0,0,0,0-.11.34.34,0,0,0-.09-.08.14.14,0,0,0-.09,0h0l0,0v0h.08l0,0h0l0,0h.16l.06,0,0,0h0l0,0,.14,0,.09.25-.07,0h0v0l0,.07a.1.1,0,0,1,0,.08l-.05,0h0l-.07.09,0,0,0,0h0l0,.08s0,0,0,.07l0,.05-.05,0,0,0,.09.2,0,.06,0,0,.08,0,.12-.06h0a.18.18,0,0,1,.09,0h0s.05,0,.09,0a.18.18,0,0,1,.07.1.22.22,0,0,1,0,.11v0a.25.25,0,0,1,0,.07h.18s0,0,0-.07v0a.51.51,0,0,0,0-.17.43.43,0,0,0-.12-.17h0a.44.44,0,0,0-.27-.09h0a.13.13,0,0,0,0-.12l0,0,.06-.06,0,0,.05-.08.19-.07A.11.11,0,0,0,185,94l-.2-.6a.13.13,0,0,0-.06-.07.14.14,0,0,0-.09,0l-.14,0-.12-.07-.06,0h-.27l-.05,0-.19.1h0s0-.08,0-.13,0,0,0,0a.14.14,0,0,0,0-.09l-.09-.35h-.18v0l.08.28v0h-.06l0,0a1.11,1.11,0,0,0-.27.13,1.49,1.49,0,0,0-.53.58l-.28-.14.15,0v0h0l-.81-.52v-.33h-.12v.32l-.25.13-.07,0-.06,0h0l0,0v0h0l0,0,0,0,.2-.4h-.12l-.17.35h0l0,0,0,0h0l0,0v-.06h0V93h0l0-.27,0,0h-.27l.12,0,0,.2v.07l0,.07h0l0,.12-.22-.21h0l-.13-.13h0l-.12-.12h0l0,0h-.16l.14.13h0l.46.43-.49-.07-.18-.46v0Zm1.11.72.61.09h0l.19,0h0l.18,0h0l-.08,0h0l-.08,0h0l-.49.14Zm.25.36-.16.63-.17-.93Zm.45-.36h0l-.17,0-.18,0h0l-.34,0,.11-.06.06,0,.06,0h0l.16-.09h0l.57.34Zm-.87.09.16.91-.38-.5Zm-.11-.06-.2.42-.66,0Zm-.89.33.38-.48.5.07Zm-10.93,0-.05,0-.45.12-.2.07-.06-.05a.41.41,0,0,0-.24-.08l-.12,0L168,94,168,94a.42.42,0,0,0-.13.22.3.3,0,0,0,0,.1s0,0,0,0l-.27.16a2.82,2.82,0,0,0-.31.21l-.17.15h0l-.34-.42v0l.17-.16.28-.23.17-.12a3.29,3.29,0,0,1,.56-.32,3,3,0,0,1,.53-.19l.21-.06.19,0h0l.33-.06.1,0s0,0,0,.05c0,.19.07.36.1.51l-.17,0m-.39-.63h-.06l-.2.05-.32.09a2.86,2.86,0,0,0-.41.15,2.63,2.63,0,0,0-.47.27,1.56,1.56,0,0,0-.25.17l-.16.12-.18.16-.14.13h0l-.14-.17h0a.87.87,0,0,0,.11-.09l.14-.12.12-.09a2.76,2.76,0,0,1,.39-.27l.2-.11h0v-.09a.3.3,0,0,1,0-.1.27.27,0,0,1,.15-.18.27.27,0,0,1,.13,0h.07l.11,0,.05.05,0,0,0,0,.21-.08a4.28,4.28,0,0,1,.46-.13h.08l.19,0,.19,0h0l0,.12,0,.1-.42.07m-5.18,1.49-.06-1,2.21-.11.06,0,.36.48-1.05.05v.06l0,.52h-.25v-.28l-.77,0,0,.29h-.54Zm12.71-.26a14.1,14.1,0,0,0-1.84-.12,14.33,14.33,0,0,0-1.87.12l.86-.29.62-.27.35.2h.06l.35-.2.62.27.85.29m-5.47-.61a.38.38,0,0,0,.27.14h.06a.31.31,0,0,0,.23-.17.66.66,0,0,0,.08-.32.37.37,0,0,0,0-.11.56.56,0,0,0-.14-.32.33.33,0,0,0-.26-.14h-.06a.35.35,0,0,0-.23.18.57.57,0,0,0-.09.32s0,.07,0,.11a.63.63,0,0,0,.14.32m0-.69a.23.23,0,0,1,.16-.12h0a.24.24,0,0,1,.17.1.52.52,0,0,1,.12.27s0,.06,0,.09a.53.53,0,0,1-.07.26.24.24,0,0,1-.15.12h0a.26.26,0,0,1-.18-.1.52.52,0,0,1-.12-.27v-.09a.53.53,0,0,1,.06-.26m13.41.48-.1.08h.18Z"/><path class="cls-3" d="M165.61,92.74a.52.52,0,0,1,.15-.18h0a6.8,6.8,0,0,1,.66-.53.37.37,0,0,0,.16-.28.35.35,0,0,0,0-.13.37.37,0,0,1,0-.15.35.35,0,0,1,.2-.32.4.4,0,0,1,.15,0,.36.36,0,0,1,.32.21.29.29,0,0,0,.27.17l.13,0a6.33,6.33,0,0,1,.87-.16h.09a.36.36,0,0,1,.19,0,.18.18,0,0,1,.1.11.08.08,0,0,1,0,0h0s0,.07,0,.15,0,.11,0,.18h0l-.66.12a4.56,4.56,0,0,0-.66.2.36.36,0,0,0-.29-.13.35.35,0,0,0-.17,0,.4.4,0,0,0-.24.37v0c-.07,0-.25.15-.42.27h.21l.1-.07.2-.12,0,0v-.1a.3.3,0,0,1,.16-.27.32.32,0,0,1,.13,0,.28.28,0,0,1,.23.11l0,0h0l.22-.08a3,3,0,0,1,.45-.13l.58-.1.09,0,0,.07,0,.08v.07l-.19,0-.18,0a4.62,4.62,0,0,0-1.26.36,3.07,3.07,0,0,0-.31.17h.23l.13-.07a4.32,4.32,0,0,1,1.08-.32l.19,0,.34,0c0,.13.06.25.08.37l0,.1h.12a.64.64,0,0,1,0-.07l.77-.82c.06.06.19.17.38.36l0,0,.33-.35-.21-.2.36-.39.17.16.05,0,.46-.5h.08a.11.11,0,0,0,.06-.12,1.62,1.62,0,0,1,0-.3.92.92,0,0,1,1-1,1.2,1.2,0,0,1,.66.16l.12.09.08.13a.91.91,0,0,1,.1.13.67.67,0,0,1,.06.12h0a.16.16,0,0,0,.07.07h1.4v0h-.06a.12.12,0,0,0,.15-.07,1.15,1.15,0,0,1,.14-.27l0,0a.77.77,0,0,1,.19-.16,1.15,1.15,0,0,1,.66-.16,1,1,0,0,1,.67.24,1,1,0,0,1,.3.79,1.93,1.93,0,0,1,0,.24.1.1,0,0,0,.06.12.11.11,0,0,0,.13,0l.33-.31,0,0-.05.07,0,.07.2,0h0a1.7,1.7,0,0,0,.09.24h0a2.14,2.14,0,0,0,.13.22l0,.06-.05.12a1.34,1.34,0,0,0-.06.12l-.34.27-.28.26a.78.78,0,0,0-.33.24.84.84,0,0,0-.21.35l-.06,0H177a.7.7,0,0,1,.18-.31.77.77,0,0,1,.31-.22h0l.29-.25c.13-.11.2-.18.34-.28h0a1.47,1.47,0,0,0,.06-.14.75.75,0,0,0,.06-.13v0l0-.11h0a1,1,0,0,1-.13-.22,1.3,1.3,0,0,1-.1-.25v0h-.13l0,0,0,0-.08-.09.24-.21h0l.1.09h.09l.08,0,0,.07h0l.28.11v.1h-.07l-.16,0-.08,0,0,.07a.36.36,0,0,0,.07.1.75.75,0,0,0,.16.15,1.94,1.94,0,0,0,.24.15h0l.11-.08.12,0h.18l.2.08a.62.62,0,0,1,.13.24.75.75,0,0,1,0,.2v0l-.05.1-.07-.11,0-.09h0a.51.51,0,0,0,0-.1.33.33,0,0,0-.08-.17.29.29,0,0,0-.18-.07h0a.25.25,0,0,0-.13,0l-.06,0h0l-.14.09,0,0v.12a.76.76,0,0,1,0,.14.52.52,0,0,1-.1.23l-.06.1H179a1.12,1.12,0,0,1,.24,0l.06,0,.05,0,.09.61,0,0,0-.21h0a.38.38,0,0,1,0-.1v-.09a.22.22,0,0,0-.08-.21.1.1,0,0,0-.07,0l-.16,0c-.15,0-.24.11-.31.12h0v0a1.93,1.93,0,0,1-.29.35l-.15.13h.17l.06,0a1.59,1.59,0,0,0,.29-.35c.11,0,.19-.09.29-.12l.14,0s0,.06,0,.12v.21h0l0,.22h.33s0,0,.05,0a1,1,0,0,0,.14-.2l.43.21,0,0h.13l0,0h0l0-.07.13.12h.16l-.17-.16.47.16h.27l.49-.4-.21.4h.12l.16-.31v.31h.12V92.1l0,0h0l-.74.59-.93-.32,0,0h0l.05.14-.32-.16a1.56,1.56,0,0,0,.14-.63,1.45,1.45,0,0,0-.08-.47.08.08,0,0,1,0,0l.3-.13.06,0,0,.05a1.18,1.18,0,0,0,.32.21,1.27,1.27,0,0,0,.51.08,1.26,1.26,0,0,1,.42.12h0l.08,0a.13.13,0,0,0,.12-.1h0a.32.32,0,0,0,0-.08h0a.35.35,0,0,1,.36-.27.39.39,0,0,1,.4.39.32.32,0,0,1-.08.21h0a.43.43,0,0,0-.07.07.14.14,0,0,0,0,.07.14.14,0,0,0,.09.13h0a1.1,1.1,0,0,1,.35.26,1.4,1.4,0,0,0,.37.35,1.31,1.31,0,0,0,.37.12h.06v0h.18l0-.12a.12.12,0,0,0-.1-.09h0a1.06,1.06,0,0,1-.39-.11.61.61,0,0,1-.17-.14l-.15-.18a1.72,1.72,0,0,0-.37-.28h0a.5.5,0,0,0,.13-.34.55.55,0,0,0-.31-.5.62.62,0,0,0-.26-.06.58.58,0,0,0-.34.11.46.46,0,0,0-.19.31v0a1.39,1.39,0,0,0-.44-.13h0a1.89,1.89,0,0,0-.24,0,1,1,0,0,1-.22,0,.94.94,0,0,1-.23-.16l-.08-.06,0,0h0a.13.13,0,0,0-.13,0l-.37.16-.33-.22-.06,0h-.21l-.16,0,0,0-.06,0h0l.05,0a.11.11,0,0,0,0-.08v-.14l0-.13a.09.09,0,0,0-.06-.07l-.28-.11,0-.06s0,0-.08,0l-.11,0h0l-.14-.12a.1.1,0,0,0-.15,0l-.55.5a1.24,1.24,0,0,0-.38-1,1.26,1.26,0,0,0-.82-.3,2.46,2.46,0,0,0-.4,0,1.56,1.56,0,0,0,.13-.19,2.16,2.16,0,0,0,.28-.57h.15a.12.12,0,0,0,.08,0,.11.11,0,0,0,0-.08v-.58a.11.11,0,0,0-.11-.12H176a1.08,1.08,0,0,0-.24-.51,1.05,1.05,0,0,0-.73-.37v-.32h.37a.11.11,0,0,0,.08,0,.13.13,0,0,0,0-.08v-.6a.12.12,0,0,0,0-.09.11.11,0,0,0-.08,0H175v-.39a.11.11,0,0,0,0-.08.09.09,0,0,0-.08,0h-.74a.12.12,0,0,0-.09,0,.11.11,0,0,0,0,.08v.39h-.37a.11.11,0,0,0-.08,0,.1.1,0,0,0,0,.09v.59a.11.11,0,0,0,0,.09.11.11,0,0,0,.08,0H174v.34a1.12,1.12,0,0,0-.69.35,1.13,1.13,0,0,0-.28.51h-.53a.12.12,0,0,0-.12.12v.58a.14.14,0,0,0,.12.12h.16a2.16,2.16,0,0,0,.28.57h0a1.56,1.56,0,0,0,.13.19,2.34,2.34,0,0,0-.39,0,1.27,1.27,0,0,0-.82.29,1.23,1.23,0,0,0-.38,1v0l-.7-.64a.12.12,0,0,0-.16,0l-1.52,1.63c0-.09,0-.16,0-.16h0a.37.37,0,0,0-.22-.25.58.58,0,0,0-.29-.06h-.14a5.66,5.66,0,0,0-.89.16h-.08c-.06,0-.09,0-.11-.06a.52.52,0,0,0-.49-.31.41.41,0,0,0-.21,0,.52.52,0,0,0-.31.47.64.64,0,0,0,0,.23v0a.18.18,0,0,1-.09.14h0a6.61,6.61,0,0,0-.67.55.79.79,0,0,0-.17.19.34.34,0,0,0-.06.12Zm4.83,0a.47.47,0,0,0,.05-.1.76.76,0,0,1,.47-.35l.14,0a.73.73,0,0,1,.57.33l.09.14h.13a1.07,1.07,0,0,0-.13-.21.82.82,0,0,0-.66-.37l-.16,0a1,1,0,0,0-.63.56Zm2.93,0,.1,0,0,0h.15l-.1-.14-.07,0-.27.1a.06.06,0,0,0,0,.06Zm.7,0-.08-.1a1.58,1.58,0,0,1-.32-.54,1.12,1.12,0,0,1-.07-.4.59.59,0,0,0,.31-.12.66.66,0,0,0,.23-.24l.35.07h0l.29-.07a.69.69,0,0,0,.24.24.59.59,0,0,0,.31.12,1.4,1.4,0,0,1-.07.4,1.75,1.75,0,0,1-.32.54l-.08.1H175l0,0a1.73,1.73,0,0,0,.34-.57,1.33,1.33,0,0,0,.07-.48h0a.06.06,0,0,0-.05-.06.55.55,0,0,1-.31-.11.54.54,0,0,1-.22-.23l-.06,0-.32.07-.37-.07-.07,0a.58.58,0,0,1-.21.23.61.61,0,0,1-.31.11.06.06,0,0,0-.06.06h0a1.34,1.34,0,0,0,.08.48,1.5,1.5,0,0,0,.34.57s0,0,0,0Zm1.41,0,0,0,.11,0h.21a.07.07,0,0,0,0-.06l-.28-.1-.07,0-.1.14Zm-1.62-2.49h0m6,1.51a1.47,1.47,0,0,1-.14.63.78.78,0,0,1-.16.22s0,0,0,0l-.09-.65h0a.27.27,0,0,0-.08-.07.16.16,0,0,0-.12,0h-.14a.75.75,0,0,0,0-.16h0a1,1,0,0,0,0-.16v-.06l.11-.08h0a.27.27,0,0,1,.11-.05h0a.16.16,0,0,1,.11.05s0,.06.05.1v.06h0l-.05.1v0l.21.35ZM176,89.14a1.88,1.88,0,0,1-.16.23h0l-.14.13a1.37,1.37,0,0,0-.2.13,1.27,1.27,0,0,0-.34.48H174v0h0a.05.05,0,0,0,0,0,1.11,1.11,0,0,0-.26-.42,2.55,2.55,0,0,0-.36-.38,1.07,1.07,0,0,1-.15-.22,1.61,1.61,0,0,1-.28-.59h.29a1.5,1.5,0,0,0,.32.75,1.74,1.74,0,0,0,1,.62h0a1.77,1.77,0,0,0,1-.62,1.41,1.41,0,0,0,.32-.75h.27a1.44,1.44,0,0,1-.27.59,1.64,1.64,0,0,1-.14.22,1.91,1.91,0,0,0-.43.47,1.31,1.31,0,0,0-.2.37s0,0,0,0h.08a1.17,1.17,0,0,1,.34-.48,1.37,1.37,0,0,1,.2-.13l.14-.13h0a1.43,1.43,0,0,0,.16-.24Zm-2.11,1h0m-.59-1.67h2.43a1.27,1.27,0,0,1-.28.66,1.6,1.6,0,0,1-.94.58,1.57,1.57,0,0,1-.92-.58h0a1.45,1.45,0,0,1-.29-.67m3,0h0l0,.1a2.48,2.48,0,0,1-.25.56h0a2.48,2.48,0,0,0,.25-.56l0-.1h0v0m-2.73-1.07a1,1,0,0,1,.68-.27h.06v-.82h-.49V86h.49v-.48h.45V86h.49v.31h-.49v.81h.05a1,1,0,0,1,.7.27.8.8,0,0,1,.25.5h-2.46a.86.86,0,0,1,.27-.49m-.91.61h3.72v.33h-3.72Zm.21.44h0a2.13,2.13,0,0,0,.27.62,1.7,1.7,0,0,0,.15.22h0l.22.2a2.21,2.21,0,0,1,.23.32.7.7,0,0,1,.08.14h0a1,1,0,0,0-.08-.14,2.21,2.21,0,0,0-.23-.32l-.22-.2h0a1.7,1.7,0,0,1-.15-.22,2.13,2.13,0,0,1-.27-.62m1,1.8-.05,0Zm-4.69,1.67,1.58-1.69.79.71-.38.41-.17-.16,0,0-.52.56.2.19-.16.18-.38-.35,0,0-.79.85-.12-.53,0-.05.06,0m3,.67a.08.08,0,0,0,.08,0l.3-.12,0,0a.19.19,0,0,1,.07-.16.3.3,0,0,1,.22-.07.19.19,0,0,1,.13.06.35.35,0,0,1,.08.12l0,0h0l.22-.1a.07.07,0,0,0,0-.08,1.68,1.68,0,0,1-.07-.24.9.9,0,0,1,0-.23v0l0,0a.69.69,0,0,1-.2-.13.9.9,0,0,1-.2-.19h-.08v.09a1,1,0,0,0,.22.2h0a.55.55,0,0,0,.19.12h0a1.22,1.22,0,0,0,0,.26,1.17,1.17,0,0,0,.06.2l-.13.06a.44.44,0,0,0-.08-.11.29.29,0,0,0-.21-.09.51.51,0,0,0-.3.09.35.35,0,0,0-.1.21l-.22.09c0-.06-.1-.17-.16-.25a1.42,1.42,0,0,0-.33-.32l.81-.92v-.07a1.18,1.18,0,0,1-.11-.19.45.45,0,0,1-.06-.21h0v0a.34.34,0,0,1,0-.16.28.28,0,0,1,.14-.18.39.39,0,0,1,.28-.09h0a.58.58,0,0,1,.24,0,.21.21,0,0,1,.13.13.44.44,0,0,1,0,.1.27.27,0,0,1-.05.14l-.15.2a.4.4,0,0,0-.09.21v0a.3.3,0,0,0,.08.2.35.35,0,0,0,.18.16.73.73,0,0,0,.2,0h0a.41.41,0,0,0,.16,0,.34.34,0,0,0,.2-.15.36.36,0,0,0,.09-.24h1.26a.42.42,0,0,0,.09.24.37.37,0,0,0,.2.15l.16,0h0a.73.73,0,0,0,.2,0,.42.42,0,0,0,.19-.16.35.35,0,0,0,.07-.2v0a.29.29,0,0,0-.09-.21h0l-.14-.2a.2.2,0,0,1-.05-.14.38.38,0,0,1,0-.1.21.21,0,0,1,.13-.13.61.61,0,0,1,.24,0h0a.37.37,0,0,1,.27.09.28.28,0,0,1,.14.18.35.35,0,0,1,0,.17v0h0a.65.65,0,0,1-.07.21,1.18,1.18,0,0,1-.11.19V91l.82.92a1.46,1.46,0,0,0-.34.32l-.16.25-.2-.09a.33.33,0,0,0-.11-.2.45.45,0,0,0-.3-.1.29.29,0,0,0-.2.09.44.44,0,0,0-.09.11l-.12-.06c0-.06,0-.12.06-.2a1.18,1.18,0,0,0,0-.26h0a1.13,1.13,0,0,0,.2-.13.8.8,0,0,0,.21-.2v-.08h-.08a1.21,1.21,0,0,1-.2.19.88.88,0,0,1-.21.12l0,0v0a1.05,1.05,0,0,1,0,.24.8.8,0,0,1-.07.24s0,.06,0,.07l.22.1h0l0,0a.26.26,0,0,1,.09-.12.17.17,0,0,1,.12-.06.29.29,0,0,1,.23.07.2.2,0,0,1,.07.15l0,0,.3.13a.05.05,0,0,0,.07,0,.72.72,0,0,0,.06-.1l.12-.17a1.17,1.17,0,0,1,.36-.34l0,0v0l-.83-.93a.46.46,0,0,0,.09-.17.63.63,0,0,0,.09-.24v-.06a.43.43,0,0,0-.05-.21.46.46,0,0,0-.18-.23.53.53,0,0,0-.34-.11h0a.68.68,0,0,0-.28,0,.29.29,0,0,0-.19.2.31.31,0,0,0,0,.13.44.44,0,0,0,.07.22h0l.15.2h0a.25.25,0,0,1,.06.14v0a.3.3,0,0,1-.05.15h0a.3.3,0,0,1-.13.12h0a.27.27,0,0,1-.15,0h0l-.12,0h0a.31.31,0,0,1-.15-.1h0a.29.29,0,0,1-.06-.19v0l0,0,0,0h-1.37l0,0v.08a.29.29,0,0,1-.06.19h0a.31.31,0,0,1-.15.1l-.13,0h0a.25.25,0,0,1-.15,0h0a.3.3,0,0,1-.13-.12.24.24,0,0,1-.06-.15v0a.25.25,0,0,1,.06-.14h0l.16-.2h0a.44.44,0,0,0,.07-.22.61.61,0,0,0,0-.13.31.31,0,0,0-.2-.2.61.61,0,0,0-.27,0h0a.56.56,0,0,0-.35.11.46.46,0,0,0-.18.23.56.56,0,0,0,0,.21v.06a.85.85,0,0,0,.08.24.68.68,0,0,0,.09.17l-.82.93v0l0,0a1.17,1.17,0,0,1,.36.34h0l.12.17a.72.72,0,0,0,.06.1m6.19-2.12-.1.09h.18Z"/></svg>