<svg id="Layer_1" data-name="Layer 1" xmlns="http://www.w3.org/2000/svg" viewBox="0 0 215.25 212.24"><defs><style>.cls-1{fill:#565b5e;}.cls-2{fill:#79be00;}</style></defs><title>logosArtboard 12 copy 52</title><path class="cls-1" d="M100.47,121a3.21,3.21,0,0,1-3.22-3.21V97.55a3.22,3.22,0,1,1,6.43,0v20.22A3.21,3.21,0,0,1,100.47,121Z"/><path class="cls-1" d="M76.84,94.52a2.89,2.89,0,0,0-.53,4l6.56,8.49-7.06,9.14a2.89,2.89,0,0,0,4.58,3.54l6.13-7.95,6.14,7.95a2.89,2.89,0,1,0,4.58-3.54l-7.06-9.14,6.55-8.49A2.89,2.89,0,0,0,92.16,95l-5.64,7.29L80.89,95A2.88,2.88,0,0,0,76.84,94.52Z"/><path class="cls-1" d="M50,117.52a2.77,2.77,0,0,0-2.77-2.77H32V88.12a3.45,3.45,0,0,0-3.56-3.46,3.56,3.56,0,0,0-3.36,3.61v28.47a3.56,3.56,0,0,0,3.56,3.56H47.22A2.77,2.77,0,0,0,50,117.52"/><path class="cls-1" d="M25.5,131.13l.78-.07a1.71,1.71,0,0,0,.26.77,1.52,1.52,0,0,0,.63.49,2.5,2.5,0,0,0,1,.18,2.25,2.25,0,0,0,.84-.14,1.17,1.17,0,0,0,.54-.38.92.92,0,0,0,.18-.54.8.8,0,0,0-.18-.52,1.22,1.22,0,0,0-.56-.37c-.17-.06-.54-.17-1.12-.31a4.85,4.85,0,0,1-1.21-.39,1.61,1.61,0,0,1-.67-.58,1.42,1.42,0,0,1-.22-.78,1.58,1.58,0,0,1,.27-.89,1.62,1.62,0,0,1,.79-.63,3,3,0,0,1,1.15-.22,3.17,3.17,0,0,1,1.23.23,1.8,1.8,0,0,1,.82.66,2,2,0,0,1,.31,1l-.8.06a1.29,1.29,0,0,0-.43-.9,1.74,1.74,0,0,0-1.1-.3,1.8,1.8,0,0,0-1.1.27.84.84,0,0,0-.34.67.73.73,0,0,0,.24.56,3.42,3.42,0,0,0,1.26.44,8.64,8.64,0,0,1,1.39.41,1.9,1.9,0,0,1,.81.64,1.55,1.55,0,0,1,.26.89,1.7,1.7,0,0,1-.29.94,1.86,1.86,0,0,1-.82.69,2.83,2.83,0,0,1-1.22.25,3.51,3.51,0,0,1-1.42-.25,1.92,1.92,0,0,1-.91-.75A2.05,2.05,0,0,1,25.5,131.13Z"/><path class="cls-1" d="M31.68,133.14v-6.28h4.54v.74H32.51v1.93H36v.73H32.51v2.14h3.85v.74Z"/><path class="cls-1" d="M37.55,133.14v-6.28h2.79a3.72,3.72,0,0,1,1.27.17,1.36,1.36,0,0,1,.7.6,1.72,1.72,0,0,1,.26,1,1.55,1.55,0,0,1-.43,1.12,2.2,2.2,0,0,1-1.34.59,2,2,0,0,1,.5.31,3.85,3.85,0,0,1,.69.83l1.1,1.71H42l-.83-1.3a10.06,10.06,0,0,0-.6-.87,2,2,0,0,0-.42-.42,1.59,1.59,0,0,0-.38-.17,2.54,2.54,0,0,0-.46,0h-1v2.79Zm.83-3.51h1.79a2.65,2.65,0,0,0,.89-.11,1,1,0,0,0,.49-.38,1,1,0,0,0,.17-.56.94.94,0,0,0-.33-.74,1.5,1.5,0,0,0-1-.28h-2Z"/><path class="cls-1" d="M45.54,133.14l-2.44-6.28H44l1.64,4.57q.2.54.33,1a10.16,10.16,0,0,1,.34-1L48,126.86h.85l-2.46,6.28Z"/><path class="cls-1" d="M49.76,133.14v-6.28h.83v6.28Z"/><path class="cls-1" d="M56.57,130.94l.83.21a2.8,2.8,0,0,1-.94,1.56,2.59,2.59,0,0,1-1.66.54,3,3,0,0,1-1.65-.41,2.58,2.58,0,0,1-1-1.2,4.27,4.27,0,0,1-.33-1.68,3.73,3.73,0,0,1,.37-1.72,2.66,2.66,0,0,1,1.07-1.11,3.14,3.14,0,0,1,1.52-.38,2.59,2.59,0,0,1,1.59.48,2.48,2.48,0,0,1,.89,1.35l-.82.2a1.88,1.88,0,0,0-.63-1,1.7,1.7,0,0,0-1.05-.31,2.05,2.05,0,0,0-1.21.34,1.82,1.82,0,0,0-.68.94,4,4,0,0,0,0,2.6,1.66,1.66,0,0,0,.72.89,2,2,0,0,0,1.07.3,1.81,1.81,0,0,0,1.18-.4A2.07,2.07,0,0,0,56.57,130.94Z"/><path class="cls-1" d="M58.59,133.14v-6.28h.83v6.28Z"/><path class="cls-1" d="M60.66,130.08a3.4,3.4,0,0,1,.84-2.44,2.86,2.86,0,0,1,2.17-.89,3,3,0,0,1,1.57.42,2.65,2.65,0,0,1,1.06,1.16,4,4,0,0,1,0,3.39,2.61,2.61,0,0,1-1.09,1.14,3.11,3.11,0,0,1-1.53.39,2.93,2.93,0,0,1-1.58-.43A2.67,2.67,0,0,1,61,131.65,3.51,3.51,0,0,1,60.66,130.08Zm.86,0a2.52,2.52,0,0,0,.61,1.79,2.14,2.14,0,0,0,3.08,0,2.68,2.68,0,0,0,.6-1.87,3.27,3.27,0,0,0-.26-1.34,2,2,0,0,0-.76-.89,2,2,0,0,0-1.12-.31,2.16,2.16,0,0,0-1.52.6A2.74,2.74,0,0,0,61.52,130.1Z"/><path class="cls-1" d="M67.48,131.13l.79-.07a1.6,1.6,0,0,0,.26.77,1.4,1.4,0,0,0,.63.49,2.45,2.45,0,0,0,1,.18,2.18,2.18,0,0,0,.84-.14,1.12,1.12,0,0,0,.54-.38.92.92,0,0,0,.18-.54.85.85,0,0,0-.17-.52,1.22,1.22,0,0,0-.56-.37c-.17-.06-.55-.17-1.12-.31a5.11,5.11,0,0,1-1.22-.39,1.68,1.68,0,0,1-.67-.58,1.5,1.5,0,0,1-.22-.78,1.58,1.58,0,0,1,.27-.89,1.66,1.66,0,0,1,.79-.63,3.06,3.06,0,0,1,1.15-.22,3.19,3.19,0,0,1,1.24.23,1.77,1.77,0,0,1,1.12,1.65l-.79.06a1.3,1.3,0,0,0-.44-.9,1.69,1.69,0,0,0-1.09-.3,1.8,1.8,0,0,0-1.1.27.85.85,0,0,0-.35.67.73.73,0,0,0,.25.56,3.42,3.42,0,0,0,1.25.44,8,8,0,0,1,1.39.41,1.78,1.78,0,0,1,.81.64,1.48,1.48,0,0,1,.26.89,1.69,1.69,0,0,1-.28.94,1.89,1.89,0,0,1-.83.69,2.79,2.79,0,0,1-1.21.25,3.56,3.56,0,0,1-1.43-.25,2,2,0,0,1-.9-.75A2.06,2.06,0,0,1,67.48,131.13Z"/><path class="cls-1" d="M76.11,133.14v-6.28h2.16a5.27,5.27,0,0,1,1.12.09,2,2,0,0,1,.92.45,2.66,2.66,0,0,1,.75,1.07,4.37,4.37,0,0,1,.24,1.5,4.45,4.45,0,0,1-.16,1.27,3.35,3.35,0,0,1-.43.91,2.56,2.56,0,0,1-.57.57,2.52,2.52,0,0,1-.76.32,4.28,4.28,0,0,1-1,.1Zm.83-.74h1.34a3.57,3.57,0,0,0,1-.11,1.46,1.46,0,0,0,.56-.33,2,2,0,0,0,.46-.79,3.92,3.92,0,0,0,.17-1.21,2.88,2.88,0,0,0-.33-1.52,1.64,1.64,0,0,0-.78-.71,3.49,3.49,0,0,0-1.08-.13H76.94Z"/><path class="cls-1" d="M82.49,133.14v-6.28H87v.74H83.32v1.93H86.8v.73H83.32v2.14h3.86v.74Z"/><path class="cls-1" d="M95.3,130.94l.83.21a2.8,2.8,0,0,1-.94,1.56,2.59,2.59,0,0,1-1.66.54,3,3,0,0,1-1.65-.41,2.58,2.58,0,0,1-1-1.2,4.27,4.27,0,0,1-.33-1.68,3.73,3.73,0,0,1,.37-1.72A2.66,2.66,0,0,1,92,127.13a3.14,3.14,0,0,1,1.52-.38,2.59,2.59,0,0,1,1.59.48,2.48,2.48,0,0,1,.89,1.35l-.82.2a1.88,1.88,0,0,0-.63-1,1.7,1.7,0,0,0-1-.31,2.05,2.05,0,0,0-1.21.34,1.82,1.82,0,0,0-.68.94,4,4,0,0,0,0,2.6,1.66,1.66,0,0,0,.72.89,2,2,0,0,0,1.07.3,1.81,1.81,0,0,0,1.18-.4A2.07,2.07,0,0,0,95.3,130.94Z"/><path class="cls-1" d="M96.93,130.08a3.4,3.4,0,0,1,.84-2.44,2.85,2.85,0,0,1,2.16-.89,3,3,0,0,1,1.57.42,2.67,2.67,0,0,1,1.07,1.16,3.77,3.77,0,0,1,.36,1.68,3.65,3.65,0,0,1-.38,1.71,2.67,2.67,0,0,1-1.09,1.14,3.14,3.14,0,0,1-1.53.39,2.9,2.9,0,0,1-1.58-.43,2.67,2.67,0,0,1-1.06-1.17A3.51,3.51,0,0,1,96.93,130.08Zm.85,0a2.57,2.57,0,0,0,.61,1.79,2,2,0,0,0,1.54.65,2,2,0,0,0,1.54-.66,2.68,2.68,0,0,0,.61-1.87,3.27,3.27,0,0,0-.26-1.34,2.08,2.08,0,0,0-.76-.89,2.05,2.05,0,0,0-1.12-.31,2.13,2.13,0,0,0-1.52.6A2.74,2.74,0,0,0,97.78,130.1Z"/><path class="cls-1" d="M104,133.14v-6.28h2.35a3.08,3.08,0,0,1,1.16.19,1.51,1.51,0,0,1,.68.59,1.58,1.58,0,0,1,.25.83,1.49,1.49,0,0,1-.22.76,1.62,1.62,0,0,1-.66.57,1.59,1.59,0,0,1,.87.57,1.51,1.51,0,0,1,.31.95,1.74,1.74,0,0,1-.19.82,1.47,1.47,0,0,1-.46.59,2,2,0,0,1-.68.31,4.29,4.29,0,0,1-1,.1Zm.83-3.64h1.36a3,3,0,0,0,.79-.07.92.92,0,0,0,.48-.31,1,1,0,0,0,.16-.55,1,1,0,0,0-.15-.55.79.79,0,0,0-.43-.33,3.51,3.51,0,0,0-1-.09h-1.25Zm0,2.9h1.56a3.67,3.67,0,0,0,.57,0,1.3,1.3,0,0,0,.48-.17.88.88,0,0,0,.31-.35,1,1,0,0,0,.13-.53,1,1,0,0,0-.18-.61,1,1,0,0,0-.5-.36,3.06,3.06,0,0,0-.92-.11h-1.45Z"/><path class="cls-1" d="M109.92,133.14v-6.28h2.79A3.83,3.83,0,0,1,114,127a1.34,1.34,0,0,1,.69.6,1.73,1.73,0,0,1,.27,1,1.56,1.56,0,0,1-.44,1.12,2.2,2.2,0,0,1-1.33.59,2.17,2.17,0,0,1,.5.31,4.54,4.54,0,0,1,.69.83l1.09,1.71h-1l-.83-1.3a10.06,10.06,0,0,0-.6-.87,1.65,1.65,0,0,0-.42-.42,1.43,1.43,0,0,0-.38-.17,2.46,2.46,0,0,0-.46,0h-1v2.79Zm.84-3.51h1.78a2.65,2.65,0,0,0,.89-.11,1,1,0,0,0,.49-.38,1,1,0,0,0,.17-.56,1,1,0,0,0-.32-.74,1.55,1.55,0,0,0-1-.28h-2Z"/><path class="cls-1" d="M115.58,133.14l2.42-6.28h.89l2.57,6.28h-.94l-.74-1.9h-2.62l-.69,1.9Zm1.82-2.58h2.13l-.66-1.74a13.34,13.34,0,0,1-.44-1.3,9,9,0,0,1-.34,1.2Z"/><path class="cls-1" d="M122.14,133.14v-6.28H123l3.3,4.93v-4.93h.79v6.28h-.85l-3.3-4.93v4.93Z"/><path class="cls-1" d="M128,133.14v-.77l3.21-4c.23-.29.45-.54.65-.75h-3.5v-.74h4.5v.74L129.35,132l-.38.44h4v.74Z"/><path class="cls-1" d="M133.21,133.14l2.42-6.28h.89l2.57,6.28h-.94l-.74-1.9h-2.62l-.69,1.9Zm1.82-2.58h2.13l-.66-1.74c-.2-.52-.35-1-.45-1.3a8.93,8.93,0,0,1-.33,1.2Z"/><path class="cls-1" d="M141.81,133.14v-6.28H146v.74h-3.4v2h2.94v.74h-2.94v2.85Z"/><path class="cls-1" d="M146,133.14l2.41-6.28h.89l2.57,6.28h-.94l-.74-1.9h-2.62l-.69,1.9Zm1.81-2.58h2.13l-.66-1.74a13.34,13.34,0,0,1-.44-1.3,9,9,0,0,1-.34,1.2Z"/><path class="cls-1" d="M152.51,133.14v-6.28h.83v5.54h3.09v.74Z"/><path class="cls-1" d="M156.76,133.14l2.41-6.28h.9l2.57,6.28h-.95l-.73-1.9h-2.63l-.69,1.9Zm1.81-2.58h2.13l-.65-1.74c-.2-.52-.35-1-.45-1.3a7.71,7.71,0,0,1-.34,1.2Z"/><path class="cls-1" d="M163.3,133.14v-6.28h2.35a3.08,3.08,0,0,1,1.16.19,1.56,1.56,0,0,1,.92,1.42,1.48,1.48,0,0,1-.21.76,1.62,1.62,0,0,1-.66.57,1.59,1.59,0,0,1,.87.57,1.51,1.51,0,0,1,.31.95,1.74,1.74,0,0,1-.19.82,1.56,1.56,0,0,1-.46.59,2,2,0,0,1-.69.31,4.15,4.15,0,0,1-1,.1Zm.83-3.64h1.36a3,3,0,0,0,.79-.07.92.92,0,0,0,.48-.31,1,1,0,0,0,.16-.55,1,1,0,0,0-.15-.55.79.79,0,0,0-.43-.33,3.56,3.56,0,0,0-1-.09h-1.25Zm0,2.9h1.56a3.67,3.67,0,0,0,.57,0,1.3,1.3,0,0,0,.48-.17,1,1,0,0,0,.31-.35,1,1,0,0,0,.13-.53,1,1,0,0,0-.18-.61,1,1,0,0,0-.5-.36,3.06,3.06,0,0,0-.92-.11h-1.45Z"/><path class="cls-1" d="M169.23,133.14v-6.28h4.54v.74h-3.71v1.93h3.47v.73h-3.47v2.14h3.85v.74Z"/><path class="cls-1" d="M175.05,133.14v-6.28h.84v5.54H179v.74Z"/><path class="cls-1" d="M180,133.14v-6.28h.83v5.54h3.1v.74Z"/><path class="cls-1" d="M184.21,133.14l2.41-6.28h.9l2.57,6.28h-1l-.73-1.9h-2.63l-.69,1.9Zm1.81-2.58h2.13l-.65-1.74c-.2-.52-.35-1-.45-1.3a7.71,7.71,0,0,1-.34,1.2Z"/><path class="cls-1" d="M140.76,94.32a13.33,13.33,0,1,0,13,13.33A13.19,13.19,0,0,0,140.76,94.32Zm0,21.85c-3.69,0-6.69-3.82-6.69-8.52s3-8.52,6.69-8.52,6.68,3.82,6.68,8.52S144.45,116.17,140.76,116.17Z"/><ellipse class="cls-2" cx="140.76" cy="107.65" rx="6.68" ry="8.52"/><path class="cls-1" d="M72.52,111.88a2.5,2.5,0,0,0-2,1.07l0,0a8.73,8.73,0,0,1-7.28,3.48c-3.79,0-6.27-2.77-6.68-7.39H71.59a3.69,3.69,0,0,0,3.65-4.18,10.11,10.11,0,0,0-.22-1.14c-1.59-5.45-5.64-9.42-12.12-9.42-7.95,0-12.5,6-12.5,13.33S55.21,121,62.9,121a14.94,14.94,0,0,0,11.53-4.9.38.38,0,0,0,.09-.13,2.47,2.47,0,0,0,.53-1.54A2.53,2.53,0,0,0,72.52,111.88ZM62.9,98.57c3.67,0,5.71,3.07,6.34,7.16H56.56C57.19,101.64,59.22,98.57,62.9,98.57Z"/><circle class="cls-1" cx="100.47" cy="87.86" r="3.3"/><path class="cls-1" d="M127.81,113.17a3.05,3.05,0,0,0-5.82-1.3h0a6.77,6.77,0,0,1-6,4.3c-3.79,0-6.86-3.82-6.86-8.52s3.07-8.52,6.86-8.52a6.67,6.67,0,0,1,5.79,4h0A3,3,0,1,0,127,100h0a13.34,13.34,0,1,0,.36,14.83h0A3,3,0,0,0,127.81,113.17Z"/><path class="cls-1" d="M190.14,101.68c0-4.39-3-7.19-7.35-7.19a10.49,10.49,0,0,0-8.7,4.52,5.45,5.45,0,0,0-3.27-3.84,10,10,0,0,0-11.74,3.52l-.06-1.4a3.09,3.09,0,0,0-6.17.13v20.36a3.2,3.2,0,1,0,6.4,0v-10.3a16.25,16.25,0,0,1,.36-4.67,5.33,5.33,0,0,1,5.06-3.56c2.63,0,3.77,1.86,3.77,4.37v14.17a3.2,3.2,0,0,0,6.39,0V105.66a10.25,10.25,0,0,1,.35-2.85A5.13,5.13,0,0,1,180,99.25c2.35,0,3.63,1.64,3.63,3.94v14.55a3.24,3.24,0,0,0,6.48,0V101.68Z"/></svg>