<svg id="Layer_1" data-name="Layer 1" xmlns="http://www.w3.org/2000/svg" viewBox="0 0 215.25 212.24"><defs><style>.cls-1{fill:#1c3e64;}</style></defs><title>logosArtboard 12 copy 61</title><polygon class="cls-1" points="68.24 123.89 63.16 123.89 63.16 109.79 53.18 109.79 53.18 123.89 48.1 123.89 48.1 94.37 53.18 94.37 53.18 104.5 63.16 104.5 63.16 94.37 68.24 94.37 68.24 123.89 68.24 123.89"/><path class="cls-1" d="M79.77,102a2.55,2.55,0,0,1-.69,1.78,4.34,4.34,0,0,1-3.8,1.55,6,6,0,0,1-2.14-.46,7.29,7.29,0,0,1-1.9-1l1.55-2a3.49,3.49,0,0,0,2.37,1h.06a2.63,2.63,0,0,0,.92-.17.79.79,0,0,0,.52-.69V102c-.06-.35-.23-.52-.65-.69-.17,0-.46-.12-1-.17a7.18,7.18,0,0,1-1.56-.47,2.84,2.84,0,0,1-1.9-2.81,3.1,3.1,0,0,1,2-2.94,4.22,4.22,0,0,1,1.85-.46,7.77,7.77,0,0,1,2.19.35,4,4,0,0,1,1.84,1.15l-1.84,1.66A2.13,2.13,0,0,0,76,96.85c-.86,0-1.33.29-1.33.86v.06c0,.29.35.51,1.1.69.06,0,.52.12,1.39.29A2.91,2.91,0,0,1,79.76,102Z"/><path class="cls-1" d="M92.35,100a5.14,5.14,0,0,1-1.62,3.92,5.24,5.24,0,0,1-3.92,1.61,5.42,5.42,0,0,1-4-1.61,5.27,5.27,0,0,1-1.62-4A5.14,5.14,0,0,1,82.83,96a5.42,5.42,0,0,1,4-1.61A5.16,5.16,0,0,1,90.73,96a5.4,5.4,0,0,1,1.62,4Zm-2.83,0a2.59,2.59,0,0,0-.8-1.89,2.79,2.79,0,0,0-3.93,0,2.61,2.61,0,0,0-.8,2,2.83,2.83,0,0,0,.8,2,2.55,2.55,0,0,0,2,.8A2.74,2.74,0,0,0,89.52,100V100Z"/><path class="cls-1" d="M105,105.3a5.12,5.12,0,0,1-1.62,3.91,5.68,5.68,0,0,1-4,1.62V108a2.74,2.74,0,0,0,2.77-2.74v-.54a5.92,5.92,0,0,1-2.77.75,5.49,5.49,0,0,1-5.59-5.39V94.43h2.83V100a2.77,2.77,0,0,0,4.72,2,2.74,2.74,0,0,0,.81-2V94.43H105V105.3Z"/><path class="cls-1" d="M82.49,123.72H79.66v-5.24a2.89,2.89,0,0,0-.81-2,2.79,2.79,0,0,0-3.92,0,2.66,2.66,0,0,0-.81,2v5.24H71.29V107.26h2.84v6.39A5.69,5.69,0,0,1,76.9,113a5.37,5.37,0,0,1,4,1.61,5.25,5.25,0,0,1,1.62,3.91Z"/><path class="cls-1" d="M95.06,118.48a5.6,5.6,0,0,1-11.19.27v-.27a5.12,5.12,0,0,1,1.62-3.91,5.72,5.72,0,0,1,8,0,5.24,5.24,0,0,1,1.61,3.91Zm-2.83,0a2.58,2.58,0,0,0-.8-1.9,2.81,2.81,0,0,0-3.93,0,2.62,2.62,0,0,0-.8,2,2.78,2.78,0,1,0,5.55-.06Z"/><path class="cls-1" d="M107.69,123.72h-2.82v-5.24a2.89,2.89,0,0,0-.81-2,2.79,2.79,0,0,0-3.92,0,2.63,2.63,0,0,0-.81,2v5.24H96.5v-5.24a5.19,5.19,0,0,1,1.62-3.91,5.72,5.72,0,0,1,8,0,5.28,5.28,0,0,1,1.62,3.91v5.24Z"/><path class="cls-1" d="M120.33,118.48a5.6,5.6,0,0,1-11.19.27,1.22,1.22,0,0,1,0-.27,5.15,5.15,0,0,1,1.61-3.91,5.72,5.72,0,0,1,8,0,5.25,5.25,0,0,1,1.62,3.91Zm-2.83,0a2.59,2.59,0,0,0-.81-1.9,2.79,2.79,0,0,0-3.92,0,2.66,2.66,0,0,0-.81,2,2.84,2.84,0,0,0,.81,1.95,2.78,2.78,0,0,0,3.92,0,2.93,2.93,0,0,0,.8-2Z"/><path class="cls-1" d="M127.37,115.72a2.75,2.75,0,0,0-2.77,2.75h0v5.24h-2.83v-5.24a5.12,5.12,0,0,1,1.62-3.91,5.34,5.34,0,0,1,4-1.61v2.75Z"/><path class="cls-1" d="M142.19,123.72h-3l-.58-1.62a5.24,5.24,0,0,1-4.26,2,5.52,5.52,0,0,1-5.6-5.43v-.1a5.61,5.61,0,0,1,1-3.17,5.5,5.5,0,0,1,2.65-2,5.64,5.64,0,0,1,1.9-.34,5.2,5.2,0,0,1,3.18,1,5.41,5.41,0,0,1,2,2.64Zm-5.07-5.24a2.66,2.66,0,0,0-1.22-2.3,2.4,2.4,0,0,0-1.55-.46,2.59,2.59,0,0,0-2.27,1.15,2.74,2.74,0,0,0-.52,1.61,2.86,2.86,0,0,0,2.77,2.77,2.76,2.76,0,0,0,2-.81,2.64,2.64,0,0,0,.83-2Z"/><path class="cls-1" d="M149.23,115.72a2.75,2.75,0,0,0-2.77,2.75h0v5.24h-2.83v-5.24a5.19,5.19,0,0,1,1.62-3.91,5.35,5.35,0,0,1,4-1.61v2.75Z"/><path class="cls-1" d="M153.67,110.54a1.84,1.84,0,0,1-.46,1.21,1.5,1.5,0,0,1-1.21.46,1.74,1.74,0,0,1-1.21-.46,1.61,1.61,0,0,1-.47-1.21,1.89,1.89,0,0,1,.47-1.21,1.75,1.75,0,0,1,2.36,0,1.45,1.45,0,0,1,.52,1.21Zm-.23,13.18h-2.83V113h2.83v10.76Z"/><path class="cls-1" d="M166,118.48a5.6,5.6,0,0,1-11.19.27v-.27a5.12,5.12,0,0,1,1.62-3.91,5.72,5.72,0,0,1,8,0,5.24,5.24,0,0,1,1.61,3.91Zm-2.77,0a2.55,2.55,0,0,0-.81-1.9,2.79,2.79,0,0,0-3.92,0,2.62,2.62,0,0,0-.8,2,2.76,2.76,0,0,0,4.72,1.95,2.94,2.94,0,0,0,.81-2Z"/><path class="cls-1" d="M170.88,122.05a1.93,1.93,0,0,1-.46,1.21,1.57,1.57,0,0,1-1.22.46,1.81,1.81,0,0,1-1.21-.46,1.64,1.64,0,0,1-.46-1.21,1.84,1.84,0,0,1,.46-1.21,1.76,1.76,0,0,1,2.37,0,1.66,1.66,0,0,1,.52,1.21Z"/><path class="cls-1" d="M181.76,122.51a5.57,5.57,0,0,1-9.46-4,5.19,5.19,0,0,1,1.62-3.91,5.37,5.37,0,0,1,4-1.61,5.13,5.13,0,0,1,3.7,1.43l-1.68,2.26a2.58,2.58,0,0,0-2-.86,2.73,2.73,0,0,0-2,.8,2.66,2.66,0,0,0-.81,2,2.84,2.84,0,0,0,.81,2,2.74,2.74,0,0,0,3.87,0l.17-.19Z"/><polygon class="cls-1" points="185.98 123.72 183.15 123.72 183.15 107.26 185.98 107.26 185.98 123.72 185.98 123.72"/><path class="cls-1" d="M45.62,115.37a7.68,7.68,0,0,1-1,4.37c-1.68,2.71-4.56,4.32-8.71,4.32-3.52,0-5.37,0-8.37-.06l.06-4.84h7.21c3.58,0,5.38-1.25,5.38-3.79v-.05a3.32,3.32,0,0,0-2-2.88A23.15,23.15,0,0,0,34.31,111a17.05,17.05,0,0,1-2.48-.8c-3-1.73-4.61-4.2-4.61-7.43v-.23a7.89,7.89,0,0,1,1.21-4.19,9.83,9.83,0,0,1,3.29-3.06,9.21,9.21,0,0,1,4.39-1.15h8v4.72H36.68a4.4,4.4,0,0,0-2.26.65,3.06,3.06,0,0,0-1.62,2.82c0,1.66,1.27,2.87,3.75,3.62.46.17,1.33.4,2.65.81a9.15,9.15,0,0,1,4.86,3,10.29,10.29,0,0,1,1.56,5.62Z"/></svg>