<svg id="Layer_1" data-name="Layer 1" xmlns="http://www.w3.org/2000/svg" viewBox="0 0 215.25 212.24"><defs><style>.cls-1{fill:#ef2921;}</style></defs><title>logosArtboard 12 copy 53</title><path class="cls-1" d="M52.36,94.79a12.11,12.11,0,0,1,10.93,6.89h8.06a19.68,19.68,0,1,0,0,10.41H63.29a12.11,12.11,0,0,1-23-5.2h0a12.1,12.1,0,0,1,12.1-12.1Zm142.84,7.48H175.58v7.37h19.6C195.16,109.23,195.2,102.27,195.2,102.27Zm-10.4-30L166.07,91.12l5.16,5.24L190,77.52ZM159.93,88.39l0-19.17h-7.38l0,19.14c.4,0,7.37,0,7.37,0ZM134.62,95a12.9,12.9,0,0,0-2.92.8,14.3,14.3,0,0,0-5.46,4.31V96.23l-7.3-.1v30.22h7.62l0-14.38a12.13,12.13,0,0,1,.91-5.36,8.17,8.17,0,0,1,6.9-4.18l.93,0,1.4.1-.08-7.67a16.41,16.41,0,0,0-2,.1Zm-28.77,19q-.09,4-2.26,5.5a8.09,8.09,0,0,1-4.71,1.5,4.35,4.35,0,0,1-2.76-.89,3.56,3.56,0,0,1-1.12-3,3.83,3.83,0,0,1,1.84-3.37,11.26,11.26,0,0,1,3.6-1.09l1.78-.33a13,13,0,0,0,2.1-.54,8.81,8.81,0,0,0,1.53-.78Zm4.06-17.32a19.41,19.41,0,0,0-8.85-2c-5.12,0-8.72,1.34-10.83,4A11.74,11.74,0,0,0,88,105.29h7.67a5.89,5.89,0,0,1,1.11-2.78c.79-.94,2.11-1.4,4-1.4a8,8,0,0,1,3.8.72,2.69,2.69,0,0,1,1.31,2.57,2.41,2.41,0,0,1-1.7,2.26,12.32,12.32,0,0,1-3.16.69l-2.7.34a17.1,17.1,0,0,0-6.63,2c-2.9,1.68-4.33,4.38-4.33,8.12a8.07,8.07,0,0,0,2.67,6.5c1.79,1.57,3.49,2.07,6.24,2.07a15.78,15.78,0,0,0,9.89-3.1c0,.58,0,2.48,0,3.1h7.54l.1-22.15q0-5.49-3.89-7.48ZM75.3,126.33h7.64V87H75.3Zm78-7.28a8.38,8.38,0,1,1,8.37-8.38h0A8.37,8.37,0,0,1,153.25,119.05Zm0-24.28a15.9,15.9,0,0,0-15.91,15.89v0a15.91,15.91,0,0,0,15.91,15.91h0a15.91,15.91,0,0,0,15.92-15.91h0a15.9,15.9,0,0,0-15.9-15.91h0"/></svg>