<svg id="Layer_1" data-name="Layer 1" xmlns="http://www.w3.org/2000/svg" viewBox="0 0 215.25 212.24"><defs><style>.cls-1{fill:#ee811e;}.cls-2{fill:#fff;}.cls-3{fill:#778286;}</style></defs><title>logosArtboard 12 copy 56</title><path class="cls-1" d="M150.09,89.45a41.87,41.87,0,0,0-41.88-41.87V89.45H66.33a41.88,41.88,0,0,0,41.88,41.88V89.45Z"/><path class="cls-1" d="M110.62,131.26A41.88,41.88,0,0,0,150,91.86c-21.43,4-35.43,18-39.4,39.4"/><path class="cls-1" d="M105.8,47.65a41.87,41.87,0,0,0-39.39,39.4c21.42-4,35.42-18,39.39-39.4"/><path class="cls-2" d="M108.21,47.57c-.81,0-1.61,0-2.41.08-4,21.43-18,35.42-39.39,39.4,0,.79-.08,1.59-.08,2.4h41.88Z"/><path class="cls-2" d="M108.21,89.45v41.88c.81,0,1.61,0,2.41-.07,4-21.43,18-35.42,39.39-39.4.05-.8.08-1.6.08-2.41Z"/><path class="cls-3" d="M49.09,149.8H45.18v-6.66H41.62v16.73h3.56v-7.43h3.91v7.43h3.56V143.14H49.09Zm15,7.72v-9.38H60.81v8.11c0,1.06-.2,1.76-1.18,1.76-.71,0-1.19-.3-1.19-1.76v-8.11H55.11v9.38a2.38,2.38,0,0,0,.89,1.91,3.3,3.3,0,0,0,2.06.67,3.55,3.55,0,0,0,1.61-.33,2.74,2.74,0,0,0,1.14-1.05v1.15h3.45v-.05c-.08-.85-.12-1.6-.12-2.3m8.32-9.61a3.55,3.55,0,0,0-1.61.33,2.72,2.72,0,0,0-1.14,1v-1.15H66.37v11.73h3.34V151.8c0-1.08.2-1.8,1.18-1.8s1.18.72,1.18,1.8v8.07h3.34v-9.38a2.39,2.39,0,0,0-.89-1.91,3.3,3.3,0,0,0-2.06-.67m8.88-3.09L78,146.3h0v1.83H76.69v2.09H78v7.13c0,.44.15,2.62,3.22,2.62a12.44,12.44,0,0,0,1.47-.09l.22,0h0v-2.09H82.9a2,2,0,0,1-.56.05c-.47,0-.74-.11-.87-.36a2.25,2.25,0,0,1-.13-1v-6.24H83v-2.09H81.34Zm7.48,3.09c-4.42,0-4.79,2.94-4.79,6a9,9,0,0,0,.8,4.48c.73,1.2,2,1.76,4,1.76A5,5,0,0,0,92.28,159a4.17,4.17,0,0,0,1.26-3.05v0H90.16v0c0,1.35-.45,2-1.34,2-1.42,0-1.44-2.17-1.44-3.38h6.23v0c.07-2.1,0-4.21-1.23-5.44a4.73,4.73,0,0,0-3.56-1.18m1.46,4.75h-2.9a5.41,5.41,0,0,1,.19-1.71,1.22,1.22,0,0,1,1.25-.95,1.27,1.27,0,0,1,1,.34,3.32,3.32,0,0,1,.51,2.27v0Zm8.37-3.06v-1.46H95.48v11.73h3.33v-6.38a3.32,3.32,0,0,1,.32-1.71,2.28,2.28,0,0,1,2.13-.9l.42,0h0v-3h0a3,3,0,0,0-3,1.69m16,1.81c0-5.24-.89-8.27-5.46-8.27h-5.85v16.73h5.71a5.29,5.29,0,0,0,3.9-1.39c1.74-1.76,1.72-4.8,1.7-6.62v-.45m-6.11,5.82h-1.64V145.78h1.76c2.38,0,2.38,2.65,2.38,5.72,0,4-.35,5.73-2.5,5.73m12.36-9.32c-4.42,0-4.79,2.94-4.79,5.94a9,9,0,0,0,.81,4.49c.72,1.2,2,1.76,4,1.76s3.26-.56,4-1.76a9,9,0,0,0,.81-4.49c0-3-.37-5.94-4.8-5.94m0,10c-1.18,0-1.45-.8-1.45-4.27,0-2.51.13-3.6,1.45-3.6s1.46,1.09,1.46,3.6c0,3.47-.27,4.27-1.46,4.27m15.73-.42v-9.38h-3.33v8.11c0,1.06-.2,1.76-1.18,1.76-.71,0-1.18-.3-1.18-1.76v-8.11h-3.34v9.38a2.38,2.38,0,0,0,.89,1.91,3.3,3.3,0,0,0,2.06.67,3.55,3.55,0,0,0,1.61-.33,2.74,2.74,0,0,0,1.14-1.05v1.15h3.45v-.05c-.08-.85-.12-1.6-.12-2.3m8-8.06a2.71,2.71,0,0,0-2.61-1.55c-3.48,0-3.48,3.38-3.48,5.85v.33c0,1.74,0,3.7,1.07,4.79a3.22,3.22,0,0,0,2.38.83,2.76,2.76,0,0,0,2.48-1.33v2.22c0,1.22-.42,1.9-1.16,1.9a1.24,1.24,0,0,1-1.06-.45,1.94,1.94,0,0,1-.26-1.15v0h-3.27v0a3.14,3.14,0,0,0,1.42,2.83,6.14,6.14,0,0,0,3.19.67c1.9,0,3.21-.57,3.91-1.69a4.29,4.29,0,0,0,.56-2.32V148.14H144.7v1.32Zm-1.46,8.16a1.11,1.11,0,0,1-.82-.32c-.57-.58-.56-1.83-.55-2.66v-.28c0-3.63.24-4.36,1.39-4.36s1.28,1.5,1.28,4-.19,3.65-1.3,3.65m21.19,1.81a17.74,17.74,0,0,1-.12-1.77v-5.81c0-1.91-.36-3.94-4.7-3.94a5,5,0,0,0-3.07.77,3.22,3.22,0,0,0-1.21,2.87v0h3.26v0c0-.92.09-1.74,1.18-1.74s1.28.76,1.28,1.67v.86h-.6c-2.61,0-5.4.31-5.4,4,0,3.26,2,3.75,3.13,3.75a3.28,3.28,0,0,0,3.06-1.76l.13,1.53h3.11v-.05c0-.13,0-.26,0-.39m-4-1.8a1.37,1.37,0,0,1-1,.38c-.49,0-1.16-.19-1.16-1.8,0-1.88,1-1.91,2.4-2h.34v.43c0,1,.06,2.31-.57,3m10.91-4.95c-1.13-.5-2.1-.93-2.1-1.66s.38-1.21,1.07-1.21a1,1,0,0,1,.8.25c.22.19.31.64.31,1.47v0h3.26v0a3.09,3.09,0,0,0-.77-2.43,4.43,4.43,0,0,0-3.31-1.19,6.4,6.4,0,0,0-3.1.7,2.84,2.84,0,0,0-1.53,2.62c0,2.07,1.76,2.83,3.32,3.5,1.29.56,2.4,1,2.4,2.12a1.1,1.1,0,0,1-1.16,1.16c-.61,0-1-.16-1.14-.53a3.11,3.11,0,0,1-.16-1.39v0H166v0a3.74,3.74,0,0,0,.79,2.92c.71.75,1.88,1.09,3.79,1.09,2.64,0,4.4-1.45,4.4-3.59s-2-3.11-3.62-3.83m-21.3,7.19h3.33V143.14h-3.33Z"/></svg>