<svg id="Layer_1" data-name="Layer 1" xmlns="http://www.w3.org/2000/svg" viewBox="0 0 215.25 212.24"><defs><style>.cls-1{fill:#6f6f6e;}.cls-2{fill:#1d1e1c;}.cls-3{fill:#e10717;}.cls-4,.cls-5{fill:#ca9b3f;}.cls-5{fill-rule:evenodd;}.cls-6{fill:#004884;}.cls-7{fill:#c6c5c4;}.cls-8{fill:#fff;}.cls-9{fill:#fdea14;}</style></defs><title>logosArtboard 12 copy 58</title><path class="cls-1" d="M92.2,139a.49.49,0,0,1-.52-.47V77.07a.52.52,0,0,1,1,0v61.49A.49.49,0,0,1,92.2,139Z"/><path class="cls-2" d="M82,75.71l-.38-.24a2.11,2.11,0,0,0,.39-.4,2,2,0,0,0,.38-1.18,1.83,1.83,0,0,0,0-.33,2,2,0,0,0-3.26-1.25h0a.18.18,0,0,0-.07.15.15.15,0,0,0,0,.11.18.18,0,0,0,.26,0,.77.77,0,0,1,1.06,1.09.79.79,0,0,1-1.09.17l-2.75-2,2-2.81c0-.06.48-.62,1.27-.06a.79.79,0,0,1,.34.52,1.17,1.17,0,0,1-.37.84.17.17,0,0,0,0,.19.2.2,0,0,0,.15.13,1.79,1.79,0,0,0,1.61-.79,2.26,2.26,0,0,0-.06-2.22,5.19,5.19,0,0,1-.3-3.32.2.2,0,0,0-.08-.2.2.2,0,0,0-.21,0,5.17,5.17,0,0,1-3.26.78,2.21,2.21,0,0,0-2.1.66,1.74,1.74,0,0,0-.23,1.78.19.19,0,0,0,.17.1.21.21,0,0,0,.17-.1,1.12,1.12,0,0,1,.67-.62.73.73,0,0,1,.6.15,1.06,1.06,0,0,1,.49.68.34.34,0,0,1,0,.1.85.85,0,0,1-.14.44l-2,2.82-2.75-2a.85.85,0,0,1-.34-.66.76.76,0,0,1,.14-.43.85.85,0,0,1,.51-.32.8.8,0,0,1,.58.14.77.77,0,0,1,.29.83.19.19,0,0,0,.13.23.19.19,0,0,0,.24-.11v0h0a2,2,0,0,0-.72-2.33,2,2,0,0,0-3.07,1L69.9,67c-1-.73-2.34-1.18-2.78-.57a.64.64,0,0,0-.12.38c0,.63.72,1.47,1.55,2.07l.38.24a2.11,2.11,0,0,0-.39.4,2,2,0,0,0,3,2.7.19.19,0,0,0,0-.24.2.2,0,0,0-.24-.08.89.89,0,0,1-.79-.18.79.79,0,0,1-.18-1.09.75.75,0,0,1,.5-.31.8.8,0,0,1,.58.13l.48.35,2.22,1.59a4.66,4.66,0,0,1-2.38.67.18.18,0,0,0-.14.06.2.2,0,0,0-.06.14,6.47,6.47,0,0,1-1.38,3.33H37.44l-1.68-2.24.53-.65.15-.19a.8.8,0,0,0-.17-1.09.82.82,0,0,0-.61-.21.68.68,0,0,0-.5.25h0l-.3-.42-.38-.52-.31-.43.42-.52a.63.63,0,0,0,.13-.41v-.1a1,1,0,0,0-.33-.6.89.89,0,0,0-.63-.18.73.73,0,0,0-.35.15c.13-.76-.24-1.49-1.14-2.66a7.65,7.65,0,0,1-1.07-2.52.2.2,0,0,0-.19-.14.18.18,0,0,0-.18.14,12.81,12.81,0,0,0-.37,1.54,9.6,9.6,0,0,0-2.81-3.29.2.2,0,0,0-.31.16.08.08,0,0,0,0,0,10.52,10.52,0,0,1,.19,1.9,4.45,4.45,0,0,1-.43,2.1,3.62,3.62,0,0,0-.49,1.55,6.34,6.34,0,0,1-.17-.82.19.19,0,0,0-.16-.17.2.2,0,0,0-.2.1A5.5,5.5,0,0,0,25.36,70,3.6,3.6,0,0,0,25.52,71a2.92,2.92,0,0,1-.26-.39.2.2,0,0,0-.37.11,4.26,4.26,0,0,0,1.49,3.3,2.21,2.21,0,0,0,1,.39.7.7,0,0,0-.28.37.85.85,0,0,0,.06.66,1,1,0,0,0,.53.43.71.71,0,0,0,.52,0l.59-.31.36.39.45.47.35.37h0a.8.8,0,0,0-.25,1.06.85.85,0,0,0,.51.41.67.67,0,0,0,.54,0l.23-.12.72-.38L33.75,80v23.53a19.17,19.17,0,0,0,5.66,13.64c.17.17.34.34.52.5l-.19.27c-1.57,2.19-2.39,4.74-1.88,5.1a.45.45,0,0,0,.35.06c.75-.12,2.49-1.55,3.88-3.49l.09-.14a19.32,19.32,0,0,0,21.29.3c1.66,2.14,3.7,3.72,4.31,3.29s-.34-3-1.79-5.22c.24-.22.48-.44.71-.67a19.21,19.21,0,0,0,5.66-13.64V79.24l.13-.19.11-.17,0,0c.37-.55,1.68-2.36,2.94-2.7a.23.23,0,0,0,.12-.1.29.29,0,0,0,0-.09.13.13,0,0,0,0-.06,5.2,5.2,0,0,1-.27-1.6,2.88,2.88,0,0,1,.14-.87l2.7,1.93a.78.78,0,0,1,.32.64.79.79,0,0,1-.14.44.81.81,0,0,1-1.1.18.91.91,0,0,1-.42-.69.19.19,0,0,0-.15-.2.2.2,0,0,0-.22.12,2,2,0,0,0,3.51,1.94,1.83,1.83,0,0,0,.26-.5l.35.28a3.53,3.53,0,0,0,2.3.84.66.66,0,0,0,.47-.27.58.58,0,0,0,.12-.38A3.29,3.29,0,0,0,82,75.71Z"/><path class="cls-3" d="M26.59,73.74a3.4,3.4,0,0,1-1.19-2.23A1.4,1.4,0,0,0,26,72a.17.17,0,0,0,.21-.07.17.17,0,0,0,0-.11.16.16,0,0,0,0-.12,2.9,2.9,0,0,1-.48-1.7,4.91,4.91,0,0,1,.42-1.86,2.75,2.75,0,0,0,.64,1.44.21.21,0,0,0,.24,0,.24.24,0,0,0,.07-.16.19.19,0,0,0,0-.07,2,2,0,0,1-.13-.77,3.25,3.25,0,0,1,.47-1.63,5,5,0,0,0,.47-2.3,10.81,10.81,0,0,0-.11-1.47,8.41,8.41,0,0,1,2.6,3.58.19.19,0,0,0,.23.12.2.2,0,0,0,.15-.18s0,0,0,0v-.12A6.51,6.51,0,0,1,31,65,6.5,6.5,0,0,0,32,67,3.91,3.91,0,0,1,33,69.18a2.63,2.63,0,0,1-.72,1.54,17.71,17.71,0,0,1-1.68,1.59,15.58,15.58,0,0,1-2.55,1.75A2,2,0,0,1,26.59,73.74Z"/><path class="cls-4" d="M28.73,75.16l-.21.11-.48.26a.32.32,0,0,1-.24,0,.53.53,0,0,1-.3-.24.46.46,0,0,1,0-.36.24.24,0,0,1,.13-.17c.21-.11.42-.22.62-.34a16.28,16.28,0,0,0,2.65-1.81A16.7,16.7,0,0,0,32.61,71c.34-.38.66-.76,1-1.19a.28.28,0,0,1,.18-.1.53.53,0,0,1,.35.1h0a.52.52,0,0,1,.18.35.34.34,0,0,1,0,.23l-.35.43-.15.18,0,0c-.16.2-.32.38-.49.57l0,0-.23.24-.05.06-.23.23,0,0c-.37.36-.77.72-1.23,1.11l-.66.52,0,0a1.33,1.33,0,0,1-.19.14l-.17.13-.13.1-.21.14-.17.11-.14.09C29.42,74.76,29.09,75,28.73,75.16Z"/><path class="cls-4" d="M29.89,76.16l-.45-.48-.3-.31a16.89,16.89,0,0,0,2.54-1.77,17.8,17.8,0,0,0,2.23-2.18l.25.35.38.53.37.5-.15.19-.08.09a.94.94,0,0,1-.09.12l-.1.12a.27.27,0,0,1-.07.08,1.63,1.63,0,0,1-.17.2h0l-.1.11h0l-.1.11s0,0,0,0l-.1.11a0,0,0,0,0,0,0l-.11.1,0,0-.11.1,0,0-.1.1-.05,0-.1.09-.07.06-.1.09-.1.09-.08.06-.19.17-.2.16-.12.1-.06,0-.13.1a.1.1,0,0,1,0,0l-.13.1,0,0-.13.09,0,0-.13.09,0,0-.12.08,0,0-.13.08h0l-.12.08h0l-.13.08h0l-.12.07h0l-.13.07h0l-.14.08h0l-.26.14-.2.1h0Z"/><path class="cls-4" d="M31.43,77.44l-.63.34-.23.12a.35.35,0,0,1-.25,0,.5.5,0,0,1-.28-.23c-.09-.18-.08-.46.09-.54l.2-.11h0a12.27,12.27,0,0,0,2.7-1.76,12.23,12.23,0,0,0,2.24-2.33h0l0-.07,0,0h0l.07-.1a.32.32,0,0,1,.23-.09.4.4,0,0,1,.31.1.56.56,0,0,1,.2.38.31.31,0,0,1-.07.19l-.14.19-.47.57-.29.36a11.25,11.25,0,0,1-1.09,1.1l-.5.43h0c-.16.14-.33.27-.5.4a11,11,0,0,1-1.29.88Z"/><path class="cls-4" d="M33.75,79.41l-1.7-1.86a13.64,13.64,0,0,0,1.82-1.31,12.51,12.51,0,0,0,1.64-1.56L37,76.61h-3.2Z"/><path class="cls-3" d="M41.77,119.37c-1.55,2.17-3.31,3.38-3.67,3.34a.39.39,0,0,1,0-.13,10,10,0,0,1,2-4.44l.16-.23a18.7,18.7,0,0,0,1.65,1.32Z"/><path class="cls-4" d="M67.54,122.55a.24.24,0,0,1,0,.14c-.34.06-2.05-1.09-3.68-3.17a21,21,0,0,0,1.84-1.42A10.67,10.67,0,0,1,67.54,122.55Z"/><path class="cls-3" d="M83.13,77.93a.33.33,0,0,1-.22.11,3.28,3.28,0,0,1-2-.77l-.54-.44a.19.19,0,0,0-.32.1,1.61,1.61,0,0,1-.28.64,1.64,1.64,0,0,1-3-.94s0,0,0,0a1.25,1.25,0,0,0,.35.34,1.16,1.16,0,0,0,1.34-1.89L75.56,73a.18.18,0,0,0-.16,0,.16.16,0,0,0-.12.11A2.94,2.94,0,0,0,75,74.32a5.42,5.42,0,0,0,.24,1.54,7.53,7.53,0,0,0-2.91,2.71v-2H70.63a6.86,6.86,0,0,0,1.3-3.15,4.37,4.37,0,0,0,2.65-.91.2.2,0,0,0,.06-.14h0a.19.19,0,0,0-.08-.15L72.13,70.5l-.49-.34a1.16,1.16,0,0,0-1.62.27,1.15,1.15,0,0,0-.21.66,1.25,1.25,0,0,0,.89,1.17,1.61,1.61,0,0,1-1.47-.21,1.62,1.62,0,0,1,.14-2.75.2.2,0,0,0,.09-.17.22.22,0,0,0-.09-.17l-.6-.37c-1.11-.8-1.53-1.65-1.34-1.92s1.13-.13,2.24.67l.55.44a.18.18,0,0,0,.19,0,.2.2,0,0,0,.13-.14,1.63,1.63,0,0,1,3.17-.15.87.87,0,0,0-.11-.09,1.14,1.14,0,0,0-.86-.21,1.16,1.16,0,0,0-.5,2.09l2.93,2.1a.18.18,0,0,0,.26,0l2.14-3a1.17,1.17,0,0,0,.2-.83,1.43,1.43,0,0,0-.65-.93,1.13,1.13,0,0,0-.9-.22,1.3,1.3,0,0,0-.68.46s0-.08,0-.12a1.54,1.54,0,0,1,.31-.9c.49-.72,1.71-.5,1.72-.5h0a5.53,5.53,0,0,0,3.15-.62,4.51,4.51,0,0,0-.09.87,5.54,5.54,0,0,0,.5,2.31,2.51,2.51,0,0,1,.3,1.1,1.13,1.13,0,0,1-.21.7,1.51,1.51,0,0,1-.87.6,1.31,1.31,0,0,0,.21-.68v-.1a1.09,1.09,0,0,0-.5-.79A1.45,1.45,0,0,0,79,68.43a1.19,1.19,0,0,0-.74.46l-2.13,3a.17.17,0,0,0,0,.14.2.2,0,0,0,.08.12l2.91,2.09A1.19,1.19,0,0,0,80.71,74a1.21,1.21,0,0,0,.21-.68,1.16,1.16,0,0,0-.48-.94l-.13-.07a1.65,1.65,0,0,1,1,.3,1.62,1.62,0,0,1,.38,2.28,1.56,1.56,0,0,1-.52.47.19.19,0,0,0-.09.17.22.22,0,0,0,.1.17l.59.37C82.9,76.82,83.32,77.67,83.13,77.93Z"/><path class="cls-2" d="M72.79,136.51h0a6.91,6.91,0,0,0,.68.36c.74.41,1.86,1.09,2.66,1.59.07.05,1.78,1.14,3.11.07,2.4-1.91.49-8.55.13-9.68a6.33,6.33,0,0,0,.48-.71c.89-1.53.33-2.27,0-2.51h0l-4-3.91-.17-.16a.94.94,0,0,0-.19-.14,1.06,1.06,0,0,0-.5-.2,1,1,0,0,0-.78.24c-.62.51-.85,2-.93,2.81-1.83,1.43-5.12,3.19-11,4.55l-.75-1.64a1.65,1.65,0,0,0-1.48-.84l-.43,0s-.07,0-.07,0a25,25,0,0,1-6,.7h-1a24.58,24.58,0,0,1-6.06-.71h-.06l-.44-.06a1.61,1.61,0,0,0-1.46.84l-.73,1.56c-5.67-1.35-8.87-3.07-10.67-4.47-.08-.79-.3-2.3-.92-2.81a1,1,0,0,0-.79-.24,1.06,1.06,0,0,0-.5.2l-.17.12a2.06,2.06,0,0,0-.21.21l-4,3.88c-.28.25-.83,1,.06,2.51a7.92,7.92,0,0,0,.47.71c-.35,1.13-2.26,7.77.13,9.68,1.34,1.07,3,0,3.12-.07.8-.5,3.42-2,3.46-2a1.71,1.71,0,0,0,.54-.53,1.61,1.61,0,0,0,.12-1.16.18.18,0,0,0-.26-.1l-1.86,1.12a3.29,3.29,0,0,1,.32-2.7,36.34,36.34,0,0,0,7.81,2.79c1.81.38,2.12-.93,2.13-1l.37-1,.1-.28,0,0A31.6,31.6,0,0,0,52.42,135h1.25A31.6,31.6,0,0,0,63,133.64l.34-.11.13.22.44,1.19a.42.42,0,0,0,.08.21c.18.36.7,1,2,.72a36.12,36.12,0,0,0,7.8-2.79,3.28,3.28,0,0,1,.33,2.7l-1.87-1.12a.16.16,0,0,0-.15,0,.2.2,0,0,0-.11.11,1.74,1.74,0,0,0,.12,1.16,1.65,1.65,0,0,0,.55.53A.11.11,0,0,0,72.79,136.51Z"/><path class="cls-4" d="M34.11,135.1s0,0,0,.07a1.32,1.32,0,0,1-.14.59,1.4,1.4,0,0,1-.5.45,1.05,1.05,0,0,1-1-.14Z"/><path class="cls-4" d="M31.74,134.9a2.17,2.17,0,0,0,.25,1,2.12,2.12,0,0,0,.11.21l0,.06,0,0a.94.94,0,0,0,.56.34h0l-.52.3c-.91.53-1.95,1.17-2.13,1.29,0,0-1.57,1-2.71.09A4.14,4.14,0,0,1,26.34,135a23.75,23.75,0,0,1,1-5.81A15.91,15.91,0,0,0,32,132.78l.23.19A4.41,4.41,0,0,0,31.74,134.9Z"/><path class="cls-4" d="M40.49,135.53a35.23,35.23,0,0,1-8.24-3A21.35,21.35,0,0,1,29.8,131l-1.1-.88a9,9,0,0,1-1.43-1.54c-.14-.19-.28-.4-.4-.6a2.77,2.77,0,0,1-.43-1.33,1,1,0,0,1,.31-.75l3.79-3.67.19-.19a.71.71,0,0,0,0,.21l.08.14,0,.06a8.73,8.73,0,0,0,2.26,2.32c1.9,1.41,5.1,3,10.48,4.3l-2,4.3,0,.06a.36.36,0,0,0,0,.11,3.61,3.61,0,0,0,.34,1.49,1.57,1.57,0,0,0,.07.18A1.47,1.47,0,0,1,40.49,135.53Z"/><path class="cls-4" d="M42.6,133.75l-.07.19-.32.89v0a7.87,7.87,0,0,1-.29-1.19.15.15,0,0,1,0-.07.64.64,0,0,1,.53-.16l.24.08Z"/><path class="cls-4" d="M63.52,133.11l-.23.07-.41.14a31.37,31.37,0,0,1-9.21,1.3H52.42a31.26,31.26,0,0,1-9.2-1.3l-.08,0-.33-.1-.24-.08a.77.77,0,0,0-.43,0,.36.36,0,0,0,0-.09c.27-.58,1.13-2.43,1.8-3.85.05-.11.09-.22.14-.32l.69-1.48a1.28,1.28,0,0,1,1.16-.65l.36,0,0,0a25,25,0,0,0,6.16.72h1a24.89,24.89,0,0,0,6.15-.72l0,0,.35,0a1.28,1.28,0,0,1,1.16.64l.73,1.57.53,1.14L63.9,133a.25.25,0,0,1,0,.09.88.88,0,0,0-.32,0Z"/><path class="cls-4" d="M64.06,134.29l-.32-.87a.7.7,0,0,1,.44.18h0s0,0,0,0A2.74,2.74,0,0,1,64.06,134.29Z"/><path class="cls-4" d="M66,135.53c-1.46.31-1.7-.64-1.71-.68v0a4.24,4.24,0,0,0,.27-1.06l.38-.12.48-.13c.05,0,.08,0,.07-.06s0,0-.07,0a.44.44,0,0,1-.2,0c-.08,0-.14-.07-.23-.32l-.45-1.37h0c.09,0,.59.34,1.09.59s1.06.53,1.35.66a.2.2,0,0,0,.17,0s.05-.05,0-.12l-.58-2.15c-.06-.19,0-.26,0-.32l.11,0s.06,0,.06,0-.05,0-.1,0l-.35.11-.47.13c-.05,0-.08,0-.08.06s0,0,.07,0l.2,0c.09,0,.14.06.21.26l.48,1.49h0l-1-.53-1.44-.75c-.07,0-.14-.08-.18-.07s0,.07,0,.14l.55,2c.09.29.1.38,0,.43l-.11.05a.86.86,0,0,0,0-.16h0s0,0,0,0v0h0l0-.07v0l-.17-.36-1.79-3.84c5.59-1.3,8.89-2.94,10.83-4.38a8.65,8.65,0,0,0,2.25-2.32l.06-.08.07-.12a.71.71,0,0,0,0-.21l.19.19,3.79,3.67a1,1,0,0,1,.31.75,2.8,2.8,0,0,1-.44,1.33,4.81,4.81,0,0,1-.4.6,8.89,8.89,0,0,1-1.42,1.54l-1.11.89a21.29,21.29,0,0,1-2.45,1.49A35.23,35.23,0,0,1,66,135.53Z"/><path class="cls-4" d="M74.29,136.25l0,0s0,0,0,0l0,0v0l.11-.19a2.3,2.3,0,0,0,.24-1,4.41,4.41,0,0,0-.53-1.93.17.17,0,0,1,0-.05l.26-.14a15.53,15.53,0,0,0,4.73-3.58,23.19,23.19,0,0,1,1,5.81,4.14,4.14,0,0,1-1,3.27c-1.14.91-2.7-.08-2.71-.09-.19-.12-1.23-.76-2.13-1.29l-.53-.31h0A1,1,0,0,0,74.29,136.25Z"/><path class="cls-4" d="M72.49,135.76a1.32,1.32,0,0,1-.14-.59.15.15,0,0,1,0-.07l1.63,1a1.06,1.06,0,0,1-1,.14A1.32,1.32,0,0,1,72.49,135.76Z"/><path class="cls-2" d="M67.86,129.83a1.38,1.38,0,0,0,1,2.58,1.37,1.37,0,0,0,.75-1.85A1.25,1.25,0,0,0,67.86,129.83Z"/><path class="cls-4" d="M68.9,132.18c-.58.23-1.13-.16-1.4-.84s0-1.16.34-1.3,1.06.09,1.35.82C69.56,131.79,69.11,132.1,68.9,132.18Z"/><path class="cls-2" d="M54.87,132.47h-.19c-.11,0-.14-.07-.15-.18a6.55,6.55,0,0,1-.06-.84l0-.69c0-.59,0-.7,0-.83s0-.19.13-.21a.22.22,0,0,1,.11,0s0,0,0-.05,0,0-.07,0l-.47,0-.49,0c-.06,0-.08,0-.08,0s0,.05.06.05a.29.29,0,0,1,.13,0c.08,0,.12.07.13.2s0,.23.05.82l0,.69c0,.37,0,.68,0,.85s0,.17-.1.19l-.13,0a0,0,0,0,0-.05,0s0,0,.07,0l.47,0h.59s.07,0,.07,0S54.91,132.46,54.87,132.47Z"/><path class="cls-2" d="M57.27,129.3l-.1,0-.24,0-1.47.17a2.19,2.19,0,0,1-.36,0l-.16,0s0,0,0,.08,0,.41,0,.47,0,.07,0,.06,0,0,0,0a.26.26,0,0,1,0-.14c0-.09.12-.13.33-.16l.54-.08.18,1.57c0,.35.08.66.09.83s0,.19-.09.21a.19.19,0,0,1-.12,0s-.06,0-.06,0,0,0,.08,0,.38-.06.47-.07l.58,0s.07,0,.07-.05,0,0-.06,0a.62.62,0,0,1-.19,0c-.11,0-.14-.07-.16-.18a8.38,8.38,0,0,1-.12-.83l-.19-1.56.46-.05c.32,0,.43.07.45.17v0c0,.06,0,.08,0,.08s0,0,0-.07,0-.39,0-.47S57.29,129.3,57.27,129.3Z"/><path class="cls-2" d="M51,132s0,0-.05.05-.09.24-.19.27a.79.79,0,0,1-.34,0l-.85-.1a.36.36,0,0,1-.18-.21.32.32,0,0,1,0-.09c0-.24-.12-.62-.19-1l1.43.22c.13,0,.18.1.18.17a.75.75,0,0,1,0,.15,0,0,0,0,0,0,0s0-.05,0-.08,0-.18,0-.26.06-.25.06-.28a0,0,0,0,0,0,0s-.05,0-.08,0-.1,0-.18,0-1.57-.21-1.57-.21c-.1-.47-.18-.92-.23-1.16l1.65.25c.18,0,.2.1.22.17a.76.76,0,0,1,0,.14s0,0,0,0,.05,0,.05,0,0-.22,0-.26a.55.55,0,0,1,.06-.24s0,0,0-.05l-.07,0h-.15c-.07,0-1.79-.3-1.93-.31h0s-.07,0-.13.13l-1.37,2.25c-.11.18-.19.28-.36.28h-.11s0,0-.05,0,0,0,.06,0l.42.07.4.08s.06,0,.06,0,0,0,0,0h-.06c-.11,0-.13-.07-.12-.14a.76.76,0,0,1,.1-.22l.28-.48s0,0,0,0l.84.15a0,0,0,0,1,0,0l.14.83a.06.06,0,0,1-.05.08s0,0,0,0,0,0,.1,0l.64.08.47.06.69.09c.14,0,.17,0,.2-.08A2.07,2.07,0,0,0,51,132S51,132,51,132Z"/><path class="cls-4" d="M48.67,131.07,48,131s0,0,0,0l.52-.91s0,0,0,0v0l.16,1S48.69,131.08,48.67,131.07Z"/><path class="cls-2" d="M53.42,129.66l-.1,0h-.25l-1.48,0a2.19,2.19,0,0,1-.36,0,1,1,0,0,1-.16-.05s0,0,0,.07-.09.41-.09.47,0,.07,0,.07,0,0,.05-.05a.24.24,0,0,1,.06-.13c.05-.09.14-.11.35-.11H52l0,1.58c0,.35,0,.66,0,.83s0,.18-.12.2h-.13s0,0,0,0,0,0,.06,0h.48l.59,0s.07,0,.07,0,0,0-.06,0l-.18,0c-.11,0-.13-.1-.14-.21s0-.47,0-.83l0-1.58.46,0c.33,0,.42.14.42.24v0c0,.06,0,.08,0,.08s0,0,0-.07,0-.38,0-.47S53.44,129.66,53.42,129.66Z"/><path class="cls-2" d="M46.82,131.29s0,0-.06,0a.62.62,0,0,1-.15.2c-.12.08-.26,0-.44,0s-.4-.15-.44-.22,0-.33.17-.81l.2-.66c.17-.56.21-.67.25-.78s.09-.18.19-.16l.14,0s.07,0,.08,0,0,0-.07,0l-.5-.15c-.1,0-.32-.11-.48-.15s-.08,0-.08,0,0,0,0,.05l.11,0a.19.19,0,0,1,.09.25c0,.12-.06.23-.24.79l-.2.66c-.11.34-.2.63-.26.79s-.09.17-.16.16l-.13,0c-.05,0-.06,0-.07,0s0,.05.06.06l.24.07.2.05.46.15.62.21c.18,0,.2,0,.25,0s.17-.38.19-.42S46.85,131.29,46.82,131.29Z"/><path class="cls-2" d="M62,131.19l-.14,0c-.07,0-.18,0-.4-.33L60,128.77c-.06-.08-.08-.11-.14-.1s0,.07-.07.18l-.33,2.61c0,.21-.05.34-.21.41l-.1,0h0a0,0,0,0,0-.06,0l-.18,0c-.11,0-.15-.06-.18-.16s-.1-.46-.17-.83l-.12-.68c-.11-.58-.13-.69-.15-.81s0-.2.1-.23l.1,0s.06,0,.05,0,0,0-.08,0l-.46.09-.48.08c-.06,0-.08,0-.07.05s0,0,.06,0a.29.29,0,0,1,.13,0c.08,0,.13,0,.16.18s0,.23.16.81l.12.68c.07.37.13.67.14.83s0,.18-.07.21a.35.35,0,0,1-.13,0,.06.06,0,0,0,0,.06s0,0,.08,0,.39-.08.46-.1a5.69,5.69,0,0,0,.58-.09.05.05,0,0,0,0,0s0,0,.07,0,.37-.1.41-.11l.4-.08s0,0,0-.06,0,0-.06,0l0,0c-.11,0-.15,0-.17-.08a.83.83,0,0,1,0-.24l.07-.56s0,0,0,0l.83-.2s0,0,0,0l.46.7s0,.08,0,.09,0,0,0,0,.05,0,.11,0l.68-.15c.14,0,.15-.05.15-.08A0,0,0,0,0,62,131.19Z"/><path class="cls-4" d="M60.58,130.41l-.69.16s0,0,0,0l.1-1s0,0,0,0,0,0,0,0l.58.88A0,0,0,0,1,60.58,130.41Z"/><path class="cls-2" d="M75,128.72c0,.09.08.16,0,.22a.3.3,0,0,1-.1.09s0,.06,0,.07,0,0,.08,0l.36-.29.47-.36s.05-.06,0-.08,0,0-.06,0a.91.91,0,0,1-.16.11c-.1,0-.16,0-.23-.06a7.31,7.31,0,0,1-.48-.58l0,0s0,0,0,0l.26-.21a.12.12,0,0,1,.08,0c.07,0,.34.1.57.15a1.82,1.82,0,0,0,.77.1.68.68,0,0,0,.33-.19l.08-.09.19-.2,0,0,.29-.29s0,0,0-.07,0,0-.07,0l0,0c-.07.08-.13.08-.17,0a.61.61,0,0,1-.12-.18l-.19-.48s0,0,0,0l.62-.64s0,0,0,0l.72.29s0,0,0,.08,0,0,0,.06,0,0,.1-.06c.23-.22.42-.42.52-.52s.1-.12.08-.14,0,0-.06,0a.53.53,0,0,1-.11.09c-.06,0-.16.09-.49,0l-2.23-.83c-.08,0-.12,0-.16,0s0,.08,0,.18L76.9,127a.46.46,0,0,1,.06.33,1.47,1.47,0,0,1-.32,0c-.32,0-.72-.12-1.23-.22a1.06,1.06,0,0,0-.07-.94.64.64,0,0,0-.51-.22,1.42,1.42,0,0,0-.66.33c-.09.08-.35.3-.46.38l-.41.31s-.06.06,0,.08,0,0,.08,0l.12-.09c.12,0,.17,0,.25,0l.47.59.38.48C74.75,128.38,74.92,128.6,75,128.72Z"/><path class="cls-4" d="M76.85,126.11h0l-.38-.89s0,0,0,0h0l.89.38s0,0,0,0Z"/><path class="cls-4" d="M74.07,126.73a0,0,0,0,1,0-.06,1.56,1.56,0,0,1,.17-.15.56.56,0,0,1,.84.13.61.61,0,0,1,.13.57c0,.07-.06.11-.17.21a1.1,1.1,0,0,1-.25.15s0,0-.07,0Z"/><path class="cls-2" d="M70.8,129.71h-.18c-.38,0-.49-.1-.56-.24s0-.44.29-.57a.53.53,0,0,1,.45,0,.44.44,0,0,1,.2.17s0,.05,0,0,0-.05,0-.12l-.18-.38a0,0,0,0,0-.06,0,2,2,0,0,0-.51.19c-.47.24-.73.68-.54,1.06s.38.43.89.45h.25c.39,0,.49.15.56.28a.48.48,0,0,1-.27.64.62.62,0,0,1-.7,0,.63.63,0,0,1-.11-.15s0,0-.06,0,0,.06,0,.11l.19.42c0,.08.06.09.12.08a1.84,1.84,0,0,0,.59-.19,1.13,1.13,0,0,0,.5-.42.77.77,0,0,0,0-.76C71.62,129.9,71.37,129.73,70.8,129.71Z"/><path class="cls-2" d="M74,129.63l-.18.09c-.1,0-.15,0-.21-.08a6.09,6.09,0,0,1-.42-.63l-.75-1.21.41-.25c.29-.17.44-.13.49-.06l0,0s0,0,.07,0,0,0,0-.07-.17-.3-.21-.36,0-.07-.07,0l-.08.06a1.16,1.16,0,0,1-.21.15l-1.31.81a2.79,2.79,0,0,1-.33.19c-.09,0-.13,0-.16.05s0,0,0,.08.12.36.15.41,0,0,.06,0,0,0,0-.07a.24.24,0,0,1,0-.13c0-.1.07-.17.25-.28l.48-.31.75,1.21c.17.27.31.51.38.65s.06.16,0,.21a.59.59,0,0,1-.11.09s0,0,0,.06,0,0,.09,0,.33-.23.41-.27l.52-.31s.06,0,0-.07S74.06,129.61,74,129.63Z"/><path class="cls-4" d="M74.5,121.75a.71.71,0,0,1,.52-.17l.14,0a.39.39,0,0,1,.21.5l0,.07,0,.09a7.94,7.94,0,0,1-1.54,1.7A4.16,4.16,0,0,1,74.5,121.75Z"/><path class="cls-2" d="M35.21,128.84c.1-.19.17-.6-.46-.93l-.42-.21-.46-.26c-.06,0-.08,0-.1,0s0,0,0,.06l.13.08c.11.09.1.16,0,.29s-.11.22-.4.78l-.33.63c-.17.34-.33.62-.42.77s-.13.17-.21.14l-.13,0s-.06,0-.07,0,0,0,0,.07a1.79,1.79,0,0,1,.24.12l.2.09.26.15.23.14a.93.93,0,0,0,1.34-.31,1,1,0,0,0-.22-1.12A.9.9,0,0,0,35.21,128.84Z"/><path class="cls-4" d="M34.23,130.35a.47.47,0,0,1-.66.25.76.76,0,0,1-.23-.18c-.09-.1-.06-.17.06-.41l.45-.86s0,0,0,0l.15.07a.55.55,0,0,1,.24.24A1,1,0,0,1,34.23,130.35Z"/><path class="cls-4" d="M34.13,129.07A.64.64,0,0,1,34,129s0,0,0-.05l.47-.9s0-.05.06,0l.12,0a.56.56,0,0,1,.13.79.53.53,0,0,1-.34.31A.34.34,0,0,1,34.13,129.07Z"/><path class="cls-2" d="M32.38,130.12a.53.53,0,0,1-.12-.1c-.06-.07-.12-.18,0-.57.13-.65.53-2.39.58-2.64s0-.14,0-.16-.08,0-.18.08l-2.24,1.62c-.18.12-.32.2-.48.12l-.11-.06s0,0-.05,0,0,.05,0,.08l.39.24c.1.06.23.17.34.24s.06,0,.08,0,0,0,0-.06l-.05,0c-.09-.07-.09-.13-.06-.19a.66.66,0,0,1,.19-.18l.5-.38h0l.73.48s0,0,0,.05l-.22.9a.07.07,0,0,1-.08.06s-.05,0-.07,0,0,0,.08.09l.62.41c.12.08.15.09.17.07S32.41,130.14,32.38,130.12Z"/><path class="cls-4" d="M32,128.39l-.6-.39s0,0,0,0l.85-.64s0,0,0,0,0,0,0,0l-.27,1S32,128.4,32,128.39Z"/><path class="cls-2" d="M37.28,129a1.56,1.56,0,0,0-2.06.91,1.45,1.45,0,0,0,.73,2,1.61,1.61,0,0,0,2.1-1A1.36,1.36,0,0,0,37.28,129Z"/><path class="cls-4" d="M37.51,130.92c-.48,1.09-1.09,1-1.33.9-.66-.27-.78-1-.43-1.84s1-1,1.36-.84S37.88,130.07,37.51,130.92Z"/><path class="cls-2" d="M40.53,133.49l-.1-.05a.73.73,0,0,1-.32-.4c-.15-.31-.29-.74-.48-1.28a1.18,1.18,0,0,0,.77-.72.71.71,0,0,0-.09-.62,1.12,1.12,0,0,0-.62-.38l-.53-.16-.51-.18s-.08,0-.09,0,0,0,0,.05a.52.52,0,0,1,.15.06c.11.07.12.14.08.27s-.07.24-.25.83l-.23.69c-.11.36-.21.67-.28.83s-.1.18-.17.18l-.15,0s-.06,0-.07,0,0,0,.07.07l.45.13.54.18s.08,0,.09,0,0,0,0,0a.67.67,0,0,1-.18-.07c-.11-.05-.1-.15-.07-.26s.13-.48.24-.84l0-.06s0,0,0,0l.32.11s0,0,.06.05.11.4.19.66a1.92,1.92,0,0,0,.33.73.73.73,0,0,0,.37.21l.36.11s.07,0,.08,0S40.56,133.5,40.53,133.49Z"/><path class="cls-4" d="M39.21,131.59a1.2,1.2,0,0,1-.28-.13s0,0,0-.08l.38-1.19s0,0,0,0l.2,0c.22.07.51.34.34.89a.74.74,0,0,1-.41.52A.35.35,0,0,1,39.21,131.59Z"/><path class="cls-2" d="M30,127.85s-.05,0-.08,0a.47.47,0,0,1-.25.11c-.15,0-.28-.11-.44-.26s-.31-.33-.32-.42.18-.33.53-.71l.5-.53.59-.63c.11-.1.18-.12.28-.06l.13.1s.07.06.08,0,0,0,0-.09l-.44-.39-.41-.41c-.05,0-.08-.06-.1,0s0,0,0,.08l.09.11a.19.19,0,0,1,0,.29c-.09.11-.16.19-.59.64l-.49.53c-.26.28-.48.51-.61.63s-.18.12-.25.08a.9.9,0,0,1-.12-.1s-.06,0-.08,0,0,0,0,.09l.22.2.19.16c.12.12.24.23.37.37l.53.5c.16.16.19.16.27.11s.33-.27.37-.3S30,127.87,30,127.85Z"/><path class="cls-4" d="M31.3,121.62l.15,0a.67.67,0,0,1,.52.17,4.08,4.08,0,0,1,.75,2.23,7.82,7.82,0,0,1-1.53-1.7l0-.07-.06-.09,0-.11h0A.43.43,0,0,1,31.3,121.62Z"/><path class="cls-5" d="M53.05,122.8h0a19.36,19.36,0,0,1-19.3-19.3V76.61H72.36V103.5A19.36,19.36,0,0,1,53.05,122.8Z"/><path class="cls-6" d="M71.59,103.51a18.55,18.55,0,0,1-34.29,9.77c-.4-.66-.75-1.31-1.06-2a18.39,18.39,0,0,1-1.73-7.82V77.37H71.59Z"/><path class="cls-7" d="M36,81.57l1.17-.85,1.17.85-.45-1.38s1-.7,1.17-.84H37.63L37.18,78c-.07.24-.45,1.39-.45,1.39H35.27l1.18.85Z"/><path class="cls-7" d="M67.79,81.57,69,80.72l1.17.85-.45-1.38s1-.7,1.17-.84H69.4L69,78l-.45,1.39H67l1.19.85S67.86,81.33,67.79,81.57Z"/><path class="cls-7" d="M47.12,117.56l-.44-1.39-.45,1.39H44.77l1.18.86-.44,1.36,1.16-.84,1.17.84-.44-1.37,1.16-.85Z"/><path class="cls-7" d="M59.87,117.56l-.45-1.39L59,117.56H57.51l1.19.86-.45,1.36c.21-.14,1.17-.84,1.17-.84l1.17.84-.45-1.37,1.16-.85Z"/><path class="cls-7" d="M67.66,108.59l1.16-.84,1.17.85c-.08-.24-.44-1.38-.44-1.38l1.16-.85H69.27L68.82,105c-.07.24-.45,1.38-.45,1.38H66.91l1.19.86S67.73,108.35,67.66,108.59Z"/><path class="cls-4" d="M53.05,117a13.47,13.47,0,0,0,13.46-13.45V82.45H39.59v21.06A13.47,13.47,0,0,0,53.05,117Z"/><path class="cls-8" d="M40.35,83.22h25.4v20.29a12.7,12.7,0,0,1-25.4,0Z"/><path class="cls-7" d="M37.76,106.37,37.31,105l-.45,1.38H35.4l1.18.86-.44,1.36,1.16-.84,1.18.85L38,107.22l1.17-.85Z"/><path class="cls-2" d="M44.06,98.59a.93.93,0,0,0,.73,0,.87.87,0,0,0,.51-.45,1,1,0,0,0,.09-.42v-.07a2.32,2.32,0,0,1,1.14.14h0L47,98c.26.08.69.2,1.19.3.13,0,.13,0,.26.26l.18.31a1.14,1.14,0,0,0,1.31.49l.16-.06a1.22,1.22,0,0,0,1.29.3l.46-.17-.36-.33a1.84,1.84,0,0,1-.46-.53,5.37,5.37,0,0,0,.84-.1A5.34,5.34,0,0,0,53.78,100a7.71,7.71,0,0,1-1.81.58,3,3,0,0,0-1.86,1c-.64,0-1.1.13-1.27.51a1,1,0,0,0,.06,1c.37.55-.13,1.29-.13,1.29a1.52,1.52,0,0,0,1-.41c0,.11.06.22.1.33a5.38,5.38,0,0,0,1,1.73c.22.27.33.41.33.56A.82.82,0,0,1,51,107a5.55,5.55,0,0,1-1.68,1.44,3.34,3.34,0,0,1-.91.38c-.51.13-.68,0-.69-.08a.93.93,0,0,0-1-.75,1,1,0,0,0-.61.33.71.71,0,0,0-.63.5.5.5,0,0,0,0,.21,1.16,1.16,0,0,0,.31.77.79.79,0,0,1,.29-.39.93.93,0,0,0,.16.18.88.88,0,0,0-.41.66.75.75,0,0,0-.32.56v.07a1,1,0,0,0,.63.8s.05-.49.17-.56a1,1,0,0,0,.53.1l.12,0h0a.54.54,0,0,0,.05.22.86.86,0,0,0-.05.27.51.51,0,0,0,0,.24,1,1,0,0,0,1.08.53.84.84,0,0,1-.19-.48H48a1,1,0,0,0,.63-.34.89.89,0,0,0,.2-.56V111a1,1,0,0,0-.18-.45,2.61,2.61,0,0,1,1.47-.54,2.47,2.47,0,0,1,.58.07,2.05,2.05,0,0,0,1.68-.23l.48-.34a.87.87,0,0,0,.4-.35l.09-.15a1.2,1.2,0,0,0,.83-.65l.13-.22a1.29,1.29,0,0,0,.63-.71v0l.26.13a1.68,1.68,0,0,0,.29.09,2.08,2.08,0,0,1,.24.1,1.37,1.37,0,0,1,.39.8,1.56,1.56,0,0,0,.38-.92.78.78,0,0,0,0-.3,4.45,4.45,0,0,0,.73.26l.33.1c.79.25,1.16.42,1.16.74v.06A5,5,0,0,1,57.11,111c-.26.19-.39.2-.44.19a.75.75,0,0,1-.27-.06,1,1,0,0,0-.74-.59,1,1,0,0,0-.57.11.73.73,0,0,0-.69.14,1.34,1.34,0,0,0-.15,1.25,1.28,1.28,0,0,1,.44-.32.9.9,0,0,0,.45.51.71.71,0,0,0-.13.36.28.28,0,0,0,0,.09.72.72,0,0,0-.26.53v0c0,.5.64.88.64.88a2.54,2.54,0,0,1,.19-.6.51.51,0,0,0,.22.09.86.86,0,0,0,.48-.08.86.86,0,0,0,.42.48v0a1.09,1.09,0,0,1-.28.58,1.34,1.34,0,0,0,1.18-.2.6.6,0,0,0,.15-.45v0a.84.84,0,0,0,.28-.57.57.57,0,0,0,0-.13.87.87,0,0,0-.32-.68h0a.55.55,0,0,1,.12-.31.9.9,0,0,1,.74-.3l.26,0a1.68,1.68,0,0,0,2-.78l.12-.22a.72.72,0,0,0,.55-.59v-.12a.93.93,0,0,0,.54-.77,1.09,1.09,0,0,0,0-.17c.7-.25.75-1.39.75-1.39a2,2,0,0,1-1,.31c0-.11,0-.22,0-.22a3.56,3.56,0,0,0,0-.43.67.67,0,0,0-.14-.43,1.3,1.3,0,0,0-1-.37,2.77,2.77,0,0,1-.53-.1h0c-.1,0-.42-.14-.51-.32a.18.18,0,0,1,0-.11.41.41,0,0,1,0-.19,1,1,0,0,1,.15-.23,1.52,1.52,0,0,0,1.91-.48A.62.62,0,0,0,62,105a.26.26,0,0,0-.08-.19l0,0a1.13,1.13,0,0,0,.54-.76l.11-.55-.52.22a1.53,1.53,0,0,1-.61.1,3.17,3.17,0,0,0,.07-.56,3.07,3.07,0,0,0,2-.64,2.17,2.17,0,0,0,.73-1.69,3,3,0,0,0-.32-1.35,1.53,1.53,0,0,0,.19-.71,1.21,1.21,0,0,0-.4-.89,2,2,0,0,0-.52-.36c-.25-.13-.37-.19-.43-.67l-.09-.77-.44.63a1.41,1.41,0,0,0-.24.74,2.38,2.38,0,0,1-1.1-2.09,1.56,1.56,0,0,1,.33-.9,2.2,2.2,0,0,0,1.38.29,1.89,1.89,0,0,0,1.29-.76,4.68,4.68,0,0,0,.43-.87,2.06,2.06,0,0,1,1.14-1.34,1.49,1.49,0,0,0-1.59,0,4.07,4.07,0,0,0,0-.5c0-.17,0-.33,0-.48a.13.13,0,0,1,0-.06c0-.74,1-1.54,1-1.54a2.29,2.29,0,0,0-2.25,1,.82.82,0,0,0-.23-.42s0,.61-1.14,1.15a2.08,2.08,0,0,0-1.11,1.15,1.7,1.7,0,0,0-.09.54,2.1,2.1,0,0,0,.17.73,3,3,0,0,0-.79,1.81,2.7,2.7,0,0,1-.57-.18.79.79,0,0,1-.59-.73,1,1,0,0,1,0-.15,2,2,0,0,0,1.4,0s-.79-.45-.81-1.05a.76.76,0,0,1,0-.21l.13-.34,0-.08a2.19,2.19,0,0,1,.15.74,2.47,2.47,0,0,0,.76-1.76,2.06,2.06,0,0,0,0-.48,1.93,1.93,0,0,0,1-.24,2.33,2.33,0,0,1-1.07-1.27,1.82,1.82,0,0,0,1.65-.91,1.69,1.69,0,0,1-1.16-.32.62.62,0,0,1-.14-.33,1.64,1.64,0,0,1,1.31.3,2.92,2.92,0,0,0-1.16-1.79,2.37,2.37,0,0,0,.51-1.35,5.24,5.24,0,0,1-1.28.46,2,2,0,0,0,.3-1.08,2.26,2.26,0,0,0-.18-.83,2.89,2.89,0,0,1-1,1,2.29,2.29,0,0,1-1.09.31l-.36,0a1.13,1.13,0,0,0-.48-.11,1.15,1.15,0,0,0-1,.61,3.46,3.46,0,0,0-1.81,0q-1.81-.17-2.13.27a.6.6,0,0,0-.12.37.7.7,0,0,0,.1.37s0,0,0,0a.94.94,0,0,0-.11.45v.09a1.35,1.35,0,0,0,.31.73.35.35,0,0,1-.28-.05c-.51-.37-.5-1.39-.5-1.39a2,2,0,0,0-.77,1.7,1.19,1.19,0,0,0,.68.94,1.44,1.44,0,0,0,.66.12,1.27,1.27,0,0,0,0,.34,2.14,2.14,0,0,0,.13.66A1.85,1.85,0,0,0,49.4,91.4a2.33,2.33,0,0,1-.28-.21V89.61a.14.14,0,0,0-.06-.12l-.83-.6,0,0-.59-.18h0a1.36,1.36,0,0,0,0-.2A1,1,0,0,0,46,87.86a.94.94,0,0,0-.76-.35.92.92,0,0,0-.8.43.8.8,0,0,0-.62-.24.84.84,0,0,0-.84.83v0s0,0-.13,0-.63.19-1.15.4a.18.18,0,0,0-.07,0l0,0-.88.68a.16.16,0,0,0-.06.12V95.7a.15.15,0,0,0,.14.15h2.44a.63.63,0,0,0-.11.12.72.72,0,0,0-.61.37.89.89,0,0,0-.09.39,1.63,1.63,0,0,0,.2.68A1.13,1.13,0,0,1,43.1,97a1,1,0,0,0,.41.37l.12,0,0,0a1.72,1.72,0,0,0-.07.21.84.84,0,0,0-.28.44.78.78,0,0,0,0,.16,1,1,0,0,0,.77.9,1,1,0,0,1,0-.56Z"/><path class="cls-3" d="M53,108.16c0,.06.25.06.86,0-.47.83-1.28.38-1.37.55,0,0-.09.18.45.23-.36.58-1,.05-1.38.33,0,0-.06.2.57.28-.76.52-1.46.07-2.1.11a2.78,2.78,0,0,0-1.69.65.25.25,0,0,0-.06.27.7.7,0,0,1,.18.4.61.61,0,0,1-.56.65.58.58,0,0,1-.23,0,.41.41,0,0,0,0,.53c-.43-.17-.5-.49-.34-.77a.63.63,0,0,1-.08-.23.66.66,0,0,1,.45-.65.23.23,0,1,0-.32-.23.61.61,0,0,1-.57.62.72.72,0,0,1-.5-.16c-.21.07-.37.33-.32.45a.59.59,0,0,1-.18-.38c0-.17.13-.33.31-.43h0a.61.61,0,0,1,.57-.66c.36,0,.38.13.49.13a.24.24,0,0,0,.2-.09.23.23,0,0,0,0-.31.21.21,0,0,0-.25,0,.35.35,0,0,1-.2.07.63.63,0,0,1-.68-.5c-.15,0-.39.15-.41.28a.8.8,0,0,1,0-.4c0-.2.28-.29.5-.3a.65.65,0,0,1,.48-.3.61.61,0,0,1,.67.5c0,.2.33.51,1.06.32a4.23,4.23,0,0,0,1-.41h0a5.82,5.82,0,0,0,1.78-1.53c.63-1-.49-1-1.15-2.92a3,3,0,0,1-.18-1.57c-.17,0-.34.09-.26.51a.78.78,0,0,1-.5.87c.4-.75-.35-1.2-.09-1.78.17-.39.77-.38,1.13-.33a2.59,2.59,0,0,1,1.77-1,8.45,8.45,0,0,0,2.09-.7s.74.34,1.13.5a2.57,2.57,0,0,1,1.34.88,1.13,1.13,0,0,1-.13,1.11s-1.08-.39-1.47.06a.54.54,0,0,0,.15.82s-.44.42-1.16-.16c0,0-.22.23.25.6a.94.94,0,0,1-1.1,0,1.15,1.15,0,0,0-.07.15,1.79,1.79,0,0,0,.25,1.44c.53.67,1.17,1,.38,1.71.15.09.32,0,1,0C54.18,108.36,53.26,107.61,53,108.16Z"/><path class="cls-8" d="M55,105.58a1.34,1.34,0,0,0-.53.55v0l0,0a.82.82,0,0,0,.11.77h-.26a.72.72,0,0,0,.08-.33,1.48,1.48,0,0,0-.5-.92l-.29-.33a1.33,1.33,0,0,1-.25-.8,1.7,1.7,0,0,1,0-.22,1.14,1.14,0,0,0,1.11-.19l.24-.21a1.33,1.33,0,0,0,.39-.06,1,1,0,0,0,.49-.4s-.4-.16-.4-.44a.21.21,0,0,1,.06-.16c.17-.2.75-.12,1.11,0a4.45,4.45,0,0,1-.49.58,2.9,2.9,0,0,0-.87,1.88A1.1,1.1,0,0,0,55,105.58Z"/><path class="cls-3" d="M60.52,93.5a1.55,1.55,0,0,1,.8-2.2c1-.44,1.06-.88,1.06-.88.07.88-.23,1-.42,1.22a1.7,1.7,0,0,0-.31.33,1.06,1.06,0,0,0,.81-.55c.25-.91.59-1.71,1.83-1.91,0,0-.82.68-.75,1.42a2.62,2.62,0,0,1-.69,2.3,1.29,1.29,0,0,0,.45-.4A1.85,1.85,0,0,1,65,91.9c-.86.25-.88,1.28-1.38,2a1.74,1.74,0,0,1-2.48.22,2,2,0,0,0-.57,1.31,2.71,2.71,0,0,0,1.28,2.39c.31.24.64.49.94.77,0-.07.07-.25-.28-.54C62,97.64,62.43,97,62.43,97c.11.94.55.73,1,1.2a1,1,0,0,1,.07,1.37,2.73,2.73,0,0,1,.36,1.37,1.89,1.89,0,0,1-.62,1.47,3.07,3.07,0,0,1-2.12.55A3.6,3.6,0,0,1,61,104a1.45,1.45,0,0,0,1.09,0c-.14.71-1,.82-1.45.84h-.12a1.55,1.55,0,0,0,1.12.19s-.43,1.07-1.83.46a1.53,1.53,0,0,0-.34.46c-.36.79.69,1,.69,1h0a3.3,3.3,0,0,0,.58.12c1.18.11.83.42.75,1.39,0,.11.45.09,1-.1-.14,1-1.21.52-1.29,1.14a.57.57,0,0,0,.59-.07c-.13,1-1.4.52-1.44.85a1.19,1.19,0,0,0,.89,0c-.09.62-1.3.23-1.38.8a1,1,0,0,0,.73-.09c-.54,1-1.59.59-2,.59-1.2,0-1.22,1-1.09,1.1a.59.59,0,0,1,.26.58.57.57,0,0,1-.31.47c.17.67-.55.62-.55.62a.65.65,0,0,0,.07-.6.59.59,0,0,1-.41-.65.52.52,0,0,1,.3-.43.2.2,0,0,0,0-.3.17.17,0,0,0-.25.06c-.06.08,0,.21,0,.31a.62.62,0,0,1-.69.51.57.57,0,0,1-.28-.11.47.47,0,0,0-.26.46s-.58-.46,0-.83a.62.62,0,0,1,0-.19c.05-.33.34-.54.81-.5a.19.19,0,0,0,.2-.28c-.12-.18-.3,0-.3,0a.62.62,0,0,1-.55.2.61.61,0,0,1-.52-.65.49.49,0,0,0-.5.16.5.5,0,0,1,.71-.57.61.61,0,0,1,.47-.13c.27,0,.41.25.54.47s.16.14.47.18c.81.11,2.17-1.93,2.33-3,.08-.64-.59-.88-1.38-1.13l-.32-.09a4.68,4.68,0,0,1-.73-.27,2.62,2.62,0,0,1-.81-.49c-.15.08-.3.24.08.44a.73.73,0,0,1,.33.93h0a.6.6,0,0,0-.25-.42,1.7,1.7,0,0,0-.34-.15,1.29,1.29,0,0,1-.25-.08l-.24-.12a1.08,1.08,0,0,1-.2-.16.62.62,0,0,1-.17-.64,0,0,0,0,0,0,0l0,0a1.17,1.17,0,0,1,.57-.51,2.37,2.37,0,0,1,.75-2,4.09,4.09,0,0,0,.91-1.32c.15-.47.46-1.27-2.11-2.25a5.49,5.49,0,0,1-2.79-2,4.83,4.83,0,0,1-.95.14.92.92,0,0,1,.27-.45.74.74,0,0,1,.51-.14,2.24,2.24,0,0,0,1.82-.82,1.2,1.2,0,0,0,.14.48,1.58,1.58,0,0,0,1.26.76l.53.07-.22-.49a1.48,1.48,0,0,1-.15-.6c0-.17,0-.2.07-.21a3.27,3.27,0,0,0,.7-.59,1.92,1.92,0,0,0,1.94.85,1.38,1.38,0,0,1-.68-1,.62.62,0,0,1,0-.18l0,0a2.54,2.54,0,0,0,.2-.33.88.88,0,0,0,.29.2l.13,0a7.32,7.32,0,0,0,.24,1,5,5,0,0,0,2,3,3.41,3.41,0,0,1,1,1.8.5.5,0,0,0,.51.43,1.77,1.77,0,0,0,1-.32,1,1,0,0,0,.3-.76c0-1-.76-1.66-1.67-2.37a3.61,3.61,0,0,1-1.63-3.1A2.79,2.79,0,0,1,60.52,93.5Z"/><path class="cls-8" d="M61.11,98.8c.88.68,1.55,1.25,1.55,2.13a.63.63,0,0,1-.19.53,1.35,1.35,0,0,1-.8.25.22.22,0,0,1-.22-.19,3.67,3.67,0,0,0-1.06-2,6.19,6.19,0,0,0-.55-.52,4.07,4.07,0,0,1-1.36-2.32,4.91,4.91,0,0,1-.22-.88,1.56,1.56,0,0,0,1.11-.46v.07A3.92,3.92,0,0,0,61.11,98.8Z"/><path class="cls-3" d="M52.94,90.89c1.05.52,1.08-.64,1.08-.64a1.71,1.71,0,0,0,2.19-.53,1.73,1.73,0,0,1-1.09.42h-.2l-.13,0h0c-.46-.08-1-.31-1.56-.45-.73-.17-.85.76-.85.76-.69-1.42.18-1.73.18-1.73a.38.38,0,0,0,.09.13h0a.76.76,0,0,0,.21.19,1.21,1.21,0,0,0,.44.16l.1,0h.16a1.16,1.16,0,0,0,1.27-.76,1.91,1.91,0,0,0-1.92.07c-1.13.56-1.9.37-2.1-.51a1.57,1.57,0,0,1,.32-1.14s.1,1.43,1,1.23,1.8-.75,2.7.17c0-.92-.88-1.1-1.6-.92s-.66.59-.66.59h0A1.48,1.48,0,0,1,52,87a.65.65,0,0,1,.47-.72,1.81,1.81,0,0,0-.42,0,.4.4,0,0,1,0-.42c.22-.3,2-.14,2-.14.32-.24,1.55,0,1.92.06a.87.87,0,0,1,.8-.65,1,1,0,0,1,.06,1.89c.32.17,1.11-.22,1.13-.92a1.17,1.17,0,0,0-.33-.91,2.63,2.63,0,0,0,1.18-.34,2.6,2.6,0,0,0,.77-.64A2.17,2.17,0,0,1,59,85.86c.24.08.69,0,1.53-.37a2,2,0,0,1-.69,1,2.86,2.86,0,0,1,1.22,1.23,1.64,1.64,0,0,0-1.2,0C59.81,88.83,61,88.79,61,88.79a1.34,1.34,0,0,1-1.55.31,2.19,2.19,0,0,0,.86,1.57.91.91,0,0,1-.77-.1.32.32,0,0,0,0,.24,2.25,2.25,0,0,1-.2,1.81,1.49,1.49,0,0,0-.48-1.07c.07.65-.11.76-.27,1.28A1.08,1.08,0,0,0,59,94a.87.87,0,0,1-1.06-.56,1.74,1.74,0,0,1,0,.65,1.06,1.06,0,0,0,.77,1.27h0a1.16,1.16,0,0,0,.27,0,1,1,0,0,1-1.58-.55,1.73,1.73,0,0,1-.37,1,1.08,1.08,0,0,0,.34,1.1,1.65,1.65,0,0,1-1.18-1,3,3,0,0,1-.1-.78,1.59,1.59,0,0,1-.93,1.44c-.46.29,0,1.19,0,1.19-1.05-.13-1.29-1-1.11-1.36a1.84,1.84,0,0,0,0-1,2.22,2.22,0,0,1-2.15,1.95,1,1,0,0,0-1.1,1,1.77,1.77,0,0,1,.94-2.29c.54-.25.51-1.07.51-1.07a1.83,1.83,0,0,1-1.61.64,1.69,1.69,0,0,0-1.26.74,2.42,2.42,0,0,1,1.71-2.26,1.57,1.57,0,0,0,.3-.12,2,2,0,0,0-1.88.62A2.31,2.31,0,0,1,51,92.75a2.37,2.37,0,0,1-.36-.09,1.55,1.55,0,0,0-1.12.15A2.28,2.28,0,0,1,50,92h0a1.28,1.28,0,0,1,.5-.31,4.29,4.29,0,0,1,.84,0c-.13-.2-.15-.27-.23-.37-.41-.46-1.33-.13-1.33-.13C50.57,89.64,51.89,90.37,52.94,90.89Z"/><path class="cls-8" d="M52.65,90.42a.75.75,0,0,1,.23-.45.29.29,0,0,1,.25,0c.2,0,.4.12.6.18v.12c0,.12-.06.38-.19.46s-.35,0-.46-.08L53,90.57Z"/><path class="cls-8" d="M53,88.76a1.82,1.82,0,0,1,1.39-.19,1,1,0,0,1-.87.32h-.22A1,1,0,0,1,53,88.76Z"/><path class="cls-8" d="M50.61,91.39a.61.61,0,0,0-.24,0,1.67,1.67,0,0,0-.42.22,2.06,2.06,0,0,1-.36-.15A1.62,1.62,0,0,1,50.61,91.39Z"/><path class="cls-3" d="M49.12,91.64a2.66,2.66,0,0,0,.54.28,2.73,2.73,0,0,0-.54,1.16Z"/><path class="cls-3" d="M49.12,93.28a2.75,2.75,0,0,1,1-.37,2.76,2.76,0,0,0-.82,1.54l-.1-.09-.06,0Z"/><path class="cls-8" d="M49.12,94.77l.11.07v.41a.88.88,0,0,1,.19-.13,2.23,2.23,0,0,0-.31.69Z"/><path class="cls-8" d="M49.11,95.85l0,.16a7.54,7.54,0,0,1-2,.12,3.23,3.23,0,0,1-.82-.13,2.5,2.5,0,0,1-.38-.15Z"/><path class="cls-9" d="M48.21,95.17a.17.17,0,0,0,.06-.12V89.28l.56.4v5.89h-3.2a.67.67,0,0,0,0-.24,1,1,0,0,0-.1-.41,3.48,3.48,0,0,1,2.5.26A.17.17,0,0,0,48.21,95.17Z"/><path class="cls-9" d="M47.48,89l.12,0,.38.12v5.72a3.61,3.61,0,0,0-2.59-.16.81.81,0,0,0-.24-.17l-.08,0V90.05a.21.21,0,0,0,.18-.11c.21-.42.31-.45.31-.45h0a1,1,0,0,0,.41-.31,1,1,0,0,0,.25.13l0,0a1.75,1.75,0,0,1,.26.45.13.13,0,0,0,.11.1.13.13,0,0,0,.13,0l0-.08a1.92,1.92,0,0,1,.24-.42A.78.78,0,0,0,47.48,89Z"/><path class="cls-3" d="M43.78,88a.53.53,0,0,1,.52.3.16.16,0,0,0,.14.09.14.14,0,0,0,.12-.11.64.64,0,0,1,.64-.47.63.63,0,0,1,.62.38.13.13,0,0,0,.25,0,.6.6,0,0,1,.59-.32.64.64,0,0,1,.65.63.28.28,0,0,1,0,.09v0s0,0,0,0l0,.09a.14.14,0,0,1,0,.06v0a.21.21,0,0,0,0,.06s0,0,0,0l0,0,0,0h0s0,0-.05,0h0l-.07,0c-.08,0-.15.1-.29.35-.12-.25-.19-.32-.26-.35l0,0c-.14-.07-.21-.1-.26-.19a.13.13,0,0,0-.14-.07.13.13,0,0,0-.12.09c0,.17-.17.25-.37.34a.86.86,0,0,0-.33.35c-.12-.29-.19-.33-.22-.35a.56.56,0,0,1-.35-.39.12.12,0,0,0-.12-.1.14.14,0,0,0-.14.09c0,.1-.11.14-.26.2l0,0c-.05,0-.11.06-.26.31-.09-.22-.15-.28-.21-.31l-.07,0h0l0,0,0,0,0,0,0,0,0,0,0,0s0,0,0,0,0,0,0,0l0-.05a0,0,0,0,1,0,0s0,0,0-.07a.28.28,0,0,1,0-.09A.56.56,0,0,1,43.78,88Z"/><path class="cls-9" d="M42.81,88.91l.2-.06a.8.8,0,0,0,.4.43,2.17,2.17,0,0,1,.19.45s0,0,0,0,0,0,0,0h0l0,0h0s0,0,0,0h.09s0,0,0,0h0a0,0,0,0,0,0,0h0a3.09,3.09,0,0,1,.28-.46h0a1.09,1.09,0,0,0,.23-.14.86.86,0,0,0,.38.32,1.1,1.1,0,0,1,.06.12v4.83a1,1,0,0,0-.38,0,.73.73,0,0,0-.82.1l0,0a6.91,6.91,0,0,0-1.78.21V89.26h0C42.24,89.09,42.6,89,42.81,88.91Z"/><path class="cls-9" d="M41,95.56V89.9l.38-.3.18-.13V95a.16.16,0,0,0,.06.12.15.15,0,0,0,.13,0,6.25,6.25,0,0,1,1.72-.26,1.48,1.48,0,0,0-.09.57,1.22,1.22,0,0,1,.47-.09.78.78,0,0,0,0,.21H41Z"/><path class="cls-3" d="M43.71,98.63c-.29-.38-.18-.7.12-.85a.45.45,0,0,1,.05-.25.68.68,0,0,1,.73-.32.24.24,0,0,0,.28-.26.24.24,0,0,0-.43-.1.61.61,0,0,1-.82.22.63.63,0,0,1-.35-.4.46.46,0,0,0-.53.22.61.61,0,0,1,.05-.43.51.51,0,0,1,.5-.21,0,0,0,0,1,0,0,.64.64,0,0,1,.85-.27c.33.17.26.33.35.38s.13.07.22,0a.25.25,0,0,0,.15-.29.24.24,0,0,0-.21-.16.31.31,0,0,1-.21,0l-.06,0-.07,0-.06-.06-.06-.08h0a.47.47,0,0,0-.05-.1.64.64,0,0,1,0-.47.49.49,0,0,0-.5,0,.82.82,0,0,1,.11-.25.44.44,0,0,1,.08-.11.49.49,0,0,1,.6,0l.12,0a.82.82,0,0,1,.27,0,1.06,1.06,0,0,1,.19.06l0,0,0,0a.7.7,0,0,1,.2.22.65.65,0,0,1,0,.53h0l0,0h0v0h0a.13.13,0,0,0,0,.06v0a.08.08,0,0,0,0,0h0l0,0a1.47,1.47,0,0,0,.76.44,4.66,4.66,0,0,0,.88.14,7.78,7.78,0,0,0,2-.12,1.63,1.63,0,0,0,.22.74S49.84,96,50.62,96a2.69,2.69,0,0,0,1-.15h0a2.22,2.22,0,0,0-1.26,1.86c0,.87.43,1.11.57,1.16a2.24,2.24,0,0,0,.41.44.94.94,0,0,1-1.16-.47c-.28-.48-.63-.48-.63-.48a.7.7,0,0,0,.34.7.83.83,0,0,1-1-.36c-.34-.56-.3-.62-.63-.7s-.87-.21-1.17-.3l-.49-.14h0a2.49,2.49,0,0,0-1.34-.14c-.12,0-.2.14-.19.2a.72.72,0,0,1-.06.44.63.63,0,0,1-.83.28.62.62,0,0,1-.2-.15A.41.41,0,0,0,43.71,98.63Z"/><path class="cls-2" d="M52.29,102c0,1.41-1.61,1.32-1.61,1.32a1.4,1.4,0,0,0,1.82-1.06,6.54,6.54,0,0,0,2.21-.68A7.44,7.44,0,0,1,52.29,102Z"/><path class="cls-7" d="M36,95l1.17-.84,1.17.84c-.08-.23-.45-1.37-.45-1.37l1.17-.85H37.63l-.45-1.38c-.07.24-.45,1.38-.45,1.38H35.27l1.18.86Z"/><path class="cls-2" d="M58.28,101.84s1.84,1.51-1,3.64c0,0,1.77-.84,1.87-2.23A1.45,1.45,0,0,0,58.28,101.84Z"/><path class="cls-2" d="M46.51,90.89a1.16,1.16,0,0,0-1.1,1.2,1.14,1.14,0,0,0,.13.52h-.06a.17.17,0,0,0-.17.16.17.17,0,0,0,.17.16h.33a.16.16,0,0,0,.14-.08.18.18,0,0,0,0-.16,1.1,1.1,0,0,1-.2-.6.78.78,0,1,1,1.54,0,1.15,1.15,0,0,1-.21.61.18.18,0,0,0,0,.16.18.18,0,0,0,.15.08h.35a.16.16,0,0,0,0-.32h-.08a1.35,1.35,0,0,0,.12-.53A1.15,1.15,0,0,0,46.51,90.89Z"/><path class="cls-2" d="M54.91,89.05s.73-.5.11-1.46A2.8,2.8,0,0,1,54.91,89.05Z"/><path class="cls-2" d="M54.33,86.57c.5,0,1.08.05,1.08.05s-.56-.51-.86-.5S54.33,86.57,54.33,86.57Z"/><path class="cls-7" d="M67.79,95,69,94.14l1.17.84c-.08-.23-.45-1.37-.45-1.37l1.17-.85H69.4L69,91.38l-.45,1.38H67l1.19.86S67.86,94.74,67.79,95Z"/><path class="cls-2" d="M42.87,92.88l0,0v0s0,0,0,0a.43.43,0,0,0,0,0,.81.81,0,0,0,0-.11,1,1,0,0,0,0-.16h.79s0,0,0,.07l0,.11a.76.76,0,0,1,0,.11l0,0s0,0-.06,0v0h.58v0s0,0,0,0a.19.19,0,0,1,0-.09,3.17,3.17,0,0,1-.11-.33c0-.12-.09-.24-.13-.37s-.08-.25-.13-.38-.07-.23-.1-.33l-.08-.23a.62.62,0,0,1,0-.11s0,0,0,0h0v0h-.81v0h0s0,0,0,0a.73.73,0,0,0,0,.08l-.07.19-.08.28c0,.1-.06.21-.1.31s-.07.22-.1.32l-.09.29c0,.08-.05.15-.06.21a.33.33,0,0,0,0,.1.15.15,0,0,0,0,.06l-.06,0v0h.53Z"/><polygon class="cls-9" points="43.29 91.23 43.62 92.18 42.99 92.18 43.29 91.23"/><path class="cls-7" d="M51.9,81.57l1.16-.85,1.18.85-.45-1.38L55,79.35H53.52L53.07,78l-.45,1.39H51.16l1.18.85Z"/><path class="cls-1" d="M107.39,94.35a4.21,4.21,0,0,1-3,1,4.66,4.66,0,0,1-3.11-.94,3.73,3.73,0,0,1-1.12-3V84.81h1.37v6.58a2.81,2.81,0,0,0,.74,2.1,3,3,0,0,0,2.12.71,2.68,2.68,0,0,0,2-.71,3,3,0,0,0,.68-2.1V84.81h1.37v6.58A3.87,3.87,0,0,1,107.39,94.35Z"/><path class="cls-1" d="M111.65,84.81l5.42,8.35h0V84.81h1.3v10.3h-1.5l-5.38-8.27h0v8.27h-1.3V84.81Z"/><path class="cls-1" d="M121.62,84.81v10.3h-1.37V84.81Z"/><path class="cls-1" d="M126,95.11l-3.62-10.3h1.47l2.94,8.93h0l3-8.93h1.43l-3.66,10.3Z"/><path class="cls-1" d="M139,84.81V86h-5.74v3.28h5.35v1.15h-5.35V94H139v1.15h-7.15V84.81Z"/><path class="cls-1" d="M145.11,84.81a3.39,3.39,0,0,1,2.3.72,2.49,2.49,0,0,1,.83,2,3.06,3.06,0,0,1-.43,1.64,2.16,2.16,0,0,1-1.36,1v0a1.67,1.67,0,0,1,.73.29,1.47,1.47,0,0,1,.45.48,2.17,2.17,0,0,1,.24.63,5.4,5.4,0,0,1,.13.72c0,.25,0,.5,0,.76a6.48,6.48,0,0,0,.07.77,3.88,3.88,0,0,0,.17.71,1.73,1.73,0,0,0,.32.6h-1.53a.86.86,0,0,1-.19-.43,3.66,3.66,0,0,1-.07-.62q0-.33,0-.72a6.48,6.48,0,0,0-.08-.77,6.81,6.81,0,0,0-.15-.71,1.69,1.69,0,0,0-.27-.59,1.4,1.4,0,0,0-.49-.41,1.83,1.83,0,0,0-.81-.15h-3.35v4.4h-1.37V84.81Zm.29,4.67a1.87,1.87,0,0,0,.76-.28,1.62,1.62,0,0,0,.51-.56,1.9,1.9,0,0,0,.2-.92,1.84,1.84,0,0,0-.43-1.27A1.81,1.81,0,0,0,145,86h-3.41v3.6h2.86A5.31,5.31,0,0,0,145.4,89.48Z"/><path class="cls-1" d="M154.87,86.21a2.92,2.92,0,0,0-1.75-.49,4.71,4.71,0,0,0-.85.08,2.49,2.49,0,0,0-.75.29,1.68,1.68,0,0,0-.52.54,1.7,1.7,0,0,0-.19.85,1.06,1.06,0,0,0,.28.77,2,2,0,0,0,.75.48,5.77,5.77,0,0,0,1.06.31l1.21.27c.4.1.81.21,1.2.34a3.63,3.63,0,0,1,1.06.53,2.59,2.59,0,0,1,.75.83,2.57,2.57,0,0,1,.28,1.27,2.64,2.64,0,0,1-.36,1.41,3.08,3.08,0,0,1-.95,1,4,4,0,0,1-1.29.54,6.31,6.31,0,0,1-1.42.16,6.19,6.19,0,0,1-1.64-.21,4.2,4.2,0,0,1-1.36-.66,3.1,3.1,0,0,1-.92-1.13,3.52,3.52,0,0,1-.34-1.62h1.3a2.32,2.32,0,0,0,.25,1.12,2.27,2.27,0,0,0,.67.77,2.84,2.84,0,0,0,1,.45,4.64,4.64,0,0,0,1.12.14,5.84,5.84,0,0,0,.93-.08,2.85,2.85,0,0,0,.85-.3,1.59,1.59,0,0,0,.83-1.49,1.28,1.28,0,0,0-.28-.87,2.13,2.13,0,0,0-.75-.54,5.74,5.74,0,0,0-1.06-.34l-1.2-.27c-.41-.09-.82-.19-1.21-.31a4.28,4.28,0,0,1-1.06-.48,2.3,2.3,0,0,1-.75-.77,2.2,2.2,0,0,1-.28-1.17,2.65,2.65,0,0,1,.32-1.35,2.81,2.81,0,0,1,.84-.94,3.88,3.88,0,0,1,1.2-.55,5.22,5.22,0,0,1,1.38-.18,5.8,5.8,0,0,1,1.47.19,3.41,3.41,0,0,1,1.19.59,2.91,2.91,0,0,1,.81,1,3.78,3.78,0,0,1,.32,1.46h-1.3A2.16,2.16,0,0,0,154.87,86.21Z"/><path class="cls-1" d="M160.06,84.81v10.3h-1.37V84.81Z"/><path class="cls-1" d="M165.47,84.81A5.1,5.1,0,0,1,169.13,86a4.84,4.84,0,0,1,1.29,3.69,8.48,8.48,0,0,1-.29,2.31,4.29,4.29,0,0,1-.89,1.68,3.88,3.88,0,0,1-1.55,1,6.15,6.15,0,0,1-2.22.36h-3.54V84.81Zm.11,9.15c.16,0,.35,0,.58,0a3.13,3.13,0,0,0,.74-.17,3.54,3.54,0,0,0,.77-.4,2.75,2.75,0,0,0,.69-.71,3.94,3.94,0,0,0,.49-1.11,5.9,5.9,0,0,0,.2-1.63,7,7,0,0,0-.18-1.65,3.18,3.18,0,0,0-.59-1.24,2.69,2.69,0,0,0-1.06-.78,4.23,4.23,0,0,0-1.61-.27H163.3v8Z"/><path class="cls-1" d="M176,84.81l4,10.3h-1.52L177.36,92H173l-1.15,3.1h-1.4l4-10.3Zm1,6-1.72-4.8h0l-1.75,4.8Z"/><path class="cls-1" d="M184.11,84.81A5.14,5.14,0,0,1,187.78,86a4.88,4.88,0,0,1,1.28,3.69,8.11,8.11,0,0,1-.29,2.31,4.29,4.29,0,0,1-.89,1.68,3.88,3.88,0,0,1-1.55,1,6.15,6.15,0,0,1-2.22.36h-3.53V84.81Zm.12,9.15c.15,0,.34,0,.58,0a3.06,3.06,0,0,0,.73-.17,3.33,3.33,0,0,0,.77-.4,2.47,2.47,0,0,0,.69-.71,4,4,0,0,0,.5-1.11,5.93,5.93,0,0,0,.19-1.63,7,7,0,0,0-.18-1.65,3.18,3.18,0,0,0-.59-1.24,2.62,2.62,0,0,0-1.06-.78,4.18,4.18,0,0,0-1.6-.27H182v8Z"/><path class="cls-1" d="M103.7,102.67a5.14,5.14,0,0,1,3.66,1.22,4.83,4.83,0,0,1,1.29,3.69,8.4,8.4,0,0,1-.29,2.3,4.35,4.35,0,0,1-.9,1.69,3.84,3.84,0,0,1-1.54,1.05,6.23,6.23,0,0,1-2.22.36h-3.54V102.67Zm.11,9.15.58,0a3.69,3.69,0,0,0,.73-.18,3.55,3.55,0,0,0,.78-.39,2.72,2.72,0,0,0,.68-.71,4,4,0,0,0,.5-1.12,5.9,5.9,0,0,0,.19-1.62,6.83,6.83,0,0,0-.18-1.65,3.15,3.15,0,0,0-.59-1.25,2.62,2.62,0,0,0-1.06-.78,4.36,4.36,0,0,0-1.6-.26h-2.31v8Z"/><path class="cls-1" d="M117,102.67v1.16h-5.74v3.27h5.35v1.16h-5.35v3.56H117V113h-7.15V102.67Z"/><path class="cls-1" d="M127,104.08a2.93,2.93,0,0,0-1.76-.5,4.09,4.09,0,0,0-.85.09,2.2,2.2,0,0,0-.74.29,1.42,1.42,0,0,0-.52.54,1.68,1.68,0,0,0-.19.84,1.08,1.08,0,0,0,.28.78,2.11,2.11,0,0,0,.75.48,6.38,6.38,0,0,0,1.06.31l1.2.27c.41.09.81.2,1.21.33a4,4,0,0,1,1.06.53,2.53,2.53,0,0,1,.75.84,2.94,2.94,0,0,1-.09,2.68,3.15,3.15,0,0,1-.94,1,4.33,4.33,0,0,1-1.29.53,6.42,6.42,0,0,1-1.43.17,5.78,5.78,0,0,1-1.63-.22,3.83,3.83,0,0,1-1.36-.66,3,3,0,0,1-.92-1.12,3.58,3.58,0,0,1-.34-1.62h1.3a2.28,2.28,0,0,0,.25,1.11,2.39,2.39,0,0,0,.66.78,2.81,2.81,0,0,0,1,.44,4.28,4.28,0,0,0,1.13.15,5,5,0,0,0,.93-.09,3.08,3.08,0,0,0,.84-.29,1.58,1.58,0,0,0,.84-1.5,1.27,1.27,0,0,0-.28-.86,2,2,0,0,0-.75-.55,6,6,0,0,0-1.06-.33l-1.21-.27c-.41-.09-.81-.2-1.2-.32a4.12,4.12,0,0,1-1.06-.48,2.1,2.1,0,0,1-.75-.76,2.22,2.22,0,0,1-.29-1.18,2.78,2.78,0,0,1,.32-1.35,2.7,2.7,0,0,1,.85-.93,3.71,3.71,0,0,1,1.19-.55,5.58,5.58,0,0,1,2.85,0,3.17,3.17,0,0,1,1.19.59,2.85,2.85,0,0,1,.81,1,3.62,3.62,0,0,1,.33,1.47h-1.3A2.18,2.18,0,0,0,127,104.08Z"/><path class="cls-1" d="M135.08,102.67l4,10.31h-1.52l-1.12-3.11h-4.36L131,113h-1.4l4-10.31Zm.95,6-1.71-4.81h0l-1.75,4.81Z"/><path class="cls-1" d="M141.13,102.67l5.42,8.36h0v-8.36h1.3V113h-1.5L141,104.71h0V113h-1.3V102.67Z"/><path class="cls-1" d="M148.57,103.83v-1.16h8.24v1.16h-3.43V113H152v-9.15Z"/><path class="cls-1" d="M159,102.67V113h-1.37V102.67Z"/><path class="cls-1" d="M165.14,102.67l4,10.31h-1.51l-1.13-3.11h-4.36L161,113h-1.4l4-10.31Zm1,6-1.72-4.81h0l-1.74,4.81Z"/><path class="cls-1" d="M176,112.85a4.83,4.83,0,0,1-1.81.36,4.69,4.69,0,0,1-2.06-.43,4.55,4.55,0,0,1-1.55-1.15,5,5,0,0,1-1-1.65,5.87,5.87,0,0,1-.33-2,7.26,7.26,0,0,1,.31-2.15,5.19,5.19,0,0,1,.92-1.78,4.59,4.59,0,0,1,1.53-1.22,4.78,4.78,0,0,1,2.14-.45,6.16,6.16,0,0,1,1.58.19,4,4,0,0,1,1.33.62,3.56,3.56,0,0,1,1,1.06,4,4,0,0,1,.54,1.55H177.2a2.74,2.74,0,0,0-.37-1,2.52,2.52,0,0,0-.68-.7,3.07,3.07,0,0,0-.92-.41,4.22,4.22,0,0,0-1.09-.14,3.28,3.28,0,0,0-1.61.38,3.24,3.24,0,0,0-1.09,1,4.06,4.06,0,0,0-.63,1.4,6.16,6.16,0,0,0-.2,1.6,5.08,5.08,0,0,0,.23,1.56,4,4,0,0,0,.68,1.31,3.26,3.26,0,0,0,1.1.91,3.34,3.34,0,0,0,1.52.34,3.72,3.72,0,0,0,1.43-.26,3.12,3.12,0,0,0,1.05-.72,3.17,3.17,0,0,0,.64-1.06,3.58,3.58,0,0,0,.19-1.32h-3.29v-1.16h4.51V113h-.86l-.36-1.29A3.44,3.44,0,0,1,176,112.85Z"/><path class="cls-1" d="M180,105.8a5.25,5.25,0,0,1,.93-1.73,4.47,4.47,0,0,1,1.55-1.19,5.36,5.36,0,0,1,4.3,0,4.43,4.43,0,0,1,1.54,1.19,4.91,4.91,0,0,1,.93,1.73,6.77,6.77,0,0,1,0,4,4.91,4.91,0,0,1-.93,1.73,4.55,4.55,0,0,1-1.54,1.19,5.47,5.47,0,0,1-4.3,0,4.59,4.59,0,0,1-1.55-1.19,5.25,5.25,0,0,1-.93-1.73,6.77,6.77,0,0,1,0-4Zm1.27,3.56a4.08,4.08,0,0,0,.63,1.37,3.36,3.36,0,0,0,1.11,1,3.71,3.71,0,0,0,3.23,0,3.17,3.17,0,0,0,1.11-1,4.31,4.31,0,0,0,.64-1.37,6,6,0,0,0,0-3.07,4.31,4.31,0,0,0-.64-1.37,3.17,3.17,0,0,0-1.11-1,3.38,3.38,0,0,0-4.34,1,4.08,4.08,0,0,0-.63,1.37,5.72,5.72,0,0,0,0,3.07Z"/><path class="cls-1" d="M103.7,120.54a5.13,5.13,0,0,1,3.66,1.21,4.85,4.85,0,0,1,1.29,3.7,8.45,8.45,0,0,1-.29,2.3,4.35,4.35,0,0,1-.9,1.69,3.93,3.93,0,0,1-1.54,1,6.23,6.23,0,0,1-2.22.36h-3.54v-10.3Zm.11,9.15a4.45,4.45,0,0,0,.58,0,3.06,3.06,0,0,0,.73-.17,3.61,3.61,0,0,0,.78-.4,2.57,2.57,0,0,0,.68-.71,4,4,0,0,0,.5-1.11,5.93,5.93,0,0,0,.19-1.63,7,7,0,0,0-.18-1.65,3.11,3.11,0,0,0-.59-1.24,2.62,2.62,0,0,0-1.06-.78,4.14,4.14,0,0,0-1.6-.27h-2.31v8Z"/><path class="cls-1" d="M117,120.54v1.15h-5.74V125h5.35v1.15h-5.35v3.57H117v1.15h-7.15v-10.3Z"/><path class="cls-1" d="M128.08,122a3.17,3.17,0,0,0-1.87-.55,3.09,3.09,0,0,0-2.67,1.28,3.88,3.88,0,0,0-.62,1.33,5.76,5.76,0,0,0-.21,1.56,6.48,6.48,0,0,0,.21,1.67,4,4,0,0,0,.62,1.37,3.16,3.16,0,0,0,1.09.93,3.45,3.45,0,0,0,1.59.34,3.11,3.11,0,0,0,1.21-.22,2.76,2.76,0,0,0,1.5-1.57,3.76,3.76,0,0,0,.26-1.18h1.37a4.65,4.65,0,0,1-1.34,3,4.34,4.34,0,0,1-3.11,1.08,4.92,4.92,0,0,1-2.1-.41,4.06,4.06,0,0,1-1.48-1.13,4.84,4.84,0,0,1-.89-1.7,7.22,7.22,0,0,1-.3-2.11,6.86,6.86,0,0,1,.32-2.11,5.06,5.06,0,0,1,.93-1.73,4.32,4.32,0,0,1,1.53-1.16,5,5,0,0,1,2.1-.43,5.44,5.44,0,0,1,1.53.22,4,4,0,0,1,1.28.64,3.36,3.36,0,0,1,.94,1,3.72,3.72,0,0,1,.49,1.45h-1.37A2.52,2.52,0,0,0,128.08,122Z"/><path class="cls-1" d="M133.2,120.54V125h5.43v-4.43H140v10.3h-1.37v-4.72H133.2v4.72h-1.37v-10.3Z"/><path class="cls-1" d="M143.25,120.54v10.3h-1.37v-10.3Z"/><path class="cls-1" d="M146.49,120.54v9.15H152v1.15h-6.83v-10.3Z"/><path class="cls-1" d="M159.83,120.54v1.15h-5.75V125h5.36v1.15h-5.36v3.57h5.79v1.15h-7.16v-10.3Z"/></svg>