<svg id="Layer_1" data-name="Layer 1" xmlns="http://www.w3.org/2000/svg" xmlns:xlink="http://www.w3.org/1999/xlink" viewBox="0 0 215.25 212.24"><defs><style>.cls-1{fill:#fff;}.cls-1,.cls-3,.cls-5,.cls-6,.cls-7{fill-rule:evenodd;}.cls-2{mask:url(#mask);}.cls-3{fill:#009bdd;}.cls-4{mask:url(#mask-2-2);}.cls-5{fill:#6b1a6b;}.cls-6{fill:#d7006d;}.cls-7{fill:#807f80;}.cls-8{mask:url(#mask-3);}.cls-9{mask:url(#mask-4-2);}</style><mask id="mask" x="25.69" y="98.33" width="4.13" height="4.16" maskUnits="userSpaceOnUse"><g id="mask-2"><polygon id="path-1" class="cls-1" points="25.69 98.33 29.81 98.33 29.81 102.49 25.69 102.49 25.69 98.33"/></g></mask><mask id="mask-2-2" x="185.44" y="114.62" width="4.13" height="4.16" maskUnits="userSpaceOnUse"><g id="mask-4"><polygon id="path-3" class="cls-1" points="185.44 114.62 189.56 114.62 189.56 118.77 185.44 118.77 185.44 114.62"/></g></mask><mask id="mask-3" x="165.34" y="124.55" width="4.25" height="6.21" maskUnits="userSpaceOnUse"><g id="mask-6"><polygon id="path-5" class="cls-1" points="165.34 124.55 169.6 124.55 169.6 130.75 165.34 130.75 165.34 124.55"/></g></mask><mask id="mask-4-2" x="25.69" y="92.7" width="163.88" height="38.06" maskUnits="userSpaceOnUse"><g id="mask-8"><polygon id="path-7" class="cls-1" points="25.69 130.75 189.56 130.75 189.56 92.7 25.69 92.7 25.69 130.75"/></g></mask></defs><title>logosArtboard 12 copy 55</title><g id="Artboard"><g id="Group-60"><g id="Group-3"><g class="cls-2"><path id="Fill-1" class="cls-3" d="M27.75,102.49a2.08,2.08,0,1,0-2.06-2.08,2.07,2.07,0,0,0,2.06,2.08"/></g></g><g id="Group-6"><g class="cls-4"><path id="Fill-4" class="cls-5" d="M187.5,118.77a2.08,2.08,0,1,0-2.06-2.07,2.07,2.07,0,0,0,2.06,2.07"/></g></g><path id="Fill-7" class="cls-6" d="M89.78,106.18h0a7.36,7.36,0,0,0-2.27-5.59l-.11-.1,0,0h0a8.3,8.3,0,0,0-5.44-1.82h-.55A8.22,8.22,0,0,0,76,100.47h0l-.13.12a7.33,7.33,0,0,0-2.27,5.56h0v11.93a.64.64,0,0,0,.18.43.69.69,0,0,0,.46.17h2.12a.66.66,0,0,0,.45-.17.61.61,0,0,0,.19-.43V106.56a5.09,5.09,0,0,1,1.23-3.67,5.55,5.55,0,0,1,7,0,5.05,5.05,0,0,1,1.22,3.68v11.52a.61.61,0,0,0,.19.43.66.66,0,0,0,.45.17h2.13a.68.68,0,0,0,.45-.17.61.61,0,0,0,.19-.43Z"/><path id="Fill-9" class="cls-6" d="M163.8,106.18h0a7.36,7.36,0,0,0-2.27-5.59l-.1-.1,0,0h0A8.26,8.26,0,0,0,156,98.65h-.54a8.22,8.22,0,0,0-5.42,1.82h0l-.13.12a7.33,7.33,0,0,0-2.26,5.56h0v11.93a.61.61,0,0,0,.19.43.66.66,0,0,0,.45.17h2.12a.69.69,0,0,0,.46-.17.6.6,0,0,0,.18-.43V106.56a5,5,0,0,1,1.22-3.67,4.84,4.84,0,0,1,3.5-1.23,4.78,4.78,0,0,1,3.47,1.23,5.09,5.09,0,0,1,1.23,3.68v11.52a.6.6,0,0,0,.18.43.69.69,0,0,0,.46.17h2.12a.66.66,0,0,0,.45-.17.61.61,0,0,0,.19-.43Z"/><path id="Fill-11" class="cls-6" d="M124.74,100.68s0,0,0,0a8,8,0,0,0-5.38-1.81h-.13a7.63,7.63,0,0,0-5.23,1.74h0V99.38h0v-6a.57.57,0,0,0-.19-.42.63.63,0,0,0-.45-.18h-2.09a.65.65,0,0,0-.46.18.56.56,0,0,0-.18.42v6h0v12.76h0v6a.58.58,0,0,0,.18.42.65.65,0,0,0,.46.18h2.09a.63.63,0,0,0,.45-.18.55.55,0,0,0,.19-.42v-1.24a6.83,6.83,0,0,0,5.23,2.1h.13a8,8,0,0,0,5.38-1.81c2.25-2.13,2.77-5.4,2.77-8.44s-.52-5.92-2.73-8Zm-.63,8v0h0v0a11.21,11.21,0,0,1-.93,5.08c-.71,1.28-1.85,2.13-4.07,2.17H119c-2.23,0-3.39-.88-4.1-2.17a11.09,11.09,0,0,1-.94-5.12v-.11a9.66,9.66,0,0,1,.94-4.75c.71-1.29,1.87-2.15,4.1-2.17h.09c2.23,0,3.38.87,4.1,2.17a9.66,9.66,0,0,1,.93,4.75Z"/><path id="Fill-13" class="cls-6" d="M71.19,105.3v0a6.1,6.1,0,0,0-2.08-4.91A9.36,9.36,0,0,0,63,98.65h-.13c-2.75,0-4.94.6-6.61,2.37h0l-.09.12c-.13.14-.25.28-.37.43h0l-.17.2a.58.58,0,0,0-.13.44.64.64,0,0,0,.23.44l.09.08a1.36,1.36,0,0,0,.12.12l.38.31,1,.86a.65.65,0,0,0,.46.16.58.58,0,0,0,.41-.2l.64-.76h0a3.66,3.66,0,0,1,1.29-1,7.22,7.22,0,0,1,2.88-.46h.06a5.42,5.42,0,0,1,3.63,1,3.4,3.4,0,0,1,1,2.74v1.31H62.23a8.63,8.63,0,0,0-5.36,1.54,5.36,5.36,0,0,0-2,4.38v.07a5.7,5.7,0,0,0,1.6,4c1.4,1.38,3.25,1.88,6.06,1.88h1.45c2.57,0,4.42-.63,5.6-1.91s1.66-3.14,1.66-5.44v-6Zm-3.51,6.15c0,1.59-.36,2.47-.82,2.89-1.14,1-2.54,1.2-4.24,1.2h0a5.78,5.78,0,0,1-3.34-.73,2.29,2.29,0,0,1-.89-2v-.05a2.45,2.45,0,0,1,.91-2.12,5.29,5.29,0,0,1,3.2-.77h5.23Z"/><path id="Fill-15" class="cls-6" d="M145.24,105.33v0a6.08,6.08,0,0,0-2.09-4.91c-1.41-1.17-3.45-1.71-6.08-1.72h-.13c-2.76,0-4.95.6-6.61,2.37h0l-.09.12c-.13.14-.25.28-.37.43h0l-.17.2a.56.56,0,0,0-.14.45.73.73,0,0,0,.23.43l.1.08.12.12.37.31,1,.86a.62.62,0,0,0,.87,0l.63-.76h0a3.79,3.79,0,0,1,1.3-1,7.22,7.22,0,0,1,2.88-.46h.06a5.49,5.49,0,0,1,3.63,1,3.35,3.35,0,0,1,1,2.74.18.18,0,0,0,0,.06v1.25h-5.45a8.59,8.59,0,0,0-5.36,1.54,5.35,5.35,0,0,0-2,4.38v.07a5.71,5.71,0,0,0,1.6,4c1.39,1.37,3.25,1.87,6.06,1.87H138c2.57,0,4.41-.63,5.6-1.91a7.75,7.75,0,0,0,1.66-5.43v-6Zm-12.86,7.45v0a2.44,2.44,0,0,1,.91-2.11,5.33,5.33,0,0,1,3.21-.77h5.23v1.62c0,1.6-.36,2.48-.83,2.89-1.13,1-2.53,1.2-4.24,1.2h0a5.77,5.77,0,0,1-3.33-.73,2.3,2.3,0,0,1-.9-2Z"/><path id="Fill-17" class="cls-6" d="M38.47,98.72H34.88V95.09h0V93.33a.6.6,0,0,0-.62-.58H32.1a.61.61,0,0,0-.43.17.56.56,0,0,0-.19.41v3.24h0v17a5.14,5.14,0,0,0,1.27,3.58,5.08,5.08,0,0,0,3.76,1.48h1.95a.57.57,0,0,0,.42-.19.67.67,0,0,0,.18-.45v-2.11a.7.7,0,0,0-.18-.46.56.56,0,0,0-.42-.18H36.8a3.19,3.19,0,0,1-.84-.14,1.11,1.11,0,0,1-.33-.17,1.06,1.06,0,0,1-.24-.19,2.38,2.38,0,0,1-.51-1.66v-11h3.59a.57.57,0,0,0,.42-.19.7.7,0,0,0,.18-.46v-2.1a.7.7,0,0,0-.18-.46.57.57,0,0,0-.42-.19"/><path id="Fill-19" class="cls-6" d="M53.94,101.21l-.2-.22a.12.12,0,0,0-.05-.07l-.12-.13h0l-.16-.17-.14-.15h0a5.82,5.82,0,0,0-4.36-1.82h-.13a4.48,4.48,0,0,0-3.31,1.49l-.57.67V99.32a.56.56,0,0,0-.18-.42.65.65,0,0,0-.46-.18H42.17a.64.64,0,0,0-.45.18.57.57,0,0,0-.19.42V118.1a.57.57,0,0,0,.19.42.64.64,0,0,0,.45.18h2.1a.64.64,0,0,0,.45-.18.56.56,0,0,0,.18-.42v-.33h0V105.68a4.84,4.84,0,0,1,.93-2.65,3.17,3.17,0,0,1,2.57-1.19,3.41,3.41,0,0,1,1.34.21,3.61,3.61,0,0,1,1.12.85l.1.11.45.5a.59.59,0,0,0,.43.19.67.67,0,0,0,.46-.17l1.57-1.43a.66.66,0,0,0,.21-.44.56.56,0,0,0-.14-.45"/><path id="Fill-21" class="cls-6" d="M106.63,108.43s0,0,0,0h0a9,9,0,0,0-4.44-1.29l-3.12-.26a4.85,4.85,0,0,1-2.57-.75,1.82,1.82,0,0,1-.65-1.54h0v0a2.28,2.28,0,0,1,1-2,5.49,5.49,0,0,1,3.17-.78h0a8.61,8.61,0,0,1,4.75,1.29h0l.79.55a.55.55,0,0,0,.45.09.63.63,0,0,0,.39-.27l1.17-1.7a.7.7,0,0,0,.11-.47.56.56,0,0,0-.1-.24.52.52,0,0,0-.18-.21l-.14-.1A12.58,12.58,0,0,0,100,98.64a9.23,9.23,0,0,0-5.54,1.57,5.25,5.25,0,0,0-2.18,4.29v.08A4.79,4.79,0,0,0,94,108.42,8.55,8.55,0,0,0,98.79,110l3.21.26a4.33,4.33,0,0,1,2.35.73,1.94,1.94,0,0,1,.62,1.57v0h0a2.38,2.38,0,0,1-1.14,2.12,7.39,7.39,0,0,1-3.85.8h-.06A8,8,0,0,1,94.6,114l-.68-.57a.54.54,0,0,0-.44-.13.68.68,0,0,0-.43.23l-1.34,1.63a.66.66,0,0,0-.16.46.59.59,0,0,0,.21.42l.64.54h0l0,0,.08.07h0a12.36,12.36,0,0,0,7.45,2.11h0a10.66,10.66,0,0,0,6.11-1.6,5.38,5.38,0,0,0,2.42-4.5v-.1a4.81,4.81,0,0,0-1.92-4.11"/><path id="Fill-23" class="cls-6" d="M183.65,117.86,181,114.17l-5.24-7.66,4.07-4.33,2.37-2.51.15-.16a.45.45,0,0,0,0-.67.69.69,0,0,0-.45-.18h-2.73a.93.93,0,0,0-.49.23h0l-9.15,9.76V93.3a.61.61,0,0,0-.19-.43.66.66,0,0,0-.45-.17h-2.09a.66.66,0,0,0-.45.17.61.61,0,0,0-.19.43v24.79a.59.59,0,0,0,.19.43.67.67,0,0,0,.45.18h2.09a.67.67,0,0,0,.45-.18.59.59,0,0,0,.19-.43v-5l4-4.3,2.67,4h0l3.75,5.6a.64.64,0,0,0,.54.32h2.72a.65.65,0,0,0,.46-.18.5.5,0,0,0,0-.67"/><path id="Fill-25" class="cls-7" d="M95.9,130.7l-.48-1.38H92.75l-.49,1.38h-.7l2.25-6.1h.55l2.24,6.1Zm-1.8-5.17L93,128.76h2.28Z"/><path id="Fill-27" class="cls-7" d="M100.28,128.19H98.66v2.51H98v-6.1h2.27a1.8,1.8,0,1,1,0,3.59m-.06-3H98.66v2.43h1.56a1.22,1.22,0,1,0,0-2.43"/><path id="Fill-29" class="cls-7" d="M107.29,130.12a2.22,2.22,0,0,1-3.12,0c-.57-.57-.57-1.17-.57-2.47s0-1.9.57-2.47a2.22,2.22,0,0,1,3.12,0c.58.57.58,1.18.58,2.47s0,1.9-.58,2.47m-.5-4.55a1.46,1.46,0,0,0-1.06-.44,1.44,1.44,0,0,0-1,.44c-.39.39-.43.8-.43,2.08s0,1.69.43,2.08a1.44,1.44,0,0,0,1,.44,1.46,1.46,0,0,0,1.06-.44c.38-.39.43-.8.43-2.08s0-1.69-.43-2.08"/><polygon id="Fill-31" class="cls-7" points="111.39 128.18 111.39 130.7 110.74 130.7 110.74 128.18 108.92 124.6 109.63 124.6 111.07 127.52 112.49 124.6 113.19 124.6 111.39 128.18"/><path id="Fill-33" class="cls-7" d="M117.78,130.7l-.49-1.38h-2.66l-.49,1.38h-.7l2.25-6.1h.55l2.24,6.1ZM116,125.53l-1.15,3.23h2.28Z"/><polygon id="Fill-35" class="cls-7" points="123.78 130.7 120.53 125.81 120.53 130.7 119.88 130.7 119.88 124.6 120.5 124.6 123.74 129.48 123.74 124.6 124.39 124.6 124.39 130.7 123.78 130.7"/><path id="Fill-37" class="cls-7" d="M130.22,130.14a2.13,2.13,0,0,1-1.55.56h-2.09v-6.1h2.09a2.13,2.13,0,0,1,1.55.56,3.25,3.25,0,0,1,.6,2.42,3.61,3.61,0,0,1-.6,2.56m-.46-4.51a1.57,1.57,0,0,0-1.2-.45h-1.33v4.94h1.33a1.57,1.57,0,0,0,1.2-.45,3.26,3.26,0,0,0,.41-2.09,2.86,2.86,0,0,0-.41-2"/><path id="Fill-39" class="cls-7" d="M136.24,130.12a2.22,2.22,0,0,1-3.12,0c-.58-.57-.58-1.17-.58-2.47s0-1.9.58-2.47a2.22,2.22,0,0,1,3.12,0c.57.57.57,1.18.57,2.47s0,1.9-.57,2.47m-.51-4.55a1.44,1.44,0,0,0-1-.44,1.46,1.46,0,0,0-1.06.44c-.38.39-.43.8-.43,2.08s.05,1.69.43,2.08a1.46,1.46,0,0,0,1.06.44,1.44,1.44,0,0,0,1-.44c.39-.39.43-.8.43-2.08s0-1.69-.43-2.08"/><polygon id="Fill-41" class="cls-7" points="145.22 130.7 141.97 125.81 141.97 130.7 141.32 130.7 141.32 124.6 141.94 124.6 145.18 129.48 145.18 124.6 145.83 124.6 145.83 130.7 145.22 130.7"/><polygon id="Fill-43" class="cls-7" points="148.02 130.7 148.02 124.6 151.81 124.6 151.81 125.18 148.67 125.18 148.67 127.33 151.35 127.33 151.35 127.92 148.67 127.92 148.67 130.12 151.81 130.12 151.81 130.7 148.02 130.7"/><path id="Fill-45" class="cls-7" d="M157.12,130.05a2.16,2.16,0,0,1-1.63.71,2.18,2.18,0,0,1-1.56-.64c-.57-.57-.57-1.17-.57-2.47s0-1.9.57-2.47a2.17,2.17,0,0,1,1.56-.64,2.09,2.09,0,0,1,2.14,1.83H157a1.48,1.48,0,0,0-1.49-1.24,1.44,1.44,0,0,0-1.05.44c-.39.39-.43.8-.43,2.08s0,1.7.43,2.09a1.43,1.43,0,0,0,1.05.43,1.49,1.49,0,0,0,1.16-.52,1.6,1.6,0,0,0,.34-1.11v-.46h-1.5v-.57h2.15v1a2.09,2.09,0,0,1-.52,1.58"/><path id="Fill-47" class="cls-7" d="M163.05,130.12a2.17,2.17,0,0,1-1.56.64,2.21,2.21,0,0,1-1.57-.64c-.57-.57-.57-1.17-.57-2.47s0-1.9.57-2.47a2.21,2.21,0,0,1,1.57-.64,2.17,2.17,0,0,1,1.56.64c.57.57.57,1.18.57,2.47s0,1.9-.57,2.47m-.51-4.55a1.44,1.44,0,0,0-1-.44,1.46,1.46,0,0,0-1.06.44c-.39.39-.43.8-.43,2.08s0,1.69.43,2.08a1.46,1.46,0,0,0,1.06.44,1.44,1.44,0,0,0,1-.44c.39-.39.43-.8.43-2.08s0-1.69-.43-2.08"/><g id="Group-51"><g class="cls-8"><path id="Fill-49" class="cls-7" d="M167.48,130.76a2.18,2.18,0,0,1-1.56-.64c-.58-.57-.58-1.17-.58-2.47s0-1.9.58-2.47a2.17,2.17,0,0,1,1.56-.63,2.06,2.06,0,0,1,2.12,1.81h-.67a1.48,1.48,0,0,0-2.5-.8c-.39.39-.43.81-.43,2.09s0,1.7.43,2.09a1.43,1.43,0,0,0,1,.43,1.47,1.47,0,0,0,1.47-1.23h.65a2.06,2.06,0,0,1-2.12,1.82"/></g></g><g class="cls-9"><polygon id="Fill-52" class="cls-7" points="171.46 130.7 172.11 130.7 172.11 124.6 171.46 124.6 171.46 130.7"/></g><g class="cls-9"><path id="Fill-54" class="cls-7" d="M177.76,130.12a2.22,2.22,0,0,1-3.12,0c-.57-.57-.57-1.17-.57-2.47s0-1.9.57-2.47a2.22,2.22,0,0,1,3.12,0c.58.57.58,1.18.58,2.47s0,1.9-.58,2.47m-.5-4.55a1.46,1.46,0,0,0-1.06-.44,1.44,1.44,0,0,0-1,.44c-.39.39-.43.8-.43,2.08s0,1.69.43,2.08a1.44,1.44,0,0,0,1,.44,1.46,1.46,0,0,0,1.06-.44c.38-.39.43-.8.43-2.08s-.05-1.69-.43-2.08"/></g><g class="cls-9"><path id="Fill-55" class="cls-7" d="M181.86,130.76a2.69,2.69,0,0,1-2.09-.81l.45-.45a2.07,2.07,0,0,0,1.66.67c.89,0,1.44-.42,1.44-1.13a1,1,0,0,0-.29-.76,1.34,1.34,0,0,0-.8-.3l-.71-.11a2.14,2.14,0,0,1-1.12-.46,1.43,1.43,0,0,1-.47-1.14,1.73,1.73,0,0,1,2-1.72,2.47,2.47,0,0,1,1.82.66l-.42.43a1.91,1.91,0,0,0-1.43-.53,1.13,1.13,0,0,0-1.28,1.13.89.89,0,0,0,.27.71,1.79,1.79,0,0,0,.82.33l.67.1a2,2,0,0,1,1.12.43A1.56,1.56,0,0,1,184,129c0,1.08-.84,1.74-2.11,1.74"/></g><g class="cls-9"><path id="Fill-56" class="cls-6" d="M160.22,92.89h.37l.55,1.61.55-1.61h.37V94.8h-.25V93.47c0-.09,0-.18,0-.28l-.55,1.61H161l-.55-1.61v.26a2.13,2.13,0,0,1,0,.22V94.8h-.25Z"/></g><g class="cls-9"><path id="Fill-57" class="cls-6" d="M163.16,92.89H164a.88.88,0,0,1,.35.06.44.44,0,0,1,.26.45.58.58,0,0,1-.06.28.61.61,0,0,1-.21.18.41.41,0,0,1,.18.12.48.48,0,0,1,.05.24l0,.25c0,.08,0,.13,0,.17s.05.1.09.11v0h-.32s0,0,0-.06a.62.62,0,0,1,0-.16l0-.32a.28.28,0,0,0-.13-.25.67.67,0,0,0-.23,0h-.58v.82h-.26Zm.85.87a.49.49,0,0,0,.28-.07.32.32,0,0,0,.1-.27.27.27,0,0,0-.14-.27.46.46,0,0,0-.21,0h-.62v.65Z"/></g><g class="cls-9"><path id="Fill-58" class="cls-6" d="M162.62,94.79a.13.13,0,0,1-.12-.14.13.13,0,0,1,.13-.14.13.13,0,0,1,.13.14.14.14,0,0,1-.14.14"/></g><g class="cls-9"><path id="Fill-59" class="cls-6" d="M165.24,94.79a.14.14,0,1,1,.13-.14.13.13,0,0,1-.13.14Z"/></g></g></g></svg>