<svg id="Layer_1" data-name="Layer 1" xmlns="http://www.w3.org/2000/svg" viewBox="0 0 215.25 212.24"><defs><style>.cls-1{fill:#4e5256;}.cls-2{fill:#95999a;}.cls-3{fill:#004431;}.cls-4{fill:#0d7f40;}.cls-5{fill:#b9d438;}</style></defs><title>logosArtboard 12 copy 54</title><g id="g5455"><path id="path5457" class="cls-1" d="M83.47,96.64a5.22,5.22,0,0,1,1.44.87,4.82,4.82,0,0,1,1,1.22,6.11,6.11,0,0,1,.58,1.45,6.37,6.37,0,0,1,.19,1.57,6,6,0,0,1-2,4.5,6.51,6.51,0,0,1-2.17,1.26,8,8,0,0,1-2.71.44H72.58a1.7,1.7,0,0,1-1.29-.38,1.89,1.89,0,0,1-.36-1.29V89a1.84,1.84,0,0,1,.36-1.26,1.62,1.62,0,0,1,1.29-.42l6.84,0a9.83,9.83,0,0,1,2.54.3,5.24,5.24,0,0,1,2,.91,4.36,4.36,0,0,1,1.34,1.6,5.36,5.36,0,0,1,.48,2.32,4.52,4.52,0,0,1-.66,2.41,4.73,4.73,0,0,1-1.66,1.64Zm-9-1.32H79.3a3.82,3.82,0,0,0,.91-.11,2.43,2.43,0,0,0,.89-.38,2.12,2.12,0,0,0,.68-.77,2.64,2.64,0,0,0,.27-1.28,2.09,2.09,0,0,0-.71-1.68,2.59,2.59,0,0,0-1.85-.63h-5ZM83,101.51a3.15,3.15,0,0,0-.9-2.32,3.64,3.64,0,0,0-2.64-.9h-4.9v6.42H79.4a4.13,4.13,0,0,0,1.73-.3,3.18,3.18,0,0,0,1.1-.79,2.63,2.63,0,0,0,.57-1,4,4,0,0,0,.16-1.08"/></g><g id="g5459"><path id="path5461" class="cls-1" d="M100.45,106.28a1,1,0,0,1-.57,1,8.5,8.5,0,0,1-1.4.49,12.5,12.5,0,0,1-1.55.33c-.52.08-1,.13-1.57.17l-1.49,0a10.92,10.92,0,0,1-3.23-.39,5.33,5.33,0,0,1-2-1.07,3.5,3.5,0,0,1-1-1.57,6.11,6.11,0,0,1,0-3.87,3.94,3.94,0,0,1,1.1-1.69,5.78,5.78,0,0,1,2-1.16,8.72,8.72,0,0,1,3-.45H97v-.5a4.69,4.69,0,0,0-.11-1,1.8,1.8,0,0,0-.46-.83,2.32,2.32,0,0,0-.92-.56A5.16,5.16,0,0,0,94,95a13.41,13.41,0,0,0-2.18.18,12.49,12.49,0,0,0-1.92.41.91.91,0,0,1-.48,0,.41.41,0,0,1-.2-.32l-.41-1.69c-.08-.31,0-.51.28-.6a10.89,10.89,0,0,1,2.7-.68,21.27,21.27,0,0,1,2.77-.19A6.36,6.36,0,0,1,99,93.48a5.15,5.15,0,0,1,1.44,4ZM97,100.71H94.14a10.34,10.34,0,0,0-1.08.06,3,3,0,0,0-1.09.32,2.63,2.63,0,0,0-.86.77,2.41,2.41,0,0,0-.34,1.38,1.86,1.86,0,0,0,.86,1.76,4.44,4.44,0,0,0,2.27.51c.14,0,.33,0,.58,0a4.16,4.16,0,0,0,.77-.07c.28,0,.58-.08.87-.14a5.64,5.64,0,0,0,.84-.23Z"/></g><g id="g5463"><path id="path5465" class="cls-1" d="M108.26,95.07l-.92,0a10.14,10.14,0,0,0-1.41.16v12.21c0,.22,0,.35-.11.41a.76.76,0,0,1-.45.09h-2.3a.65.65,0,0,1-.42-.09c-.1-.06-.14-.19-.14-.41V94.84a2.92,2.92,0,0,1,.39-1.65,2.21,2.21,0,0,1,1.58-.8l.79-.08c.34,0,.7-.07,1.07-.1s.73,0,1.08-.06.66,0,.91,0a12.41,12.41,0,0,1,3.37.4,5.51,5.51,0,0,1,2.35,1.32,5.31,5.31,0,0,1,1.37,2.35,11.67,11.67,0,0,1,.44,3.47v7.79c0,.22,0,.35-.11.41a.69.69,0,0,1-.44.09H113a.64.64,0,0,1-.41-.09c-.1-.06-.14-.19-.14-.41V99.61a9,9,0,0,0-.19-2,3.13,3.13,0,0,0-.67-1.42,2.62,2.62,0,0,0-1.28-.84,6.13,6.13,0,0,0-2-.29"/></g><g id="g5467"><path id="path5469" class="cls-1" d="M124.71,105.28a8.14,8.14,0,0,0,1.89-.23,9,9,0,0,0,1.56-.54.65.65,0,0,1,.47-.09.72.72,0,0,1,.22.29l.73,1.72a.45.45,0,0,1-.19.73,7.31,7.31,0,0,1-2.6.9,16.41,16.41,0,0,1-2.61.22,6.36,6.36,0,0,1-5.06-2q-1.75-2-1.76-6a10.5,10.5,0,0,1,.51-3.37,7.25,7.25,0,0,1,1.44-2.59,5.84,5.84,0,0,1,2.24-1.65,7.13,7.13,0,0,1,3-.58,11.92,11.92,0,0,1,2.35.24,9.45,9.45,0,0,1,2.14.78c.18.11.28.2.31.31s0,.24-.07.43l-.74,1.75a.68.68,0,0,1-.25.29.72.72,0,0,1-.49-.09,13.25,13.25,0,0,0-1.47-.45,6.15,6.15,0,0,0-1.64-.19,3.24,3.24,0,0,0-1.71.42,3.31,3.31,0,0,0-1.18,1.14,5.14,5.14,0,0,0-.67,1.64,8.56,8.56,0,0,0-.2,1.92,9,9,0,0,0,.18,1.93,4.33,4.33,0,0,0,.61,1.59,3,3,0,0,0,1.15,1.06,4.05,4.05,0,0,0,1.89.38"/></g><g id="g5471"><path id="path5473" class="cls-1" d="M144.44,100.16a9,9,0,0,1-1.82,6,6.76,6.76,0,0,1-5.41,2.11,6.63,6.63,0,0,1-5.32-2,9,9,0,0,1-1.75-6,10.44,10.44,0,0,1,.53-3.46,7.12,7.12,0,0,1,1.46-2.54,6.41,6.41,0,0,1,2.27-1.58,7.56,7.56,0,0,1,2.9-.54,6.57,6.57,0,0,1,5.32,2.14,8.85,8.85,0,0,1,1.82,5.89m-3.51.09a11.57,11.57,0,0,0-.16-2,5.06,5.06,0,0,0-.57-1.67,2.93,2.93,0,0,0-1.1-1.16,3.27,3.27,0,0,0-1.74-.41,3.13,3.13,0,0,0-1.65.41,3.28,3.28,0,0,0-1.18,1.07,4.84,4.84,0,0,0-.7,1.63,9.46,9.46,0,0,0-.21,2,8,8,0,0,0,.79,3.89,3,3,0,0,0,2.84,1.39,3.12,3.12,0,0,0,2.87-1.57,5.6,5.6,0,0,0,.62-1.64,9.72,9.72,0,0,0,.19-2"/></g><g id="g5475"><path id="path5477" class="cls-2" d="M97.59,131.63a1,1,0,0,1-.57,1,11,11,0,0,1-1.4.51,15.57,15.57,0,0,1-1.57.32,14.33,14.33,0,0,1-1.58.16c-.52,0-1,.06-1.51.06a11.07,11.07,0,0,1-3.26-.41,5.43,5.43,0,0,1-2-1.07,3.45,3.45,0,0,1-1-1.58,5.69,5.69,0,0,1-.31-1.9,6.21,6.21,0,0,1,.35-2,4.27,4.27,0,0,1,1.1-1.7,6.07,6.07,0,0,1,2-1.17,8.86,8.86,0,0,1,3-.45h3.35v-.5a5,5,0,0,0-.12-1,1.91,1.91,0,0,0-.46-.82,2.37,2.37,0,0,0-.93-.55,5.13,5.13,0,0,0-1.55-.21,14.65,14.65,0,0,0-2.2.19,10.47,10.47,0,0,0-1.94.42.92.92,0,0,1-.48,0c-.09,0-.15-.16-.2-.34l-.41-1.68c-.08-.32,0-.53.26-.63a13.14,13.14,0,0,1,2.73-.67,21.66,21.66,0,0,1,2.79-.2,6.44,6.44,0,0,1,4.54,1.37,5.24,5.24,0,0,1,1.44,4ZM94.08,126H91.23a10.34,10.34,0,0,0-1.08.06,3.1,3.1,0,0,0-1.11.33,2.21,2.21,0,0,0-.85.76,2.54,2.54,0,0,0-.34,1.41,1.88,1.88,0,0,0,.86,1.77,4.46,4.46,0,0,0,2.29.53l.58,0a5.5,5.5,0,0,0,.78-.07l.88-.14a4.62,4.62,0,0,0,.84-.25Z"/></g><g id="g5479"><path id="path5481" class="cls-2" d="M119.79,131.63a1,1,0,0,1-.58,1,11.4,11.4,0,0,1-1.39.51c-.52.13-1,.24-1.56.32a15.38,15.38,0,0,1-1.61.16c-.53,0-1,.06-1.5.06a11.09,11.09,0,0,1-3.25-.41,5.4,5.4,0,0,1-2.06-1.07,3.64,3.64,0,0,1-1-1.58,6,6,0,0,1,.06-3.92A4.27,4.27,0,0,1,108,125a5.92,5.92,0,0,1,2-1.17,9,9,0,0,1,3-.45h3.34v-.5a3.93,3.93,0,0,0-.12-1,1.8,1.8,0,0,0-.45-.82,2.32,2.32,0,0,0-1-.55,4.92,4.92,0,0,0-1.54-.21,14.87,14.87,0,0,0-2.2.19,10.72,10.72,0,0,0-1.93.42.88.88,0,0,1-.47,0c-.1,0-.17-.16-.23-.34l-.4-1.68a.46.46,0,0,1,.26-.63,13.24,13.24,0,0,1,2.74-.67,21.83,21.83,0,0,1,2.81-.2,6.4,6.4,0,0,1,4.52,1.37,5.21,5.21,0,0,1,1.45,4ZM116.28,126h-2.86a9.87,9.87,0,0,0-1.07.06,3,3,0,0,0-1.11.33,2.17,2.17,0,0,0-.86.76,2.46,2.46,0,0,0-.34,1.41,1.88,1.88,0,0,0,.85,1.77,4.47,4.47,0,0,0,2.3.53l.57,0a6,6,0,0,0,.8-.07l.87-.14a4.73,4.73,0,0,0,.85-.25Z"/></g><g id="g5483"><path id="path5485" class="cls-2" d="M144,117.34a6.75,6.75,0,0,1,5.08,1.76,6.84,6.84,0,0,1,1.63,4.82,4.22,4.22,0,0,1-.17,1.28,2.38,2.38,0,0,1-.51.81,1.63,1.63,0,0,1-.76.39,3.15,3.15,0,0,1-.94.12h-7.9a5.26,5.26,0,0,0,.35,2,3.58,3.58,0,0,0,.89,1.27,3.35,3.35,0,0,0,1.3.7,6.07,6.07,0,0,0,1.63.2,7.42,7.42,0,0,0,1.87-.23,8.53,8.53,0,0,0,1.6-.56c.3-.13.53-.09.65.17l.82,1.69c.12.33.06.55-.22.69a7.78,7.78,0,0,1-2.47,1,13.81,13.81,0,0,1-2.56.28,7.28,7.28,0,0,1-5.49-2c-1.28-1.28-1.91-3.32-1.91-6.12a10.45,10.45,0,0,1,.53-3.49,7.67,7.67,0,0,1,1.46-2.58,6.2,6.2,0,0,1,2.25-1.6,7.14,7.14,0,0,1,2.87-.57m.05,2.88a3.09,3.09,0,0,0-1.42.32,3.34,3.34,0,0,0-1.08.85,4.73,4.73,0,0,0-.7,1.22,3.8,3.8,0,0,0-.3,1.42h6.83a5.93,5.93,0,0,0-.15-1.49,3.11,3.11,0,0,0-.52-1.19,2.74,2.74,0,0,0-1-.83,4.07,4.07,0,0,0-1.66-.3"/></g><g id="g5487"><path id="path5489" class="cls-2" d="M179.81,131.63a1,1,0,0,1-.57,1,9.66,9.66,0,0,1-1.41.51,15.38,15.38,0,0,1-1.56.32,14.51,14.51,0,0,1-1.59.16q-.78.06-1.5.06a11.12,11.12,0,0,1-3.26-.41,5.64,5.64,0,0,1-2.06-1.07,3.62,3.62,0,0,1-1-1.58,5.69,5.69,0,0,1-.31-1.9,5.52,5.52,0,0,1,.36-2A4.09,4.09,0,0,1,168,125a5.6,5.6,0,0,1,2-1.17,8.9,8.9,0,0,1,3-.45h3.34v-.5a4.38,4.38,0,0,0-.12-1,1.93,1.93,0,0,0-.47-.82,2.28,2.28,0,0,0-.94-.55,5,5,0,0,0-1.54-.21,15.24,15.24,0,0,0-2.22.19,11,11,0,0,0-1.92.42.92.92,0,0,1-.48,0c-.1,0-.17-.16-.2-.34l-.42-1.68c-.08-.32,0-.53.28-.63a12.89,12.89,0,0,1,2.72-.67,21.91,21.91,0,0,1,2.79-.2,6.43,6.43,0,0,1,4.55,1.37,5.28,5.28,0,0,1,1.44,4ZM176.3,126h-2.85a10.52,10.52,0,0,0-1.09.06,3.16,3.16,0,0,0-1.11.33,2.31,2.31,0,0,0-.86.76,2.72,2.72,0,0,0-.34,1.41,1.9,1.9,0,0,0,.86,1.77,4.5,4.5,0,0,0,2.3.53l.58,0a5.38,5.38,0,0,0,.78-.07l.88-.14a5,5,0,0,0,.85-.25Z"/></g><g id="g5491"><path id="path5493" class="cls-2" d="M84.91,112.64c-.07-.13-.24-.15-.52-.15H76a6.14,6.14,0,0,0-2.53.43,4.51,4.51,0,0,0-1.63,1.18,4.25,4.25,0,0,0-.87,1.72,7.8,7.8,0,0,0-.26,2v14.86a.6.6,0,0,0,.18.5.84.84,0,0,0,.51.13h.95a2,2,0,0,0,2-2.31v-6.85h8.93c.27,0,.42-.06.49-.19a1,1,0,0,0,.11-.5v-1.69a.94.94,0,0,0-.11-.55.64.64,0,0,0-.49-.14H74.36v-3.47a2.06,2.06,0,0,1,.47-1.45,2.15,2.15,0,0,1,1.6-.49h8c.26,0,.43,0,.5-.15A.73.73,0,0,0,85,115v-1.84a.85.85,0,0,0-.12-.51"/></g><g id="g5495"><path id="path5497" class="cls-2" d="M135.31,122.16a7.42,7.42,0,0,0-1.22-2.56,5.48,5.48,0,0,0-2.12-1.66,7.18,7.18,0,0,0-3.07-.6,14.57,14.57,0,0,0-1.84.14,13.13,13.13,0,0,0-1.89.4l0-5.76c0-.25,0-.39-.11-.45a.75.75,0,0,0-.45-.08h-.93a2,2,0,0,0-2,2.22v18.05a1.19,1.19,0,0,0,.09.44.75.75,0,0,0,.35.25,10.32,10.32,0,0,0,2.94.84,19.67,19.67,0,0,0,3.11.26,8.63,8.63,0,0,0,3.4-.63,6.41,6.41,0,0,0,2.34-1.74,7,7,0,0,0,1.35-2.64,13.17,13.17,0,0,0,0-6.48m-3.47,5.73a4.36,4.36,0,0,1-.83,1.61,3,3,0,0,1-1.3.91,4.61,4.61,0,0,1-1.69.28c-.4,0-.87,0-1.38-.06a7.94,7.94,0,0,1-1.49-.32V120.8a8.5,8.5,0,0,1,1.82-.39,11.52,11.52,0,0,1,1.36-.09,3.44,3.44,0,0,1,2.8,1.27,6.31,6.31,0,0,1,1,3.9,8.24,8.24,0,0,1-.29,2.4"/></g><g id="g5499"><path id="path5501" class="cls-2" d="M158.4,132.6l-.21-1.67c0-.16-.06-.26-.13-.3s-.18-.07-.35,0l-.5.06c-.22,0-.41,0-.57,0a1,1,0,0,1-.8-.27,1.93,1.93,0,0,1-.19-1.06V112.09c0-.23-.06-.36-.15-.42a.79.79,0,0,0-.46-.08h-1a2,2,0,0,0-2,2.14v16.43a3.78,3.78,0,0,0,.78,2.7,3.36,3.36,0,0,0,2.46.79c.39,0,.84-.05,1.35-.08a5.5,5.5,0,0,0,1.34-.31,1,1,0,0,0,.36-.26.65.65,0,0,0,0-.4"/></g><g id="g5503"><path id="path5505" class="cls-2" d="M166,132.6l-.21-1.67c0-.16-.06-.26-.13-.3a.43.43,0,0,0-.34,0l-.53.06a5.34,5.34,0,0,1-.54,0,1,1,0,0,1-.8-.27,1.82,1.82,0,0,1-.2-1.06V112.09c0-.23-.05-.36-.15-.42a.75.75,0,0,0-.46-.08h-.94a2,2,0,0,0-2,2.26v16.31a3.69,3.69,0,0,0,.79,2.7,3.25,3.25,0,0,0,2.43.79c.4,0,.84-.05,1.36-.08a5.94,5.94,0,0,0,1.35-.31A1,1,0,0,0,166,133a.65.65,0,0,0,0-.4"/></g><g id="g5507"><path id="path5509" class="cls-2" d="M106.06,132.6l-.22-1.67a.38.38,0,0,0-.12-.3.48.48,0,0,0-.36,0l-.51.06c-.22,0-.38,0-.56,0a1,1,0,0,1-.79-.27,1.79,1.79,0,0,1-.22-1.06V112.09c0-.23,0-.36-.13-.42a.77.77,0,0,0-.45-.08h-1a2,2,0,0,0-2,2.29v16.28a3.74,3.74,0,0,0,.78,2.7,3.32,3.32,0,0,0,2.45.79c.38,0,.84-.05,1.35-.08a5.82,5.82,0,0,0,1.35-.31,1.27,1.27,0,0,0,.36-.26.86.86,0,0,0,0-.4"/></g><g id="g5511"><path id="path5513" class="cls-3" d="M55.81,105.75a15.18,15.18,0,0,0-5-2h0a12.92,12.92,0,0,0-1.39-.2.5.5,0,0,0-.17,0c-.47,0-.94-.08-1.41-.08a52,52,0,0,0-12,2c.89.83,5,5.38,9.9,5.38a11.4,11.4,0,0,0,10.07-5.12"/></g><g id="g5515"><path id="path5517" class="cls-4" d="M55.81,105.75a11.43,11.43,0,0,1-15.37,3.4l0,0h0a31,31,0,0,1-4.57-3.63c-9.63,2.59-20.42,7.46-20.42,13,0,8.34,24.08,15.07,32.39,15.07a15.06,15.06,0,0,0,8-27.82"/></g><g id="g5519"><path id="path5521" class="cls-5" d="M47.87,103.47h0a12.81,12.81,0,0,1,1.39.08.5.5,0,0,1,.17,0,12.06,12.06,0,0,1,1.38.2h0a15.73,15.73,0,0,1,5,2l.32-.47A11.46,11.46,0,0,0,52.3,89.53c-5.41-3.29-23.75-8.4-27-3-2.54,4.18,4.68,13.47,10.58,19a52.24,52.24,0,0,1,12-2h.06"/></g></svg>