<svg id="Layer_1" data-name="Layer 1" xmlns="http://www.w3.org/2000/svg" viewBox="0 0 215.25 212.24"><defs><style>.cls-1{fill:#ef2921;}.cls-2{fill:#fff;}</style></defs><title>logosArtboard 12 copy 60</title><path class="cls-1" d="M148.71,153.9a1.88,1.88,0,0,1-1.89,1.89H66.9A1.88,1.88,0,0,1,65,153.9v-99A1.89,1.89,0,0,1,66.9,53h79.92a1.89,1.89,0,0,1,1.89,1.89v99"/><path class="cls-2" d="M121.36,107c-.48-.49-8.16-8.53-8.16-8.53h-8l11.91,12a18.5,18.5,0,0,1-10.21,3.31,19.61,19.61,0,1,1,19.42-19.61A18.24,18.24,0,0,1,121.36,107Zm4.17,4.32a24.27,24.27,0,0,0,6.84-17,25.72,25.72,0,1,0-11,20.44l3.93,4.25h7.79l-7.57-7.7M82.82,139.15V125.51H92v1.61H84.63v4.21H91v1.61H84.63v6.21H82.82m13.39-7.63h3.88a5.53,5.53,0,0,0,1.93-.26,2.07,2.07,0,0,0,1.06-.81,2.23,2.23,0,0,0,.36-1.22,2,2,0,0,0-.7-1.59,3.26,3.26,0,0,0-2.21-.62H96.21Zm-1.8,7.63V125.51h6a7.88,7.88,0,0,1,2.77.37,3,3,0,0,1,1.52,1.29,3.87,3.87,0,0,1,.57,2.06,3.47,3.47,0,0,1-.94,2.45,4.8,4.8,0,0,1-2.9,1.26,4.72,4.72,0,0,1,1.08.68,9.34,9.34,0,0,1,1.5,1.82l2.35,3.71h-2.25l-1.8-2.84c-.53-.82-1-1.44-1.3-1.88a4.07,4.07,0,0,0-.92-.91,2.81,2.81,0,0,0-.82-.36,4.87,4.87,0,0,0-1-.07H96.21v6.06h-1.8m13.79,0V125.51H118v1.61h-8v4.17h7.52v1.61H110v4.63h8.35v1.62H108.2m12.69,0V125.51h9.84v1.61h-8v4.17h7.52v1.61H122.7v4.63h8.35v1.62H120.89"/></svg>