<?xml version="1.0" encoding="utf-8"?>
<!-- Generator: Adobe Illustrator 28.3.0, SVG Export Plug-In . SVG Version: 6.00 Build 0)  -->
<svg version="1.1" id="Layer_1" xmlns="http://www.w3.org/2000/svg" xmlns:xlink="http://www.w3.org/1999/xlink" x="0px" y="0px"
	 viewBox="0 0 215.2 212.2" style="enable-background:new 0 0 215.2 212.2;" xml:space="preserve">
<style type="text/css">
	.st0{fill:#EE811E;}
	.st1{fill:#FFFFFF;}
	.st2{fill:#778286;}
</style>
<path class="st0" d="M141.4,92.9c0-18.3-14.9-33.2-33.2-33.2c0,0,0,0,0,0v33.2H75c0,18.3,14.9,33.2,33.2,33.2c0,0,0,0,0,0V92.9
	H141.4z"/>
<path class="st0" d="M110.1,126c16.8-1,30.3-14.4,31.2-31.3C124.4,98,113.3,109.1,110.1,126"/>
<path class="st0" d="M106.3,59.7C89.5,60.7,76,74.1,75.1,91C92.1,87.8,103.2,76.7,106.3,59.7"/>
<path class="st1" d="M108.2,59.7c-0.6,0-1.3,0-1.9,0.1C103.1,76.7,92,87.8,75.1,91c0,0.6-0.1,1.3-0.1,1.9h33.2L108.2,59.7z"/>
<path class="st1" d="M108.2,92.9v33.2c0.6,0,1.3,0,1.9-0.1c3.2-17,14.3-28.1,31.2-31.3c0-0.6,0.1-1.3,0.1-1.9H108.2z"/>
<path class="st2" d="M61.3,140.7h-3.1v-5.3h-2.8v13.3h2.8v-5.9h3.1v5.9h2.8v-13.3h-2.8V140.7z M73.2,146.9v-7.4h-2.6v6.4
	c0,0.8-0.2,1.4-0.9,1.4c-0.6,0-0.9-0.2-0.9-1.4v-6.4h-2.6v7.4c0,0.6,0.2,1.1,0.7,1.5c0.5,0.4,1,0.5,1.6,0.5c0.4,0,0.9-0.1,1.3-0.3
	c0.4-0.2,0.7-0.5,0.9-0.8v0.9h2.7v0C73.3,148,73.3,147.4,73.2,146.9 M79.9,139.2c-0.4,0-0.9,0.1-1.3,0.3c-0.4,0.2-0.7,0.4-0.9,0.8
	v-0.9H75v9.3h2.6v-6.4c0-0.9,0.2-1.4,0.9-1.4c0.8,0,0.9,0.6,0.9,1.4v6.4h2.6v-7.4c0-0.6-0.2-1.1-0.7-1.5
	C81,139.4,80.5,139.2,79.9,139.2 M86.9,136.8l-2.6,1.2l0,0v1.5h-1v1.7h1v5.7c0,0.3,0.1,2.1,2.6,2.1c0.4,0,0.8,0,1.2-0.1h0.2l0,0
	v-1.7h0c-0.1,0-0.3,0-0.4,0c-0.4,0-0.6-0.1-0.7-0.3c-0.1-0.3-0.1-0.5-0.1-0.8v-4.9h1.3v-1.7h-1.3V136.8z M92.8,139.2
	c-3.5,0-3.8,2.3-3.8,4.8c-0.1,1.2,0.1,2.4,0.6,3.6c0.6,1,1.6,1.4,3.2,1.4c1,0.1,2-0.3,2.7-0.9c0.7-0.6,1-1.5,1-2.4l0,0h-2.7l0,0
	c0,1.1-0.4,1.6-1.1,1.6c-1.1,0-1.1-1.7-1.1-2.7h4.9l0,0c0.1-1.7,0-3.3-1-4.3C94.9,139.5,93.9,139.2,92.8,139.2 M94,143h-2.3
	c0-0.5,0-0.9,0.2-1.4c0.1-0.5,0.5-0.8,1-0.8c0.3,0,0.6,0.1,0.8,0.3C94,141.7,94.1,142.4,94,143L94,143L94,143z M100.6,140.6v-1.2
	h-2.5v9.3h2.6v-5.1c0-0.5,0.1-0.9,0.3-1.4c0.4-0.5,1-0.8,1.7-0.7h0.3l0,0v-2.4l0,0C102.1,139.1,101.1,139.7,100.6,140.6 M113.4,142
	c0-4.2-0.7-6.6-4.3-6.6h-4.6v13.3h4.5c1.1,0.1,2.3-0.3,3.1-1.1c1.4-1.4,1.4-3.8,1.3-5.3V142 M108.5,146.6h-1.3v-9.1h1.4
	c1.9,0,1.9,2.1,1.9,4.5C110.5,145.3,110.2,146.6,108.5,146.6 M118.3,139.2c-3.5,0-3.8,2.3-3.8,4.7c-0.1,1.2,0.1,2.4,0.6,3.6
	c0.6,1,1.6,1.4,3.2,1.4s2.6-0.4,3.2-1.4c0.5-1.1,0.7-2.3,0.6-3.6C122.1,141.6,121.9,139.2,118.3,139.2 M118.3,147.2
	c-0.9,0-1.2-0.6-1.2-3.4c0-2,0.1-2.9,1.2-2.9s1.2,0.9,1.2,2.9C119.5,146.5,119.3,147.2,118.3,147.2 M130.8,146.8v-7.4h-2.6v6.4
	c0,0.8-0.2,1.4-0.9,1.4c-0.6,0-0.9-0.2-0.9-1.4v-6.4h-2.6v7.4c0,0.6,0.2,1.1,0.7,1.5c0.5,0.4,1,0.5,1.6,0.5c0.4,0,0.9-0.1,1.3-0.3
	c0.4-0.2,0.7-0.5,0.9-0.8v0.9h2.7v0C130.8,148,130.8,147.4,130.8,146.8 M137.2,140.4c-0.4-0.8-1.2-1.3-2.1-1.2
	c-2.8,0-2.8,2.7-2.8,4.6v0.3c0,1.4,0,2.9,0.8,3.8c0.5,0.5,1.2,0.7,1.9,0.7c0.8,0,1.6-0.4,2-1.1v1.8c0,1-0.3,1.5-0.9,1.5
	c-0.3,0-0.6-0.1-0.8-0.4c-0.2-0.3-0.2-0.6-0.2-0.9l0,0h-2.6l0,0c-0.1,0.9,0.4,1.8,1.1,2.2c0.8,0.4,1.7,0.6,2.5,0.5
	c1.5,0,2.5-0.5,3.1-1.3c0.3-0.6,0.5-1.2,0.4-1.8v-9.7h-2.5L137.2,140.4L137.2,140.4z M136,146.9c-0.2,0-0.5-0.1-0.7-0.3
	c-0.5-0.5-0.4-1.5-0.4-2.1v-0.2c0-2.9,0.2-3.5,1.1-3.5c0.9,0,1,1.2,1,3.2S136.9,146.9,136,146.9 M152.8,148.4
	c-0.1-0.5-0.1-0.9-0.1-1.4v-4.6c0-1.5-0.3-3.1-3.7-3.1c-0.9-0.1-1.7,0.1-2.4,0.6c-0.7,0.5-1.1,1.4-1,2.3l0,0h2.6l0,0
	c0-0.7,0.1-1.4,0.9-1.4s1,0.6,1,1.3v0.7h-0.5c-2.1,0-4.3,0.2-4.3,3.2c0,2.6,1.6,3,2.5,3c1,0,2-0.5,2.4-1.4l0.1,1.2h2.5v0
	C152.9,148.6,152.9,148.5,152.8,148.4 M149.7,146.9c-0.2,0.2-0.5,0.3-0.8,0.3c-0.4,0-0.9-0.2-0.9-1.4c0-1.5,0.8-1.5,1.9-1.6h0.3v0.3
	C150.1,145.4,150.2,146.4,149.7,146.9 M158.3,143c-0.9-0.4-1.7-0.7-1.7-1.3c0-0.6,0.3-1,0.8-1c0.2,0,0.5,0,0.6,0.2
	c0.2,0.2,0.2,0.5,0.2,1.2l0,0h2.6l0,0c0.1-0.7-0.1-1.4-0.6-1.9c-0.7-0.7-1.7-1-2.6-0.9c-0.9,0-1.7,0.2-2.5,0.6
	c-0.8,0.4-1.2,1.2-1.2,2.1c0,1.6,1.4,2.2,2.6,2.8c1,0.4,1.9,0.8,1.9,1.7c0,0.5-0.3,0.9-0.8,0.9c0,0-0.1,0-0.1,0
	c-0.5,0-0.8-0.1-0.9-0.4c-0.1-0.4-0.2-0.7-0.1-1.1l0,0h-2.6l0,0c-0.1,0.8,0.1,1.7,0.6,2.3c0.6,0.6,1.5,0.9,3,0.9
	c2.1,0,3.5-1.2,3.5-2.8S159.6,143.6,158.3,143 M141.4,148.7h2.6v-13.3h-2.6V148.7z"/>
</svg>
