<?xml version="1.0" encoding="utf-8"?>
<!-- Generator: Adobe Illustrator 28.3.0, SVG Export Plug-In . SVG Version: 6.00 Build 0)  -->
<svg version="1.1" id="Layer_1" xmlns="http://www.w3.org/2000/svg" xmlns:xlink="http://www.w3.org/1999/xlink" x="0px" y="0px"
	 viewBox="0 0 215.2 212.2" style="enable-background:new 0 0 215.2 212.2;" xml:space="preserve">
<style type="text/css">
	.st0{fill:#2C2A66;}
	.st1{fill:#EE8604;}
</style>
<path class="st0" d="M140.7,121.8v5.1c-0.7,0.3-1.4,0.5-2.2,0.5c-2,0.3-4.1,0.3-6.1,0.2c-1.5-0.1-3-0.5-4.3-1.4
	c-1.5-1-2.6-2.6-2.9-4.4c-0.1-0.7-0.2-1.4-0.2-2.2c0-3.8,0-7.6,0-11.4v-0.9l-1.3,0h-1.2l-0.4,0.7c-0.9-0.3-1.7-0.6-2.6-0.8
	c-3.3-0.7-6.5,1.5-7.1,4.7c0,0,0,0.1,0,0.1c-0.1,0.6-0.2,1.3-0.1,1.9c0,4.1,0,8.2,0,12.3v0.8h-6.5c-0.2-0.6-0.2-21.8-0.1-24.3
	c2.2-0.1,4.4-0.1,6.6,0v2.1c0.1,0,0.2-0.1,0.3-0.2c1.6-1.4,3.7-2.3,5.9-2.4c1.7-0.1,3.4,0,5,0.3c0.5,0.1,1.1,0.1,1.7,0.1
	c0.1-0.5,0.1-1.1,0.1-1.7c0-0.5,0-1,0-1.6v-1.8l3.7-1.2c0.1-0.6,0.2-8,0-9.1h-1.4v-2.3h4.5c0,2.9,0,5.8,0,8.7s-0.1,5.8-0.2,8.8h7.8
	v4.6h-7.8c0,0.3-0.1,0.4-0.1,0.6c0,3.4,0,6.7,0,10.1c0,0.8,0.1,1.6,0.3,2.3c0.2,1.2,1.2,2.1,2.4,2.3c1.9,0.3,3.8,0.1,5.5-0.6
	L140.7,121.8L140.7,121.8z"/>
<path class="st0" d="M87.9,102.6V85.3h2.9l0.1,0.6c0.1,0,0.1,0,0.2,0c1-0.8,2.2-1.1,3.5-0.8c0.9,0.1,1.8,0.4,2.6,0.8
	c1,0.7,1.8,1.7,2.1,2.9c0.5,1.6,0.5,3.4,0.1,5c-0.5,2-2,3.5-4,3.9c-1.4,0.4-2.9,0.3-4.2-0.3c-0.1,1.6-0.1,3.2,0,4.8
	c0.8,0.1,1.6,0.1,2.4,0.2c2.4,0.1,4.8,0.9,6.8,2.3c2.2,1.5,3.7,3.7,4.3,6.3c0.8,2.9,0.7,5.9-0.3,8.7c-1.2,3.3-3.8,5.9-7.2,7
	c-1.5,0.5-3.1,0.8-4.7,0.8c-2,0.1-3.9-0.1-5.8-0.5c-3.3-0.7-6.1-2.9-7.6-5.9c-0.6-1.1-1-2.3-1.2-3.6c-0.2-1.4-0.3-2.8-0.1-4.2
	c0.2-2.4,1.1-4.6,2.6-6.4c1.8-2.2,4.4-3.7,7.2-4.2c0.1,0,0.2-0.1,0.3-0.1L87.9,102.6z M89.3,113.7v6.2c0,0.7,0,1.5,0,2.3
	c0.1,1.1,0.9,2,2,2.2c1.2,0.2,2.3-0.6,2.6-1.7c0.1-0.4,0.1-0.8,0.1-1.2c0-2.2,0-4.4,0-6.7v-0.9c0.3,0.3,0.5,0.5,0.7,0.7
	c0.2,0.2,0.5,0.5,0.8,0.7c0.9,0.7,2.3,0.6,3.1-0.3c0.8-0.9,0.8-2.3-0.1-3.1c0,0,0,0,0,0c-1.4-1.5-2.9-2.9-4.3-4.4
	c-0.3-0.3-0.6-0.6-0.9-0.9c-0.9-0.9-2.3-0.9-3.2-0.1c-1.8,1.8-3.6,3.6-5.4,5.4c-0.5,0.5-0.8,1.2-0.7,1.9c0.1,0.9,0.7,1.7,1.6,2
	c0.8,0.3,1.8,0.1,2.3-0.6C88.3,114.7,88.7,114.3,89.3,113.7z M90.9,88.3v6.7c0.9,0.6,2.1,0.8,3.1,0.4c1.2-0.2,2.1-1.1,2.2-2.3
	c0.2-1,0.2-2,0.1-3c-0.1-1.2-0.9-2.1-2.1-2.4c-0.3-0.1-0.6-0.1-0.8-0.1C92.5,87.3,91.5,87.6,90.9,88.3z"/>
<path class="st0" d="M140.7,121.8c-0.1-0.4-0.3-0.8-0.4-1.1c-0.6-1.4-0.9-2.9-1-4.5c-0.1-1.6,0.1-3.3,0.5-4.9
	c0.8-2.3,2.2-4.4,4.2-5.8c1.8-1.4,3.9-2.4,6.1-2.8c1.6-0.3,3.3-0.4,4.9-0.3c1.6,0.1,3.3,0.4,4.8,1c2.9,1,5.3,3.2,6.6,6
	c0.9,1.8,1.1,3.9,0.6,5.9c-0.1,0.5-0.2,1-0.3,1.4h-20.4c-0.2,0.3,0,0.5,0,0.8c0.4,2.4,1.9,3.9,4,4.7c1.2,0.4,2.4,0.7,3.7,0.7
	c1.8,0.1,3.5-0.2,5.2-0.8c0.7-0.3,1.4-0.7,2.2-1.1l2.5,4.2c-0.2,0.1-0.3,0.3-0.5,0.4c-1.5,0.9-3.2,1.4-5,1.7
	c-1.6,0.3-3.3,0.4-4.9,0.4c-2.6,0.1-5.1-0.4-7.5-1.4c-2-0.9-3.8-2.4-5-4.2C140.9,122,140.8,121.9,140.7,121.8L140.7,121.8z
	 M160.5,112.5c-0.1-0.3-0.1-0.6-0.2-0.9c-0.4-2-1.9-3.5-3.8-4.1c-1.3-0.3-2.6-0.4-3.9-0.3c-2.6,0.1-4.9,1.8-5.8,4.2
	c-0.2,0.3-0.3,0.7-0.3,1H160.5z"/>
<path class="st0" d="M58.5,109.5v17.5c-2.2,0.2-4.5,0.2-6.7,0.1v-24.3h4.8l1.2,2.2c0.3-0.3,0.6-0.5,0.8-0.7c1.6-1.1,3.4-1.8,5.4-1.9
	c0.7-0.1,1.4-0.1,2.2-0.1c1.8,0,3.5,0.4,5.2,1.1c2.7,1.1,4.7,3.5,5.2,6.4c0.2,0.9,0.3,1.9,0.3,2.8c0,4.6,0,9.1,0,13.7v0.8
	c-0.5,0.2-5,0.3-6.7,0.1v-0.8c0-4.5,0-9.1,0-13.6c0-0.8-0.1-1.6-0.3-2.3c-0.4-1.6-1.7-2.7-3.3-3c-2.3-0.6-4.7-0.2-6.6,1.1
	C59.4,108.8,58.9,109.2,58.5,109.5z"/>
<path class="st0" d="M71.9,85.3c0.9,0.4,1.7,1,2.4,1.7c1.1,1.3,1.5,3,1.2,4.6c0,0.3-0.1,0.5-0.2,0.8c0,0,0,0-0.1,0.1h-8.7
	c-0.1,0.6,0,1.2,0.4,1.7c0.5,0.8,1.3,1.3,2.3,1.4c1.3,0.2,2.7-0.1,3.8-0.9l1.1,2.2c-0.5,0.5-1.2,0.8-1.9,1c-1.6,0.5-3.4,0.5-5,0
	c-1.7-0.5-3.1-1.9-3.5-3.7c-0.5-1.5-0.5-3.1,0-4.5c0.6-2.2,2.5-3.9,4.8-4.3c1-0.1,1.9-0.1,2.9,0.1L71.9,85.3z M66.7,90.1h5.9
	c0-1.5-1.2-2.7-2.6-2.7c-0.1,0-0.1,0-0.2,0C68.2,87.3,66.8,88.5,66.7,90.1z"/>
<path class="st0" d="M140.5,98c-1.1,0.1-2.3-0.2-3.2-0.8c-1.4-0.9-2.3-2.4-2.6-4c-0.2-1.2-0.2-2.5,0.1-3.7c0.5-2.3,2.5-4.1,4.8-4.4
	c0.9-0.1,1.9,0,2.8,0.2c1.8,0.4,3.2,1.8,3.7,3.6c0.5,1.7,0.5,3.6,0,5.3c-0.3,1-0.8,1.8-1.6,2.5C143.3,97.6,141.9,98,140.5,98z
	 M137.6,91.5c0,0.8,0.1,1.6,0.3,2.3c0.2,0.5,0.4,0.9,0.8,1.2c1.2,0.9,2.9,0.8,3.8-0.4c0.2-0.2,0.3-0.5,0.4-0.8
	c0.6-1.6,0.6-3.3,0-4.9c-0.2-0.6-0.7-1.1-1.3-1.3c-1.4-0.6-3-0.1-3.7,1.3c0,0,0,0.1,0,0.1C137.7,89.8,137.5,90.7,137.6,91.5
	L137.6,91.5z"/>
<path class="st0" d="M112.9,85.3v12.5c-0.5,0-1,0-1.4,0c-0.5,0-0.9,0-1.4,0l0-0.9c-0.6,0.3-1.1,0.6-1.7,0.8
	c-1.1,0.4-2.3,0.5-3.5,0.2c-1.3-0.3-2.3-1.3-2.6-2.6c-0.1-0.4-0.2-0.9-0.2-1.3c0-2.8,0-5.6,0-8.5c0-0.1,0-0.1,0.1-0.2h2.9v7.8
	c0,0.5,0,1,0.2,1.4c0.3,0.6,0.8,0.9,1.4,1c1.4,0.2,2.8-0.5,3.4-1.7v-8.4H112.9z"/>
<path class="st0" d="M77.1,96.9l1-2.3c1,0.8,2.3,1.2,3.6,1c0.4,0,0.7-0.3,0.9-0.7c0.1-0.3,0.1-0.7,0-1c-0.2-0.5-0.7-0.9-1.2-1.1
	c-0.7-0.4-1.5-0.7-2.2-1.1c-0.4-0.2-0.8-0.5-1.1-0.8c-1.3-1.2-1.5-3.2-0.3-4.6c0.4-0.5,0.9-0.8,1.5-1c1.9-0.6,4-0.4,5.7,0.6
	l-0.8,2.2c-0.8-0.5-1.7-0.7-2.7-0.7c-0.8,0.1-2,0.4-1.4,1.6c0.3,0.5,0.8,0.8,1.3,1c0.4,0.2,0.9,0.4,1.4,0.6c1,0.4,1.8,1,2.4,1.9
	c1,1.7,0.5,3.9-1.1,4.9c-0.1,0-0.1,0.1-0.2,0.1c-0.5,0.3-1.1,0.5-1.8,0.6c-1.1,0.2-2.1,0.1-3.2-0.1C78.4,97.6,77.7,97.3,77.1,96.9z"
	/>
<path class="st0" d="M124.5,88.4c-0.8-0.7-1.9-1-3-0.9c-1.1,0-2.2,0.7-2.7,1.7c-0.7,1.4-0.8,3.1-0.2,4.5c0.4,1,1.4,1.7,2.5,1.8
	c1.3,0.3,2.7-0.1,3.7-1l1.1,2.3c-0.8,0.6-1.7,1-2.8,1.2c-1.2,0.2-2.4,0.2-3.6-0.1c-2.3-0.5-3.9-2.4-4.2-4.7c-0.3-1.5-0.1-3,0.5-4.4
	c0.6-1.4,1.7-2.5,3.2-3.1c1.6-0.7,3.3-0.8,5-0.3c0.7,0.2,1.3,0.5,1.8,1c-0.2,0.3-0.4,0.7-0.6,1.1C125,87.6,124.8,88,124.5,88.4z"/>
<path class="st0" d="M56.9,98h-1.1l-5.6-12.7c1.1,0,2.2,0,3.2,0l2.9,7.6l3.2-7.6h3.1L56.9,98z"/>
<path class="st1" d="M71.9,85.3l-0.5-0.1v-7.1l1.3,0.1l0,0c0.5-0.1,0.9-0.1,1.4-0.1c0.8,0,1.6,0.5,1.9,1.3c0.2,0.6,0.3,1.3,0.2,2
	c-0.2,1.3-1.4,2.2-2.7,2c-0.1,0-0.2,0-0.3-0.1l-0.4-0.1v2L71.9,85.3z M72.6,79.3v2.8c0.5,0.3,1.2,0.3,1.7-0.1
	c0.7-1.1,0.7-2.2-0.3-2.9C73.2,79.1,73.2,79.1,72.6,79.3L72.6,79.3z"/>
<path class="st1" d="M92.2,83c-0.6,0.5-0.8,0.5-1.4-0.2c-0.5,0.5-1.3,0.7-2,0.5c-0.9-0.3-1.3-1.2-1.1-2c0.1-0.2,0.2-0.4,0.3-0.6
	c0.5-0.6,1.2-0.9,2-0.9c0.2,0,0.4,0,0.5,0c0.1-0.4-0.2-0.5-0.4-0.7l-1.7,0.1l-0.2-0.8c0.7-0.3,1.5-0.4,2.3-0.2
	c0.7,0.1,1.3,0.7,1.3,1.4c0.1,0.5,0.1,1,0.1,1.6C91.8,81.7,91.9,82.4,92.2,83z M90.6,80.8c-0.3-0.2-0.7-0.2-1,0
	c-0.8,0.3-1,0.6-0.6,1.4l0.6,0.2C90.6,82.1,90.7,81.9,90.6,80.8L90.6,80.8z"/>
<path class="st1" d="M55.7,83.1l-0.9,0.3c-0.3-0.1-0.5-0.3-0.6-0.5c-1.5,0.8-2.4,0.6-3.1-0.6c-0.4-1.7,1-2.6,2.9-2.4
	c0-0.4,0-0.4-0.3-0.7c-0.3,0-0.6,0-0.9,0c-0.3,0-0.6,0-1,0.1l-0.1-0.8c0.1-0.1,0.3-0.2,0.4-0.2c0.6-0.1,1.2-0.1,1.9,0
	c0.9,0.1,1.3,0.8,1.4,1.9c0,0.4,0,0.9,0,1.3C55.2,82,55.3,82.6,55.7,83.1z M54,80.8c-0.6-0.2-1.3,0-1.7,0.4c-0.2,0.3-0.2,0.6,0,0.8
	c0.4,0.3,0.9,0.3,1.3,0.2c0.2-0.1,0.4-0.2,0.4-0.5V80.8z"/>
<path class="st1" d="M68.1,78c1.2-0.1,2.2,0.8,2.4,2c0.2,0.9-0.1,1.9-0.7,2.7c-0.7,0.7-1.7,0.9-2.6,0.5c-0.8-0.3-1.3-1-1.4-1.8
	c-0.1-0.6-0.1-1.1,0.1-1.7C66.1,78.7,67.1,78,68.1,78z M67.6,82.3H68c0.8,0,1-0.2,1.2-1c0.1-0.4,0.1-0.9,0-1.3c0-0.6-0.6-1.1-1.2-1
	s-1.1,0.6-1,1.2c0,0.3,0,0.7,0,1C67,81.6,67.2,82,67.6,82.3z"/>
<path class="st1" d="M57.7,81.9l0.4,0.4c0.6,0.2,1.2-0.1,1.6-0.6v-3.5h1.2v5c-0.5,0.2-1,0.1-1.4-0.1c-0.3,0.1-0.5,0.2-0.8,0.3
	c-0.8,0.3-1.8-0.2-2.1-1c-0.1-0.2-0.1-0.4-0.1-0.6c0-1.2,0-2.3,0-3.5h1.2C57.8,79.4,57.7,80.6,57.7,81.9z"/>
<path class="st1" d="M85.9,82.3l1.2-0.1v1c-0.4,0.1-0.7,0.1-1.1,0.1c-1.1,0-1.6-0.6-1.7-1.7c0-0.8,0-1.6,0-2.4L83.7,79l-0.1-0.8
	l0.6-0.3v-0.8l1.2-0.5v1.4h1.4v1h-1.3C85.3,80.2,85.4,81.3,85.9,82.3z"/>
<path class="st1" d="M64.9,79.1h-1.2c-0.1,0.5-0.1,1.1-0.1,1.6c0,0.5-0.1,1.1,0.4,1.5l1.1-0.1c0.1,0.3,0.1,0.7,0.1,1
	c-0.4,0.1-0.8,0.1-1.2,0.1c-0.8,0-1.5-0.6-1.6-1.4c0-0.1,0-0.2,0-0.2c0-0.8,0-1.6,0-2.5L61.8,79l-0.1-0.8l0.6-0.2l0.1-0.9l1.1-0.5
	c0.1,0.5,0,0.9,0.1,1.4h1.3C65,78.4,65,78.8,64.9,79.1z"/>
<path class="st1" d="M82.9,78.5l-0.3,0.8c-0.6-0.1-1.1-0.6-1.7,0c0,0.5,0.3,0.7,0.7,0.8c0.6,0.2,1.2,0.6,1.5,1.1c0,0.1,0,0.2,0,0.4
	c0.1,1.2-0.5,1.6-1.5,1.8c-0.7,0.1-1.4,0-2-0.5l0.4-0.9c0.5,0.4,1.1,0.5,1.7,0.3l0.1-0.6c-0.7-0.6-1.8-0.7-2.2-1.6
	c-0.1-1.4,0.3-1.9,1.7-1.9C82,78,82.5,78.1,82.9,78.5z"/>
<path class="st0" d="M132.2,82.1c-0.3,1.2-1,1.8-1.9,1.7c-0.9-0.1-1.5-0.9-1.5-1.8c0-0.8,0.6-1.5,1.4-1.7
	C131.3,80.3,131.9,80.8,132.2,82.1z"/>
<path class="st1" d="M78.6,78.1v5h-1.2c0-1.3,0-2.6,0-4l-0.6-0.1c0-0.2,0-0.3-0.1-0.5c0-0.2,0-0.3,0-0.5L78.6,78.1z"/>
<circle class="st1" cx="78" cy="76.8" r="0.7"/>
<path class="st1" d="M89.3,113.7c-0.5,0.5-0.9,1-1.4,1.4c-0.6,0.7-1.5,0.9-2.4,0.6c-0.9-0.3-1.5-1-1.6-1.9c-0.1-0.7,0.1-1.4,0.7-1.9
	c1.8-1.8,3.6-3.6,5.4-5.4c0.9-0.8,2.3-0.8,3.2,0.1c0.3,0.3,0.6,0.6,0.9,0.9c1.4,1.4,2.9,2.9,4.3,4.4c0.9,0.8,1,2.2,0.1,3.1
	c0,0,0,0,0,0c-0.8,0.9-2.1,1.1-3.1,0.3c-0.3-0.2-0.5-0.5-0.8-0.7c-0.3-0.3-0.4-0.4-0.7-0.7v0.9c0,2.2,0,4.4,0,6.7
	c0,0.4,0,0.8-0.1,1.2c-0.3,1.2-1.4,1.9-2.6,1.7c-1.1-0.2-1.9-1.1-2-2.2c0-0.7,0-1.5,0-2.3L89.3,113.7z"/>
<path class="st0" d="M169.7,124.6c-0.8-0.8-2-0.8-2.8,0c-0.4,0.4-0.6,0.9-0.6,1.4c0,1.1,0.9,2,2,2c0.5,0,1-0.2,1.4-0.6
	c0.4-0.4,0.6-0.9,0.6-1.4C170.2,125.4,170,124.9,169.7,124.6z M168.3,127.6c-0.9,0-1.6-0.7-1.7-1.6c0-0.9,0.7-1.6,1.6-1.7
	c0.9,0,1.6,0.7,1.7,1.6c0,0,0,0,0,0C169.9,126.9,169.2,127.6,168.3,127.6z"/>
<path class="st0" d="M168.7,126c0.2-0.1,0.4-0.3,0.4-0.5c0-0.2-0.1-0.4-0.2-0.4c-0.2-0.1-0.4-0.2-0.7-0.2c-0.2,0-0.4,0-0.6,0.1v2.2
	h0.3v-0.9h0.4c0.3,0,0.5,0.3,0.6,0.9h0.3c0-0.2-0.1-0.5-0.2-0.7C168.9,126.2,168.8,126.1,168.7,126z M168.3,125.9h-0.4v-0.7h0.3
	c0.4,0,0.6,0.1,0.6,0.4S168.6,125.9,168.3,125.9z"/>
</svg>
