<svg id="Layer_1" data-name="Layer 1" xmlns="http://www.w3.org/2000/svg" viewBox="0 0 215.25 212.24"><defs><style>.cls-1{fill:#01a297;}.cls-2{fill:#ed7204;}.cls-3{fill:#b2b2b2;}</style></defs><title>logosArtboard 12 copy 63</title><path class="cls-1" d="M103.4,133.19a6.59,6.59,0,0,1-3.07,5.38Q98.2,140,96,141.3a6.69,6.69,0,0,1-9.31-2.22q-5.36-8.51-10.6-17.05a6.79,6.79,0,0,1,1.9-9.19c1.54-1.08,3.14-2.08,4.76-3A6.65,6.65,0,0,1,91.62,112c3.68,5.8,7.27,11.65,10.88,17.49A6.8,6.8,0,0,1,103.4,133.19Z"/><path class="cls-1" d="M70.27,118.4a6.49,6.49,0,0,1-1,3.61c-3.54,5.72-7.07,11.45-10.64,17.14a6.73,6.73,0,0,1-9.27,2.16c-1.38-.82-2.72-1.69-4.07-2.56A6.85,6.85,0,0,1,43.11,129q4.71-7.62,9.46-15.22a17.86,17.86,0,0,1,2-2.83,6.55,6.55,0,0,1,8-1.13c1.65,1,3.27,2,4.85,3A6.64,6.64,0,0,1,70.27,118.4Z"/><path class="cls-2" d="M92.82,104.88c-2.9-.08-5-1.13-6.16-3.47a34.58,34.58,0,0,1-2.44-6.81A6.52,6.52,0,0,1,88.48,87c4.66-1.75,9.34-3.43,14-5.14,1.57-.58,3.14-1.16,4.71-1.72A6.78,6.78,0,0,1,116,84.26c.56,1.5,1.1,3,1.64,4.52a6.77,6.77,0,0,1-4,8.8c-6.29,2.36-12.6,4.64-18.92,6.93A10.23,10.23,0,0,1,92.82,104.88Z"/><path class="cls-2" d="M53.11,105a18.82,18.82,0,0,1-2.47-.57q-9.28-3.34-18.55-6.78A6.75,6.75,0,0,1,27.94,89q.81-2.49,1.77-4.91a6.7,6.7,0,0,1,8.55-4Q47.71,83.45,57.1,87a6.76,6.76,0,0,1,4.1,8.68q-.81,2.43-1.74,4.81A6.89,6.89,0,0,1,53.11,105Z"/><path class="cls-1" d="M82.15,71.87c0,3.28,0,6.56,0,9.84a6.78,6.78,0,0,1-5.21,6.76,9,9,0,0,1-2.13.22c-1.68,0-3.36,0-5-.08a6.59,6.59,0,0,1-6.13-6.42q-.06-10.41,0-20.82a6.69,6.69,0,0,1,6.57-6.43h4.93a6.76,6.76,0,0,1,7,6.88C82.18,65.17,82.15,68.52,82.15,71.87Z"/><path class="cls-2" d="M171.79,160.72h-9.57l6.78-8.88h-6.28v-1.36h9.2l-6.78,8.9h6.62l0,1.34m.11,0c1.52-3.4,3.17-7.05,4.62-10.29h1.14l4.76,10.24H180.8l-1.38-2.88h-4.55l-1.32,2.93Zm5.17-8c-.56,1.3-1,2.41-1.52,3.56h3.16Z"/><path class="cls-2" d="M136.51,155.8l3.37,4.66,4.5-10.05h1.12l4.77,10.27h-1.62l-1.39-2.91h-4.52l-1.36,3h-3.21c-.46-.69-.94-1.43-1.45-2.15-.38-.52-.78-1-1.2-1.52a2.09,2.09,0,0,0-2.2-.7v4.32h-1.45V150.45a13.6,13.6,0,0,1,4.12.23,2.57,2.57,0,0,1,2,2.12,2.62,2.62,0,0,1-1.21,2.83Zm-3.16-4V155c1.05-.09,2.19.28,2.79-.85a1.85,1.85,0,0,0,0-1.51C135.52,151.49,134.4,151.83,133.35,151.81Zm13.22,4.5-1.66-3.58-1.5,3.58Z"/><path class="cls-2" d="M69.91,150.48h1.47v10.21H70l-6.83-7.49-.2.1v7.39H61.53V150.51h1.26c2.26,2.5,4.6,5.06,7.12,7.84Z"/><path class="cls-2" d="M161.13,160.73h-1.32l-7-7.74v7.7H151.3V150.47h1.22l7.16,7.88v-7.86h1.45Z"/><path class="cls-2" d="M90.1,160.86c-4,0-6.62-3.49-5.28-7.13a5.53,5.53,0,0,1,5.64-3.39,7.89,7.89,0,0,1,2,.33A5.17,5.17,0,0,1,96,156.23a5.39,5.39,0,0,1-5.2,4.62C90.58,160.87,90.34,160.86,90.1,160.86Zm.21-9.08a3.91,3.91,0,0,0-4.21,4,4.19,4.19,0,0,0,8.34-.23A3.94,3.94,0,0,0,90.31,151.78Z"/><path class="cls-2" d="M53.93,150.31a5.68,5.68,0,0,1,5.63,3.62,5.29,5.29,0,0,1-4.89,6.92,6.49,6.49,0,0,1-3.77-.7,5.14,5.14,0,0,1-2.55-5.65,5.34,5.34,0,0,1,4.56-4.11C53.25,150.35,53.59,150.34,53.93,150.31Zm.15,1.47a3.93,3.93,0,0,0-4,2.49,3.79,3.79,0,0,0,1.19,4.32,4.6,4.6,0,0,0,5.18.18A3.84,3.84,0,0,0,58,154.45,4,4,0,0,0,54.08,151.78Z"/><path class="cls-2" d="M73.46,160.68V150.46c2.21,0,4.4-.28,6.51.41a4.7,4.7,0,0,1,3.31,4.06,4.78,4.78,0,0,1-2,4.67,4.73,4.73,0,0,1-2.83,1.08C76.84,160.7,75.2,160.68,73.46,160.68ZM75,151.83v7.52a26.19,26.19,0,0,0,3.2,0,3.76,3.76,0,0,0-.55-7.5C76.84,151.82,76,151.83,75,151.83Z"/><path class="cls-2" d="M107.72,154.88v1.37h-4.34v3.12H108v1.33h-6.14V150.49h6v1.31h-4.44v3.08Z"/><path class="cls-2" d="M124.14,150.48h6v1.3h-4.41v3.1H130v1.31h-4.3v3.18h4.57v1.3h-6.16Z"/><path class="cls-2" d="M116.3,150.56a40.28,40.28,0,0,1,4.4,0,2.6,2.6,0,0,1,2.34,2.68,2.71,2.71,0,0,1-2.24,2.87,9.8,9.8,0,0,1-1.42.16c-.47,0-.95,0-1.52,0v4.39H116.3Zm1.57,4.38h1.72a2.21,2.21,0,0,0,.51-.05,1.45,1.45,0,0,0,1.3-1.56,1.36,1.36,0,0,0-1.28-1.46,21,21,0,0,0-2.25,0Z"/><path class="cls-2" d="M108.93,158.15c.32.27.54.46.77.64a3.14,3.14,0,0,0,2.29.72,1.45,1.45,0,0,0,1.36-.91,1.3,1.3,0,0,0-.45-1.47,7.51,7.51,0,0,0-1.07-.78c-.6-.39-1.24-.73-1.82-1.15a2.5,2.5,0,0,1-1.1-2.77,2.6,2.6,0,0,1,2.32-2,4.16,4.16,0,0,1,3.27.68v1.57a6.37,6.37,0,0,0-2.07-.9,1.77,1.77,0,0,0-2,.78c-.23.59.11,1.2,1,1.78.54.35,1.16.6,1.66,1a5.77,5.77,0,0,1,1.54,1.58,2.71,2.71,0,0,1-2.29,4,4.69,4.69,0,0,1-3.41-.91Z"/><path class="cls-2" d="M43.2,160.7H41.66V150.48h5.62v1.34H43.23v2.8h4.05V156H43.2Z"/><path class="cls-3" d="M183.15,103.4H151.46A14.1,14.1,0,0,0,154,114a17,17,0,0,0,6.58,5.35,14.35,14.35,0,0,0,5.69,1.35c.72,0,1.43,0,2.15,0a18.88,18.88,0,0,0,7.64-1.82,30.75,30.75,0,0,0,6-3.52l.46-.29a20.3,20.3,0,0,1,.05,2.31c0,.71,0,1.43,0,2.19a6.35,6.35,0,0,1-.65.62,25.94,25.94,0,0,1-9.92,4.22,23.72,23.72,0,0,1-3.94.41c-.8,0-1.6,0-2.4,0a18.24,18.24,0,0,1-6.62-1.35,19.21,19.21,0,0,1-8.41-6.57,19.53,19.53,0,0,1-3.52-8.35,25.44,25.44,0,0,1-.24-2.63c0-.17,0-.34,0-.51,0-.62-.12-1.24-.18-1.93H136.2c0,.38,0,.77,0,1.17v36c0,.4,0,.79,0,1.16a24.89,24.89,0,0,1-5.69.09V103.4h-8.56V99.94h8.53c0-.42,0-.78,0-1.14,0-4.51-.13-9,.05-13.54a17.26,17.26,0,0,1,4-10.65,18.12,18.12,0,0,1,7.86-5.44,13.17,13.17,0,0,1,4.46-.89c.53,0,1.07-.18,1.61-.16a22.84,22.84,0,0,1,6.09.91c1.29.39,2.56.82,3.84,1.23v5a4.52,4.52,0,0,1-.79-.12,30.67,30.67,0,0,0-6.19-1.48,15.29,15.29,0,0,0-8.73,1.08,9.72,9.72,0,0,0-4.26,4,15,15,0,0,0-2,6.34c-.1,1.26-.2,2.51-.21,3.77,0,3.32,0,6.63,0,10v1h10.94c.2-.7.39-1.34.55-2a18.72,18.72,0,0,1,9.59-11.55,16,16,0,0,1,5.93-1.6,25.35,25.35,0,0,1,2.74-.17A17.76,17.76,0,0,1,178,89.62a16,16,0,0,1,4.47,7.63A18.07,18.07,0,0,1,183.15,103.4ZM152,99.84H178a22.9,22.9,0,0,0-1.35-4.2,12.11,12.11,0,0,0-3.9-4.86c-2-1.53-4.36-1.91-6.76-2.14a11.93,11.93,0,0,0-4,.4,13,13,0,0,0-9.14,8C152.48,97.9,152.26,98.85,152,99.84Z"/></svg>