<svg id="Layer_1" data-name="Layer 1" xmlns="http://www.w3.org/2000/svg" viewBox="0 0 215.25 212.24"><defs><style>.cls-1{fill:#2c2a66;}.cls-2{fill:#ee8604;}</style></defs><title>logosArtboard 12 copy 64</title><path class="cls-1" d="M152.52,129.44v7.09a8.45,8.45,0,0,1-3,.72,43.38,43.38,0,0,1-8.45.23,11.83,11.83,0,0,1-5.91-1.89,8.93,8.93,0,0,1-4-6.06,16.84,16.84,0,0,1-.26-3c0-5.26,0-10.52,0-15.77v-1.21l-1.86-.05h-1.73l-.61.93a32.05,32.05,0,0,0-3.65-1.1,8.38,8.38,0,0,0-9.91,6.73,15.2,15.2,0,0,0-.2,2.7q0,8.54,0,17.07V137h-9c-.21-.87-.3-30.18-.11-33.65a77.39,77.39,0,0,1,9.17,0v2.92a2,2,0,0,0,.39-.21,13.72,13.72,0,0,1,8.16-3.34,25.2,25.2,0,0,1,7,.42,15.74,15.74,0,0,0,2.3.12,9.5,9.5,0,0,0,.12-2.3c0-.73,0-1.45,0-2.18V96.34l5.13-1.63c.18-.81.22-11.12,0-12.66h-2V78.8h6.27c0,4,0,8.09,0,12.13s-.15,8.08-.23,12.22H151v6.34H140.22c0,.36-.07.6-.07.85,0,4.68,0,9.35,0,14a15.85,15.85,0,0,0,.41,3.21,4,4,0,0,0,3.34,3.15,12.91,12.91,0,0,0,7.63-.89l1-.38Z"/><path class="cls-1" d="M79.25,102.81v-24h4l.14.79c.09,0,.18,0,.22,0a5.89,5.89,0,0,1,4.79-1.12,9.06,9.06,0,0,1,3.56,1.16,6.54,6.54,0,0,1,2.85,4.08,13.46,13.46,0,0,1,.08,7,7.22,7.22,0,0,1-5.57,5.47,9.25,9.25,0,0,1-5.85-.37,42.32,42.32,0,0,0,0,6.68c1.1.08,2.21.14,3.32.24a19,19,0,0,1,9.42,3.17,14.81,14.81,0,0,1,6,8.73,20.66,20.66,0,0,1-.41,12.06,15.55,15.55,0,0,1-10,9.73,20.59,20.59,0,0,1-6.47,1.16,29.17,29.17,0,0,1-8.07-.69,16,16,0,0,1-10.59-8.13,16.47,16.47,0,0,1-1.64-5,22.93,22.93,0,0,1-.18-5.85A15.39,15.39,0,0,1,68.49,109a17.13,17.13,0,0,1,10-5.88,2.8,2.8,0,0,0,.41-.13Zm1.92,15.41v8.54c0,1,0,2.1,0,3.15a3.23,3.23,0,0,0,2.73,3,3.11,3.11,0,0,0,3.57-2.4,9.66,9.66,0,0,0,.17-1.6c0-3.08,0-6.17,0-9.25v-1.3c.42.42.69.7,1,1s.73.69,1.13,1a3.09,3.09,0,0,0,4.28-.46,3.06,3.06,0,0,0-.14-4.38c-2-2.06-4-4.09-6-6.14-.4-.41-.8-.84-1.23-1.23a3.24,3.24,0,0,0-4.42-.09c-2.52,2.5-5,5-7.52,7.55a3.13,3.13,0,0,0-.92,2.67A3.28,3.28,0,0,0,76,121a2.93,2.93,0,0,0,3.25-.8C79.86,119.57,80.43,119,81.17,118.22Zm2.19-35.29v9.24a5.07,5.07,0,0,0,4.31.62,3.71,3.71,0,0,0,3.12-3.17,11.58,11.58,0,0,0,.08-4.19A3.67,3.67,0,0,0,88,82.11c-.38-.09-.78-.12-1.17-.19A3.7,3.7,0,0,0,83.36,82.93Z"/><path class="cls-1" d="M152.54,129.46c-.2-.52-.39-1.06-.61-1.58a16.84,16.84,0,0,1-1.37-6.18,20.31,20.31,0,0,1,.73-6.76,16.62,16.62,0,0,1,5.78-8.08,19.28,19.28,0,0,1,8.47-3.87,24.1,24.1,0,0,1,6.79-.37A24.92,24.92,0,0,1,179,104a15.4,15.4,0,0,1,9.13,8.3,12.36,12.36,0,0,1,.85,8.13c-.17.66-.29,1.33-.44,2H160.29c-.22.4,0,.73,0,1.07.52,3.35,2.57,5.39,5.61,6.56A14.44,14.44,0,0,0,171,131a18.09,18.09,0,0,0,7.22-1.1c1-.41,1.91-1,3-1.52l3.49,5.82a8.45,8.45,0,0,1-.72.52,20.54,20.54,0,0,1-6.91,2.37,36.08,36.08,0,0,1-6.79.53,24.36,24.36,0,0,1-10.34-1.93,16.28,16.28,0,0,1-7-5.84,2.41,2.41,0,0,0-.44-.4Zm27.38-12.94c-.08-.45-.12-.85-.22-1.23a7.43,7.43,0,0,0-5.29-5.63,15.19,15.19,0,0,0-5.37-.44,8.63,8.63,0,0,0-8,5.89,3.61,3.61,0,0,0-.38,1.41Z"/><path class="cls-1" d="M38.48,112.45v24.34a55.83,55.83,0,0,1-9.26.13V103.21h6.62l1.71,3.06c.44-.36.78-.67,1.16-1a14.28,14.28,0,0,1,7.44-2.64,25.62,25.62,0,0,1,3-.15A19.13,19.13,0,0,1,56.34,104a11.8,11.8,0,0,1,7.23,8.84,20.15,20.15,0,0,1,.38,3.87q0,9.52,0,19v1.06c-.73.29-6.94.39-9.3.15v-1.15c0-6.31,0-12.62,0-18.93a12.46,12.46,0,0,0-.48-3.2,5.63,5.63,0,0,0-4.54-4.16A11.82,11.82,0,0,0,40.42,111,22,22,0,0,0,38.48,112.45Z"/><path class="cls-1" d="M57.06,78.77a9.48,9.48,0,0,1,3.32,2.36,7.64,7.64,0,0,1,1.7,6.36c-.06.35-.15.7-.23,1.05,0,0,0,0-.13.14h-12A2.94,2.94,0,0,0,50.28,91a4.15,4.15,0,0,0,3.15,1.88,6.61,6.61,0,0,0,5.21-1.27l1.58,3A5.83,5.83,0,0,1,57.64,96a12.52,12.52,0,0,1-7,0,7.21,7.21,0,0,1-4.85-5.13,10.58,10.58,0,0,1,0-6.3,8.4,8.4,0,0,1,6.63-6,11.56,11.56,0,0,1,4,.12ZM49.87,85.5H58a3.7,3.7,0,0,0-3.92-3.72A4,4,0,0,0,49.87,85.5Z"/><path class="cls-1" d="M152.15,96.39a7.8,7.8,0,0,1-4.5-1.11,8.06,8.06,0,0,1-3.56-5.59,12.47,12.47,0,0,1,.16-5.16,7.87,7.87,0,0,1,6.7-6.06,10.88,10.88,0,0,1,3.86.25,6.94,6.94,0,0,1,5.12,5,12.21,12.21,0,0,1,0,7.35,7.62,7.62,0,0,1-2.21,3.5A8.24,8.24,0,0,1,152.15,96.39Zm-4-8.94a8.05,8.05,0,0,0,.45,3.18,3.73,3.73,0,0,0,1.15,1.67,3.78,3.78,0,0,0,5.92-1.63,9.21,9.21,0,0,0,0-6.77,3,3,0,0,0-1.74-1.84A3.82,3.82,0,0,0,148.8,84,7.08,7.08,0,0,0,148.16,87.45Z"/><path class="cls-1" d="M113.93,78.8V96.1a19.22,19.22,0,0,1-2,0c-.64,0-1.29,0-2,0l-.06-1.29c-.81.37-1.55.77-2.34,1.07a8.24,8.24,0,0,1-4.79.28,4.7,4.7,0,0,1-3.66-3.58,7,7,0,0,1-.27-1.81c0-3.92,0-7.83,0-11.75a1.12,1.12,0,0,1,.08-.25h4V89.59a4.08,4.08,0,0,0,.34,2,2.33,2.33,0,0,0,2,1.35,4.51,4.51,0,0,0,4.75-2.42V78.8Z"/><path class="cls-1" d="M64.33,94.92l1.42-3.19a6.37,6.37,0,0,0,5,1.36A1.58,1.58,0,0,0,72,92.18a1.77,1.77,0,0,0,0-1.41,3.13,3.13,0,0,0-1.68-1.57c-1-.52-2.09-1-3.1-1.54a8.7,8.7,0,0,1-1.55-1.16,4.48,4.48,0,0,1,1.72-7.66,9.68,9.68,0,0,1,7.92.81l-1.08,3a7.7,7.7,0,0,0-3.68-1c-1.17.09-2.78.62-2,2.15a3.63,3.63,0,0,0,1.82,1.42c.62.29,1.27.5,1.9.78a7.1,7.1,0,0,1,3.39,2.58,4.93,4.93,0,0,1-1.79,6.93,6.84,6.84,0,0,1-2.44.82A11.55,11.55,0,0,1,67,96.15,8.21,8.21,0,0,1,64.33,94.92Z"/><path class="cls-1" d="M130.08,83.1a5.66,5.66,0,0,0-4.19-1.29,4.27,4.27,0,0,0-3.75,2.37,7.58,7.58,0,0,0-.23,6.3,3.87,3.87,0,0,0,3.44,2.44,5.92,5.92,0,0,0,5.09-1.43l1.48,3.18a7.43,7.43,0,0,1-3.83,1.62,13.58,13.58,0,0,1-5-.15,7.63,7.63,0,0,1-5.83-6.54,10.71,10.71,0,0,1,.65-6.15,7.8,7.8,0,0,1,4.38-4.28,10.42,10.42,0,0,1,6.88-.41,6.42,6.42,0,0,1,2.53,1.37c-.25.47-.5,1-.77,1.47S130.38,82.58,130.08,83.1Z"/><path class="cls-1" d="M36.25,96.37H34.72L27,78.76c1.53,0,3,0,4.44,0L35.5,89.29,39.89,78.8h4.28Z"/><path class="cls-2" d="M57.06,78.77l-.7-.14V68.78l1.77.1,0,0a15.38,15.38,0,0,1,1.9-.16,2.7,2.7,0,0,1,2.57,1.82,4.87,4.87,0,0,1,.23,2.77A3.33,3.33,0,0,1,58.6,76l-.51-.12v2.77Zm1-8.22v3.82a2.42,2.42,0,0,0,2.35-.07c1-1.55.91-3-.35-4C58.83,70.16,58.83,70.16,58.11,70.55Z"/><path class="cls-2" d="M85.17,75.62c-.8.71-1.15.65-1.94-.28a2.92,2.92,0,0,1-2.81.63,2.24,2.24,0,0,1-1.07-3.57,3.78,3.78,0,0,1,2.79-1.21,5.93,5.93,0,0,1,.73,0c.13-.55-.23-.7-.61-1l-2.33.11-.33-1.15a4.76,4.76,0,0,1,3.2-.32,2.17,2.17,0,0,1,1.82,2A19.46,19.46,0,0,1,84.8,73,5.5,5.5,0,0,0,85.17,75.62Zm-2.13-3a1.66,1.66,0,0,0-1.41,0c-1.15.36-1.34.81-.77,1.94l.85.24C83,74.33,83.15,74.06,83,72.65Z"/><path class="cls-2" d="M34.57,75.77l-1.25.39a1.91,1.91,0,0,1-.89-.7c-2.09,1.09-3.3.84-4.31-.87-.52-2.37,1.45-3.61,4-3.3,0-.51,0-.51-.47-1-.36,0-.79-.06-1.22-.06s-.85.05-1.36.08l-.18-1.13c.2-.1.38-.27.56-.28a11.74,11.74,0,0,1,2.58,0c1.21.2,1.8,1.12,1.9,2.66,0,.61,0,1.23,0,1.84A3.48,3.48,0,0,0,34.57,75.77Zm-2.36-3.19a2.38,2.38,0,0,0-2.36.61,1,1,0,0,0,0,1.17,1.9,1.9,0,0,0,1.82.24.71.71,0,0,0,.54-.64Z"/><path class="cls-2" d="M51.85,68.74a3.08,3.08,0,0,1,3.26,2.78,4.07,4.07,0,0,1-1,3.68,3.29,3.29,0,0,1-3.61.67,3,3,0,0,1-2-2.48,4.28,4.28,0,0,1,.09-2.33A3.13,3.13,0,0,1,51.85,68.74Zm-.71,5.87.47,0c1.07,0,1.45-.33,1.73-1.39a3.24,3.24,0,0,0,0-1.8,1.54,1.54,0,0,0-3.08.17,13.23,13.23,0,0,0,0,1.41A1.74,1.74,0,0,0,51.14,74.61Z"/><path class="cls-2" d="M37.42,74.08l.52.49a2,2,0,0,0,2.18-.8v-4.9h1.62v7a2.33,2.33,0,0,1-1.9-.19c-.37.12-.74.25-1.12.35a2.26,2.26,0,0,1-3-2.23c0-1.62,0-3.24,0-4.91h1.63C37.46,70.62,37.3,72.35,37.42,74.08Z"/><path class="cls-2" d="M76.45,74.65l1.61-.16V75.9a12.8,12.8,0,0,1-1.48.2c-1.5,0-2.27-.77-2.34-2.35,0-1.11,0-2.24,0-3.39l-.79-.24L73.37,69l.84-.36V67.48l1.69-.7v2h1.92v1.45H76.07A6.89,6.89,0,0,0,76.45,74.65Z"/><path class="cls-2" d="M47.3,70.24H45.58a8.11,8.11,0,0,0-.09,2.25c0,.7-.19,1.46.55,2.13l1.54-.12a4.61,4.61,0,0,1,.07,1.39,11.26,11.26,0,0,1-1.69.2,2.07,2.07,0,0,1-2.17-2.29c0-1.12,0-2.24,0-3.42L43,70.12,42.92,69l.82-.33.07-1.22,1.57-.65c.2.65,0,1.3.15,2H47.3A2,2,0,0,1,47.3,70.24Z"/><path class="cls-2" d="M72.29,69.33l-.37,1.09c-.79-.12-1.55-.81-2.31,0,0,.7.41,1,1,1.16a3.46,3.46,0,0,1,2.08,1.53c0,.13,0,.31,0,.49.16,1.6-.64,2.21-2.08,2.47a3.49,3.49,0,0,1-2.74-.66l.58-1.27a2.59,2.59,0,0,0,2.41.38l.12-.89c-1-.83-2.44-1-3-2.28-.18-1.91.47-2.62,2.42-2.61A2.39,2.39,0,0,1,72.29,69.33Z"/><path class="cls-1" d="M140.7,74.4c-.4,1.62-1.37,2.52-2.6,2.34A2.38,2.38,0,0,1,136,74.29,2.31,2.31,0,0,1,138,72C139.5,71.86,140.32,72.58,140.7,74.4Z"/><path class="cls-2" d="M66.33,68.84v7H64.67c0-1.81,0-3.64,0-5.53l-.8-.15c0-.21-.06-.45-.07-.69s0-.42,0-.67Z"/><circle class="cls-2" cx="65.59" cy="67.09" r="0.95"/><path class="cls-2" d="M81.17,118.22c-.74.75-1.31,1.35-1.9,1.94A2.93,2.93,0,0,1,76,121a3.28,3.28,0,0,1-2.21-2.7,3.13,3.13,0,0,1,.92-2.67c2.48-2.54,5-5,7.52-7.55a3.24,3.24,0,0,1,4.42.09c.43.39.83.82,1.23,1.23,2,2,4,4.08,6,6.14a3.06,3.06,0,0,1,.14,4.38,3.09,3.09,0,0,1-4.28.46c-.4-.3-.76-.65-1.13-1s-.55-.54-1-1v1.3c0,3.08,0,6.17,0,9.25a9.66,9.66,0,0,1-.17,1.6,3.11,3.11,0,0,1-3.57,2.4,3.23,3.23,0,0,1-2.73-3c0-1,0-2.1,0-3.15Z"/><path class="cls-1" d="M192.66,133.31a2.72,2.72,0,0,0-4.64,1.92,2.72,2.72,0,0,0,4.64,1.93,2.7,2.7,0,0,0,.8-1.93A2.66,2.66,0,0,0,192.66,133.31Zm-1.92,4.2a2.28,2.28,0,1,1,2.27-2.28A2.28,2.28,0,0,1,190.74,137.51Z"/><path class="cls-1" d="M191.36,135.3a.78.78,0,0,0,.53-.75.71.71,0,0,0-.34-.62,1.63,1.63,0,0,0-.92-.22,4.76,4.76,0,0,0-.87.08v3h.43v-1.31h.54c.44,0,.72.44.84,1.31H192a3.75,3.75,0,0,0-.25-1A1,1,0,0,0,191.36,135.3Zm-.65-.19h-.52v-1l.44,0c.57,0,.85.18.85.53S191.22,135.11,190.71,135.11Z"/></svg>