<?xml version="1.0" encoding="utf-8"?>
<!-- Generator: Adobe Illustrator 28.3.0, SVG Export Plug-In . SVG Version: 6.00 Build 0)  -->
<svg version="1.1" id="Layer_1" xmlns="http://www.w3.org/2000/svg" xmlns:xlink="http://www.w3.org/1999/xlink" x="0px" y="0px"
	 viewBox="0 0 215.2 212.2" style="enable-background:new 0 0 215.2 212.2;" xml:space="preserve">
<style type="text/css">
	.st0{fill:#01A297;}
	.st1{fill:#ED7204;}
	.st2{fill:#B2B2B2;}
</style>
<path class="st0" d="M104,125.9c0,1.6-0.9,3-2.2,3.8c-1,0.7-2,1.3-3.1,1.9c-2.2,1.4-5.2,0.7-6.6-1.5c0,0,0-0.1-0.1-0.1
	c-2.5-4-5.1-8.1-7.5-12.1c-1.4-2.2-0.8-5.1,1.4-6.5c1.1-0.8,2.2-1.5,3.4-2.1c2.2-1.2,4.9-0.6,6.3,1.5c2.6,4.1,5.2,8.3,7.7,12.5
	C103.8,124.1,104,125,104,125.9z"/>
<path class="st0" d="M80.4,115.4c0,0.9-0.2,1.8-0.7,2.6c-2.5,4.1-5,8.2-7.6,12.2c-1.4,2.2-4.4,2.9-6.6,1.5c0,0,0,0,0,0
	c-1-0.6-1.9-1.2-2.9-1.8c-2.3-1.4-3.1-4.4-1.7-6.7c0.1-0.1,0.1-0.2,0.2-0.3c2.2-3.6,4.5-7.2,6.7-10.8c0.4-0.7,0.9-1.4,1.4-2
	c1.5-1.5,3.8-1.9,5.7-0.8c1.2,0.7,2.3,1.4,3.5,2.1C79.6,112.3,80.4,113.8,80.4,115.4z"/>
<path class="st1" d="M96.4,105.8c-2.1-0.1-3.6-0.8-4.4-2.5c-0.7-1.6-1.3-3.2-1.7-4.8c-0.5-2.3,0.8-4.6,3-5.4c3.3-1.2,6.6-2.4,10-3.7
	c1.1-0.4,2.2-0.8,3.4-1.2c2.5-0.9,5.3,0.3,6.2,2.8c0,0,0,0.1,0,0.1c0.4,1.1,0.8,2.1,1.2,3.2c1,2.5-0.3,5.3-2.8,6.2c0,0-0.1,0-0.1,0
	c-4.5,1.7-9,3.3-13.5,4.9C97.3,105.6,96.9,105.7,96.4,105.8z"/>
<path class="st1" d="M68.2,105.8c-0.6-0.1-1.2-0.2-1.8-0.4c-4.4-1.6-8.8-3.2-13.2-4.8c-2.5-0.9-3.8-3.6-3-6.1c0,0,0,0,0,0
	c0.4-1.2,0.8-2.3,1.3-3.5c0.9-2.5,3.6-3.7,6.1-2.8c4.5,1.6,9,3.2,13.4,4.9c2.5,0.9,3.8,3.6,2.9,6.1c0,0,0,0,0,0
	c-0.4,1.2-0.8,2.3-1.2,3.4C72,104.5,70.2,105.8,68.2,105.8z"/>
<path class="st0" d="M88.8,82.3c0,2.3,0,4.7,0,7c0.1,2.3-1.5,4.3-3.7,4.8c-0.5,0.1-1,0.2-1.5,0.2c-1.2,0-2.4,0-3.6-0.1
	c-2.4-0.2-4.3-2.1-4.4-4.6c0-4.9,0-9.9,0-14.8c0.1-2.5,2.2-4.5,4.7-4.6h3.5c2.7-0.1,4.9,2,5,4.6c0,0.1,0,0.2,0,0.3
	C88.9,77.5,88.8,79.9,88.8,82.3z"/>
<path class="st1" d="M152.7,145.5h-6.8l4.8-6.3h-4.5v-1h6.5l-4.8,6.3h4.7L152.7,145.5 M152.7,145.5c1.1-2.4,2.3-5,3.3-7.3h0.8
	l3.4,7.3h-1.1l-1-2.1h-3.2l-0.9,2.1H152.7z M156.4,139.8c-0.4,0.9-0.7,1.7-1.1,2.5h2.2L156.4,139.8z"/>
<path class="st1" d="M127.5,142l2.4,3.3l3.2-7.2h0.8l3.4,7.3h-1.2l-1-2.1H132l-1,2.1h-2.3c-0.3-0.5-0.7-1-1-1.5
	c-0.3-0.4-0.6-0.7-0.9-1.1c-0.4-0.5-1-0.7-1.6-0.5v3.1h-1v-7.3c1-0.1,2,0,2.9,0.2c0.7,0.2,1.3,0.8,1.4,1.5c0.2,0.8-0.2,1.6-0.9,2
	L127.5,142z M125.3,139.2v2.3c0.7-0.1,1.6,0.2,2-0.6c0.2-0.3,0.2-0.7,0-1.1C126.8,138.9,126,139.2,125.3,139.2L125.3,139.2z
	 M134.7,142.4l-1.2-2.5l-1.1,2.5H134.7z"/>
<path class="st1" d="M80.1,138.2h1v7.3h-1l-4.9-5.3l-0.1,0.1v5.3h-1v-7.2h0.9c1.6,1.8,3.3,3.6,5.1,5.6L80.1,138.2z"/>
<path class="st1" d="M145.1,145.5h-0.9l-5-5.5v5.5h-1.1v-7.3h0.9l5.1,5.6v-5.6h1V145.5z"/>
<path class="st1" d="M94.5,145.6c-2.8,0-4.7-2.5-3.8-5.1c0.7-1.6,2.3-2.6,4-2.4c0.5,0,1,0.1,1.4,0.2c1.7,0.5,2.7,2.2,2.5,4
	c-0.3,1.9-1.8,3.2-3.7,3.3C94.8,145.6,94.7,145.6,94.5,145.6z M94.6,139.2c-1.5-0.1-2.9,1-3,2.6c0,0.1,0,0.2,0,0.3
	c0.2,1.6,1.7,2.8,3.3,2.6c1.4-0.2,2.5-1.3,2.6-2.8C97.5,140.3,96.2,139.1,94.6,139.2C94.7,139.2,94.7,139.2,94.6,139.2z"/>
<path class="st1" d="M68.7,138.1c1.8-0.1,3.4,0.9,4,2.6c0.6,2-0.4,4.1-2.4,4.7c-0.3,0.1-0.7,0.2-1.1,0.2c-0.9,0.1-1.9-0.1-2.7-0.5
	c-1.4-0.8-2.2-2.4-1.8-4c0.4-1.6,1.7-2.7,3.2-2.9C68.3,138.1,68.5,138.1,68.7,138.1z M68.9,139.2c-1.2-0.1-2.4,0.6-2.8,1.8
	c-0.4,1.1-0.1,2.3,0.8,3.1c1.1,0.8,2.5,0.8,3.7,0.1c1-0.7,1.5-1.9,1.1-3.1C71.2,139.9,70.1,139.1,68.9,139.2z"/>
<path class="st1" d="M82.7,145.5v-7.3c1.6,0,3.1-0.2,4.6,0.3c1.3,0.4,2.2,1.5,2.4,2.9c0.2,1.3-0.4,2.6-1.4,3.3
	c-0.6,0.5-1.3,0.7-2,0.8C85.1,145.5,83.9,145.5,82.7,145.5z M83.7,139.2v5.4c0.8,0,1.5,0,2.3,0c1.5-0.1,2.6-1.4,2.5-2.9
	c-0.1-1.5-1.4-2.6-2.9-2.5C85.1,139.2,84.5,139.2,83.7,139.2z"/>
<path class="st1" d="M107,141.4v1H104v2.2h3.3v0.9h-4.4v-7.3h4.3v0.9H104v2.2H107z"/>
<path class="st1" d="M118.7,138.2h4.3v0.9h-3.1v2.2h3v0.9h-3.1v2.3h3.3v0.9h-4.4L118.7,138.2z"/>
<path class="st1" d="M113.1,138.3c1-0.1,2.1-0.1,3.1,0c1,0.1,1.7,0.9,1.7,1.9c0.1,1-0.6,1.9-1.6,2c-0.3,0.1-0.7,0.1-1,0.1
	c-0.3,0-0.7,0-1.1,0v3.1h-1.1V138.3z M114.3,141.4h1.2c0.1,0,0.2,0,0.4,0c0.6-0.1,1-0.6,0.9-1.1c0-0.5-0.4-1-0.9-1c0,0,0,0,0,0
	c-0.5,0-1.1,0-1.6,0V141.4z"/>
<path class="st1" d="M107.9,143.7c0.2,0.2,0.4,0.3,0.5,0.5c0.5,0.4,1,0.6,1.6,0.5c0.4,0,0.8-0.3,1-0.6c0.1-0.4,0-0.8-0.3-1
	c-0.2-0.2-0.5-0.4-0.8-0.6c-0.4-0.3-0.9-0.5-1.3-0.8c-0.7-0.4-1-1.2-0.8-2c0.2-0.8,0.9-1.4,1.7-1.4c0.8-0.2,1.7,0,2.3,0.5v1.1
	c-0.4-0.3-0.9-0.5-1.5-0.6c-0.5-0.2-1.1,0.1-1.4,0.6c-0.2,0.4,0.1,0.9,0.7,1.3c0.4,0.2,0.8,0.4,1.2,0.7c0.4,0.3,0.8,0.7,1.1,1.1
	c0.5,0.9,0.2,2.1-0.8,2.6c-0.3,0.1-0.6,0.2-0.9,0.2c-0.9,0.1-1.7-0.1-2.4-0.6V143.7z"/>
<path class="st1" d="M61.1,145.5H60v-7.3h4v1h-2.9v2H64v1h-2.9V145.5z"/>
<path class="st2" d="M160.7,104.7h-22.6c-0.4,2.7,0.2,5.4,1.8,7.5c1.2,1.6,2.8,3,4.7,3.8c1.3,0.6,2.6,0.9,4.1,1c0.5,0,1,0,1.5,0
	c1.9,0,3.7-0.5,5.4-1.3c1.5-0.7,2.9-1.5,4.3-2.5l0.3-0.2c0,0.5,0.1,1.1,0,1.6c0,0.5,0,1,0,1.6c-0.1,0.2-0.3,0.3-0.5,0.4
	c-2.1,1.5-4.5,2.5-7.1,3c-0.9,0.2-1.9,0.3-2.8,0.3c-0.6,0-1.1,0-1.7,0c-1.6,0-3.2-0.4-4.7-1c-2.4-1-4.5-2.6-6-4.7
	c-1.3-1.8-2.1-3.8-2.5-5.9c-0.1-0.6-0.1-1.2-0.2-1.9c0-0.1,0-0.2,0-0.4c0-0.4-0.1-0.9-0.1-1.4h-7.5c0,0.3,0,0.5,0,0.8v25.6
	c0,0.3,0,0.6,0,0.8c-1.3,0.2-2.7,0.2-4.1,0.1v-27.4h-6.1v-2.5h6.1c0-0.3,0-0.6,0-0.8c0-3.2-0.1-6.4,0-9.6c0.1-2.8,1.1-5.4,2.8-7.6
	c1.5-1.8,3.4-3.1,5.6-3.9c1-0.4,2.1-0.6,3.2-0.6c0.4,0,0.8-0.1,1.1-0.1c1.5,0,2.9,0.2,4.3,0.6c0.9,0.3,1.8,0.6,2.7,0.9v3.6
	c-0.2,0-0.4,0-0.6-0.1c-1.4-0.5-2.9-0.9-4.4-1.1c-2.1-0.4-4.3-0.1-6.2,0.8c-1.3,0.6-2.3,1.6-3,2.8c-0.8,1.4-1.3,2.9-1.4,4.5
	c-0.1,0.9-0.1,1.8-0.1,2.7c0,2.4,0,4.7,0,7.1v0.7h7.8c0.1-0.5,0.3-1,0.4-1.4c1-3.6,3.5-6.6,6.8-8.2c1.3-0.6,2.8-1,4.2-1.1
	c0.6-0.1,1.3-0.1,2-0.1c3.2,0.1,6.3,1.4,8.6,3.6c1.5,1.5,2.7,3.4,3.2,5.4C160.7,101.8,160.8,103.2,160.7,104.7z M138.6,102.2h18.5
	c-0.2-1-0.5-2-1-3c-0.6-1.4-1.6-2.6-2.8-3.5c-1.4-1.1-3.1-1.4-4.8-1.5c-1-0.1-1.9,0-2.8,0.3c-3,0.7-5.4,2.8-6.5,5.7
	C138.9,100.8,138.8,101.5,138.6,102.2z"/>
</svg>
