<svg id="Layer_1" data-name="Layer 1" xmlns="http://www.w3.org/2000/svg" viewBox="0 0 215.25 212.24"><defs><style>.cls-1{fill:#007e48;}.cls-2{fill:#ffd444;}.cls-3{fill:#004b93;}.cls-4{fill:#e63329;}.cls-5{fill:#fff;}.cls-6{fill:#dadada;}</style></defs><title>logosArtboard 12 copy 57</title><polygon class="cls-1" points="106.06 95.39 106.06 69.85 95.78 69.85 95.78 69.85 85.49 69.85 85.49 95.39 106.06 95.39"/><polygon class="cls-2" points="126.55 95.39 126.55 69.85 116.27 69.85 116.27 69.85 105.99 69.85 105.99 95.39 126.55 95.39"/><path class="cls-3" d="M105.83,95.25v28.42a1,1,0,0,1,.13.51h0c0-1.53,2.84-1.55,3.05-1.55h14.88a2.29,2.29,0,0,0,2.53-2.53V95.25Z"/><path class="cls-4" d="M105.9,95.25H85.49V120.1A2.29,2.29,0,0,0,88,122.63H102.9c.19,0,2.59,0,3,1.19Z"/><path class="cls-5" d="M111.94,96.76a6,6,0,1,1-6-6c.14,0,.43-.28.55-.34a1.54,1.54,0,0,1,1.08-.17c.36.09.61.92,1,1.09a6,6,0,0,1,3.39,5.38"/><path class="cls-5" d="M111.9,106.42l-1.54-.17.17,6.78a8.64,8.64,0,0,1,5.59,0s1.9-.82,5.72-.13l0-7.47s-1.41.27-3.84.48-1.75.72-6.14.54"/><polygon class="cls-2" points="109.12 114.29 108.26 115.03 120.41 117.96 123.73 114.08 122.91 113.74 120.05 117 109.12 114.29"/><path class="cls-2" d="M110.53,113a9.85,9.85,0,0,1,5.53-.19,14.67,14.67,0,0,1,5.78,0l0-1,1.16.24L120,115.2,109.44,113l1-.9Z"/><polygon points="100.48 60.06 102.14 53.77 97.1 49.65 103.6 49.28 105.95 43.21 108.31 49.28 114.81 49.65 109.77 53.77 111.43 60.06 105.95 56.54 100.48 60.06"/><polygon class="cls-6" points="105.95 56.05 110.76 59.14 109.31 53.62 113.73 50 108.03 49.67 105.95 44.35 103.88 49.67 98.18 50 102.6 53.62 101.15 59.14 105.95 56.05"/><polygon points="104.5 47.53 102.04 39.95 101.76 40.04 104.33 47.95 104.5 47.53"/><path d="M104.33,48.16h0a.2.2,0,0,1-.19-.15l-2.57-7.91a.2.2,0,0,1,.13-.26l.27-.09a.23.23,0,0,1,.16,0,.18.18,0,0,1,.1.11l2.46,7.58a.17.17,0,0,1,0,.14l-.17.42a.2.2,0,0,1-.19.14"/><polygon points="92.83 52.33 92.83 52.62 101.06 52.62 100.71 52.33 92.83 52.33"/><path d="M101.06,52.83H92.83a.21.21,0,0,1-.21-.21v-.29a.2.2,0,0,1,.21-.2h7.88a.2.2,0,0,1,.13,0l.35.29a.23.23,0,0,1,.07.23.22.22,0,0,1-.2.14"/><polygon points="103.74 49.48 103.81 49.28 95.94 38.45 95.7 38.62 103.6 49.48 103.74 49.48"/><path d="M103.6,49.69a.18.18,0,0,1-.16-.09l-7.9-10.87a.19.19,0,0,1,0-.15.22.22,0,0,1,.08-.13l.24-.17a.19.19,0,0,1,.28,0L104,49.16a.2.2,0,0,1,0,.2l-.07.19a.21.21,0,0,1-.18.13h-.15"/><polygon points="105.81 35.24 105.81 44.15 105.95 43.78 106.1 44.15 106.1 35.24 105.81 35.24"/><path d="M106.1,44.36a.2.2,0,0,1-.14-.06.22.22,0,0,1-.19.05.2.2,0,0,1-.16-.2V35.24a.2.2,0,0,1,.2-.21h.29a.2.2,0,0,1,.2.21v8.91a.2.2,0,0,1-.16.2h0"/><polygon points="110.17 49.59 116.66 44.88 116.49 44.65 109.72 49.56 110.17 49.59"/><path d="M110.17,49.8h0l-.46,0a.23.23,0,0,1-.19-.15.21.21,0,0,1,.08-.22l6.77-4.92a.2.2,0,0,1,.15,0,.25.25,0,0,1,.14.08l.17.24a.2.2,0,0,1,0,.28l-6.48,4.72a.28.28,0,0,1-.13,0"/><polygon points="114.27 49.82 114.06 49.99 122.39 47.29 122.31 47.01 113.75 49.79 114.27 49.82"/><path d="M114.06,50.2a.21.21,0,0,1-.18-.11.19.19,0,0,1,0-.08h-.12a.2.2,0,0,1-.19-.18.19.19,0,0,1,.14-.22l8.55-2.78a.18.18,0,0,1,.16,0,.2.2,0,0,1,.1.12l.09.27a.2.2,0,0,1-.13.26l-8.34,2.71h-.06"/><polygon points="102.19 49.56 95.42 44.65 95.25 44.88 101.74 49.59 102.19 49.56"/><path d="M101.74,49.8a.28.28,0,0,1-.13,0L95.13,45a.2.2,0,0,1,0-.28l.17-.24a.25.25,0,0,1,.14-.08.2.2,0,0,1,.15,0l6.77,4.92a.21.21,0,0,1,.08.22.23.23,0,0,1-.19.15l-.45,0h0"/><polygon points="107.58 47.95 110.15 40.04 109.87 39.95 107.41 47.53 107.58 47.95"/><path d="M107.58,48.16a.2.2,0,0,1-.19-.14l-.17-.42a.17.17,0,0,1,0-.14l2.46-7.58a.21.21,0,0,1,.26-.13l.27.09a.2.2,0,0,1,.12.1.18.18,0,0,1,0,.16L107.77,48a.2.2,0,0,1-.19.15Z"/><polygon points="108.17 49.48 108.31 49.48 116.2 38.62 115.97 38.45 108.1 49.28 108.17 49.48"/><path d="M108.31,49.69h-.15a.21.21,0,0,1-.18-.13l-.07-.19a.2.2,0,0,1,0-.2l7.88-10.84a.19.19,0,0,1,.28,0l.24.17a.22.22,0,0,1,.08.13.19.19,0,0,1,0,.15l-7.9,10.87a.18.18,0,0,1-.16.09"/><polygon points="111.2 52.33 110.85 52.62 119.08 52.62 119.08 52.33 111.2 52.33"/><path d="M110.85,52.83a.22.22,0,0,1-.2-.14.21.21,0,0,1,.07-.23l.35-.29a.2.2,0,0,1,.13,0h7.88a.2.2,0,0,1,.15.06.2.2,0,0,1,.06.14v.29a.21.21,0,0,1-.21.21Z"/><polygon points="97.64 49.82 98.16 49.79 89.6 47.01 89.51 47.29 97.85 49.99 97.64 49.82"/><path d="M97.85,50.2h-.06l-8.34-2.71a.2.2,0,0,1-.13-.26l.09-.27a.17.17,0,0,1,.1-.12.18.18,0,0,1,.16,0l8.55,2.78a.19.19,0,0,1,.14.22.2.2,0,0,1-.19.18h-.12a.11.11,0,0,1,0,.08.21.21,0,0,1-.18.11"/><polygon points="107.33 57.18 109.87 65 110.15 64.92 107.72 57.42 107.33 57.18"/><path d="M109.87,65.21l-.09,0a.23.23,0,0,1-.1-.12l-2.54-7.83a.19.19,0,0,1,.07-.22.18.18,0,0,1,.23,0l.39.24a.28.28,0,0,1,.08.11l2.43,7.49a.2.2,0,0,1-.13.26l-.27.09h-.07"/><polygon points="105.81 56.39 105.81 69.72 106.1 69.72 106.1 56.39 105.95 56.29 105.81 56.39"/><path d="M106.1,69.92h-.29a.2.2,0,0,1-.2-.2V56.39a.21.21,0,0,1,.09-.18l.14-.09a.24.24,0,0,1,.23,0l.14.09a.21.21,0,0,1,.09.18V69.72a.2.2,0,0,1-.2.2"/><polygon points="110.05 55.63 116.49 60.31 116.66 60.08 109.94 55.19 110.05 55.63"/><path d="M116.49,60.52a.28.28,0,0,1-.12,0l-6.44-4.68a.2.2,0,0,1-.08-.12l-.11-.44a.19.19,0,0,1,.08-.22.21.21,0,0,1,.24,0l6.72,4.89a.22.22,0,0,1,0,.29l-.17.23a.25.25,0,0,1-.14.08h0"/><polygon points="109.54 53.69 109.57 53.8 122.31 57.94 122.39 57.67 109.72 53.55 109.54 53.69"/><path d="M122.31,58.15h-.07L109.51,54a.22.22,0,0,1-.14-.14l0-.12a.21.21,0,0,1,.07-.21l.17-.14a.21.21,0,0,1,.2,0l12.68,4.12a.2.2,0,0,1,.13.26l-.09.27a.18.18,0,0,1-.1.12.16.16,0,0,1-.09,0"/><polygon points="111.09 59.6 110.83 59.42 115.97 66.51 116.2 66.34 110.97 59.14 111.09 59.6"/><path d="M116,66.71a.18.18,0,0,1-.16-.08l-5.15-7.08a.21.21,0,0,1,0-.27.21.21,0,0,1,.1-.06v0a.23.23,0,0,1,.12-.24.2.2,0,0,1,.25.07l5.23,7.2a.2.2,0,0,1,0,.15.25.25,0,0,1-.08.14l-.24.16a.17.17,0,0,1-.12,0"/><polygon points="104.2 57.42 101.76 64.92 102.03 65 104.58 57.18 104.2 57.42"/><path d="M102,65.21H102l-.27-.09a.17.17,0,0,1-.12-.1.18.18,0,0,1,0-.16L104,57.36a.23.23,0,0,1,.09-.11l.38-.24a.18.18,0,0,1,.23,0,.19.19,0,0,1,.07.22l-2.54,7.83a.2.2,0,0,1-.19.14"/><polygon points="101.98 55.19 95.25 60.08 95.42 60.31 101.86 55.63 101.98 55.19"/><path d="M95.42,60.52h0a.25.25,0,0,1-.14-.08l-.17-.23a.22.22,0,0,1,0-.29L101.85,55a.21.21,0,0,1,.24,0,.19.19,0,0,1,.08.22l-.11.44a.2.2,0,0,1-.08.12l-6.44,4.68a.25.25,0,0,1-.12,0"/><polygon points="102.37 53.69 102.2 53.55 89.52 57.67 89.6 57.94 102.34 53.8 102.37 53.69"/><path d="M89.6,58.15a.16.16,0,0,1-.09,0,.18.18,0,0,1-.1-.12l-.09-.27a.2.2,0,0,1,.13-.26l12.68-4.12a.21.21,0,0,1,.2,0l.17.14a.21.21,0,0,1,.07.21l0,.12a.22.22,0,0,1-.14.14L89.67,58.14H89.6"/><polygon points="100.81 59.6 100.94 59.14 95.71 66.34 95.94 66.51 101.08 59.42 100.81 59.6"/><path d="M95.94,66.71a.17.17,0,0,1-.12,0l-.24-.16a.25.25,0,0,1-.08-.14.2.2,0,0,1,0-.15l5.23-7.2A.2.2,0,0,1,101,59a.21.21,0,0,1,.11.24v0a.21.21,0,0,1,.1.06.21.21,0,0,1,0,.27L96.1,66.63a.18.18,0,0,1-.16.08"/><rect x="105.87" y="43.82" width="0.16" height="12.48"/><path d="M105.94,43.89h0V56.23h0Zm-.14,12.47h.31V43.75h-.31Z"/><polygon points="109.5 53.76 97.63 49.91 97.68 49.75 109.55 53.61 109.5 53.76"/><path d="M97.72,49.87l11.73,3.81v0L97.73,49.84Zm11.82,4-12-3.9.09-.28,12,3.89Z"/><rect x="102.06" y="51.68" width="12.48" height="0.16" transform="translate(-10.69 35.97) rotate(-17.99)"/><path d="M102.43,53.65v0l11.73-3.81v0Zm-.08.2-.09-.29,12-3.89.1.28Z"/><polygon points="111.01 59.62 103.68 49.53 103.81 49.43 111.14 59.53 111.01 59.62"/><path d="M103.77,49.54l7.26,10,0,0-7.25-10ZM111,59.72l-7.42-10.21.25-.17,7.41,10.2Z"/><polygon points="100.9 59.62 100.77 59.53 108.1 49.43 108.23 49.53 100.9 59.62"/><path d="M100.86,59.51l0,0,7.26-10h0Zm0,.21-.24-.18,7.41-10.2.25.17Z"/><path d="M106.5,124.73h-1.09v-.55c0-.82-1.86-1-2.51-1H88a2.81,2.81,0,0,1-3.08-3.08V69.31h21V70.4H86v49.7a1.74,1.74,0,0,0,2,2H102.9A4.81,4.81,0,0,1,106,123a4.76,4.76,0,0,1,3.05-.88h14.88a1.74,1.74,0,0,0,2-2V70.4H106V69.31h21V120.1a2.81,2.81,0,0,1-3.08,3.08H109c-.65,0-2.51.18-2.51,1Z"/><path d="M100.2,95H85.51v.69H100a5.73,5.73,0,0,1,.16-.69"/><path d="M111.71,95a5.73,5.73,0,0,1,.16.69h14.7V95Z"/><path d="M106,90.79h.34V69.9h-.69V90.8H106"/><path d="M106,102.82h-.35v20.75h.69V102.81H106"/><path d="M101.91,99.12H110l-4-7Zm8.44.42h-8.79l-.18-.31,4.4-7.62h.35l4.4,7.62Z"/><path d="M108.16,92.42a.15.15,0,0,1-.09,0,9.45,9.45,0,0,0-1.34-.31,1,1,0,0,1-.67-.39.34.34,0,0,1,0-.28.56.56,0,0,1,.3-.21l-.23-.25a.46.46,0,0,1,0-.42c.11-.26.44-.43,1-.53.76-.13,1.16.45,1.44.88a1.59,1.59,0,0,0,.37.44.2.2,0,0,1,.1.27.21.21,0,0,1-.28.1,1.58,1.58,0,0,1-.53-.58c-.32-.48-.56-.79-1-.7s-.65.23-.67.28,0,0,0,0l.43.44a.19.19,0,0,1,0,.21.19.19,0,0,1-.17.14,1.18,1.18,0,0,0-.27.06,1.15,1.15,0,0,0,.28.09,10.3,10.3,0,0,1,1.45.35.2.2,0,0,1-.09.39"/><path d="M106,101.69a4.89,4.89,0,1,1,4.88-4.88,4.89,4.89,0,0,1-4.88,4.88m2.34-9.63-.14.16a11.1,11.1,0,0,0-1.39-.34.72.72,0,0,1-.52-.28.06.06,0,0,1,0-.08H106a5.3,5.3,0,1,0,2.34.55"/><path d="M108.42,91.1a1.19,1.19,0,0,0,.39.41l-.14.16A5.82,5.82,0,1,1,106,91a4.1,4.1,0,0,1,.5,0l-.16-.18a.23.23,0,0,1,0-.24H106a6.23,6.23,0,1,0,2.46.51"/><path d="M107.26,90.77a.13.13,0,0,1-.13.13.12.12,0,0,1-.12-.13.12.12,0,0,1,.12-.12.12.12,0,0,1,.13.12"/><path d="M107.13,91a.26.26,0,0,1-.26-.26.26.26,0,0,1,.26-.26.26.26,0,0,1,.26.26.25.25,0,0,1-.26.26"/><path d="M106,95.43a1.4,1.4,0,1,0,1.39,1.4,1.4,1.4,0,0,0-1.39-1.4m0,3.11a1.71,1.71,0,1,1,1.71-1.71A1.71,1.71,0,0,1,106,98.54"/><path d="M101.94,120.69h-1.62a.21.21,0,0,1-.21-.2v-3.42h-11a.2.2,0,0,1-.2-.21v-1.77a.21.21,0,0,1,.2-.21H102a.21.21,0,0,1,.2.21v5.4a.2.2,0,0,1-.21.2"/><path class="cls-5" d="M100.53,120.28h1.21v-5H89.28v1.36h11a.21.21,0,0,1,.21.2Z"/><path d="M98.25,115.15a4.36,4.36,0,1,1,4.36-4.36,4.37,4.37,0,0,1-4.36,4.36"/><path class="cls-3" d="M98.25,106.84a3.95,3.95,0,1,0,4,4,4,4,0,0,0-4-4"/><rect x="94.23" y="99.17" width="0.2" height="8.62" transform="translate(-43.66 127.24) rotate(-57.41)"/><polygon points="96.99 106.04 90.59 101.29 90.71 101.13 97.12 105.87 96.99 106.04"/><rect x="93.37" y="99.93" width="0.21" height="7.58" transform="translate(-46.11 107.15) rotate(-49.38)"/><rect x="93.06" y="100.2" width="0.21" height="7.36" transform="translate(-46.21 97.09) rotate(-45.32)"/><rect x="92.78" y="100.44" width="0.21" height="7.25" transform="translate(-45.57 87.13) rotate(-41.28)"/><rect x="92.54" y="100.64" width="0.21" height="7.27" transform="translate(-44.21 77.29) rotate(-37.23)"/><rect x="92.31" y="100.82" width="0.21" height="7.38" transform="translate(-42.21 67.92) rotate(-33.31)"/><polygon points="93.98 108.14 90.24 101.53 90.42 101.42 94.16 108.04 93.98 108.14"/><polygon points="93.64 108.72 90.19 101.56 90.37 101.47 93.82 108.63 93.64 108.72"/><rect x="91.73" y="101.25" width="0.21" height="8.49" transform="translate(-33.16 42.73) rotate(-22.3)"/><rect x="91.62" y="101.35" width="0.21" height="9.53" transform="translate(-29.54 35.63) rotate(-18.99)"/><path d="M89.22,100.48l.43.35-.14.54.47-.3.47.3-.14-.54.43-.35-.56,0-.2-.52-.2.52Zm1.9,1.81L90,101.56l-1.13.73.34-1.31-1-.85,1.34-.08L90,98.8l.49,1.25,1.35.08-1,.85Z"/><polygon class="cls-5" points="89.22 100.48 89.66 100.83 89.51 101.37 89.98 101.07 90.45 101.37 90.31 100.83 90.74 100.48 90.19 100.45 89.98 99.93 89.78 100.45 89.22 100.48"/><path d="M97.16,114.43a.2.2,0,0,1-.2-.13,5.57,5.57,0,0,1-.07-.74,3.19,3.19,0,0,1,0-.33,3,3,0,0,1,0-.37c0-.15,0-.41,0-.46l0-.09c0-.09-.08-.31-.17-.34-.65-.24-.62-.45-.62-.52a1,1,0,0,0,0-.23c0-.38,0-.64.11-.73l.19-.1.12-.06c-.09,0-.2-.11-.23-.22a2,2,0,0,0-.31-.22,1.54,1.54,0,0,1-.26-.18.58.58,0,0,1-.07-.14c-.16-.32-.24-.38-.27-.39s-.66-.14-.77-.36a.24.24,0,0,1,0-.23,6.51,6.51,0,0,1,1-1.18,7.73,7.73,0,0,1,1.12-.63.13.13,0,0,1,.12,0,.12.12,0,0,1,.07.11s.06.39.07.57.06.17.14.15a.76.76,0,0,0,.2-.18c.14-.14.27-.27.42-.27h0l.12,0a.51.51,0,0,1,.2-.06s.21,0,.21.29a2,2,0,0,1,0,.27,1.72,1.72,0,0,0,0,.31.45.45,0,0,1-.12.38.4.4,0,0,1-.47.13l-.07,0a.29.29,0,0,0-.14-.08h0a.73.73,0,0,0-.37.34c-.08.2-.27.38-.41.38h-.06c-.13,0-.14-.21-.14-.4,0,0-.05-.07-.08-.07l-.12,0-.08,0a.55.55,0,0,0-.15.38,1.74,1.74,0,0,0,.46.7,8.81,8.81,0,0,1,1.06.8,4.56,4.56,0,0,0,.61.24c.34.1.76.28.8.58a1.37,1.37,0,0,1-.36,1,2.73,2.73,0,0,0-.46.45l-.09.11c-.07.07-.1.09-.16.41a7.87,7.87,0,0,1-.33,1.14.11.11,0,0,1-.06.07.65.65,0,0,1-.31.11"/><polygon points="97.16 114.15 97.16 114.29 97.16 114.15 97.16 114.15"/><path class="cls-5" d="M96.31,111.47a.94.94,0,0,0,.44.24c.21.08.29.36.33.53a.21.21,0,0,1,0,.06,2,2,0,0,1,0,.57,1.65,1.65,0,0,0,0,.32s0,.15,0,.35,0,.46,0,.6l.08,0a6.59,6.59,0,0,0,.3-1c.07-.38.12-.45.23-.56l.08-.09a3.35,3.35,0,0,1,.5-.5,1.21,1.21,0,0,0,.26-.7c0-.09-.21-.23-.61-.35a3.41,3.41,0,0,1-.73-.3,9.71,9.71,0,0,0-1-.75,1.68,1.68,0,0,1-.63-.91.82.82,0,0,1,.24-.63.23.23,0,0,1,.17-.07,1.16,1.16,0,0,1,.18,0l.08,0a.37.37,0,0,1,.3.34v.06a.32.32,0,0,0,.08-.13,1,1,0,0,1,.52-.49.32.32,0,0,1,.14,0,.5.5,0,0,1,.31.14l0,0A.21.21,0,0,0,98,108a1.61,1.61,0,0,1,0-.37c0-.06,0-.13,0-.24h0a.55.55,0,0,1-.26.06.94.94,0,0,0-.22.2.86.86,0,0,1-.33.24.39.39,0,0,1-.48-.39c0-.09,0-.25,0-.37a6.85,6.85,0,0,0-.91.52,5.56,5.56,0,0,0-.9,1.09,1.09,1.09,0,0,0,.52.19c.22,0,.36.28.49.54l0,.07.19.14c.27.17.4.26.43.38l.11.06c.09,0,.23.11.2.26s-.16.19-.34.28l-.15.07a2,2,0,0,0,0,.49c0,.11,0,.21,0,.27"/><path d="M99.3,108c-.2,0-.34-.09-.35-.24a.38.38,0,0,0-.12-.17.5.5,0,0,1-.31-.28,1.53,1.53,0,0,1-.09-.41v0l.08-.24a.15.15,0,0,1,.14-.1,3.85,3.85,0,0,1,1,.23.15.15,0,0,1,.07.2,1.74,1.74,0,0,0-.17.31s0,.06,0,.11c0,.4,0,.63-.23.64h0"/><path class="cls-5" d="M99.22,107.73l0,0c0-.1,0-.3,0-.39s0-.11,0-.14a.94.94,0,0,1,.12-.26,3.08,3.08,0,0,0-.69-.14l0,.1a1.91,1.91,0,0,0,.07.3c0,.07.08.1.18.15a.59.59,0,0,1,.27.36"/><path d="M101.53,113.43l0,0a.12.12,0,0,1-.08-.14c0-.19.06-.41.06-.47a.94.94,0,0,1,0-.27,1,1,0,0,0,0-.18.91.91,0,0,0-.08-.2.92.92,0,0,1-.1-.25.53.53,0,0,0-.15-.3.81.81,0,0,1-.16-.34,1.21,1.21,0,0,0-.08-.19.77.77,0,0,1-.14-.29.34.34,0,0,0,0-.08c-.16-.16.1-.59.11-.59a1,1,0,0,1,.36-.21h0a1.93,1.93,0,0,1,.37-.09l.11-.1a.88.88,0,0,0,0-.15.71.71,0,0,1,0-.21h0a.32.32,0,0,1-.14,0,.72.72,0,0,1-.39-.06l-.08,0a.17.17,0,0,1-.13,0,.89.89,0,0,0-.19-.11h-.14l0,.09c0,.1,0,.23,0,.26,0,.19-.38.3-.5.3h-.06c-.31-.07-.37-.11-.39-.19s.07-.36.1-.43a.21.21,0,0,0,0-.06.26.26,0,0,1,0-.23.82.82,0,0,1,.14-.16.14.14,0,0,1,.09,0H100l0,0s.11-.15.15-.19h0a.21.21,0,0,0,.08-.16.51.51,0,0,0,0-.18.17.17,0,0,0,0-.07s0,0,0-.08l-.05-.07a.54.54,0,0,1-.12-.27.29.29,0,0,1,.16-.27,1.88,1.88,0,0,0,.21-.18.14.14,0,0,1,.17,0,2.34,2.34,0,0,1,.44.33,11.71,11.71,0,0,1,1.17,1.59,4.71,4.71,0,0,1,.21,2.49,4.07,4.07,0,0,1-.81,1.76.16.16,0,0,1-.11.05"/><path class="cls-5" d="M100.91,110.54a.39.39,0,0,1,.07.16.61.61,0,0,0,.09.2.8.8,0,0,1,.13.28.76.76,0,0,0,.11.24.92.92,0,0,1,.21.45l.07.16a.79.79,0,0,1,.11.3,1.21,1.21,0,0,1,0,.2,1,1,0,0,0,0,.19s0,0,0,0a3.64,3.64,0,0,0,.45-1.18,4.38,4.38,0,0,0-.18-2.31,11.66,11.66,0,0,0-1.11-1.53c-.13-.11-.25-.19-.32-.24a1.05,1.05,0,0,1-.2.14v0s0,0,.07.12l0,0a.42.42,0,0,1,.11.22.13.13,0,0,1,0,.06.67.67,0,0,1,0,.26.53.53,0,0,1-.17.32,1.58,1.58,0,0,0-.14.2.1.1,0,0,1,0,0,.5.5,0,0,1-.26.06h-.13l0,0v0a.31.31,0,0,1,0,.27,2,2,0,0,0-.07.19l.17,0a.7.7,0,0,0,.23-.08,1.7,1.7,0,0,1,0-.27,0,0,0,0,1,0,0c0-.09.1-.25.23-.28h0a.46.46,0,0,1,.26,0,.84.84,0,0,1,.26.14l.14,0a.57.57,0,0,0,.27.05h0a.24.24,0,0,1,.15,0,.91.91,0,0,1,.2,0,.13.13,0,0,1,.09.16.74.74,0,0,0,0,.2,1.83,1.83,0,0,1,.07.23.2.2,0,0,1,0,.17s-.18.22-.31.22l-.32.08-.25.13a.88.88,0,0,0-.1.26"/><path d="M120.46,120.36h-.06a.2.2,0,0,1-.14-.19v-2.24a.21.21,0,0,1,0-.13l3.33-3.89a.21.21,0,0,1,.37.14v.28a2.3,2.3,0,0,0,0,.7.38.38,0,0,0,.18.23.19.19,0,0,1,.12.14.18.18,0,0,1,0,.17l-3.65,4.72a.21.21,0,0,1-.17.08"/><path class="cls-5" d="M120.67,118v1.55l3.16-4.07a.77.77,0,0,1-.21-.38,1.89,1.89,0,0,1-.05-.49Z"/><path d="M116.12,112.77h-.06a.22.22,0,0,1-.14-.2l.13-7.68a.23.23,0,0,1,.1-.17,2.44,2.44,0,0,1,1.34-.45,3.53,3.53,0,0,1,1.34.34,1.62,1.62,0,0,0,.64.12,3.11,3.11,0,0,0,1.25-.3.21.21,0,0,1,.19,0,.2.2,0,0,1,.1.18s0,5.67,0,7.59a.21.21,0,0,1-.08.16.19.19,0,0,1-.18,0,9.52,9.52,0,0,0-2.44-.38c-1.57,0-2,.65-2,.66a.21.21,0,0,1-.18.09"/><path class="cls-5" d="M116.46,105l-.12,7.08a3.47,3.47,0,0,1,2-.48,9.42,9.42,0,0,1,2.3.33c0-1.82,0-5.87,0-7a3.55,3.55,0,0,1-1.13.21,2.07,2.07,0,0,1-.8-.15,2.94,2.94,0,0,0-1.18-.31,2,2,0,0,0-1,.33"/><path d="M116.09,112.75a.21.21,0,0,1-.17-.08c-.25-.35-.86-.54-1.77-.54a13.26,13.26,0,0,0-2.73.37.18.18,0,0,1-.17,0,.19.19,0,0,1-.09-.16l-.08-6.7a.21.21,0,0,1,.08-.16.2.2,0,0,1,.17,0,3.35,3.35,0,0,0,.66.06,3.82,3.82,0,0,0,2-.52,3,3,0,0,1,1.5-.45,1.78,1.78,0,0,1,.93.23.22.22,0,0,1,.1.18s-.11,4.43-.18,7.65a.2.2,0,0,1-.14.19h-.06"/><path d="M114.15,111.72a3.36,3.36,0,0,1,1.74.37c.06-2.83.14-6.36.16-7.07a1.49,1.49,0,0,0-.61-.12,2.48,2.48,0,0,0-1.29.4,4.27,4.27,0,0,1-2.16.57,3.43,3.43,0,0,1-.5,0l.08,6.2a12.57,12.57,0,0,1,2.58-.32"/><path d="M116.09,112.75a.21.21,0,0,1-.17-.08c-.25-.35-.86-.54-1.77-.54a13.26,13.26,0,0,0-2.73.37.18.18,0,0,1-.17,0,.19.19,0,0,1-.09-.16l-.08-6.7a.21.21,0,0,1,.08-.16.2.2,0,0,1,.17,0,3.35,3.35,0,0,0,.66.06,3.82,3.82,0,0,0,2-.52,3,3,0,0,1,1.5-.45,1.78,1.78,0,0,1,.93.23.22.22,0,0,1,.1.18s-.11,4.43-.18,7.65a.2.2,0,0,1-.14.19h-.06"/><path class="cls-5" d="M114.15,111.72a3.36,3.36,0,0,1,1.74.37c.06-2.83.14-6.36.16-7.07a1.49,1.49,0,0,0-.61-.12,2.48,2.48,0,0,0-1.29.4,4.27,4.27,0,0,1-2.16.57,3.43,3.43,0,0,1-.5,0l.08,6.2a12.57,12.57,0,0,1,2.58-.32"/><path d="M120.08,117.21H120a.21.21,0,0,1-.13-.19l-.06-1.72a.25.25,0,0,1,.05-.15l2.94-3.15a.22.22,0,0,1,.23,0,.22.22,0,0,1,.13.19v.25a1.46,1.46,0,0,0,0,.59.25.25,0,0,0,.14.18.21.21,0,0,1,.12.14.2.2,0,0,1,0,.18l-3.17,3.67a.24.24,0,0,1-.16.07"/><path class="cls-5" d="M120.23,115.36l0,1.11,2.69-3.1a.61.61,0,0,1-.16-.31,1.33,1.33,0,0,1,0-.4Z"/><path d="M123,112.28h0l-1.13-.09a.2.2,0,0,1-.18-.22.19.19,0,0,1,.22-.19l1.12.09a.21.21,0,0,1,0,.41"/><path d="M120,117.23H120l-10.45-2.54a1,1,0,0,1-.71-1,1,1,0,0,1,.22-.68.71.71,0,0,1,.51-.2h0l10.5,2.19a.21.21,0,0,1,.17.2V117a.21.21,0,0,1-.08.16.17.17,0,0,1-.12,0"/><path class="cls-2" d="M109.52,113.22a.25.25,0,0,0-.17.07.54.54,0,0,0-.11.38c0,.52.35.61.39.62l10.2,2.48v-1.4Z"/><path d="M109.23,113.32a.18.18,0,0,1-.15-.07.21.21,0,0,1,0-.29l1.19-1.07a.2.2,0,1,1,.27.3l-1.18,1.08a.24.24,0,0,1-.14,0"/><path d="M111.46,115.13a.21.21,0,0,1-.21-.21v-1.44a.2.2,0,0,1,.21-.2.2.2,0,0,1,.2.2v1.44a.2.2,0,0,1-.2.21"/><path d="M112.45,115.38a.21.21,0,0,1-.21-.2v-1.4a.21.21,0,1,1,.42,0v1.4a.21.21,0,0,1-.21.2"/><path d="M116.91,116.41a.2.2,0,0,1-.21-.2V114.7a.2.2,0,0,1,.21-.2.2.2,0,0,1,.2.2v1.51a.2.2,0,0,1-.2.2"/><path d="M120.41,120.34h0l-12-3.37a1.09,1.09,0,0,1-.78-1.15c0-.71.42-1,.78-1h.07l12,2.9a.22.22,0,0,1,.16.2v2.18a.21.21,0,0,1-.08.16.2.2,0,0,1-.13,0"/><path class="cls-2" d="M108.39,115.27c-.14,0-.36.08-.36.55,0,.63.41.74.46.75l11.72,3.3v-1.75Z"/><path d="M108.06,115.38a.2.2,0,0,1-.16-.07.21.21,0,0,1,0-.29l1.08-.94a.21.21,0,1,1,.27.31l-1.08.94a.24.24,0,0,1-.13,0"/><path d="M123.8,114.18h0l-.94-.09a.21.21,0,1,1,0-.41l.94.09a.21.21,0,0,1,0,.41"/><path d="M109.67,117.22a.13.13,0,0,1-.13-.14v-1.63a.13.13,0,0,1,.13-.13.13.13,0,0,1,.14.13v1.63a.14.14,0,0,1-.14.14"/><path d="M116.63,119.17a.14.14,0,0,1-.14-.13v-1.91a.14.14,0,0,1,.14-.13.13.13,0,0,1,.14.13V119a.13.13,0,0,1-.14.13"/><path d="M116.13,104.78a1.83,1.83,0,0,1-1.78-1.33.14.14,0,0,1,0-.15.14.14,0,0,1,.15,0,2.72,2.72,0,0,0,.32.13,2.79,2.79,0,0,1-.35-.77.15.15,0,0,1,0-.14.14.14,0,0,1,.15,0,1.79,1.79,0,0,0,.34.14,2.36,2.36,0,0,1-.26-.59.17.17,0,0,1,0-.15.14.14,0,0,1,.15,0,2.54,2.54,0,0,0,.53.2,1.73,1.73,0,0,0,.32-.9c0-.25.07-.48.28-.48s.23.21.27.44a1.71,1.71,0,0,0,.33.89,3,3,0,0,0,.57-.16.12.12,0,0,1,.14,0,.14.14,0,0,1,0,.14,2.55,2.55,0,0,1-.25.6,3,3,0,0,0,.34-.15.14.14,0,0,1,.15,0,.12.12,0,0,1,0,.14,2.4,2.4,0,0,1-.35.77,2,2,0,0,0,.32-.13.14.14,0,0,1,.15,0,.14.14,0,0,1,0,.15,1.83,1.83,0,0,1-1.79,1.33"/><path class="cls-2" d="M114.72,103.66a1.61,1.61,0,0,0,2.82,0,2.57,2.57,0,0,1-.53.13.16.16,0,0,1-.15-.09.13.13,0,0,1,.06-.16,1.65,1.65,0,0,0,.47-.68,2.57,2.57,0,0,1-.53.13.13.13,0,0,1-.14-.09.14.14,0,0,1,0-.16,1.36,1.36,0,0,0,.35-.53,2.05,2.05,0,0,1-.43.09.11.11,0,0,1-.11,0,1.83,1.83,0,0,1-.46-1.08h0v0a1.85,1.85,0,0,1-.44,1.1.15.15,0,0,1-.11,0,1.82,1.82,0,0,1-.4-.11,1.32,1.32,0,0,0,.33.5.13.13,0,0,1,.05.16.14.14,0,0,1-.14.09,2.05,2.05,0,0,1-.53-.14,1.54,1.54,0,0,0,.48.68.15.15,0,0,1,.05.16.15.15,0,0,1-.15.09,2.06,2.06,0,0,1-.53-.13"/><path d="M117.09,83.17h0a.18.18,0,0,1-.15-.13c-.19-.53-.54-1.13-.73-1.13l-.12,0a8.07,8.07,0,0,1-1.35.13c-1.86,0-3-.87-3.21-2.51-.48-3.26.85-4.34,1-4.46a1.93,1.93,0,0,1,1.33-.55,1.88,1.88,0,0,1,1.83,1.38,2.72,2.72,0,0,1-.58,2.22.39.39,0,0,1-.18,0,1.56,1.56,0,0,1-.92-.57,1.94,1.94,0,0,0-.3.63,1.77,1.77,0,0,0,.19,1.45c.17.29.47.41,1,.41l.52,0,.55,0a1.72,1.72,0,0,1,1.46.56,1.93,1.93,0,0,1-.19,2.49.2.2,0,0,1-.16.07"/><path class="cls-5" d="M116.17,81.49c.43,0,.78.61,1,1.05a1.42,1.42,0,0,0,0-1.68,1.31,1.31,0,0,0-1.14-.4l-.53,0-.54,0a1.48,1.48,0,0,1-1.38-.6,2.23,2.23,0,0,1-.18-1.94,1.44,1.44,0,0,1,.59-.84.19.19,0,0,1,.23.06,1.67,1.67,0,0,0,.73.58,2.62,2.62,0,0,0,.36-1.76,1.43,1.43,0,0,0-1.42-1.06,1.54,1.54,0,0,0-1.06.44l0,0a2,2,0,0,0-.59.84,5.93,5.93,0,0,0-.27,3.23c.21,1.43,1.16,2.16,2.81,2.16a6.51,6.51,0,0,0,1.28-.13l.15,0h0"/><path d="M116.24,86a1.76,1.76,0,0,1-1.34-.46c-.91-.95-.18-2.3.34-2.87a.17.17,0,0,1,.16-.07.21.21,0,0,1,.16.08s.28.38.63.92a.2.2,0,0,1,0,.21.27.27,0,0,0,0,.08.62.62,0,0,0,.27,0,4.12,4.12,0,0,0,.92-.14,1.86,1.86,0,0,1,2.1.45c.35.51.22,1.07-.37,1.68a.21.21,0,0,1-.35-.12s-.09-.07-.26-.07a5.56,5.56,0,0,0-.87.11,8.84,8.84,0,0,1-1.37.16"/><path class="cls-5" d="M115.39,83.1c-.3.42-.86,1.4-.19,2.1a1.34,1.34,0,0,0,1,.34,7.11,7.11,0,0,0,1.3-.16,6.19,6.19,0,0,1,.94-.12.78.78,0,0,1,.49.13c.39-.49.28-.78.15-1a1.06,1.06,0,0,0-.92-.38,3,3,0,0,0-.74.1,4.47,4.47,0,0,1-1,.15c-.32,0-.53-.08-.62-.24a.38.38,0,0,1,0-.36c-.16-.25-.3-.45-.4-.59"/><path d="M120.53,92.47h0c-.26,0-.34-.31-.42-.55a1.18,1.18,0,0,0-.19-.44,2,2,0,0,0-.21-.2,1.28,1.28,0,0,1-.52-.91c0-.06,0-.11,0-.17a1.25,1.25,0,0,0-.44-1.13,1.43,1.43,0,0,0-.58-.28,1.8,1.8,0,0,1-1.21-.89c-.62-1,.54-2.13.59-2.17a.25.25,0,0,1,.16-.06.2.2,0,0,1,.14.08,4.16,4.16,0,0,1,.86,1.32l.11,0c.13,0,.3,0,.47,0a1.43,1.43,0,0,1,.62.12,1.21,1.21,0,0,1,.61,1.46.92.92,0,0,0,.3,1,.91.91,0,0,1,.35.64,4.79,4.79,0,0,1-.37,2.11.31.31,0,0,1-.22.1"/><path class="cls-5" d="M117.63,86.18c-.25.3-.7.94-.37,1.5a1.47,1.47,0,0,0,1,.71,1.84,1.84,0,0,1,.74.37,1.65,1.65,0,0,1,.57,1.41.91.91,0,0,1,0,.17A.89.89,0,0,0,120,91a2.55,2.55,0,0,1,.24.23,1.6,1.6,0,0,1,.28.59,1,1,0,0,0,0,.16,6.43,6.43,0,0,0,.19-1.68c0-.13-.07-.21-.22-.35a1.32,1.32,0,0,1-.43-1.41c.1-.54,0-.82-.39-1a1,1,0,0,0-.43-.08c-.15,0-.29,0-.42,0l-.27,0a.32.32,0,0,1-.27-.12.25.25,0,0,1,0-.24h0a5.12,5.12,0,0,0-.62-.94"/><path d="M111.63,77.65a.19.19,0,0,1-.16-.09l-1.61-2.24a2.4,2.4,0,0,1-.46.05,1.18,1.18,0,0,1-1-.46c-.42-.62,0-1.61.9-2.25a2.61,2.61,0,0,1,1.41-.47,1.18,1.18,0,0,1,1,.46,1.34,1.34,0,0,1-.18,1.54l.89,1.36a.21.21,0,0,1,0,.23,3.76,3.76,0,0,0-.57,1.69.2.2,0,0,1-.15.17h-.06"/><path class="cls-4" d="M110,74.88a.21.21,0,0,1,.16.08l1.4,2a4.22,4.22,0,0,1,.49-1.26l-.89-1.36a.21.21,0,0,1,0-.24,1.07,1.07,0,0,0,.25-1.18.8.8,0,0,0-.67-.28,2.25,2.25,0,0,0-1.18.4c-.71.49-1.07,1.26-.79,1.68a.78.78,0,0,0,.67.28,1.71,1.71,0,0,0,.49-.07H110"/><path d="M114.91,80.5h0a1.48,1.48,0,0,1-1.38-.6,2.32,2.32,0,0,1-.08-2.19.21.21,0,0,1,.17-.12.22.22,0,0,1,.19.09l1.62,2.49a.22.22,0,0,1,0,.21.18.18,0,0,1-.17.11h-.36"/><path class="cls-4" d="M113.69,78.25a1.79,1.79,0,0,0,.19,1.44c.17.28.46.4,1,.4Z"/><path d="M115,76.27a.28.28,0,0,1-.28.27.27.27,0,0,1,0-.54.28.28,0,0,1,.28.27"/><path d="M114.72,76.13a.14.14,0,0,0,0,.28.14.14,0,0,0,0-.28m0,.55a.41.41,0,1,1,0-.82.41.41,0,1,1,0,.82"/><path d="M116.45,84.29h-.07a.21.21,0,0,1-.16-.08L114.62,82a.2.2,0,0,1,0-.21.22.22,0,0,1,.18-.12,9.42,9.42,0,0,0,1.2-.12l.15,0h.05a.24.24,0,0,1,.17.09l1.43,2.2a.23.23,0,0,1,0,.2.23.23,0,0,1-.15.12l-.18,0a4.64,4.64,0,0,1-1,.15"/><path class="cls-4" d="M115.17,82l1.32,1.84a3.9,3.9,0,0,0,.79-.12l-1.21-1.84h0a8.55,8.55,0,0,1-.88.12"/><path d="M119.88,87.58a.2.2,0,0,1-.11,0l-.09,0a1,1,0,0,0-.44-.08c-.15,0-.29,0-.42,0l-.14,0a.21.21,0,0,1-.19-.09l-.41-.58c-.13-.19-.28-.4-.39-.54l-.39-.54a.19.19,0,0,1,0-.19.21.21,0,0,1,.16-.13l.09,0a4.6,4.6,0,0,1,1.14-.1.17.17,0,0,1,.14.09L120,87.24a.2.2,0,0,1,.06.14.21.21,0,0,1-.21.2Z"/><path class="cls-4" d="M117.83,85.75,118,86c.11.14.26.35.4.55l.34.48h0c.13,0,.3,0,.47,0h.15l-.87-1.33a4,4,0,0,0-.69.07"/><path d="M123.67,94a.27.27,0,0,1-.12,0l-.72-.5,0,0-2-2.83a.17.17,0,0,1,0-.12v-.15c0-.14-.07-.21-.22-.35a1.32,1.32,0,0,1-.43-1.41,1.58,1.58,0,0,0,0-.47.19.19,0,0,1,.13-.22.2.2,0,0,1,.24.08l3.18,4.88a.09.09,0,0,1,0,.07l.2.85a.22.22,0,0,1-.09.22.2.2,0,0,1-.11,0"/><path class="cls-4" d="M123.09,93.11l.26.17-.07-.31-2.82-4.33a.89.89,0,0,0,.31,1,.91.91,0,0,1,.35.64v.1Z"/><path d="M122,105.18a.19.19,0,0,0-.18,0,10,10,0,0,1-1,.27v.42l.89-.21c0,1.42,0,5.89,0,7a18.9,18.9,0,0,0-3.16-.3,6.23,6.23,0,0,0-2.2.31.17.17,0,0,1-.12.11h-.06a.21.21,0,0,1-.17-.08v0a7.68,7.68,0,0,0-2.32-.35,8.63,8.63,0,0,0-2.91.52c0-1.72-.1-5.36-.13-6.35l.54.08v-.41l-.71-.12a.18.18,0,0,0-.17,0,.17.17,0,0,0-.07.16s.13,5.12.13,6.9a.22.22,0,0,0,.09.17.27.27,0,0,0,.12,0h.08a8,8,0,0,1,3-.6,6.94,6.94,0,0,1,2.43.41.19.19,0,0,0,.18,0,5,5,0,0,1,2.27-.39,19.9,19.9,0,0,1,3.32.34.19.19,0,0,0,.17,0,.21.21,0,0,0,.08-.16c0-.07,0-6.41,0-7.52a.2.2,0,0,0-.09-.17"/><path d="M103.25,96.84a3.33,3.33,0,0,0,5.41,0,3.31,3.31,0,0,0-5.41,0m2.71,1.8A3.72,3.72,0,0,1,102.83,97l-.07-.11.07-.11a3.72,3.72,0,0,1,6.25,0l.08.11-.08.11A3.71,3.71,0,0,1,106,98.64"/><path d="M106.68,96.82a.73.73,0,1,1-.72-.73.73.73,0,0,1,.72.73"/><polygon points="89.63 115.11 89.32 114.96 90.63 111.43 91.58 111.89 89.63 115.11"/><polygon class="cls-2" points="90.82 111.91 90.26 113.41 91.09 112.04 90.82 111.91"/><polygon points="93.19 115.11 91.24 111.89 92.2 111.43 93.5 114.96 93.19 115.11"/><polygon class="cls-2" points="91.73 112.04 92.56 113.41 92.01 111.91 91.73 112.04"/><path d="M91.42,112.14a1,1,0,1,1,1-1,1,1,0,0,1-1,1"/><path class="cls-2" d="M91.42,110.57a.58.58,0,1,0,.58.58.58.58,0,0,0-.58-.58"/><path class="cls-5" d="M93.83,90.49a1.85,1.85,0,0,0,3.69,0Z"/><path d="M94.06,90.7a1.64,1.64,0,0,0,3.24,0Zm1.62,1.79a2,2,0,0,1-2.05-2,.2.2,0,0,1,.06-.15.18.18,0,0,1,.14-.06h3.69a.22.22,0,0,1,.15.06.2.2,0,0,1,.06.15,2,2,0,0,1-2,2"/><polygon class="cls-5" points="96.51 90.49 94.73 90.49 95.62 72.71 96.51 90.49"/><path d="M95,90.28H96.3l-.68-13.46Zm1.57.41H94.73a.22.22,0,0,1-.15-.06.21.21,0,0,1,0-.15l.88-17.78a.21.21,0,0,1,.21-.19.19.19,0,0,1,.2.19l.9,17.74v0a.2.2,0,0,1-.2.2"/><rect class="cls-5" x="92.92" y="86.7" width="5.51" height="0.92"/><path d="M93.13,87.41h5.1v-.5h-5.1Zm5.3.42H92.92a.22.22,0,0,1-.21-.21V86.7a.21.21,0,0,1,.21-.2h5.51a.2.2,0,0,1,.21.2v.92a.21.21,0,0,1-.21.21"/><path d="M94.86,89.15a.21.21,0,0,1-.16-.08.21.21,0,0,1,0-.29l1.57-1.31a.22.22,0,0,1,.29,0,.21.21,0,0,1,0,.29L95,89.1a.24.24,0,0,1-.13.05"/><path d="M94.8,90.37a.21.21,0,0,1-.13-.37l1.59-1.33a.21.21,0,0,1,.29,0,.22.22,0,0,1,0,.29l-1.6,1.33a.24.24,0,0,1-.13.05"/><path class="cls-5" d="M99,80.6l2-4.71,2,4.71Zm-6.69,0h-4.1l2.05-4.71Zm8.74-6.25H90.26l-2.78,6.32a2.79,2.79,0,0,0,5.57,0L90.6,75.11h10.11l-2.45,5.56a2.79,2.79,0,0,0,5.57,0Z"/><path d="M88.53,80.4H92l-1.74-4Zm3.78.41h-4.1a.22.22,0,0,1-.17-.09.2.2,0,0,1,0-.2l2-4.72a.22.22,0,0,1,.19-.12.21.21,0,0,1,.19.12l2,4.72a.2.2,0,0,1,0,.2.22.22,0,0,1-.17.09m7-.41h3.47l-1.73-4Zm3.79.41H99a.22.22,0,0,1-.17-.09.2.2,0,0,1,0-.2l2-4.72a.21.21,0,0,1,.19-.12.22.22,0,0,1,.19.12l2,4.72a.2.2,0,0,1,0,.2.24.24,0,0,1-.17.09m-4.63-.1a2.58,2.58,0,0,0,5.16,0l-2.71-6.15H90.39l-2.7,6.15a2.58,2.58,0,0,0,5.15,0L90.41,75.2a.23.23,0,0,1,0-.2.21.21,0,0,1,.18-.09h10.11a.21.21,0,0,1,.18.09.23.23,0,0,1,0,.2Zm2.58,2.87a3,3,0,0,1-3-2.91.11.11,0,0,1,0-.08l2.32-5.27H90.91l2.33,5.27a.19.19,0,0,1,0,.08,3,3,0,0,1-6,0,.19.19,0,0,1,0-.08l2.78-6.32a.21.21,0,0,1,.19-.13h10.79a.21.21,0,0,1,.19.13L104,80.59a.19.19,0,0,1,0,.08,3,3,0,0,1-3,2.91"/><path d="M51.82,132.87a.65.65,0,0,0-.48.17,1,1,0,0,0-.22.42,2.35,2.35,0,0,0-.06.54v7.73a5.06,5.06,0,0,1-1.37,3.81,5.34,5.34,0,0,1-3.85,1.32A5.27,5.27,0,0,1,42,145.52a5.14,5.14,0,0,1-1.36-3.84v-7.8a2.1,2.1,0,0,0-.1-.73c-.07-.19-.28-.28-.64-.28h-.31v-.21h3.83v.21a3.79,3.79,0,0,0-.52,0,.49.49,0,0,0-.31.12.54.54,0,0,0-.16.31,3.82,3.82,0,0,0,0,.56v7.85a4.63,4.63,0,0,0,.88,3,3.4,3.4,0,0,0,2.85,1.11,3.75,3.75,0,0,0,2.81-1,3.88,3.88,0,0,0,1-2.83v-8.15a1.31,1.31,0,0,0-.09-.52.66.66,0,0,0-.32-.32,1.61,1.61,0,0,0-.66-.11v-.21h3.28v.21Z"/><path d="M66.57,133a.56.56,0,0,0-.32.28,1.06,1.06,0,0,0-.1.47c0,.2,0,.42,0,.68v12.32h-1l-8.27-11.82v10c0,.26,0,.48,0,.67a1.2,1.2,0,0,0,.11.46.51.51,0,0,0,.32.27,1.81,1.81,0,0,0,.64.08v.21H54.58v-.21a1.9,1.9,0,0,0,.66-.08.58.58,0,0,0,.33-.26.93.93,0,0,0,.11-.45c0-.19,0-.42,0-.69V133.73c-.08-.18-.15-.32-.21-.44a.71.71,0,0,0-.18-.27.57.57,0,0,0-.26-.12,2.61,2.61,0,0,0-.46,0v-.21H57.3c1.26,1.91,2.55,3.79,3.85,5.63S63.74,142,65,143.91v-9.52c0-.27,0-.51,0-.7a1.06,1.06,0,0,0-.1-.47.54.54,0,0,0-.33-.27,2.3,2.3,0,0,0-.67-.08v-.21h3.34v.21a1.86,1.86,0,0,0-.66.09"/><path d="M69.76,146.61v-.21a4.71,4.71,0,0,0,.57,0,.65.65,0,0,0,.34-.11.44.44,0,0,0,.16-.3,3,3,0,0,0,0-.58V133.88a3,3,0,0,0,0-.58.44.44,0,0,0-.16-.3.65.65,0,0,0-.34-.11,4.71,4.71,0,0,0-.57,0v-.21h4v.21a4.63,4.63,0,0,0-.57,0,.65.65,0,0,0-.34.11.44.44,0,0,0-.16.3,3,3,0,0,0,0,.58v11.51a3,3,0,0,0,0,.58.44.44,0,0,0,.16.3.65.65,0,0,0,.34.11,4.63,4.63,0,0,0,.57,0v.21Z"/><path d="M88.46,133.11a2.47,2.47,0,0,0-.34.6l-5.05,13h-.84l-5.32-13a1.8,1.8,0,0,0-.4-.62,1,1,0,0,0-.67-.26v-.21h3.65v.21h-.4a.62.62,0,0,0-.31.08.32.32,0,0,0-.15.22.7.7,0,0,0,.07.39l4.2,10.59L86.78,134a1.16,1.16,0,0,0,.1-.84c-.08-.18-.34-.28-.78-.31v-.21h3v.21a.73.73,0,0,0-.6.24"/><path d="M98.93,146.61H89.54v-.21a1.25,1.25,0,0,0,.8-.17,1.37,1.37,0,0,0,.17-.84V133.88a1.37,1.37,0,0,0-.17-.84,1.25,1.25,0,0,0-.8-.17v-.21h9.19l0,2.12h-.29c-.07-.52-.23-.84-.49-.95a2.64,2.64,0,0,0-1.1-.18H92.71c-.23,0-.37,0-.4.07a1,1,0,0,0,0,.4v4.72h4.18a5,5,0,0,0,.58,0,.9.9,0,0,0,.4-.13.7.7,0,0,0,.24-.31,2.67,2.67,0,0,0,.12-.56h.27v3.11h-.27a2.64,2.64,0,0,0-.12-.57.73.73,0,0,0-.24-.32.8.8,0,0,0-.39-.15,4.91,4.91,0,0,0-.59,0H92.26v5.38a.38.38,0,0,0,.11.28.54.54,0,0,0,.27.11,1.76,1.76,0,0,0,.33,0h3.7a6.82,6.82,0,0,0,.85-.05,1.92,1.92,0,0,0,.65-.22,2.14,2.14,0,0,0,.52-.44,3.63,3.63,0,0,0,.43-.75h.33Z"/><path d="M103.61,139.11h1a7.74,7.74,0,0,0,1.45-.13,4,4,0,0,0,1.29-.48,2.59,2.59,0,0,0,.92-.91,2.71,2.71,0,0,0,.35-1.45,2.49,2.49,0,0,0-.28-1.25,2.16,2.16,0,0,0-.78-.78,3.41,3.41,0,0,0-1.1-.38,7.48,7.48,0,0,0-1.26-.1h-.41l-.43,0a1.43,1.43,0,0,0-.42.1.85.85,0,0,0-.32.23Zm6.34,7.5c-.33-.73-.66-1.38-1-2a14.52,14.52,0,0,0-1.08-1.64,17,17,0,0,0-1.25-1.46c-.46-.47-1-.95-1.55-1.46l-1.48,0v5.29a2.79,2.79,0,0,0,0,.56.6.6,0,0,0,.14.31.49.49,0,0,0,.31.12,4.19,4.19,0,0,0,.54,0v.21h-3.75v-.21a3.34,3.34,0,0,0,.5,0,.52.52,0,0,0,.3-.13.53.53,0,0,0,.14-.3,3.82,3.82,0,0,0,0-.55V133.88a4,4,0,0,0,0-.54.53.53,0,0,0-.14-.31.52.52,0,0,0-.3-.13,3.34,3.34,0,0,0-.5,0v-.21h4.92a7.54,7.54,0,0,1,1.74.2,4.39,4.39,0,0,1,1.48.63,3.18,3.18,0,0,1,1,1.13,3.63,3.63,0,0,1,.38,1.73,3.1,3.1,0,0,1-.29,1.37,2.91,2.91,0,0,1-.78,1,4.23,4.23,0,0,1-1.14.65,6.43,6.43,0,0,1-1.34.35c.4.33.73.61,1,.84s.47.46.65.67.37.43.55.66l.64.79a10.8,10.8,0,0,1,.78,1.17l.69,1.21c.21.38.41.7.59,1s.35.39.51.39v.21Z"/><path d="M114.75,146.33a.36.36,0,0,0-.1.26h-.25l-.1-3,0-.06h.19a3.64,3.64,0,0,0,1,1.42,3.84,3.84,0,0,0,1.33.77,3.63,3.63,0,0,0,1.42.2,3.35,3.35,0,0,0,1.31-.35,2.51,2.51,0,0,0,.94-.86,2.26,2.26,0,0,0,.36-1.28,2.32,2.32,0,0,0-.48-1.49,5.3,5.3,0,0,0-1.21-1.08,17.6,17.6,0,0,0-1.57-.93,10,10,0,0,1-1.58-1,5,5,0,0,1-1.2-1.27,3.2,3.2,0,0,1-.49-1.83,3,3,0,0,1,.34-1.43,3.61,3.61,0,0,1,.9-1.08,4,4,0,0,1,1.27-.69,4.45,4.45,0,0,1,1.45-.24,4.8,4.8,0,0,1,.85.08,6.34,6.34,0,0,1,.84.19.77.77,0,0,0,.22.07l.41.12.4.11.2,0a.4.4,0,0,0,.39-.39h.23c.06.51.11,1,.16,1.57a13.62,13.62,0,0,1,0,1.56h-.23a3.36,3.36,0,0,0-.8-1.3,4,4,0,0,0-1.19-.78,3.46,3.46,0,0,0-1.35-.27,3.12,3.12,0,0,0-1.24.25,2.26,2.26,0,0,0-.93.74,2,2,0,0,0-.36,1.22,1.65,1.65,0,0,0,.3,1,4,4,0,0,0,.71.77,10,10,0,0,0,1.13.8c.4.25.8.48,1.22.7l-.15-.06a14,14,0,0,1,1.31.76,6.83,6.83,0,0,1,1.12.93,4.18,4.18,0,0,1,.79,1.16,3.72,3.72,0,0,1,.28,1.5,3.13,3.13,0,0,1-.39,1.57,3.82,3.82,0,0,1-1,1.17,4.94,4.94,0,0,1-1.41.72,5.37,5.37,0,0,1-1.58.25,6.32,6.32,0,0,1-1.65-.21l-1.61-.43a.44.44,0,0,0-.25.11"/><path d="M124.6,146.61v-.21a4.71,4.71,0,0,0,.57,0,.68.68,0,0,0,.34-.11.48.48,0,0,0,.16-.3,3,3,0,0,0,0-.58V133.88a3,3,0,0,0,0-.58.48.48,0,0,0-.16-.3.68.68,0,0,0-.34-.11,4.71,4.71,0,0,0-.57,0v-.21h4v.21a4.54,4.54,0,0,0-.57,0,.65.65,0,0,0-.34.11.44.44,0,0,0-.16.3,3,3,0,0,0,0,.58v11.51a3,3,0,0,0,0,.58.44.44,0,0,0,.16.3.65.65,0,0,0,.34.11,4.54,4.54,0,0,0,.57,0v.21Z"/><path d="M133.93,145.13a.31.31,0,0,0,.15.28,1,1,0,0,0,.35.16,2.7,2.7,0,0,0,.41.06h.31a10.23,10.23,0,0,0,2.74-.34,5.5,5.5,0,0,0,2.1-1.07,4.81,4.81,0,0,0,1.34-1.88,7.25,7.25,0,0,0,.47-2.75,7.08,7.08,0,0,0-.45-2.64,4.9,4.9,0,0,0-1.29-1.87,5.33,5.33,0,0,0-2-1.1,9.06,9.06,0,0,0-2.64-.36,5.09,5.09,0,0,0-.77.06,1.53,1.53,0,0,0-.7.31Zm-2.76,1.27a4,4,0,0,0,.52,0,.49.49,0,0,0,.31-.12.69.69,0,0,0,.14-.31,2.79,2.79,0,0,0,0-.56V133.88a2.79,2.79,0,0,0,0-.56A.69.69,0,0,0,132,133a.49.49,0,0,0-.31-.12l-.52,0v-.21H136a10.9,10.9,0,0,1,3.12.42,6.61,6.61,0,0,1,2.42,1.29,5.75,5.75,0,0,1,1.57,2.19,7.93,7.93,0,0,1,.56,3.11,8.09,8.09,0,0,1-.48,2.81,5.48,5.48,0,0,1-1.65,2.32,6.71,6.71,0,0,1-2.67,1.42,11.88,11.88,0,0,1-3,.39h-4.62Z"/><path d="M150.1,134.68l-2.71,6.72h5.43Zm3.65,11.93v-.21a1.18,1.18,0,0,0,.7-.17q.23-.18,0-.69l-1.28-3.13H147l-1.15,2.88a1.2,1.2,0,0,0-.13.82c.06.2.31.29.75.29v.21h-2.89v-.21a.84.84,0,0,0,.43-.14,2.09,2.09,0,0,0,.31-.29,1.9,1.9,0,0,0,.22-.37l.18-.41L150,132.52h1.13l5.48,13.2a1.1,1.1,0,0,0,.89.68v.21Z"/><path d="M161.5,145.13a.32.32,0,0,0,.14.28,1.13,1.13,0,0,0,.35.16l.41.06h.31a10.13,10.13,0,0,0,2.74-.34,5.35,5.35,0,0,0,2.1-1.07,4.72,4.72,0,0,0,1.34-1.88,7.05,7.05,0,0,0,.48-2.75,6.88,6.88,0,0,0-.46-2.64,5,5,0,0,0-1.28-1.87,5.41,5.41,0,0,0-2-1.1,9.08,9.08,0,0,0-2.65-.36,5,5,0,0,0-.76.06,1.48,1.48,0,0,0-.7.31Zm-2.76,1.27a3.86,3.86,0,0,0,.51,0,.46.46,0,0,0,.31-.12.6.6,0,0,0,.15-.31,3.82,3.82,0,0,0,0-.56V133.88a3.82,3.82,0,0,0,0-.56.6.6,0,0,0-.15-.31.46.46,0,0,0-.31-.12l-.51,0v-.21h4.78a10.9,10.9,0,0,1,3.12.42,6.61,6.61,0,0,1,2.42,1.29,5.84,5.84,0,0,1,1.56,2.19,7.93,7.93,0,0,1,.56,3.11,8.33,8.33,0,0,1-.47,2.81,5.66,5.66,0,0,1-1.65,2.32,6.75,6.75,0,0,1-2.68,1.42,11.88,11.88,0,0,1-3,.39h-4.61Z"/><path d="M65.06,166.16a.33.33,0,0,0,.15.29,1,1,0,0,0,.35.16,2.9,2.9,0,0,0,.41.06h.31a10.59,10.59,0,0,0,2.74-.34,5.64,5.64,0,0,0,2.1-1.07,4.89,4.89,0,0,0,1.34-1.88,8.15,8.15,0,0,0,0-5.4,4.86,4.86,0,0,0-1.29-1.86,5.33,5.33,0,0,0-2-1.1,9.06,9.06,0,0,0-2.64-.36,5.19,5.19,0,0,0-.77.06,1.43,1.43,0,0,0-.7.31Zm-2.76,1.28.52,0a.52.52,0,0,0,.31-.12.64.64,0,0,0,.14-.31,2.86,2.86,0,0,0,0-.56V154.91a2.69,2.69,0,0,0,0-.55.6.6,0,0,0-.14-.31.52.52,0,0,0-.31-.13l-.52,0v-.2h4.78a10.9,10.9,0,0,1,3.12.42,6.51,6.51,0,0,1,2.43,1.29,5.72,5.72,0,0,1,1.56,2.18,8.7,8.7,0,0,1,.08,5.92,5.42,5.42,0,0,1-1.64,2.32A6.63,6.63,0,0,1,70,167.25a11.46,11.46,0,0,1-3,.4H62.3Z"/><path d="M85.87,167.65H76.48v-.21a1.17,1.17,0,0,0,.8-.18,1.31,1.31,0,0,0,.17-.83V154.91a1.34,1.34,0,0,0-.17-.83,1.17,1.17,0,0,0-.8-.18v-.2h9.19l0,2.12H85.4c-.07-.52-.23-.84-.49-1a2.84,2.84,0,0,0-1.1-.17H79.65c-.23,0-.37,0-.4.07a.82.82,0,0,0,0,.4v4.72h4.18a5,5,0,0,0,.58,0,.9.9,0,0,0,.4-.14.59.59,0,0,0,.23-.3,2.21,2.21,0,0,0,.13-.56H85V162h-.27a2.18,2.18,0,0,0-.13-.58.75.75,0,0,0-.23-.32.9.9,0,0,0-.39-.14,4.91,4.91,0,0,0-.59,0H79.2v5.38a.34.34,0,0,0,.11.27.55.55,0,0,0,.27.12h4a6.82,6.82,0,0,0,.85,0,1.92,1.92,0,0,0,.65-.22,2.14,2.14,0,0,0,.52-.44,3.48,3.48,0,0,0,.43-.76h.33Z"/><path d="M103.1,167.51a7.85,7.85,0,0,1-2.48.38,7.66,7.66,0,0,1-2.93-.52,6.23,6.23,0,0,1-2.2-1.48,6.44,6.44,0,0,1-1.38-2.27,8.89,8.89,0,0,1-.47-2.94,8.12,8.12,0,0,1,.49-2.87,6.77,6.77,0,0,1,1.41-2.31A6.37,6.37,0,0,1,97.75,154a7.17,7.17,0,0,1,2.87-.55,9.62,9.62,0,0,1,2.19.25l.31.09.41.11a2.85,2.85,0,0,0,.39.11,2,2,0,0,0,.31,0,.47.47,0,0,0,.49-.37H105v.76c0,.27,0,.56,0,.84s0,.57,0,.85a3.6,3.6,0,0,1-.12.72,5.72,5.72,0,0,0-1.6-1.78,4,4,0,0,0-2.31-.61,5.37,5.37,0,0,0-2.39.5,4.8,4.8,0,0,0-1.66,1.35,6.1,6.1,0,0,0-1,2,8.9,8.9,0,0,0-.32,2.39,8.6,8.6,0,0,0,.33,2.43,5.72,5.72,0,0,0,1,2,4.7,4.7,0,0,0,1.69,1.32,5.65,5.65,0,0,0,2.42.48c.33,0,.69,0,1.07,0a8.78,8.78,0,0,0,1.15-.11,5.74,5.74,0,0,0,1.08-.29,3.13,3.13,0,0,0,.93-.55l.08.35a5.83,5.83,0,0,1-2.18,1.27"/><path d="M115.13,167.65v-.21a3.79,3.79,0,0,0,.53,0,.53.53,0,0,0,.31-.14.47.47,0,0,0,.14-.29,2.57,2.57,0,0,0,0-.55V161h-6.74v5.4a3.91,3.91,0,0,0,0,.55.46.46,0,0,0,.43.43,3.7,3.7,0,0,0,.53,0v.21h-3.77v-.21a3.7,3.7,0,0,0,.53,0,.51.51,0,0,0,.46-.43,3.67,3.67,0,0,0,0-.55V154.91a3.51,3.51,0,0,0,0-.54.61.61,0,0,0-.15-.3.52.52,0,0,0-.31-.13,3.48,3.48,0,0,0-.53,0v-.2h3.77v.2a3.48,3.48,0,0,0-.53,0,.52.52,0,0,0-.3.13.59.59,0,0,0-.13.31,3.79,3.79,0,0,0,0,.53V160h6.74v-5.07a2.47,2.47,0,0,0,0-.54.46.46,0,0,0-.45-.43,3.59,3.59,0,0,0-.53,0v-.2h3.79v.2a3.48,3.48,0,0,0-.53,0,.59.59,0,0,0-.31.13.53.53,0,0,0-.14.31,3.79,3.79,0,0,0,0,.53v11.52a3.91,3.91,0,0,0,0,.55.47.47,0,0,0,.14.29.59.59,0,0,0,.31.14,3.7,3.7,0,0,0,.53,0v.21Z"/><path d="M121.49,167.65v-.21l.57,0a.68.68,0,0,0,.34-.11.54.54,0,0,0,.16-.3,3,3,0,0,0,0-.58V154.91a2.84,2.84,0,0,0,0-.57.48.48,0,0,0-.16-.3.68.68,0,0,0-.34-.11,4.45,4.45,0,0,0-.57,0v-.2h4v.2a4.24,4.24,0,0,0-.57,0,.65.65,0,0,0-.34.11.44.44,0,0,0-.16.3,2.84,2.84,0,0,0,0,.57v11.52a3,3,0,0,0,0,.58.49.49,0,0,0,.16.3.65.65,0,0,0,.34.11l.57,0v.21Z"/><path d="M137.35,167.65h-9.29v-.21a3.7,3.7,0,0,0,.53,0A.46.46,0,0,0,129,167a3.91,3.91,0,0,0,0-.55V154.91a3.79,3.79,0,0,0,0-.53.59.59,0,0,0-.13-.31.52.52,0,0,0-.3-.13,3.48,3.48,0,0,0-.53,0v-.2h3.79v.2a3.48,3.48,0,0,0-.53,0,.56.56,0,0,0-.32.13.54.54,0,0,0-.16.3,3.51,3.51,0,0,0,0,.54v11.36a.32.32,0,0,0,.12.27.48.48,0,0,0,.26.12h3.64c.37,0,.7,0,1,0a2.42,2.42,0,0,0,.76-.2,1.64,1.64,0,0,0,.59-.47,4.16,4.16,0,0,0,.5-.86l.27.06Z"/><path d="M148.33,167.65h-9.39v-.21c.43,0,.69-.06.8-.18a1.31,1.31,0,0,0,.17-.83V154.91a1.34,1.34,0,0,0-.17-.83c-.11-.12-.37-.18-.8-.18v-.2h9.19l0,2.12h-.29q-.11-.78-.48-1a2.93,2.93,0,0,0-1.11-.17h-4.16c-.23,0-.37,0-.4.07a1,1,0,0,0-.05.4v4.72h4.18a5,5,0,0,0,.58,0,.9.9,0,0,0,.4-.14.67.67,0,0,0,.24-.3,2.82,2.82,0,0,0,.12-.56h.27V162h-.27a2.75,2.75,0,0,0-.12-.58.87.87,0,0,0-.24-.32.86.86,0,0,0-.39-.14,4.91,4.91,0,0,0-.59,0h-4.18v5.38a.34.34,0,0,0,.11.27.55.55,0,0,0,.27.12h4a6.82,6.82,0,0,0,.85,0,1.92,1.92,0,0,0,.65-.22,2.14,2.14,0,0,0,.52-.44,3.48,3.48,0,0,0,.43-.76h.33Z"/></svg>