<svg id="Layer_1" data-name="Layer 1" xmlns="http://www.w3.org/2000/svg" viewBox="0 0 215.25 212.24"><defs><style>.cls-1{fill:#005f9f;}.cls-2{fill:#f57917;}</style></defs><title>logosArtboard 12 copy 50</title><path class="cls-1" d="M36.33,90.68a19.76,19.76,0,0,1,12.2.86,15,15,0,0,1,8,8.39,25.08,25.08,0,0,1,1.37,10.49,1.54,1.54,0,0,1-1.67,1.35H37.1a15.54,15.54,0,0,0-3.2.14,6.77,6.77,0,0,0,2.23,5.92,8.74,8.74,0,0,0,5.69,2.07,12.07,12.07,0,0,0,5.39-.89,20.79,20.79,0,0,0,3.06-1.94c.37-.29,1-.48,1.3,0,1.48,1.43,3.08,2.73,4.5,4.22.45.57-.18,1.18-.62,1.51-4.32,3.2-9.68,5.38-15.13,4.88-4-.23-8.21-1.45-11.14-4.35s-4.24-6.75-4.69-10.64c-.53-5-.15-10.31,2.34-14.77a14.88,14.88,0,0,1,9.5-7.21m-1,9.77a9.19,9.19,0,0,0-1.55,5H48.45a9.33,9.33,0,0,0-1.61-5C44.17,96.81,38,96.84,35.33,100.45Zm98.54-4.74c0-.46,0-1.12.64-1.17,1.33-.06,2.66,0,4,0a.72.72,0,0,1,.73.69c.06,1.24,0,2.49,0,3.74,1.15,0,2.31,0,3.46,0a.7.7,0,0,1,.72.74c0,1.08,0,2.17,0,3.25a.89.89,0,0,1-.54.92c-1,.15-2.12-.07-3.16.12-.4.09-.48.57-.46.91,0,2.66,0,5.32,0,8a3.28,3.28,0,0,0,.84,2.61c.77.67,1.86.28,2.78.45.24.13.53.35.52.66.05,1.09,0,2.18,0,3.27a.7.7,0,0,1-.69.75c-2.12,0-4.47.3-6.34-.94a6.16,6.16,0,0,1-2.51-5.3C133.86,108.16,133.88,101.94,133.87,95.71Zm35-1.13a40.81,40.81,0,0,1,4.14,0,.77.77,0,0,1,.74.94c0,5.8,0,11.61,0,17.41,0,1,.07,2.13,1,2.71s2.27-.07,3.2.57a6.91,6.91,0,0,1,.2,2.45c-.07.65.21,1.51-.42,2-2.27,0-4.79.39-6.8-.91a6,6,0,0,1-2.51-5.3c0-6.21,0-12.43,0-18.64,0-.42,0-1,.49-1.15Zm-78.08,6.2a10.6,10.6,0,0,1,9.4-2.59,9.17,9.17,0,0,1,6.27,4,13.13,13.13,0,0,1,1.74,8.46.93.93,0,0,1-1.06.58H94.49c-.32,0-.72-.06-.87.3a4.32,4.32,0,0,0,1.95,3.82,7.1,7.1,0,0,0,5.14.65c1.3-.25,2.29-1.18,3.42-1.81a38.5,38.5,0,0,1,3.14,3c0,.48-.45.75-.8,1A13.76,13.76,0,0,1,98,120.9a10.32,10.32,0,0,1-7.68-3.13c-2-2.27-2.54-5.43-2.52-8.36a12.11,12.11,0,0,1,3-8.63m3.86,3.36a5.83,5.83,0,0,0-1.12,3.23h8.94a4.47,4.47,0,0,0-7.82-3.24Zm22-4a8.83,8.83,0,0,1,6.87-2,7.28,7.28,0,0,1,5.44,3.35c1.24,1.91,1.23,4.28,1.21,6.47,0,3.9,0,7.8,0,11.69.05.44-.19,1.06-.72,1-1.5,0-3,0-4.49,0a.67.67,0,0,1-.69-.75c0-4.07,0-8.14,0-12.21,0-1.54-.43-3.31-1.86-4.13a4.46,4.46,0,0,0-4.17.1,3.71,3.71,0,0,0-1.72,3.29c0,4.23,0,8.46,0,12.69,0,.44-.17,1-.71,1-1.49,0-3,0-4.49,0-.55,0-.78-.58-.72-1,0-6.8,0-13.6,0-20.41a.82.82,0,0,1,.72-.92c1,0,2,0,3,0a3,3,0,0,1,2,.36c0,.52-.09,1.11.34,1.5Zm37.11-1.94a11.27,11.27,0,0,1,7.85,1.42,9.56,9.56,0,0,1,4.07,6.07,18.16,18.16,0,0,1,.3,4.77.85.85,0,0,1-1,.76c-3.64,0-7.29,0-10.94,0a11.21,11.21,0,0,0-2.78.15,4.74,4.74,0,0,0,1.36,3.46c1.51,1.46,3.82,1.53,5.77,1.17,1.28-.24,2.25-1.17,3.36-1.76.38.1.63.45.93.7a23.94,23.94,0,0,1,2.42,2.41,13.4,13.4,0,0,1-10.08,3.53,10,10,0,0,1-6.92-3c-2-2.22-2.59-5.31-2.6-8.2a12.45,12.45,0,0,1,2.61-8.42,9.18,9.18,0,0,1,5.63-3.06m-1.64,6.35a6,6,0,0,0-.83,2.85h9a6.5,6.5,0,0,0-1-3,4.52,4.52,0,0,0-7.2.13Z"/><path class="cls-2" d="M65.29,92.4a2,2,0,0,1,2,.44,20.26,20.26,0,0,1,6.49,10.93A23,23,0,0,1,70.53,122a18.17,18.17,0,0,1-3.7,4,1.75,1.75,0,0,1-2.26,0c-1.09-1-2.19-2-3.26-3a1.07,1.07,0,0,1,0-1.71,16.54,16.54,0,0,0,5.42-11.84,15.49,15.49,0,0,0-4.91-11.83c-.37-.35-1-.79-.65-1.37A8.76,8.76,0,0,1,63,94.33,19.6,19.6,0,0,1,65.29,92.4Z"/></svg>