<svg id="Layer_1" data-name="Layer 1" xmlns="http://www.w3.org/2000/svg" viewBox="0 0 148.91 146.82"><defs><style>.cls-1,.cls-2{fill:none;stroke:#ee7f00;stroke-linejoin:round;stroke-width:4.02px;}.cls-1{stroke-linecap:round;}</style></defs><title>Iconos_Artboard 12 copy 31</title><path class="cls-1" d="M91.7,136.13A61.27,61.27,0,0,1,23.21,42.61M55.27,19.15a61.27,61.27,0,0,1,68.49,93.52M105.48,97.76a37.79,37.79,0,0,0-43-56.28m-21,16a37.79,37.79,0,0,0,42.76,56.34"/><path class="cls-1" d="M117.08,101a49.34,49.34,0,0,1-5.59,8.26h0M122.75,82a49.45,49.45,0,0,1-1.87,9.8m-.36-29.51a49.2,49.2,0,0,1,2.11,9.74m-11.92-27a49.49,49.49,0,0,1,5.78,8.12M94.92,33.05a49.28,49.28,0,0,1,8.5,5.21m-27.74-10a49.71,49.71,0,0,1,9.86,1.44m-25.66.41a50.24,50.24,0,0,1,5.84-1.29"/><path class="cls-1" d="M85.37,125.66c-1.36.33-2.74.61-4.12.83m-10,.56a49.69,49.69,0,0,1-9.87-1.43m-9.38-3.39a49.42,49.42,0,0,1-8.5-5.21m-7.29-6.81a49.66,49.66,0,0,1-5.78-8.12m-4-9.12a50.33,50.33,0,0,1-2.11-9.74m-.12-10a49.22,49.22,0,0,1,1.87-9.79m3.8-9.22A48.53,48.53,0,0,1,35.48,46"/><polyline class="cls-1" points="41.49 57.52 51.2 65.44 49.24 28.21 12.35 33.75 23.21 42.61"/><polyline class="cls-1" points="105.48 97.76 95.78 89.84 97.74 127.07 134.62 121.53 123.76 112.67"/><path class="cls-2" d="M91.7,136.13A61.27,61.27,0,0,1,23.21,42.61M55.27,19.15a61.27,61.27,0,0,1,68.49,93.52M105.48,97.76a37.79,37.79,0,0,0-43-56.28m-21,16a37.79,37.79,0,0,0,42.76,56.34"/><path class="cls-2" d="M117.08,101a49.34,49.34,0,0,1-5.59,8.26h0M122.75,82a49.45,49.45,0,0,1-1.87,9.8m-.36-29.51a49.2,49.2,0,0,1,2.11,9.74m-11.92-27a49.49,49.49,0,0,1,5.78,8.12M94.92,33.05a49.28,49.28,0,0,1,8.5,5.21m-27.74-10a49.71,49.71,0,0,1,9.86,1.44m-25.66.41a50.24,50.24,0,0,1,5.84-1.29"/><path class="cls-2" d="M85.37,125.66c-1.36.33-2.74.61-4.12.83m-10,.56a49.69,49.69,0,0,1-9.87-1.43m-9.38-3.39a49.42,49.42,0,0,1-8.5-5.21m-7.29-6.81a49.66,49.66,0,0,1-5.78-8.12m-4-9.12a50.33,50.33,0,0,1-2.11-9.74m-.12-10a49.22,49.22,0,0,1,1.87-9.79m3.8-9.22A48.53,48.53,0,0,1,35.48,46"/><polyline class="cls-2" points="41.49 57.52 51.2 65.44 49.24 28.21 12.35 33.75 23.21 42.61"/><polyline class="cls-2" points="105.48 97.76 95.78 89.84 97.74 127.07 134.62 121.53 123.76 112.67"/></svg>