<svg id="Layer_1" data-name="Layer 1" xmlns="http://www.w3.org/2000/svg" viewBox="0 0 148.91 146.82"><defs><style>.cls-1{fill:#ee7f00;stroke:#ee7f00;stroke-miterlimit:10;stroke-width:1.42px;}</style></defs><title>Iconos_Artboard 12 copy 28</title><path class="cls-1" d="M83.76,100.45a2.15,2.15,0,0,1-.66-.13l-9.83-4.08a1.74,1.74,0,0,1-1-2l1.92-7.5a32.06,32.06,0,0,1-6.58-6.58L60.1,82a1.73,1.73,0,0,1-2-1L54,71.21a1.75,1.75,0,0,1,.72-2.16l6.64-4a32.27,32.27,0,0,1,0-9.31L54.7,51.83A1.75,1.75,0,0,1,54,49.67l4.08-9.84a1.73,1.73,0,0,1,2-1l7.49,1.92a32.06,32.06,0,0,1,6.58-6.58l-1.92-7.5a1.73,1.73,0,0,1,1-2l9.83-4.08a1.73,1.73,0,0,1,2.16.72l3.93,6.65a32.27,32.27,0,0,1,9.31,0l3.94-6.65a1.76,1.76,0,0,1,2.16-.72l9.83,4.08a1.74,1.74,0,0,1,1,2l-1.91,7.49a32.31,32.31,0,0,1,6.58,6.58l7.48-1.92a1.72,1.72,0,0,1,2,1l4.08,9.84a1.74,1.74,0,0,1-.72,2.16l-6.66,3.94a31.58,31.58,0,0,1,0,9.31L133,69a1.74,1.74,0,0,1,.72,2.16L129.63,81a1.72,1.72,0,0,1-2,1l-7.49-1.92a32.06,32.06,0,0,1-6.58,6.58l1.92,7.5a1.75,1.75,0,0,1-1,2l-9.83,4.07a1.75,1.75,0,0,1-2.16-.72L98.5,92.93a32.2,32.2,0,0,1-9.3,0l-3.94,6.66a1.74,1.74,0,0,1-1.5.86ZM76,93.6,83,96.53l3.77-6.39a1.75,1.75,0,0,1,1.81-.82,29.13,29.13,0,0,0,10.45,0,1.71,1.71,0,0,1,1.8.82l3.78,6.38,7-2.92-1.84-7.2a1.74,1.74,0,0,1,.7-1.86,28.57,28.57,0,0,0,7.4-7.39,1.75,1.75,0,0,1,1.87-.7L127,78.29l2.92-7.06-6.38-3.78a1.75,1.75,0,0,1-.82-1.81,28.3,28.3,0,0,0,0-10.46,1.74,1.74,0,0,1,.82-1.79l6.38-3.78-2.92-7-7.17,1.83A1.73,1.73,0,0,1,118,43.7a28.57,28.57,0,0,0-7.39-7.4,1.74,1.74,0,0,1-.7-1.86l1.83-7.18-7-2.93-3.78,6.38a1.74,1.74,0,0,1-1.8.82,28.73,28.73,0,0,0-10.46,0,1.75,1.75,0,0,1-1.81-.82L83,24.33,76,27.25l1.84,7.19a1.75,1.75,0,0,1-.7,1.87,28.57,28.57,0,0,0-7.39,7.36,1.74,1.74,0,0,1-1.86.7L60.7,42.53l-2.92,7.08,6.37,3.78A1.74,1.74,0,0,1,65,55.2a28.24,28.24,0,0,0,0,10.45,1.76,1.76,0,0,1-.83,1.82l-6.38,3.78,2.92,7,7.18-1.84a1.74,1.74,0,0,1,1.66.46l.2.24a28.69,28.69,0,0,0,7.39,7.39,1.74,1.74,0,0,1,.69,1.86Z"/><path class="cls-1" d="M43.76,88.85a8.81,8.81,0,1,1,2.86-.47,9,9,0,0,1-2.86.47Zm0-14.19A5.36,5.36,0,1,0,49.12,80a5.72,5.72,0,0,0-.29-1.74,5.35,5.35,0,0,0-5.07-3.62Z"/><path class="cls-1" d="M49.48,110.68a1.75,1.75,0,0,1-1.54-1l-2.49-4.86a24.47,24.47,0,0,1-6.45-.41L35.93,109a1.74,1.74,0,0,1-2.2.54l-7.12-3.48a1.75,1.75,0,0,1-.87-2.08l1.69-5.2a23.89,23.89,0,0,1-4.28-4.86l-5.39,1a1.71,1.71,0,0,1-2-1.14l-2.57-7.49a1.73,1.73,0,0,1,.85-2.11l4.86-2.49a24.15,24.15,0,0,1,.39-6.46L14.81,72.2a1.74,1.74,0,0,1-.58-2.2l3.48-7.12a1.74,1.74,0,0,1,2.1-.91L25,63.65a24.47,24.47,0,0,1,4.86-4.28l-1-5.4A1.73,1.73,0,0,1,30,52l7.49-2.57a1.73,1.73,0,0,1,2.11.85l2.48,4.86a24.33,24.33,0,0,1,7.65.67,1.74,1.74,0,1,1-.67,3.41l-.17,0a21,21,0,0,0-7.61-.47,1.74,1.74,0,0,1-1.76-.94L37.18,53.2l-4.64,1.62,1,5a1.72,1.72,0,0,1-.81,1.81A21.08,21.08,0,0,0,27,66.73a1.73,1.73,0,0,1-1.89.58l-4.86-1.58-2.16,4.41L22.29,73A1.71,1.71,0,0,1,23,74.88a21.08,21.08,0,0,0-.49,7.63,1.73,1.73,0,0,1-.94,1.76L17,86.61l1.59,4.65,5.05-1a1.72,1.72,0,0,1,1.75.72s0,.06.06.09a21.06,21.06,0,0,0,5,5.72,1.73,1.73,0,0,1,.58,1.91l-1.58,4.86,4.41,2.16,2.89-4.25a1.72,1.72,0,0,1,1.85-.7,21,21,0,0,0,7.61.47,1.73,1.73,0,0,1,1.75.94l2.34,4.57L55,105.17l-1-5.06a1.72,1.72,0,0,1,.81-1.81,20.87,20.87,0,0,0,5.71-5,1.74,1.74,0,1,1,2.73,2.16,24,24,0,0,1-5.62,5.22l1,5.37a1.74,1.74,0,0,1-1.14,2L50,110.58a1.91,1.91,0,0,1-.54.1Z"/><path class="cls-1" d="M96.89,75.68h-6a8.5,8.5,0,0,1-8.48-8.5,1.74,1.74,0,0,1,3.47,0,5,5,0,0,0,5,5h6a5,5,0,0,0,0-10H90.81a8.5,8.5,0,0,1-6-14.51,8.4,8.4,0,0,1,6-2.48h6.08a8.49,8.49,0,0,1,8.48,8.49V54a1.74,1.74,0,1,1-3.47,0v-.35a5,5,0,0,0-5-5H90.81a5,5,0,0,0,0,10h6.08a8.5,8.5,0,0,1,0,17Z"/><path class="cls-1" d="M93.85,80.58a1.75,1.75,0,0,1-1.73-1.74V42a1.73,1.73,0,0,1,1.63-1.83,1.75,1.75,0,0,1,1.84,1.64v37a1.74,1.74,0,0,1-1.74,1.74Z"/><path class="cls-1" d="M67.15,119.13a1.74,1.74,0,0,1-1.74-1.74v-12.3a1.74,1.74,0,1,1,3.47-.19v12.49a1.74,1.74,0,0,1-1.73,1.74Z"/><path class="cls-1" d="M120.55,119.13a1.74,1.74,0,0,1-1.73-1.74v-12.3a1.74,1.74,0,0,1,3.47,0v12.3a1.74,1.74,0,0,1-1.74,1.74Z"/><path class="cls-1" d="M79.77,133.35A1.74,1.74,0,0,1,78,131.61V120.27a1.74,1.74,0,1,1,3.47-.19v11.53a1.74,1.74,0,0,1-1.74,1.74Z"/><path class="cls-1" d="M79.77,114.94A1.74,1.74,0,0,1,78,113.2v-4.44a1.74,1.74,0,1,1,3.47-.19v4.63a1.74,1.74,0,0,1-1.74,1.74Z"/><path class="cls-1" d="M107.92,133.35a1.74,1.74,0,0,1-1.73-1.74V120.27a1.74,1.74,0,1,1,3.47,0v11.34a1.74,1.74,0,0,1-1.74,1.74Z"/><path class="cls-1" d="M107.92,114.94a1.74,1.74,0,0,1-1.73-1.74v-4.44a1.74,1.74,0,1,1,3.47,0v4.44a1.74,1.74,0,0,1-1.74,1.74Z"/><path class="cls-1" d="M93.85,139.29a1.73,1.73,0,0,1-1.73-1.73v-5.88a1.74,1.74,0,1,1,3.47-.19v6.07a1.74,1.74,0,0,1-1.74,1.73Z"/><path class="cls-1" d="M93.85,124a1.73,1.73,0,0,1-1.73-1.73V105.09a1.74,1.74,0,1,1,3.47-.19v17.38A1.73,1.73,0,0,1,93.85,124Z"/></svg>