<svg id="Layer_1" data-name="Layer 1" xmlns="http://www.w3.org/2000/svg" viewBox="0 0 148.91 146.82"><defs><style>.cls-1{fill:#ee7f00;}</style></defs><title>Iconos_Artboard 12 copy 30</title><path class="cls-1" d="M126.53,36.86H30.32c-1.29,0-2.59,0-3.88-.07-.53,0-.74.14-.74.71q.06,28.17.08,56.34a5.44,5.44,0,0,0,1.46,4,.69.69,0,0,0,1,.13q5.1-3,10.22-5.87a2.8,2.8,0,0,1,4.18,1.14q8.28,14.49,16.57,29a2.77,2.77,0,0,1-1.1,4.19q-6.09,3.51-12.19,7a2.76,2.76,0,0,1-4-1.1l-5.46-9.55Q30.94,113,25.35,103.23a3.09,3.09,0,0,1-.38-2.69.84.84,0,0,0-.18-.67,8.51,8.51,0,0,1-2.18-5.94q0-25.84,0-51.68v-13A8.23,8.23,0,0,1,31,20.79c4.07,0,8.14,0,12.21,0h78a8.2,8.2,0,0,1,8.46,8.54v65a8.19,8.19,0,0,1-8.11,8.24c-7.16,0-14.31,0-21.47,0a1.56,1.56,0,0,1-1.59-2.26,1.67,1.67,0,0,1,1.7-.9h21A5.13,5.13,0,0,0,126.53,94V36.86ZM25.89,33.66H126.53c0-1.55,0-3,0-4.51A5.09,5.09,0,0,0,121.27,24H39.09c-2.73,0-5.46,0-8.19,0a4.88,4.88,0,0,0-5,4.06A47.87,47.87,0,0,0,25.89,33.66Zm2.25,68L44.6,130.44l11.82-6.76L40,94.91Z"/><path class="cls-1" d="M59.34,78.31H37.74c-1.61,0-2.12-.5-2.12-2.09V65.69a1.63,1.63,0,0,1,1.86-1.86q16.11,0,32.2,0a6.58,6.58,0,0,0,1.92-.3,5.92,5.92,0,0,1,7.71,4.18,15.07,15.07,0,0,1,0,2.78l.62-.33c3.51-2,7-4,10.54-6A1.4,1.4,0,0,0,91.29,63a10.08,10.08,0,1,1,7.55,11.28,1.53,1.53,0,0,0-1.25.21c-2.16,1.23-4.34,2.42-6.51,3.62-.16.09-.3.21-.48.33,4.1,1.55,4.14,7.2,1.66,9.25A6.08,6.08,0,0,1,95.64,92a5.06,5.06,0,0,1-1.59,5.19c2.84,1.39,4,3.23,3.82,6a5.64,5.64,0,0,1-2.66,4.68c-4.47,2.63-8.85,5.44-13.65,7.49a46.25,46.25,0,0,1-12.45,3.23c-1.93.24-3.87.52-5.8.8-1.51.23-1.87.09-2.63-1.23C56.44,110.77,52.23,103.38,48,96a2.08,2.08,0,0,1,.35-2.56c3.58-4.88,7.13-9.77,10.7-14.65C59.1,78.68,59.17,78.56,59.34,78.31Zm28-1.67c1.65-.93,3.2-1.81,4.09-2.3l.12-.07c1.59-.89,6.26-3.56,6.95-4.07a2.69,2.69,0,0,0,1.18-2.69,3,3,0,0,0-4.71-2.25q-6.44,3.64-12.86,7.35l-6.42,3.68a1.65,1.65,0,0,1-2.09,0,1.58,1.58,0,0,1-.22-2.17c.81-1.26,1.67-2.5,2.48-3.77a2.36,2.36,0,0,0-.34-3.2,3,3,0,0,0-4.14.27c-.65.74-1.21,1.56-1.79,2.35Q60.48,82.17,51.42,94.58a.74.74,0,0,0-.05.94c.88,1.47,1.72,3,2.57,4.46q4.5,7.86,9,15.74a.71.71,0,0,0,.84.4c1.53-.25,3.07-.46,4.61-.64a39.15,39.15,0,0,0,13.06-3.57c4-2,7.89-4.29,11.77-6.54a3.83,3.83,0,0,0,1.35-1.81,2.57,2.57,0,0,0-.72-2.89,2,2,0,0,0-1.77-.44c-2.44.63-3.88-3.24-2.09-4.4.55-.35,1.14-.64,1.71-1a1.51,1.51,0,0,0,.89-1.53,4.71,4.71,0,0,0-.39-1.55c-.51-1-1.06-1.26-1.85-1.16-1.79.24-3.93-3.31-.82-5.08a2.26,2.26,0,0,0,1-3.08,1.63,1.63,0,0,0-1.8-1.11C86.43,81.68,84.7,78.11,87.3,76.64ZM38.79,75.11h.86c6.92,0,13.83,0,20.75,0a2,2,0,0,0,2.06-1,16.52,16.52,0,0,1,1.28-1.77l3.81-5.25H38.83c0,.21,0,.37,0,.53ZM94.93,61.77a6.17,6.17,0,0,1,6.73,2.39c1.65,2.27,1.5,4.68.19,7.1,2.88,0,5.77-2.67,6.22-5.75a6.88,6.88,0,0,0-13.14-3.74Z"/><path class="cls-1" d="M49.49,42H66.93a3.34,3.34,0,0,1,3.58,3.56q0,5.22,0,10.44a3.36,3.36,0,0,1-3.62,3.61H32.23c-2.46,0-3.8-1.33-3.81-3.78V45.61A3.36,3.36,0,0,1,32,42C37.82,42,43.66,42,49.49,42ZM31.67,56.45h.77q17.06,0,34.1,0c.68,0,.83-.22.83-.84q0-4.82,0-9.61c0-.68-.2-.87-.88-.87q-16.95,0-33.89,0c-.3,0-.59,0-.93,0Z"/><path class="cls-1" d="M115.09,31.2A2.17,2.17,0,0,1,113,28.93a2.2,2.2,0,1,1,4.4.16A2.19,2.19,0,0,1,115.09,31.2Z"/><path class="cls-1" d="M108.3,31.2A2.18,2.18,0,0,1,106.09,29a2.2,2.2,0,0,1,4.39,0A2.16,2.16,0,0,1,108.3,31.2Z"/><path class="cls-1" d="M101.38,31.2A2.2,2.2,0,0,1,99.2,29a2.25,2.25,0,0,1,2.23-2.18A2.2,2.2,0,0,1,103.59,29,2.14,2.14,0,0,1,101.38,31.2Z"/></svg>