<svg id="Layer_1" data-name="Layer 1" xmlns="http://www.w3.org/2000/svg" viewBox="0 0 148.91 146.82"><defs><style>.cls-1{fill:#ee7f00;}</style></defs><title>Iconos_Artboard 12 copy 27</title><path class="cls-1" d="M112.83,51v5H76.17V51.07c0-2.76-4.25-2.76-4.25,0V56H35.51V50.77c0-2.76-4.25-2.76-4.25,0V58a2,2,0,0,0,.18.9,2,2,0,0,0,2,1.44H71.92v5c0,2.76,4.25,2.76,4.25,0V60.24H115a2,2,0,0,0,2-1.44,2,2,0,0,0,.18-.9V51c-.06-2.76-4.31-2.76-4.31,0Zm-6.89,17.62H41.74c-3.42,0-5.33,3.12-5.33,6.23v40.4a6,6,0,0,0,2.81,5.1,7,7,0,0,0,4,.65H64c-.18.48-.36.9-.48,1.32-.66,1.62-1.2,2.94-.54,4.74a3.28,3.28,0,0,0,3,2.34H82.16c2.1,0,3.06-2.1,3.24-3.9a1.71,1.71,0,0,0,0-.78,1.75,1.75,0,0,0-.3-.84c-.36-1-.72-1.92-1.14-2.82H106.3c3,0,5.09-2.57,5.33-5.39V74.32a5.56,5.56,0,0,0-5.69-5.75ZM67,125c.24-.66.48-1.38.78-2a1.21,1.21,0,0,0,.12-.36c.06-.18.12-.3.18-.48l.18-.36H79.71l.18.36c.06.12.12.3.18.42a2,2,0,0,0,.18.36,10.82,10.82,0,0,1,.48,1.26c.12.24.18.48.3.72H67V125Zm13.9-3.18Zm26.47-45.61v39c-.06.9-.54,1.44-1.2,1.44H41.92c-.66,0-.84-.18-1.2-.84a3.45,3.45,0,0,1-.06-1.14V74.32c0-1.31.72-1.43,1.8-1.43h63.48a1.53,1.53,0,0,1,.78.12c.9.42.66,2.15.66,3.23ZM46.71,87.45c2.33-2.28,4.67-4.61,7-6.89,2-1.92-1.08-5-3-3-2.33,2.28-4.67,4.62-7,6.89-2,1.86,1,4.92,3,3Zm30.72,22.78h-7.6c-2.76,0-2.76,4.25,0,4.25h7.6c2.76.06,2.76-4.25,0-4.25ZM61.5,76.84c-5.75,5.64-11.44,11.33-17.19,17-2,1.92,1.08,5,3,3,5.75-5.63,11.44-11.33,17.19-17,2-1.86-1-4.92-3-3Zm-13-39.92a3,3,0,0,0,.12-.78V21.58a3.53,3.53,0,0,0-3.3-3.84,9.69,9.69,0,0,0-1.32,0H21.68c-3.9,0-3.3,4.56-3.3,7.14V36.2A3.42,3.42,0,0,0,22,39.62H44.91a3.47,3.47,0,0,0,3.6-2.7Zm-4.14-1.61H22.63V22H44.37V35.31Zm-7.48,6.41H30.12c-2.76,0-2.76,4.25,0,4.25h6.77c2.75,0,2.75-4.25,0-4.25Zm22-5.76a3.42,3.42,0,0,0,3.59,3.42H85.4A3.48,3.48,0,0,0,89,36.74a3,3,0,0,0,.12-.78V21.34a3.53,3.53,0,0,0-3.29-3.84,9.69,9.69,0,0,0-1.32,0H62.16c-3.89,0-3.29,4.56-3.29,7.14V36Zm4.31-14.2H84.92V35.13H63.18V21.76Zm7.48,20c-2.75,0-2.75,4.25,0,4.25h6.77c2.76,0,2.76-4.25,0-4.25Zm59.41-5.82V21.58a3.52,3.52,0,0,0-3.29-3.84,9.69,9.69,0,0,0-1.32,0H103.12c-3.89,0-3.29,4.56-3.29,7.14V36.2a3.42,3.42,0,0,0,3.59,3.42h22.94A3.48,3.48,0,0,0,130,37a3.57,3.57,0,0,0,.11-.78.27.27,0,0,0,0-.3Zm-4.25-.59H104.08V22h21.74V35.31Zm-7.48,6.41h-6.77c-2.76,0-2.76,4.25,0,4.25h6.77c2.75,0,2.75-4.25,0-4.25Z"/></svg>