<?xml version="1.0" encoding="UTF-8"?><svg id="Capa_1" xmlns="http://www.w3.org/2000/svg" viewBox="0 0 300 219.78"><defs><style>.cls-1{fill:#e78f00;stroke-width:0px;}</style></defs><path class="cls-1" d="m146.57,161.21c-.77,0-1.53.31-2.07.86-.55.55-.86,1.3-.86,2.07s.31,1.52.86,2.07c.54.55,1.3.86,2.07.86s1.53-.31,2.07-.86c.54-.55.86-1.3.86-2.07s-.31-1.53-.86-2.07c-.55-.55-1.3-.86-2.07-.86"/><path class="cls-1" d="m162.59,135.05v-21.56c0-.97-.48-1.88-1.29-2.43-.81-.55-1.83-.65-2.73-.29l-50.48,20.33h-16.26c-9.28,0-16.83,7.55-16.83,16.83s7.55,16.83,16.83,16.83h1.94v17.59c0,1.62,1.31,2.93,2.93,2.93h11.96c1.62,0,2.93-1.31,2.93-2.93v-16.18l46.99,18.9c.35.14.72.21,1.09.21.58,0,1.15-.17,1.64-.5.81-.55,1.29-1.46,1.29-2.43v-21.56c5.88-1.34,10.28-6.6,10.28-12.87s-4.4-11.54-10.28-12.87m-81.73,12.88c0-6.05,4.92-10.97,10.97-10.97h13.9v21.93h-13.9c-6.05,0-10.97-4.92-10.97-10.97m18.76,16.83h6.1v14.66h-6.1v-14.66Zm57.11,13.26l-45.15-18.16v-23.84l32.06-12.91v29.07c0,1.62,1.31,2.93,2.93,2.93s2.93-1.31,2.93-2.93v-31.43l7.23-2.91v60.19Zm5.86-23.36v-13.47c2.6,1.13,4.42,3.72,4.42,6.73s-1.82,5.6-4.42,6.73"/><path class="cls-1" d="m200.82,145.08h-16.59c-1.62,0-2.93,1.31-2.93,2.93s1.31,2.93,2.93,2.93h16.59c1.62,0,2.93-1.31,2.93-2.93s-1.31-2.93-2.93-2.93"/><path class="cls-1" d="m179.42,134.33c.75,0,1.5-.29,2.07-.86l5.72-5.72c1.14-1.14,1.14-3,0-4.14-1.14-1.14-3-1.14-4.14,0l-5.72,5.72c-1.14,1.14-1.14,3,0,4.14.57.57,1.32.86,2.07.86"/><path class="cls-1" d="m181.51,162.07c-1.14-1.14-3-1.14-4.14,0-1.14,1.14-1.14,3,0,4.14l5.91,5.91c.57.57,1.32.86,2.07.86s1.5-.29,2.07-.86c1.14-1.14,1.14-3,0-4.14l-5.91-5.91Z"/><path class="cls-1" d="m213.28,35.28h-54.49c-6.46,0-11.72,5.26-11.72,11.72v1.17h-49.22c-3.88,0-7.03,3.16-7.03,7.03v46.29c0,3.88,3.15,7.03,7.03,7.03h3.03v8.98c0,1.19.71,2.25,1.81,2.71.36.15.74.22,1.12.22.76,0,1.51-.3,2.07-.86l11.06-11.06h58.19c3.88,0,7.03-3.15,7.03-7.03v-8.79h31.12c6.46,0,11.72-5.26,11.72-11.72v-33.98c0-6.46-5.26-11.72-11.72-11.72m-36.98,66.21c0,.65-.53,1.17-1.17,1.17h-59.41c-.78,0-1.52.31-2.07.86l-6.91,6.91v-4.84c0-1.62-1.31-2.93-2.93-2.93h-5.96c-.65,0-1.17-.52-1.17-1.17v-46.29c0-.65.53-1.17,1.17-1.17h49.22v26.95c0,6.46,5.26,11.72,11.72,11.72h17.51v8.79Zm42.84-20.51c0,3.23-2.63,5.86-5.86,5.86h-54.49c-3.23,0-5.86-2.63-5.86-5.86v-33.98c0-3.23,2.63-5.86,5.86-5.86h54.49c3.23,0,5.86,2.63,5.86,5.86v33.98Z"/><path class="cls-1" d="m197.81,61.45l-20.05-11.58c-.91-.52-2.02-.52-2.93,0-.91.52-1.47,1.49-1.47,2.54v23.15c0,1.05.56,2.01,1.47,2.54.45.26.96.39,1.46.39s1.01-.13,1.46-.39l20.05-11.58c.9-.52,1.46-1.49,1.46-2.54s-.56-2.01-1.46-2.54m-18.59,9.04v-13l11.26,6.5-11.26,6.5Z"/><path class="cls-1" d="m137.85,66.04h-29.3c-1.62,0-2.93,1.31-2.93,2.93s1.31,2.93,2.93,2.93h29.3c1.62,0,2.93-1.31,2.93-2.93s-1.31-2.93-2.93-2.93"/><path class="cls-1" d="m137.84,82.45c-.77,0-1.52.31-2.07.86-.55.55-.86,1.3-.86,2.07s.31,1.52.86,2.07c.55.55,1.3.86,2.07.86s1.53-.31,2.07-.86.86-1.3.86-2.07-.31-1.53-.86-2.07-1.3-.86-2.07-.86"/><path class="cls-1" d="m126.86,82.45h-18.31c-1.62,0-2.93,1.31-2.93,2.93s1.31,2.93,2.93,2.93h18.31c1.62,0,2.93-1.31,2.93-2.93s-1.31-2.93-2.93-2.93"/></svg>