<?xml version="1.0" encoding="UTF-8"?><svg id="Capa_1" xmlns="http://www.w3.org/2000/svg" viewBox="0 0 300 219.78"><defs><style>.cls-1{fill:#e78f00;stroke-width:0px;}</style></defs><path class="cls-1" d="m206.25,141.36v-10.02h18.6v-42.25h-17.94v-18.86c0-10.7-6.81-16.93-19.25-17.76v-17.57h-74.58v17.56c-12.49.81-19.32,7.05-19.32,17.76v17.58c-10.86,1.26-19.32,10.5-19.32,21.69,0,12.04,9.8,21.84,21.85,21.84,11.19,0,20.43-8.46,21.69-19.32h11.85l17.47,17.47v12.44h-18.24v18.82h-11.05c-1.16-10.96-10.46-19.54-21.72-19.54-12.05,0-21.85,9.8-21.85,21.84s9.8,21.84,21.85,21.84c11.11,0,20.31-8.34,21.66-19.1h11.11v18.38h42.25v-42.25h-18.96v-11.73l17.88-17.88h12.36v19.01h18.6v10.02c-10.86,1.26-19.32,10.5-19.32,21.69,0,12.04,9.8,21.84,21.84,21.84s21.84-9.8,21.84-21.84c0-11.19-8.46-20.44-19.32-21.69m-109.96,38.48c-9.26,0-16.79-7.53-16.79-16.79s7.53-16.79,16.79-16.79,16.79,7.53,16.79,16.79-7.53,16.79-16.79,16.79m69.97-.72h-32.14v-32.14h32.14v32.14ZM118.13,39.94h64.47v31.67h-64.47v-31.67Zm-21.84,86.34c-9.26,0-16.79-7.53-16.79-16.79s7.53-16.79,16.79-16.79,16.79,7.53,16.79,16.79-7.53,16.79-16.79,16.79m53.9-1.06l-15.55-15.55,15.55-15.55,15.56,15.55-15.56,15.55Zm20.3-17.96l-20.3-20.3-20,20h-12.21c-1.16-10.03-9.14-18.01-19.17-19.17v-17.58c0-7.74,4.81-11.99,14.26-12.69v19.14h74.58v-19.13c9.41.71,14.2,4.96,14.2,12.68v18.86h-19.25v18.18h-12.12Zm17.17-13.13h32.14v32.14h-32.14v-32.14Zm16.07,85.7c-9.26,0-16.79-7.53-16.79-16.79s7.53-16.79,16.79-16.79,16.79,7.53,16.79,16.79-7.53,16.79-16.79,16.79"/><path class="cls-1" d="m139.13,53.1c-1.38,0-2.5,1.12-2.5,2.5s1.12,2.5,2.5,2.5,2.49-1.12,2.49-2.5-1.12-2.5-2.49-2.5"/><path class="cls-1" d="m148.6,53.83c-.98.97-.98,2.55,0,3.53.97.98,2.55.98,3.53,0,.97-.97.97-2.55,0-3.53-.98-.97-2.55-.97-3.53,0"/><path class="cls-1" d="m159.47,53.83c-.98.97-.98,2.55,0,3.53.97.98,2.55.98,3.53,0,.97-.97.97-2.55,0-3.53-.98-.97-2.55-.97-3.53,0"/></svg>