<?xml version="1.0" encoding="UTF-8"?><svg id="Capa_1" xmlns="http://www.w3.org/2000/svg" viewBox="0 0 300 219.78"><defs><style>.cls-1{fill:none;stroke:#e78f00;stroke-linecap:round;stroke-linejoin:round;stroke-width:4px;}</style></defs><path class="cls-1" d="m207.82,159.19c11.33-13.27,18.18-30.48,18.18-49.3"/><path class="cls-1" d="m226,109.89c0-18.82-6.85-36.02-18.18-49.3"/><path class="cls-1" d="m92.18,60.59c-11.33,13.27-18.18,30.48-18.18,49.3"/><path class="cls-1" d="m150,33.89c23.16,0,43.88,10.37,57.82,26.7"/><path class="cls-1" d="m74,109.89c0,18.82,6.85,36.02,18.18,49.3"/><path class="cls-1" d="m92.18,159.19c13.94,16.33,34.66,26.7,57.82,26.7"/><path class="cls-1" d="m207.82,159.19c-13.94,16.33-34.66,26.7-57.82,26.7"/><path class="cls-1" d="m150,33.89c-23.16,0-43.88,10.37-57.82,26.7"/><line class="cls-1" x1="150" y1="86.3" x2="150" y2="109.89"/><line class="cls-1" x1="150" y1="33.89" x2="150" y2="65.34"/><line class="cls-1" x1="150" y1="109.89" x2="150" y2="144.72"/><line class="cls-1" x1="150" y1="185.89" x2="150" y2="144.72"/><line class="cls-1" x1="181.45" y1="109.89" x2="150" y2="109.89"/><line class="cls-1" x1="202.41" y1="109.89" x2="226" y2="109.89"/><line class="cls-1" x1="150" y1="109.89" x2="108.83" y2="109.89"/><line class="cls-1" x1="74" y1="109.89" x2="108.83" y2="109.89"/><path class="cls-1" d="m114.83,70.38c-3.8,11.51-5.99,25.04-5.99,39.51"/><path class="cls-1" d="m112.09,139.47c-2.08-9.09-3.25-19.08-3.25-29.58"/><path class="cls-1" d="m150,33.89c14.9,0,27.94,14.61,35.17,36.49"/><path class="cls-1" d="m185.17,70.38c2.88,8.71,4.83,18.58,5.61,29.14"/><path class="cls-1" d="m185.17,149.4c2.88-8.71,4.83-18.58,5.61-29.14"/><path class="cls-1" d="m185.17,149.4c-7.23,21.88-20.27,36.49-35.17,36.49"/><path class="cls-1" d="m150,185.89c-12.52,0-23.72-10.35-31.27-26.63"/><path class="cls-1" d="m150,33.89c-14.9,0-27.94,14.61-35.17,36.49"/><path class="cls-1" d="m92.18,159.19c4.05-2.57,8.73-4.83,13.81-6.79"/><path class="cls-1" d="m185.17,149.4c-10.52-2.98-22.48-4.68-35.17-4.68"/><path class="cls-1" d="m185.17,149.4c8.67,2.46,16.35,5.79,22.65,9.79"/><path class="cls-1" d="m126.12,146.82c7.51-1.35,15.53-2.1,23.88-2.1"/><path class="cls-1" d="m114.83,70.38c7.6,2.16,15.97,3.63,24.81,4.28"/><path class="cls-1" d="m185.17,70.38c8.67-2.46,16.35-5.79,22.65-9.79"/><path class="cls-1" d="m92.18,60.59c6.3,4,13.98,7.33,22.65,9.79"/><path class="cls-1" d="m160.37,74.66c8.84-.66,17.2-2.13,24.81-4.28"/><path class="cls-1" d="m126.12,146.82c.18.77.3,1.56.3,2.38,0,4.81-3.26,8.83-7.68,10.06"/><path class="cls-1" d="m106,152.39c1.36,4.22,5.27,7.29,9.94,7.29.97,0,1.9-.18,2.8-.43"/><path class="cls-1" d="m126.12,146.82c-1.08-4.64-5.22-8.1-10.19-8.1-1.36,0-2.65.28-3.85.75"/><path class="cls-1" d="m112.09,139.47c-3.88,1.54-6.64,5.3-6.64,9.73,0,1.12.22,2.18.55,3.19"/><path class="cls-1" d="m181.45,109.89c0-5.4,4.09-9.79,9.33-10.37"/><path class="cls-1" d="m190.78,120.26c.38.04.76.12,1.15.12,5.79,0,10.48-4.69,10.48-10.48"/><path class="cls-1" d="m190.78,120.26c-5.24-.58-9.33-4.97-9.33-10.37"/><path class="cls-1" d="m202.41,109.89c0-5.79-4.69-10.48-10.48-10.48-.4,0-.77.07-1.15.12"/><path class="cls-1" d="m150,86.3c-5.79,0-10.48-4.69-10.48-10.48,0-.4.07-.77.12-1.16"/><path class="cls-1" d="m150,65.34c-5.39,0-9.78,4.09-10.37,9.32"/><path class="cls-1" d="m160.37,74.66c.04.39.12.76.12,1.16,0,5.79-4.69,10.48-10.48,10.48"/><path class="cls-1" d="m160.37,74.66c-.58-5.24-4.97-9.32-10.37-9.32"/></svg>