<?xml version="1.0" encoding="UTF-8"?><svg id="Capa_1" xmlns="http://www.w3.org/2000/svg" viewBox="0 0 300 219.78"><defs><style>.cls-1{fill:#e78f00;stroke-width:0px;}</style></defs><path class="cls-1" d="m121.31,44.97h5.61c-3.71,13.18-7.34,26.08-11.05,39.27h67.9c-3.73-13.24-7.35-26.14-11.06-39.31h5.68c3.69,12.94,7.42,26,11.25,39.43h45.49c.14,2,.25,3.59.4,5.76h-11.79v14.17h-16.59v-13.78h-114.39v13.71h-16.81v-13.83h-11.47v-5.7h45.18c4.43-13.14,7.51-26.53,11.66-39.73m-34.19,45.65h-5.53v7.78h5.53v-7.78Zm125.46,7.87h5.37v-8.12h-5.37v8.12Zm-128.36,76.92h5.76c4.93-17.39,9.8-34.55,14.67-51.7,2.34-8.26,4.72-16.5,7.03-24.77.2-.72.03-1.55.03-2.52h-5.07c-7.47,26.33-14.89,52.51-22.41,78.99m131.16.04c-7.53-26.63-14.86-52.97-22.57-79.36-2.02.2-3.46.34-5.46.55,7.48,26.45,14.84,52.48,22.29,78.81h5.74Zm-63.23-24.9h-4.76v36.17h4.76v-36.17Zm-4.71-23.71h4.49l-.28-25.1h-4.21v25.1Zm.05-64.39v16.1c1.77-.11,3.19-.2,4.77-.3v-15.67c-1.6-1-3.25-.9-4.77-.13m-.09-18.26h4.81v-10.5h-4.81v10.5Zm-66.09,137.6c-1.5,0-2.71,1.21-2.71,2.71s1.22,2.72,2.71,2.72,2.71-1.22,2.71-2.72-1.21-2.71-2.71-2.71m11.6,0c-1.5,0-2.72,1.21-2.72,2.71s1.22,2.72,2.72,2.72,2.72-1.22,2.72-2.72-1.22-2.71-2.72-2.71m11.11,0c-1.5,0-2.71,1.21-2.71,2.71s1.22,2.72,2.71,2.72,2.72-1.22,2.72-2.72-1.22-2.71-2.72-2.71m11.6,0c-1.5,0-2.72,1.21-2.72,2.71s1.22,2.72,2.72,2.72,2.71-1.22,2.71-2.72-1.21-2.71-2.71-2.71m11.38,0c-1.5,0-2.72,1.21-2.72,2.71s1.22,2.72,2.72,2.72,2.71-1.22,2.71-2.72-1.21-2.71-2.71-2.71m11.59,0c-1.5,0-2.71,1.21-2.71,2.71s1.22,2.72,2.71,2.72,2.72-1.22,2.72-2.72-1.22-2.71-2.72-2.71m22.62,0c-1.5,0-2.71,1.21-2.71,2.71s1.22,2.72,2.71,2.72,2.72-1.22,2.72-2.72-1.22-2.71-2.72-2.71m11.6,0c-1.5,0-2.71,1.21-2.71,2.71s1.22,2.72,2.71,2.72,2.72-1.22,2.72-2.72-1.22-2.71-2.72-2.71m11.11,0c-1.5,0-2.72,1.21-2.72,2.71s1.22,2.72,2.72,2.72,2.71-1.22,2.71-2.72-1.21-2.71-2.71-2.71m11.6,0c-1.5,0-2.72,1.21-2.72,2.71s1.22,2.72,2.72,2.72,2.72-1.22,2.72-2.72-1.22-2.71-2.72-2.71m11.38,0c-1.5,0-2.72,1.21-2.72,2.71s1.22,2.72,2.72,2.72,2.71-1.22,2.71-2.72-1.22-2.71-2.71-2.71m11.59,0c-1.5,0-2.71,1.21-2.71,2.71s1.21,2.72,2.71,2.72,2.72-1.22,2.72-2.72-1.22-2.71-2.72-2.71M126.86,33.35c-1.5,0-2.72,1.22-2.72,2.72s1.22,2.71,2.72,2.71,2.72-1.22,2.72-2.71-1.22-2.72-2.72-2.72m11.6,0c-1.5,0-2.71,1.22-2.71,2.72s1.21,2.71,2.71,2.71,2.72-1.22,2.72-2.71-1.22-2.72-2.72-2.72m22.7,0c-1.5,0-2.72,1.22-2.72,2.72s1.22,2.71,2.72,2.71,2.72-1.22,2.72-2.71-1.22-2.72-2.72-2.72m11.38,0c-1.5,0-2.71,1.22-2.71,2.72s1.22,2.71,2.71,2.71,2.72-1.22,2.72-2.71-1.22-2.72-2.72-2.72"/></svg>