<?xml version="1.0" encoding="UTF-8"?><svg id="Capa_1" xmlns="http://www.w3.org/2000/svg" viewBox="0 0 300 219.78"><defs><style>.cls-1{fill:#e78f00;stroke-width:0px;}</style></defs><path class="cls-1" d="m102.23,110.17c0-11.41,0-22.82,0-34.24,0-11.56-.01-23.11.02-34.67.01-4.27,3.04-7.33,7.28-7.33,19.78-.03,39.56-.02,59.34-.02,7.05,0,14.09,0,21.14-.01,4.69-.01,7.73,3,7.73,7.7,0,23.05-.01,46.09-.02,69.14,0,22.05,0,44.11,0,66.16,0,1.14.09,2.29-.05,3.41-.47,3.81-3.54,6.38-7.46,6.37-16,0-32,0-48,0-10.68,0-21.36,0-32.04,0-5.02,0-7.93-2.88-7.94-7.93-.02-11.23-.01-22.46-.01-33.69,0-11.63,0-23.26,0-34.89h.01Zm4.83-4.73v46.22q0,1.55,1.53,1.55c25.84,0,51.67,0,77.51,0,1.94,0,3.89-.03,5.83.02.79.02,1.01-.27,1-1.02-.04-1.65-.02-3.3-.02-4.95,0-29.32,0-58.64,0-87.97q0-1.44-1.44-1.44h-62.87c-6.75,0-13.5.02-20.25-.02-.97,0-1.34.2-1.31,1.27.07,3.41.03,6.82.03,10.23,0,12.04,0,24.07,0,36.11m42.92,52.6c-13.87,0-27.73.01-41.6-.02-1.07,0-1.34.31-1.34,1.35.05,6.42.02,12.84.02,19.26,0,2.4.82,3.21,3.25,3.21,12.62,0,25.24,0,37.86,0,13.9,0,27.81,0,41.71,0,2.08,0,3.01-.85,3.02-2.77.02-6.64,0-13.28.03-19.92,0-.87-.28-1.12-1.13-1.11-13.94.02-27.88.01-41.82.01m.02-105.03c13.83,0,27.66-.01,41.49.02,1.06,0,1.48-.18,1.45-1.36-.08-3.26-.03-6.53-.03-9.79,0-2.28-.84-3.14-3.1-3.14-5.69,0-11.37,0-17.06,0-20.91,0-41.83,0-62.74,0-2.07,0-2.95.88-2.95,2.94,0,3.3,0,6.6,0,9.91q0,1.42,1.44,1.42c13.83,0,27.67,0,41.5,0"/><path class="cls-1" d="m122.4,138.86h55.1c-.05-.3-.06-.54-.13-.77-2.44-7.33-4.91-14.66-7.32-22-.25-.76-.61-1.06-1.39-1-.66.06-1.32.05-1.98,0-1.49-.1-2.43-1.1-2.39-2.48.04-1.37,1.04-2.31,2.53-2.33,1.47-.02,2.94-.02,4.4,0,1.43.01,2.16.54,2.61,1.89,1.81,5.46,3.6,10.93,5.42,16.39,1.27,3.83,2.59,7.64,3.87,11.46.76,2.27-.25,3.7-2.63,3.7-20.32,0-40.65,0-60.97,0-2.4,0-3.43-1.42-2.69-3.67,3.06-9.18,6.11-18.37,9.18-27.54.63-1.88,1.16-2.24,3.13-2.25,1.32,0,2.64-.01,3.96,0,1.57.02,2.59.97,2.58,2.39,0,1.43-1.01,2.37-2.57,2.44-.97.05-2.18-.2-2.84.29-.63.47-.69,1.71-.99,2.61-2.17,6.5-4.34,13-6.51,19.51-.14.41-.23.82-.38,1.35"/><path class="cls-1" d="m169.22,87.43c.1,4.31-1.12,8.3-2.77,12.17-3.71,8.69-8.88,16.51-14.53,24.04-1.06,1.42-2.93,1.33-4.03-.15-4.16-5.59-8.03-11.38-11.33-17.53-2.2-4.12-4.28-8.31-5.16-12.92-1.25-6.51-.54-12.81,3.04-18.54,2.3-3.68,5.84-5.68,10.01-6.61,3.67-.81,7.36-.81,11.03-.01,7.15,1.56,11.11,6.29,12.77,13.15.51,2.09.66,4.27.97,6.4m-19.31,30.59c.19-.16.3-.21.35-.29,4.45-6.26,8.51-12.73,11.65-19.76,2.6-5.82,3.13-11.71,1.08-17.77-.99-2.93-2.77-5.23-5.61-6.6-3.12-1.51-6.45-1.64-9.8-1.34-4.35.4-7.96,2.15-9.91,6.28-1.98,4.2-2.47,8.66-1.61,13.21.79,4.19,2.69,7.97,4.65,11.71,2.67,5.07,5.8,9.85,9.19,14.57"/><path class="cls-1" d="m149.97,177.07c-3.99,0-7.14-3.11-7.16-7.08-.02-4.02,3.15-7.25,7.13-7.27s7.19,3.18,7.22,7.18c.03,4-3.14,7.16-7.19,7.17m2.36-7.16c-.02-1.3-1.15-2.4-2.41-2.34-1.23.05-2.31,1.15-2.3,2.35,0,1.3,1.11,2.35,2.42,2.32,1.29-.03,2.31-1.07,2.29-2.33"/><path class="cls-1" d="m149.98,43.49c2.31,0,4.62,0,6.93,0,1.6,0,2.58.9,2.61,2.33.03,1.51-.92,2.42-2.61,2.43-4.62.01-9.24.01-13.85,0-1.67,0-2.63-.93-2.61-2.44.02-1.43.99-2.31,2.61-2.32,2.31-.01,4.62,0,6.93,0"/><path class="cls-1" d="m133.43,43.49c1.39.05,2.33,1.14,2.25,2.58-.07,1.3-1.2,2.28-2.53,2.21-1.33-.08-2.38-1.19-2.3-2.46.08-1.36,1.2-2.37,2.58-2.32"/><path class="cls-1" d="m140.44,86.41c.02-5.35,4.25-9.58,9.57-9.57,5.25.01,9.52,4.29,9.51,9.54-.01,5.43-4.24,9.65-9.63,9.61-5.27-.04-9.47-4.29-9.45-9.58m9.46,4.73c2.69.02,4.77-2.04,4.82-4.78.05-2.47-2.17-4.67-4.72-4.69-2.55-.02-4.73,2.1-4.77,4.63-.04,2.62,2.08,4.82,4.67,4.84"/></svg>