<svg id="Layer_1" data-name="Layer 1" xmlns="http://www.w3.org/2000/svg" viewBox="0 0 148.91 146.82"><defs><style>.cls-1{fill:#ee7f00;}</style></defs><title>Iconos_Artboard 12 copy 45</title><path class="cls-1" d="M71,101.91a1.92,1.92,0,0,0,0,3.84,2,2,0,0,0,1.36-.56,1.93,1.93,0,0,0,0-2.72A2,2,0,0,0,71,101.91Z"/><path class="cls-1" d="M81.47,84.78V70.66a1.92,1.92,0,0,0-.84-1.59,2,2,0,0,0-1.79-.19L45.78,82.2H35.14a11,11,0,1,0,0,22h1.27v11.52a1.91,1.91,0,0,0,1.91,1.92h7.83a1.92,1.92,0,0,0,1.92-1.92V105.16l30.77,12.37a2,2,0,0,0,.71.14,1.91,1.91,0,0,0,1.92-1.92V101.64a8.64,8.64,0,0,0,0-16.86ZM28,93.21A7.19,7.19,0,0,1,35.14,86h9.1v14.36h-9.1A7.19,7.19,0,0,1,28,93.21Zm12.28,20.62v-9.6h4v9.6Zm37.4-.92L48.07,101V85.41l21-8.45V96a1.92,1.92,0,0,0,3.84,0V75.41l4.74-1.91v39.41Zm3.83-15.29V88.8a4.81,4.81,0,0,1,0,8.82Z"/><path class="cls-1" d="M106.5,91.34H95.64a1.92,1.92,0,0,0,0,3.84H106.5a1.92,1.92,0,1,0,0-3.84Z"/><path class="cls-1" d="M92.49,84.31a2,2,0,0,0,1.36-.56L97.59,80a1.92,1.92,0,0,0-2.71-2.71L91.13,81a1.91,1.91,0,0,0,0,2.71A2,2,0,0,0,92.49,84.31Z"/><path class="cls-1" d="M93.86,102.47a1.92,1.92,0,1,0-2.71,2.72L95,109.06a1.93,1.93,0,0,0,1.36.56,1.92,1.92,0,0,0,1.35-3.27Z"/><path class="cls-1" d="M114.66,19.46H79a7.68,7.68,0,0,0-7.67,7.67v.77H39.08a4.6,4.6,0,0,0-4.6,4.6V62.81a4.6,4.6,0,0,0,4.6,4.6h2v5.88a1.93,1.93,0,0,0,1.19,1.78,2.1,2.1,0,0,0,.73.14,1.91,1.91,0,0,0,1.36-.56l7.24-7.24h38.1a4.6,4.6,0,0,0,4.6-4.6V57.05h20.38a7.68,7.68,0,0,0,7.67-7.67V27.13A7.68,7.68,0,0,0,114.66,19.46ZM90.45,62.81a.77.77,0,0,1-.77.76H50.78a1.93,1.93,0,0,0-1.35.57L44.9,68.66V65.49A1.92,1.92,0,0,0,43,63.57h-3.9a.76.76,0,0,1-.76-.76V32.5a.77.77,0,0,1,.76-.77H71.31V49.38A7.68,7.68,0,0,0,79,57.05H90.45ZM118.5,49.38a3.85,3.85,0,0,1-3.84,3.84H79a3.85,3.85,0,0,1-3.83-3.84V27.13A3.84,3.84,0,0,1,79,23.29h35.68a3.84,3.84,0,0,1,3.84,3.84Z"/><path class="cls-1" d="M104.53,36.59,91.4,29a1.92,1.92,0,0,0-2.88,1.66V45.83a1.92,1.92,0,0,0,1,1.66,1.9,1.9,0,0,0,1.92,0l13.13-7.58a1.92,1.92,0,0,0,1-1.66A1.94,1.94,0,0,0,104.53,36.59ZM92.36,42.51V34l7.37,4.25Z"/><path class="cls-1" d="M65.27,39.6H46.09a1.92,1.92,0,1,0,0,3.83H65.27a1.92,1.92,0,1,0,0-3.83Z"/><path class="cls-1" d="M65.27,50.34a1.92,1.92,0,0,0-1.36.56,2,2,0,0,0-.56,1.36,1.94,1.94,0,0,0,.56,1.35,1.92,1.92,0,0,0,1.36.56,1.93,1.93,0,0,0,1.92-1.91,1.93,1.93,0,0,0-.57-1.36A1.9,1.9,0,0,0,65.27,50.34Z"/><path class="cls-1" d="M58.07,50.34h-12a1.92,1.92,0,1,0,0,3.83h12a1.92,1.92,0,1,0,0-3.83Z"/></svg>