<svg id="Layer_1" data-name="Layer 1" xmlns="http://www.w3.org/2000/svg" viewBox="0 0 148.91 146.82"><defs><style>.cls-1{fill:#ee7f00;}</style></defs><title>Iconos_Artboard 12 copy 43</title><path class="cls-1" d="M99,138.15V126.08c-3.65,0-7.09,0-10.53,0-6.74,0-10.24-3.54-10.27-10.32q0-7.81,0-15.61A8.8,8.8,0,0,1,87,90.92c3.28-.13,6.57-.09,9.86,0,1.66,0,2.31-.55,2.2-2.23s0-3.45,0-5.72c-3.72,0-7.33.16-10.92-.07a13.69,13.69,0,0,1-5.7-1.44,8.14,8.14,0,0,1-4.22-7.76c0-1.36,0-2.72,0-4.59-1.85,0-3.53,0-5.22,0-5.38,0-10.77.09-16.15.11-6,0-9.85-2.85-11.41-8.61a35.72,35.72,0,0,1-1.17-6.71c-.13-1.66-.72-2.27-2.32-2.24-2.65.05-5.29,0-7.94,0-5.89-.06-9.68-3.59-9.84-9.44q-.22-8.22,0-16.43c.15-5.66,4-9.28,9.68-9.32q14.25-.09,28.49,0c5.74,0,9.36,3.26,9.6,9s.21,11.69,0,17.51c-.21,5.29-4,8.61-9.31,8.7-4.11.06-8.21.05-12.32.09a4.33,4.33,0,0,0-1,.35c0,3.64.5,7.23,2.87,10.18A5.18,5.18,0,0,0,55.57,64c7.39.15,14.77.08,22.6.08V57.37c0-5.67,3.66-9.54,9.35-9.6q14.39-.15,28.76,0c6.15.07,9.76,3.9,9.76,10.06q0,7.39,0,14.79c0,6.45-3.71,10.27-10.1,10.33-3.19,0-6.39.05-9.58,0-1.59,0-2.38.44-2.25,2.19s0,3.6,0,5.75h11.73c6.44,0,10.16,3.72,10.17,10.19q0,7.68,0,15.34c0,5.58-3.75,9.44-9.39,9.63-3.37.12-6.76.11-10.13,0-1.74,0-2.51.46-2.4,2.31.12,2.19,0,4.38,0,6.57,0,3.48,0,3.48-3.47,3.39C100.23,138.3,99.79,138.23,99,138.15Zm-51-91.7c4.84,0,9.67,0,14.5,0,2.6,0,4.36-1.28,4.45-3.82.19-5.73.16-11.47,0-17.2a3.51,3.51,0,0,0-3.71-3.62q-14.91-.11-29.81-.06c-2.63,0-4,1.54-4,4.16-.06,5.29-.14,10.58-.09,15.86,0,3.23,1.55,4.64,4.75,4.67C38.64,46.47,43.29,46.44,47.94,46.45ZM102.07,77.8c4.57,0,9.13,0,13.7,0,3.74,0,5.14-1.4,5.16-5.09,0-4.66,0-9.32,0-14s-1.24-5.84-5.87-5.85c-9,0-17.89,0-26.84,0-3.45,0-4.94,1.46-5,5,0,5,0,10,0,15,0,3.35,1.47,4.8,4.85,4.82C92.76,77.81,97.42,77.79,102.07,77.8Zm-.14,43v0h14.24c3.28,0,4.73-1.39,4.76-4.62q.06-7.66,0-15.33c0-3.38-1.47-4.79-4.87-4.81q-14,0-27.92,0c-3.46,0-4.85,1.4-4.86,4.8q0,7.53,0,15.06c0,3.64,1.25,4.87,5,4.9C92.8,120.8,97.37,120.78,101.93,120.78Z"/></svg>