<svg id="Layer_1" data-name="Layer 1" xmlns="http://www.w3.org/2000/svg" viewBox="0 0 148.91 146.82"><defs><style>.cls-1{fill:#ee7f00;}</style></defs><title>Iconos_Artboard 12 copy 32</title><path class="cls-1" d="M107.45,143.42H53.28V119.21H8.63c0-.24,0-.41,0-.58q0-15.57,0-31.14a9.4,9.4,0,0,1,7.77-9.39A10.42,10.42,0,0,1,18.22,78c2.51,0,5,0,7.53,0a3.16,3.16,0,0,0,.41,0c-.8-.85-1.68-1.68-2.43-2.61a14.66,14.66,0,0,1-3.4-9.36c0-3.85,0-7.69,0-11.54a14.37,14.37,0,0,1,2.93-8.67,15.36,15.36,0,0,1,6.89-5.21A15.08,15.08,0,0,1,50.64,53.59c.24,4,.07,8,.09,12a15.22,15.22,0,0,1-5.51,11.9l-.54.46.66,0h7.88a9.44,9.44,0,0,1,9.59,9.58c0,4.54,0,9.08,0,13.62v1H71c-.19-.17-.34-.32-.5-.45A15.06,15.06,0,0,1,65,89.78c0-4.5,0-9,0-13.51A12.62,12.62,0,0,1,76.71,63.83a52,52,0,0,1,8,.14,11.48,11.48,0,0,1,7.73,4.42,12.67,12.67,0,0,1,2.94,8.49c0,4.37,0,8.73,0,13.09a15,15,0,0,1-5.3,11.57l-.58.52s0,0,0,.14h2.67c1.95,0,3.9,0,5.85,0a9.44,9.44,0,0,1,9.4,8.19,15.18,15.18,0,0,1,.09,1.91q0,12,0,23.9v7.22Zm-21.31-38.1c0,1.71,0,3.36,0,5A5.41,5.41,0,0,1,84.86,114a1.05,1.05,0,0,0-.26,1q.75,3.94,1.47,7.92a17.73,17.73,0,0,1,.6,3.64c-.14,3.45-.47,6.91-.72,10.36-.08,1.14-.16,2.28-.24,3.45h18.64V111.8a6.38,6.38,0,0,0-.11-1.31A6.31,6.31,0,0,0,98,105.3c-3.81,0-7.61,0-11.41,0Zm-29.78,35h18.3c-.25-3.59-.52-7.12-.75-10.66a18.33,18.33,0,0,1-.09-4c.55-3.6,1.27-7.17,1.94-10.74a.88.88,0,0,0-.21-.86,5.46,5.46,0,0,1-1.34-3.79c0-1.49,0-3,0-4.48,0-.15,0-.3,0-.49h-.64c-3.48,0-7,.06-10.45,0A6.55,6.55,0,0,0,56.34,112c.09,8.74,0,17.48,0,26.22ZM29.52,81.05H18.2a6.36,6.36,0,0,0-6.5,6.5q0,13.89,0,27.79v.72H30a1.51,1.51,0,0,0,0-.29q-.49-11.37-1-22.74a4.32,4.32,0,0,1,.22-1.51c.58-1.69,1.2-3.37,1.83-5.05a.66.66,0,0,0-.13-.79A4.91,4.91,0,0,1,29.66,83C29.56,82.41,29.57,81.77,29.52,81.05Zm23.74,35v-4.13a9.38,9.38,0,0,1,6-9.09.56.56,0,0,0,.42-.61c0-4.94,0-9.88,0-14.81a6.32,6.32,0,0,0-6.51-6.37H41.53a3.47,3.47,0,0,0-.05.39A5.77,5.77,0,0,1,40,85.78a.82.82,0,0,0,0,.64c.61,1.77,1.26,3.52,1.87,5.29A3.25,3.25,0,0,1,42,92.87c-.19,4.65-.4,9.3-.6,14-.09,1.89-.17,3.77-.25,5.66,0,1.18-.11,2.36-.17,3.57ZM47.62,57.89c-5.87-1.37-11.07-3.71-14.14-9.13-.47.43-.94.83-1.38,1.25A30.45,30.45,0,0,1,24,55.37a.8.8,0,0,0-.54.85c0,3.14,0,6.29,0,9.44A12.09,12.09,0,0,0,39.57,77.08,11.45,11.45,0,0,0,47.51,67c.24-2.25.09-4.53.11-6.8C47.63,59.4,47.62,58.65,47.62,57.89ZM78.15,73.06c-.48.42-1,.83-1.43,1.26a30.7,30.7,0,0,1-8,5.28.88.88,0,0,0-.59.93c0,3,0,6.1,0,9.14,0,.52,0,1,0,1.55A12.09,12.09,0,0,0,92.26,90c0-2.33,0-4.66,0-7v-.84C86.39,80.8,81.23,78.41,78.15,73.06ZM38.47,103.21h0q.22-5,.44-10a1.84,1.84,0,0,0-.08-.7c-.48-1.39-1-2.77-1.48-4.16a.52.52,0,0,0-.61-.39c-.8,0-1.6,0-2.39,0-.4,0-.55.14-.67.49-.45,1.28-.93,2.54-1.37,3.82a3.06,3.06,0,0,0-.16,1c.09,2.21.21,4.41.3,6.62.23,5.11.44,10.22.67,15.33,0,.84.05.85.9.84,1.14,0,2.27-.07,3.4,0,.48,0,.58-.12.58-.54,0-1.29,0-2.58.1-3.87C38.22,108.82,38.35,106,38.47,103.21ZM68.08,76.34l.21,0c3.18-1.66,6.17-3.55,8.23-6.62a2,2,0,0,1,3.44.13c.15.26.29.52.42.79a13.67,13.67,0,0,0,3,4.12,16,16,0,0,0,5.27,3.08c1.15.42,2.33.77,3.56,1.17,0-1.24.07-2.36,0-3.46a9,9,0,0,0-2-5,9.59,9.59,0,0,0-7.85-3.7c-1.49,0-3,0-4.48,0a9.54,9.54,0,0,0-6.79,2.61A9.44,9.44,0,0,0,68.08,76.34Zm14.5,63.91c0-.26.06-.47.08-.68.19-2.69.44-5.36.56-8,.11-2.23.56-4.45.08-6.71-.61-2.8-1-5.64-1.58-8.45,0-.16-.24-.39-.38-.39-.85,0-1.71,0-2.58,0-.06.21-.11.38-.15.56-.43,2.34-.88,4.69-1.29,7a17,17,0,0,0-.46,3.59c.16,3.52.47,7,.72,10.55.06.85.13,1.7.2,2.56Zm-35-85.54A12,12,0,0,0,36.09,42.62c-6.87-.34-11.63,5-12.26,9.36.51-.28,1-.53,1.48-.82a19.33,19.33,0,0,0,6.6-5.76,2,2,0,0,1,3.43.22c.5.88.95,1.8,1.52,2.64a14.72,14.72,0,0,0,7.4,5.39C45.33,54.05,46.44,54.35,47.56,54.71Zm29.77,50.6c0,1.85,0,3.64,0,5.42a2.28,2.28,0,0,0,1.91,2.08,7.47,7.47,0,0,0,1.25,0A2.4,2.4,0,0,0,83,110.31v-5ZM32.71,81.07c-.14,1.22-.05,2.35,1.12,3a3.38,3.38,0,0,0,3.57-.11,2.66,2.66,0,0,0,.92-2.85Z"/><path class="cls-1" d="M84.64,63.39l-2.43-2.71c-.9-1-1.78-2-2.71-3a2.44,2.44,0,0,0-1-.63,52.55,52.55,0,0,1-13.67-5.7,28.94,28.94,0,0,1-7-5.82,1.53,1.53,0,0,0-.73-.44l-9.46-2.49c.44-.52.83-1,1.24-1.47,1.61-1.85,3.22-3.7,4.81-5.55A1.12,1.12,0,0,0,54,35a15.84,15.84,0,0,1,4.39-9.53,32,32,0,0,1,9.83-7.07A64,64,0,0,1,88,12.64a86.2,86.2,0,0,1,19.13-.44,70.17,70.17,0,0,1,20.4,4.65A36.48,36.48,0,0,1,140,24.65a16.29,16.29,0,0,1,5,9.13,13.6,13.6,0,0,1-2.12,9.57,24.9,24.9,0,0,1-8.2,7.78,53.27,53.27,0,0,1-16.29,6.46,84.21,84.21,0,0,1-22.77,2c-1.41-.05-2.82-.22-4.23-.28a1.7,1.7,0,0,0-.92.29c-1.84,1.19-3.67,2.4-5.5,3.6C84.85,63.27,84.77,63.31,84.64,63.39Zm.51-3.89.58-.36c1.36-.9,2.72-1.81,4.1-2.68a1.37,1.37,0,0,1,.82-.19c2.78.14,5.56.4,8.34.44a76.88,76.88,0,0,0,15.8-1.39,55.46,55.46,0,0,0,17-6,23.83,23.83,0,0,0,8.1-6.93c3.7-5.26,2.65-10.53-1.12-14.79A30.85,30.85,0,0,0,127.41,20a67.65,67.65,0,0,0-21.72-4.95,82.67,82.67,0,0,0-18.53.71A59.66,59.66,0,0,0,69,21.26a28.51,28.51,0,0,0-8.24,5.94c-2.32,2.49-3.9,5.32-3.84,8.86a1.07,1.07,0,0,1-.3.61c-1,1.15-2,2.29-3,3.43l-.68.82c2,.52,3.92,1,5.82,1.52a1.33,1.33,0,0,1,.68.4,21.81,21.81,0,0,0,5.11,4.81,48.41,48.41,0,0,0,15.47,6.73,2.3,2.3,0,0,1,1,.61C82.47,56.47,83.8,58,85.15,59.5Z"/><path class="cls-1" d="M87.28,17.69h24.86v13H87.28Zm3,3v7h18.93v-7Z"/><path class="cls-1" d="M112.15,53.41H87.27V40.46h24.88Zm-21.9-10v7h18.91v-7Z"/><path class="cls-1" d="M61.51,37A8.44,8.44,0,1,1,70,45.37,8.44,8.44,0,0,1,61.51,37Zm13.89,0a5.46,5.46,0,1,0-5.54,5.47A5.5,5.5,0,0,0,75.4,36.93Z"/><path class="cls-1" d="M131.57,38.66h-3.28V24.44h3.28Z"/><path class="cls-1" d="M123.23,38.7V26.09h3.29c0,.2,0,.41,0,.62V37.09c0,.23,0,.47,0,.71,0,.89,0,.89-1,.9Z"/><path class="cls-1" d="M124,45.77l-1-.88a23.76,23.76,0,0,1-8.8,3.7l-.65-2.87a24,24,0,0,0,7.25-2.87l-1-.89,5.37-1.68C124.75,42.09,124.38,43.86,124,45.77Z"/><path class="cls-1" d="M118.2,30.3h3.3v8.35h-3.3Z"/><path class="cls-1" d="M98.12,34.64V31.92h2.95v2.7h1.8L99.59,40.3l-3.26-5.66Z"/><path class="cls-1" d="M75.1,26a2.79,2.79,0,0,1-1.47,2.14A1.37,1.37,0,0,1,72,27.88a1.57,1.57,0,0,1-.08-2.33c.81-1,1.77-1.28,2.49-.62A4,4,0,0,1,75.1,26Z"/><path class="cls-1" d="M79.38,23.43c0,.9-.73,1.59-1.91,1.8a1.52,1.52,0,0,1-1.75-1,1.74,1.74,0,0,1-.09-.64c0-1.12,1.31-1.65,2.26-1.7A1.49,1.49,0,0,1,79.38,23.43Z"/><path class="cls-1" d="M82.28,23.91a1.58,1.58,0,0,1-1.67-1.24,1.52,1.52,0,0,1,1-1.75,4.54,4.54,0,0,1,1.47-.15,1.46,1.46,0,0,1,1.33,1.44,1.55,1.55,0,0,1-1.15,1.56C82.9,23.85,82.52,23.88,82.28,23.91Z"/></svg>