<svg id="Layer_1" data-name="Layer 1" xmlns="http://www.w3.org/2000/svg" viewBox="0 0 148.91 146.82"><defs><style>.cls-1{fill:#ee7f00;}</style></defs><title>Iconos_Artboard 12 copy 47</title><path class="cls-1" d="M81.22,88.81a2.58,2.58,0,0,0-2-.08h0A2.55,2.55,0,0,0,77.76,92c1.08,3,2,5.88,2.78,8.69a2.55,2.55,0,0,0,4.67.6,2.51,2.51,0,0,0,.25-1.93c-.81-3-1.79-6-2.92-9.11A2.53,2.53,0,0,0,81.22,88.81Z"/><path class="cls-1" d="M39.8,21.74A13.85,13.85,0,1,0,53.65,35.59,13.87,13.87,0,0,0,39.8,21.74Zm0,22.6a8.75,8.75,0,1,1,8.75-8.75A8.76,8.76,0,0,1,39.8,44.34Z"/><path class="cls-1" d="M54.28,46.56a2.59,2.59,0,0,0-1.84-.62,2.52,2.52,0,0,0-1.75.86,2.56,2.56,0,0,0,.23,3.6c1.06.93,2.13,1.92,3.17,3a2.55,2.55,0,1,0,3.6-3.61C56.57,48.64,55.42,47.56,54.28,46.56Z"/><path class="cls-1" d="M111.76,77.28a26,26,0,0,0-4.65,1.85,2.55,2.55,0,0,0,1.17,4.81,2.68,2.68,0,0,0,1.17-.28,19.66,19.66,0,0,1,3.71-1.48,2.55,2.55,0,0,0-1.4-4.9Z"/><path class="cls-1" d="M92.87,105.49a2.64,2.64,0,0,0,.48-.76,62.37,62.37,0,0,1,2.82-6.36,2.55,2.55,0,0,0-1.1-3.43,2.52,2.52,0,0,0-1.94-.16A2.55,2.55,0,0,0,91.64,96a70.3,70.3,0,0,0-3,6.87,2.56,2.56,0,0,0,0,1.94c0,.07.08.13.11.2-.39,0-.78,0-1.19,0-9.64,0-16.92,4.31-16.92,10s7.44,10,16.92,10c9.65,0,16.92-4.31,16.92-10C104.48,110.44,99.75,106.75,92.87,105.49Zm6.73,9.56c0,2.1-4.69,5.15-12,5.15s-12-3-12-5.15,4.69-5.15,12-5.15S99.6,113,99.6,115.05Z"/><path class="cls-1" d="M100.66,83.71h0a38.92,38.92,0,0,0-5.08,5.83,2.55,2.55,0,0,0,.58,3.55,2.5,2.5,0,0,0,1.49.48,2.55,2.55,0,0,0,2.07-1.06,33.51,33.51,0,0,1,4.41-5.07,2.55,2.55,0,0,0-3.47-3.73Z"/><path class="cls-1" d="M79.33,84.41c2.45-1.41,3.78-4.29,3.75-8.09a24.35,24.35,0,0,0-3.52-11.57,24.34,24.34,0,0,0-8.27-8.85C68,54,64.86,53.69,62.41,55.11s-3.78,4.29-3.75,8.09a24.39,24.39,0,0,0,3.52,11.58c3.69,6.39,9.08,10.52,13.74,10.52A6.73,6.73,0,0,0,79.33,84.41Zm-2.44-4.22c-1.81,1.06-6.81-1.49-10.48-7.85a20.12,20.12,0,0,1-2.85-8.7c-.1-2.14.39-3.78,1.29-4.31a2,2,0,0,1,1-.22c2.41,0,6.45,2.77,9.52,8.08a20.1,20.1,0,0,1,2.84,8.69C78.29,78,77.79,79.67,76.89,80.19Z"/><path class="cls-1" d="M127.38,59a13.85,13.85,0,1,0,13.85,13.85A13.86,13.86,0,0,0,127.38,59Zm8.75,13.85a8.75,8.75,0,1,1-8.75-8.76A8.76,8.76,0,0,1,136.13,72.85Z"/></svg>