<svg id="Layer_1" data-name="Layer 1" xmlns="http://www.w3.org/2000/svg" viewBox="0 0 148.91 146.82"><defs><style>.cls-1{fill:#ee7f00;}</style></defs><title>fArtboard 12 copy 42</title><path class="cls-1" d="M118.84,94.74V87.17h14V55.26H119.33V41c0-8.08-5.14-12.78-14.54-13.41V14.33H48.47V27.59C39,28.21,33.88,32.92,33.88,41V54.29A16.5,16.5,0,1,0,52.17,72.58h8.95l13.2,13.2v9.39H60.54v14.22H52.19a16.5,16.5,0,1,0,0,3.81h8.39v13.88H92.45V95.17H78.13V86.31l13.51-13.5H101V87.17h14v7.57a16.5,16.5,0,1,0,3.82,0ZM35.78,123.81a12.69,12.69,0,1,1,12.69-12.68A12.7,12.7,0,0,1,35.78,123.81Zm52.85-.54H64.35V99H88.63ZM52.28,18.14H101V42.06H52.28ZM35.78,83.35A12.68,12.68,0,1,1,48.47,70.67,12.69,12.69,0,0,1,35.78,83.35Zm40.71-.79L64.75,70.81,76.49,59.06,88.24,70.81ZM91.83,69,76.49,53.66l-15.1,15.1H52.17A16.53,16.53,0,0,0,37.69,54.29V41c0-5.85,3.63-9.06,10.78-9.58V45.88h56.32V31.43c7.11.54,10.73,3.75,10.73,9.58V55.26H101V69Zm13-9.91h24.28V83.35H104.79Zm12.14,64.73a12.69,12.69,0,1,1,12.68-12.68A12.7,12.7,0,0,1,116.93,123.81Z"/><circle class="cls-1" cx="68.15" cy="29.97" r="1.88"/><circle class="cls-1" cx="76.63" cy="29.97" r="1.88"/><circle class="cls-1" cx="84.84" cy="29.97" r="1.88"/></svg>