<svg id="Layer_1" data-name="Layer 1" xmlns="http://www.w3.org/2000/svg" viewBox="0 0 148.91 146.82"><defs><style>.cls-1{fill:#ee7f00;}</style></defs><title>fArtboard 12 copy 40</title><path class="cls-1" d="M48.07,93.25H43.82V101a2.12,2.12,0,0,0,2.12,2.13h7.85V98.89H48.07Z"/><path class="cls-1" d="M131.32,109.59l-14.7-7.89V56l15.25-15.25a2.13,2.13,0,0,0,0-3l-8.35-8.35a2.11,2.11,0,0,0-3,0L107.3,42.57l-53.39,0h0a2.13,2.13,0,0,0-1.5.63L36.6,59a2.13,2.13,0,0,0-.63,1.5V105a6.26,6.26,0,0,0,6.25,6.25H96.77V111L123,125.08a2,2,0,0,0,.92.23,2.23,2.23,0,0,0,.56-.08,1.94,1.94,0,0,0,1.14-.94l6.48-12.08A1.93,1.93,0,0,0,131.32,109.59ZM112.37,99.42l-3.83-2V80.54a2.12,2.12,0,0,0-2.13-2.12H96.62v-10L106.15,66h0a2.11,2.11,0,0,0,1-.55l5.24-5.24ZM100.28,55.6l16.78-16.78,5.35,5.35L105.63,61Zm1.19,7.2-4.06,1,1-4.06ZM122,33.87l5.35,5.34-2,1.95-5.35-5.35ZM52.13,49.44v8.9h-8.9ZM42.22,107a2,2,0,0,1-2-2V62.59h14a2.12,2.12,0,0,0,2.12-2.13V46.79l46.67,0L95.77,54.1a2.08,2.08,0,0,0-.55,1h0l-2.38,9.54-8.39.06a12.34,12.34,0,1,0-1.56,4.26l9.49-.06V80.54a2.12,2.12,0,0,0,2.12,2.13h9.8V95.09L77.89,80.93a1.93,1.93,0,0,0-1.47-.14,1.89,1.89,0,0,0-1.14.93L68.8,93.8a1.92,1.92,0,0,0,.79,2.62L89.24,107Zm37.3-40.74-4.61-4.09,2.7-5.54a8,8,0,0,1,2.76,6.06A8,8,0,0,1,79.52,66.23Zm-8.63-2,5.82,5.16A8.07,8.07,0,1,1,72.3,54.59a7.31,7.31,0,0,1,1.49.15l-3.4,7A2.11,2.11,0,0,0,70.89,64.25Zm52.25,56.51-50-26.83,4.65-8.67,5.44,2.91-1.85,3.45,3.41,1.83L86.62,90l5.46,2.93L90.3,96.25l3.41,1.83,1.78-3.32,5.43,2.92-1.84,3.43,3.41,1.83,1.84-3.43,5.53,3-1.76,3.27,3.41,1.83,1.76-3.27,5.4,2.9-1.78,3.32,3.41,1.83,1.78-3.32,5.71,3.06Z"/></svg>