<svg id="Layer_1" data-name="Layer 1" xmlns="http://www.w3.org/2000/svg" viewBox="0 0 148.91 146.82"><defs><style>.cls-1{fill:#ee7f00;stroke:#ee7f00;stroke-miterlimit:10;stroke-width:0.71px;}</style></defs><title>Iconos_Artboard 12 copy 48</title><path class="cls-1" d="M107.83,79.23c.83-.8,1.67-1.6,2.52-2.38a1.49,1.49,0,0,0,.46-1.09,1.27,1.27,0,0,0-.36-.94,1.39,1.39,0,0,0-2,.08l-.06.06a11.63,11.63,0,0,0-.86.86,1.2,1.2,0,0,1-1,.42h0q-13.22,0-26.45,0H65.91a1.39,1.39,0,0,0-1.57,1.34,1.42,1.42,0,0,0,1.57,1.36h3.15c-.09.18-.16.34-.24.48a51.58,51.58,0,0,0-2.71,5.65l-.09.2.2.11c.65.34,1.3.71,1.93,1.09l.24.14.11-.25c.42-1,.87-1.92,1.31-2.85.26-.55.52-1.09.77-1.64a1.09,1.09,0,0,1,.08-.15A34.09,34.09,0,0,0,83,94.49c-1.14.58-2.35,1.19-3.58,1.73l-.28.12.18.24c.44.58.87,1.2,1.29,1.83l.11.17.19-.08a56.79,56.79,0,0,0,6.52-3.4,107.43,107.43,0,0,0,16.43-12.21C105.23,81.7,106.55,80.44,107.83,79.23ZM104.19,79c-.24.23-.45.43-.67.62l-.41.38c-.5.45-1,.91-1.53,1.34h0a1.94,1.94,0,0,1-.54.26l-.09,0V79ZM77,86.12A30.44,30.44,0,0,1,72.33,79H83l1.27,4.64a1.22,1.22,0,0,1-.24.1,39.3,39.3,0,0,0-6.45,2.46C77.29,86.31,77.19,86.3,77,86.12Zm8.61,6.69a27.51,27.51,0,0,1-6.33-4.44,36.35,36.35,0,0,1,5.86-2.19L88,91.6l-.3.19c-.57.35-1.17.72-1.78,1.07A.58.58,0,0,1,85.64,92.81ZM98.18,81.57A59.88,59.88,0,0,0,86.94,83l-1.13-4H98.18Zm-.33,2.75A55.92,55.92,0,0,1,90.32,90a25.79,25.79,0,0,1-2.39-4.52A52.42,52.42,0,0,1,97.85,84.32Z"/><path class="cls-1" d="M130.8,54.1a1.47,1.47,0,0,0-1,.46,1.35,1.35,0,0,0,1.05,2.23c.33,0,.66,0,1,0h1.87a1.35,1.35,0,0,0,1.39-1.26,1.33,1.33,0,0,0-.34-1,1.42,1.42,0,0,0-1-.45C132.78,54.06,131.79,54.06,130.8,54.1Z"/><path class="cls-1" d="M133.74,76.23a3.53,3.53,0,0,0-.46,0h-20a1.28,1.28,0,0,0-1.44,1.28,1.34,1.34,0,0,0,1.4,1.42l.35,0,0,.1a29.14,29.14,0,0,1-1.14,3.85l-.16,0-.6-.12-.83-.15c-.85-.15-1.71-.31-2.56-.44a1.34,1.34,0,0,0-.54,2.63l.52.1.23,0,3,.54a.1.1,0,0,0,0,0,24.13,24.13,0,0,1-4.38,7.09A11.15,11.15,0,0,1,102,96c-.27.08-.54.13-.85.19l-.2,0V90.27a1.38,1.38,0,0,0-1.35-1.4h0a1.34,1.34,0,0,0-1.33,1.42c0,1.27,0,2.53,0,3.8v2a1.46,1.46,0,0,1-.22,0,9.51,9.51,0,0,1-3.86-1.84,1.63,1.63,0,0,0-1.29-.33,1.24,1.24,0,0,0-.81.63,2.42,2.42,0,0,0-.2.59s0,.08,0,.12a1.4,1.4,0,0,0-.28.06,1.43,1.43,0,0,0-1.05,1.32A1.39,1.39,0,0,0,91.52,98l.6.16a34.36,34.36,0,0,0,7.64.89,29.9,29.9,0,0,0,6.64-.73,32.93,32.93,0,0,0,23.22-18.35c.39-.79.7-1.13,1.56-1a13.72,13.72,0,0,0,2.31,0l.28,0a1.33,1.33,0,0,0,1.31-1.37A1.35,1.35,0,0,0,133.74,76.23ZM120.17,88.38A28.91,28.91,0,0,1,108.43,95a23.07,23.07,0,0,0,3-3.86c.68-1.14,1.3-2.28,2-3.49l.79-1.46A36.48,36.48,0,0,1,120.17,88.38Zm-4.79-5.83c.32-1.16.65-2.31,1-3.46,0-.16.08-.17.31-.16H127.1c-.06.15-.12.28-.18.41A31.18,31.18,0,0,1,122.51,86c-.24.29-.32.35-.59.22a40.63,40.63,0,0,0-6.73-2.58l-.1,0Z"/><path class="cls-1" d="M35,86.92a1.53,1.53,0,0,0-1.15,0,36.2,36.2,0,0,0-22,33.32,1.5,1.5,0,1,0,3,0A33.2,33.2,0,0,1,35,89.69a1.49,1.49,0,0,0,.78-2A1.48,1.48,0,0,0,35,86.92Z"/><path class="cls-1" d="M48,78.43A22.48,22.48,0,1,0,25.55,56,22.51,22.51,0,0,0,48,78.43Zm0-42A19.49,19.49,0,1,1,28.54,56,19.51,19.51,0,0,1,48,36.46Z"/><path class="cls-1" d="M72.57,51.52l.13.68.33-.61a29.87,29.87,0,0,1,4.2-6l7.14,2.68-1.61,5.79H72.92l0,.26c0,.72.08,1.33.08,1.92,0,.06,0,.13,0,.2v.37h50.1l.42,0,0,.07c-.19.28-.35.53-.51.79a1.36,1.36,0,0,0,0,1.53,1.2,1.2,0,0,0,1,.56,1.5,1.5,0,0,0,.45-.07,1.88,1.88,0,0,0,.84-.69c.77-1.13,1.58-2.34,2.34-3.59a49.79,49.79,0,0,0,5.53-11.74,18.23,18.23,0,0,0,.86-6.58,6.19,6.19,0,0,0-5.4-6,14.77,14.77,0,0,0-6.1.42,38.79,38.79,0,0,0-9.32,3.79,1.24,1.24,0,0,1-1.18.08,32.31,32.31,0,0,0-16.18-2.2,32.71,32.71,0,0,0-14.43,5.35,33.13,33.13,0,0,0-9.6,9.75l-.06.1,0,.11A24.39,24.39,0,0,1,72.57,51.52Zm25.58-1.37V54H85.7a23.24,23.24,0,0,1,1.41-5.2A61.59,61.59,0,0,0,98.15,50.15ZM88,40.78c-.66,1.11-1.27,2.23-1.91,3.41-.25.46-.51.94-.78,1.41a34.86,34.86,0,0,1-6-2.15A29.1,29.1,0,0,1,91,37,23.61,23.61,0,0,0,88,40.78Zm.13,5.27c.15-.34.29-.67.44-1a20.21,20.21,0,0,1,5.33-7.2,9.4,9.4,0,0,1,4.22-2V47.44a54.54,54.54,0,0,1-10.09-1.17Zm27.49-9,0,0a33.14,33.14,0,0,1,8.78-3.32,9.2,9.2,0,0,1,3.55-.11,4.07,4.07,0,0,1,3.49,3.89,15.48,15.48,0,0,1-1,6.27,40.53,40.53,0,0,1-2.33,5.34A33.58,33.58,0,0,0,115.65,37.08Zm10.09,16.31-.25.42a.47.47,0,0,1-.5.28h-5.83l-2.48,0L115,48.19l7.06-2.69a30,30,0,0,1,3.76,5.13c.77,1.3.77,1.3,0,2.59ZM113.86,54H101V50.17a62.41,62.41,0,0,0,11.44-1.41Zm-2.27-7.7ZM101,47.39V35.74l.4.1a12.45,12.45,0,0,1,1.38.42,12,12,0,0,1,4.8,3.64A24.58,24.58,0,0,1,111.27,46a.88.88,0,0,1,0,.15A46.5,46.5,0,0,1,101,47.39ZM114,45.52l-.74-1.35c-.62-1.13-1.27-2.31-1.94-3.44A23.34,23.34,0,0,0,108.42,37a29,29,0,0,1,11.5,6.38A27.43,27.43,0,0,1,114,45.52Zm12,7.83Z"/><path class="cls-1" d="M61.76,86.73a1.49,1.49,0,0,0-1.95.82,1.49,1.49,0,0,0,.82,1.94,33.14,33.14,0,0,1,20.64,30.77,1.5,1.5,0,1,0,3,0A36.1,36.1,0,0,0,61.76,86.73Z"/><path class="cls-1" d="M83.14,66.71l-1.33-1.83L79,61.09c-.2-.28-.42-.55-.7-.57-.53,0-1.06,0-1.57,0H76v12h3.22V66.11l.14.18L80.59,68q1.41,2,2.82,3.87c.18.24.45.57.77.6a9.1,9.1,0,0,0,.91,0h1.37v-12H83.3v6.38Z"/><path class="cls-1" d="M58.56,104.69c0-1.13,0-2.25,0-3.38,0-3.71,0-4.09-3.37-4.54.1-.82.21-1.63.32-2.42a39.27,39.27,0,0,0,.55-5.91,8,8,0,0,0-2.48-5.7,8.22,8.22,0,0,0-5.92-2.26,8.38,8.38,0,0,0-5.94,2.67,8.24,8.24,0,0,0-2.13,6,51.23,51.23,0,0,0,.67,5.41c.12.73.24,1.47.34,2.2l-.4,0c-2.86,0-3,.22-3,3v4c0,3,0,6.16,0,9.24a2.57,2.57,0,0,0,.59,2,2.52,2.52,0,0,0,2,.53c1.55-.07,3.09,0,4.72,0l1.91,0c0,1.13,0,2.25,0,3.36v4.48h3.1v-1.32c0-.9,0-1.8,0-2.7v-3.82l2,0c1.61,0,3.13,0,4.64,0a2.11,2.11,0,0,0,2.54-2.5C58.54,110.28,58.55,107.44,58.56,104.69Zm-9-20.77a6.57,6.57,0,0,1,2.29,1.59c1.8,2,1.59,8.3-.34,10.2-1.52,1.49-3.49,1.2-5.39.93l-.33,0c-1.33-.19-2.18-1.12-2.61-2.86-.2-.85-.32-1.74-.44-2.61-.05-.38-.1-.77-.16-1.15a5.61,5.61,0,0,1,2.18-5.36,5.26,5.26,0,0,1,3.1-1A4.27,4.27,0,0,1,49.56,83.92ZM55.31,100v12.35H40.42V100Z"/><polygon class="cls-1" points="96.21 63.3 96.21 60.55 87.92 60.55 87.92 72.49 96.21 72.49 96.21 69.74 91.33 69.74 91.33 67.77 95.93 67.77 95.93 65.16 91.32 65.16 91.32 63.3 96.21 63.3"/><path class="cls-1" d="M119.41,69.94a2.37,2.37,0,0,1-3-1l-.07-.12h-3V69a3.31,3.31,0,0,0,2.21,3.23,7.42,7.42,0,0,0,3.72.44,5.34,5.34,0,0,0,2.88-1.1,3.62,3.62,0,0,0,1.27-3.43,3.09,3.09,0,0,0-2.31-2.64c-.3-.1-.6-.17-.9-.24h-.06l-.88-.2c-.57-.12-1.16-.25-1.73-.41a.77.77,0,0,1-.65-.79.93.93,0,0,1,.74-.83,2,2,0,0,1,2.57,1l.07.12h2.94V64a3.36,3.36,0,0,0-2-3.1,6.7,6.7,0,0,0-4.32-.41,4.68,4.68,0,0,0-2.12,1,3.68,3.68,0,0,0-1.18,3.37,3.22,3.22,0,0,0,2.16,2.55,12.39,12.39,0,0,0,1.32.38l.29.07.79.17c.41.09.83.18,1.24.3.62.18.74.45.73.8A.9.9,0,0,1,119.41,69.94Z"/><path class="cls-1" d="M106.39,60.53h-2.7l-1.8,7.21-1.45-7.19H97l3.13,11.94h3.12l0-.17c.33-1.12.63-2.25.92-3.34s.57-2.14.88-3.21l1.84,6.78h.83c.49,0,.94,0,1.4,0h.11c.55,0,.85-.26,1-.86.43-1.76.9-3.51,1.36-5.26l1.55-5.92h-3.49l-1.45,7.22Z"/></svg>