<svg id="Layer_1" data-name="Layer 1" xmlns="http://www.w3.org/2000/svg" viewBox="0 0 148.91 146.82"><defs><style>.cls-1{fill:#ee7f00;}</style></defs><title>Iconos_Artboard 12 copy 46</title><path class="cls-1" d="M87,122.7a1.68,1.68,0,0,1-1.68,1.68H67.42a1.69,1.69,0,0,1,0-3.37h7.33v-9.3a1.69,1.69,0,0,1,3.37,0V121h7.17A1.69,1.69,0,0,1,87,122.7ZM43.25,48.27a1.32,1.32,0,0,0,1.11-.17,1.94,1.94,0,0,0,.69-1.43c.05-.47.09-1.82.13-3.12,0-.68,0-1.33.06-1.79,5.93-.42,62.19-.34,66.79.1.48,3.74.46,37.09,0,41.13-2,.05-24.7.14-25.17.16-1.78.09-2.07,1.07-2.09,1.65a1.44,1.44,0,0,0,.39,1.12,2.19,2.19,0,0,0,1.65.56h23.57c2.94,0,4.58-1.09,5.15-3.44a9.91,9.91,0,0,0,.21-2.43s.05-35,0-37.66c-.08-2.89-1.7-4.47-4.69-4.56-.27,0-60,0-64.59,0a4.26,4.26,0,0,0-4.51,3.58,20.15,20.15,0,0,0,0,4.79A2.1,2.1,0,0,0,43.25,48.27Zm-.07,20.32A10.61,10.61,0,0,1,39.87,61a11.22,11.22,0,0,1,11-11.08h0a11.18,11.18,0,0,1,7.86,3.58,10,10,0,0,1,2.94,7.36A10.2,10.2,0,0,1,59,68.1a11.2,11.2,0,0,1-8.05,3.71h-.29A10.76,10.76,0,0,1,43.18,68.59Zm0-7.84a7.29,7.29,0,0,0,7.53,7.7h.07c4.5,0,7.68-3,7.74-7.45a7.85,7.85,0,0,0-2.2-5.69,7.61,7.61,0,0,0-5.5-2.23A7.43,7.43,0,0,0,43.21,60.75Zm86.85-15.69V92.81a15.06,15.06,0,0,1-15,15H38.09a15.06,15.06,0,0,1-15-15V45.06a15.06,15.06,0,0,1,15-15H115A15.06,15.06,0,0,1,130.06,45.06Zm-3.36,0A11.69,11.69,0,0,0,115,33.38H38.09A11.69,11.69,0,0,0,26.41,45.06V92.81a11.69,11.69,0,0,0,11.68,11.68H115A11.69,11.69,0,0,0,126.7,92.81Zm-6.13,50.12a1.68,1.68,0,0,1-1.68,1.68H33.51a1.68,1.68,0,1,1,0-3.36h3.68c0-.31,0-.59,0-.85,0-2.19,0-2.37.08-6.54a13.88,13.88,0,0,1,5.46-10.65,14.17,14.17,0,0,1,11.93-2.65c3.21.75,6.38,1.83,9.45,2.87,1.23.42,6.58,2.34,6.9,2.47.44-.65,3.54-5.11,4.54-6.74,1.15-1.88,2.74-3.7,5.8-3.07l5.85-9a5.57,5.57,0,0,1,1.14-1.49,2.28,2.28,0,0,1,2-.24.7.7,0,0,1,.37.37,2.29,2.29,0,0,1,.11,1.51,8,8,0,0,1-1,1.77L84,70.15c1.77,2.44.68,4.61-.63,6.42-1.42,2-5.74,8.28-6.54,9.43-1.9,2.73-3.22,3.16-6.44,2.13l-4.55-1.45c-.08,2.48-.08,4.94-.07,6.82h53.08A1.68,1.68,0,0,1,120.57,95.18Zm-80-3c0,.36,0,.78,0,1.33H62.68V92.16c0-2.11,0-2.65,0-6.81a2.7,2.7,0,0,1,.68-2.18,2.58,2.58,0,0,1,2.21,0c1.15.35,2.3.74,3.41,1.12l2.28.77a4.23,4.23,0,0,0,1.82.4c.29-.09.58-.49,1.15-1.3,2.6-3.75,4.72-6.82,6.66-9.67.63-.93.84-1.45.74-1.78s-.9-.85-2-1.32c-.13.19-.27.37-.4.54-.4.54-.78,1.06-1.14,1.58-.6.87-1.19,1.75-1.78,2.63-.86,1.26-1.74,2.57-2.63,3.84-1.38,2-1.63,2.06-3.84,1.23l-1.88-.71c-2.75-1-5.59-2.09-8.4-3.08S54,75.46,51.07,75.67c-6.48.47-10.73,5-10.57,11.15C40.58,90.32,40.58,90.75,40.56,92.17Z"/></svg>