<svg id="Layer_1" data-name="Layer 1" xmlns="http://www.w3.org/2000/svg" viewBox="0 0 148.91 146.82"><defs><style>.cls-1{fill:#ee7f00;}</style></defs><title>Iconos_Artboard 12 copy 49</title><path class="cls-1" d="M77,30.28h48c7.2,0,11.54,4.32,11.54,11.52q0,31.77,0,63.53c0,5.51-3,9.62-8,10.87a12.7,12.7,0,0,1-3.08.33q-48.2,0-96.38,0c-7.32,0-11.62-4.27-11.62-11.6q0-31.53,0-63.06c0-7.32,4.29-11.59,11.61-11.6Zm33.84,82.41V34.17H43.13v78.52ZM39.19,71.48V54.77H21.29V71.48Zm75.54,0h18V54.8h-18ZM21.24,92.05h18V75.4H21.24Zm93.51-16.7V92.07h17.93V75.35ZM39.21,34.21c-4.31,0-8.56-.27-12.76.09a5.38,5.38,0,0,0-4.94,4.92c-.36,3.83-.1,7.71-.1,11.58H39.29V35A6.77,6.77,0,0,0,39.21,34.21Zm93.53,16.64c0-3.66.13-7.13,0-10.59A6.67,6.67,0,0,0,126.1,34c-1.66,0-3.32,0-5,0h-6.34V50.85ZM39.2,112.65V96H21.26c0,3.68-.15,7.26,0,10.82.16,2.87,2.53,5.57,5.29,5.75C30.75,112.85,34.94,112.65,39.2,112.65Zm75.55,0a2.21,2.21,0,0,0,.51.15c3.53,0,7,.06,10.58,0a6.79,6.79,0,0,0,6.93-6.88c.06-2.59,0-5.19,0-7.78V96h-18Z"/><path class="cls-1" d="M77.05,96.36a22.95,22.95,0,1,1,22.9-23A23.16,23.16,0,0,1,77.05,96.36ZM77,54.2A19.22,19.22,0,0,0,77,92.63,19.22,19.22,0,1,0,77,54.2Z"/><path class="cls-1" d="M88.86,73.11a4.75,4.75,0,0,1-2.35,4.47c-3.6,2.25-7.19,4.51-10.83,6.69a4.61,4.61,0,0,1-7.2-4c-.08-4.6-.09-9.2,0-13.8a4.63,4.63,0,0,1,7.31-3.93c3.62,2.22,7.21,4.49,10.79,6.77C88,70.27,89,71.47,88.86,73.11Zm-16.66.1c0,2.21,0,4.43,0,6.65,0,1.45.61,1.77,1.85,1,3.46-2.17,6.89-4.38,10.35-6.56,1-.64,1-1.24,0-1.85-3.33-2.09-6.66-4.2-10-6.25a7.71,7.71,0,0,0-1.68-.56,7.83,7.83,0,0,0-.51,1.83C72.16,69.38,72.2,71.3,72.2,73.21Z"/></svg>