<?xml version="1.0" encoding="utf-8"?>
<!-- Generator: Adobe Illustrator 23.0.2, SVG Export Plug-In . SVG Version: 6.00 Build 0)  -->
<svg version="1.1" xmlns="http://www.w3.org/2000/svg" xmlns:xlink="http://www.w3.org/1999/xlink" x="0px" y="0px"
	 viewBox="0 0 300 300" style="enable-background:new 0 0 300 300;" xml:space="preserve">
<style type="text/css">
	.st0{fill:none;stroke:#EE7F00;stroke-width:8;stroke-linejoin:round;stroke-miterlimit:10;}
	.st1{fill:none;stroke:#EE7F00;stroke-width:8;stroke-linecap:round;stroke-linejoin:round;stroke-miterlimit:10;}
</style>
<g id="Layer_1">
</g>
<g id="Layer_2">
	<circle class="st0" cx="58.1" cy="242.8" r="8"/>
	<circle class="st0" cx="58.1" cy="242.8" r="22.7"/>
	<circle class="st0" cx="242.9" cy="242.8" r="8"/>
	<circle class="st0" cx="242.9" cy="242.8" r="22.7"/>
	<line class="st0" x1="80.7" y1="244.9" x2="220.2" y2="244.9"/>
	<path class="st0" d="M35.4,244.4l-18.2-9.1c-2.2-1.1-3.6-3.4-3.6-5.8v-37.9c0-7.5,5-14.1,12.3-16.1l10.1-2.8
		c6-1.6,11.5-4.4,16.5-8.2l14.2-10.8c8.7-6.7,19.3-10.3,30.3-10.3h55.5c7.8,0,15.4,2.3,22,6.5l36.1,23.5c5,3.2,10.5,5.5,16.2,6.8
		l37.7,8.2c13.2,2.9,22.6,14.6,22.6,28.1v17c0,6.3-5.1,11.4-11.4,11.4h-10"/>
	<line class="st1" x1="114.2" y1="208.3" x2="127.9" y2="208.3"/>
	<path class="st1" d="M96.3,194.2h108.5c3.6,0,5-4.7,2-6.6l-36.3-23.8c-6.8-4.5-14.8-6.9-23-6.9h-45.2c-11.3,0-22.3,3.8-31.3,10.7
		l-22.2,17.2c-4,3.1-1.8,9.4,3.2,9.4h16.2"/>
	<line class="st1" x1="114.2" y1="156.9" x2="114.2" y2="194.2"/>
	<path class="st1" d="M109,106.5c7.2-6.2,17.9-6.2,25.2-0.2"/>
	<path class="st1" d="M92.6,90.1c0.5-0.4,0.9-0.8,1.4-1.2c15.8-13.5,39-13.6,55-0.5c0.7,0.5,1.3,1.1,1.9,1.7"/>
	<path class="st1" d="M76.6,72.8c0.7-0.6,1.4-1.2,2-1.8c24.4-20.9,60.4-21.1,85.2-0.8c1,0.8,2,1.7,3,2.6"/>
	<path class="st1" d="M196.3,68.8V38.4c0-1.6,1.4-3,3-3H284c1.6,0,3,1.4,3,3v84.2c0,1.7-1.4,3-3,3h-84.7c-1.6,0-3-1.3-3-3V96.9"/>
	<line class="st1" x1="236.4" y1="126.1" x2="236.4" y2="182.2"/>
	<line class="st1" x1="250.3" y1="125.6" x2="250.3" y2="182.1"/>
	<path class="st1" d="M231.5,98.5V57.4h12.8c16.2,0,16.9,23.8,0,23.8h-12.8"/>
</g>
</svg>
