<svg id="Capa_1" data-name="Capa 1" xmlns="http://www.w3.org/2000/svg" viewBox="0 0 300 300"><defs><style>.cls-1{fill:#ee7f00;}</style></defs><path class="cls-1" d="M235.47,91.45q0,60.3,0,120.59a16.08,16.08,0,0,1-.38,5.07,5.26,5.26,0,0,1-5,3.91q-13.93.15-27.86.2c-2.75,0-2.09-2.11-2.18-3.71-.11-2,.81-2.91,2.89-2.89,7.39.06,14.78,0,22.18,0,3.71,0,3.9-.19,3.9-3.82q0-57.16,0-114.33c0-3.83-.24-4.09-4-4.09q-74.94,0-149.88,0c-3.84,0-3.94.1-3.94,4q0,57.32-.05,114.62c0,2.72.82,3.65,3.55,3.62,10.9-.11,21.81,0,32.71,0,3.1,0,3.31.45,3.48,4,.13,2.7-1.46,2.58-3.28,2.57-11.47,0-22.94,0-34.41,0-2.52,0-5.29.29-6.9-2.33a10.19,10.19,0,0,1-1.61-4,75.38,75.38,0,0,1-.1-7.67q0-66.84,0-133.67c0-7,2.3-9.29,9.34-9.29H226.35c6.83,0,9.13,2.32,9.13,9.19C235.48,75,235.47,87.29,235.47,91.45ZM150.24,70.74H123.52c-16.3,0-32.6.06-48.9,0-2.64,0-3.58.88-3.47,3.42s0,5.12,0,7.68c0,4.18.07,4.26,4.3,4.26H194.59c10.33,0,20.66-.07,31,0,2.46,0,3.47-.9,3.41-3.31-.07-2.74,0-5.49,0-8.24,0-3.54-.3-3.78-4-3.78Z"/><path class="cls-1" d="M129,172.48a17.25,17.25,0,0,0,.22-2.14c-.05-11.09-.14-22.18-.16-33.27,0-3.44.43-6.57,3.44-9.16a9.83,9.83,0,0,1,10.3-2,10,10,0,0,1,7,9.45c.12,4.17.08,8.34,0,12.51,0,2.17.64,3,3,2.81,4.61-.44,8.09,1.74,10.35,5.62a2.75,2.75,0,0,0,3.13,1.63c5-.53,8.83,1.14,11.28,5.8.41.77,2,1.29,3.09,1.27,8-.17,12,3.51,12,11.57,0,12.23,0,24.46,0,36.69,0,4.48-.87,8.49-4.33,11.83a9.22,9.22,0,0,0-2.8,8c.33,2.49-1.22,2.71-3.17,2.72s-3.25-.32-3.21-2.76c.08-4.66.87-8.85,4.37-12.46a10.53,10.53,0,0,0,2.66-6.57c.25-12.51.14-25,.12-37.53,0-2.88-1.66-5-3.79-5.11s-4,2.1-4,5.15c0,3.31-.08,6.63,0,9.95,0,2.39-1.13,3.07-3.36,3.07s-3-1-3-3.1q0-8.1,0-16.21c0-3.76-1.61-6.08-4.1-6s-4.06,2.4-4.09,6.1c0,4.07-.1,8.15,0,12.22.05,2.08-.37,3.26-2.79,3.11-2.21-.13-3.86-.34-3.8-3.26q.19-10.08,0-20.19a7.15,7.15,0,0,0-1.51-4.31,3.68,3.68,0,0,0-3.58-.26,5.13,5.13,0,0,0-2.2,3.52c-.24,5.87-.24,11.76-.09,17.63.07,2.52-.77,3.3-3.24,3.31s-3.47-.68-3.44-3.4c.13-13.84.07-27.68.05-41.52,0-3.61-1.44-5.48-4.16-5a5,5,0,0,0-2.94,2.36,7.75,7.75,0,0,0-.44,3.61c0,14.78,0,29.57-.05,44.36,0,1.21.15,2.77-.51,3.54-1.08,1.26-2.87,2.88-4.16,2.72a6.94,6.94,0,0,1-4.55-3.18c-2.74-5-4.91-10.29-7.51-15.37a9.56,9.56,0,0,0-3.33-3.39,4.12,4.12,0,0,0-3.17-.12c-.39.13-.53,1.69-.38,2.53a50.07,50.07,0,0,0,1.42,5.77c2.91,9.67,6.5,19.19,8.57,29,1.44,6.85,5.94,11.19,9.6,16.38a23.72,23.72,0,0,1,4,13c.08,1.93-1.22,2.43-2.82,2.3-1.44-.11-3.73.77-3.66-1.82.19-6.6-3.94-10.87-7.57-15.62a36.17,36.17,0,0,1-5.34-10.39c-2.51-7.41-4.54-15-6.66-22.52-1.6-5.72-3.14-11.47-4.5-17.25-1-4.36,2-8.05,6.46-8.52,6.84-.74,12,3.91,14.49,10.31a14.92,14.92,0,0,0,2.1,3Z"/><path class="cls-1" d="M167.87,148.82a4.28,4.28,0,0,1-.55-.06c-3.72-1.24-4.42-3.6-3.54-7.36,1.67-7.09.75-13.9-3.63-20a24.43,24.43,0,0,0-14.49-10.07A25.2,25.2,0,0,0,128,113.1a25.62,25.62,0,0,0-13.83,26.71,10.2,10.2,0,0,0,.6,2.18c1.59,4.08,1.38,4.8-2.7,6.33a3.06,3.06,0,0,1-2.69-1.31c-4.67-14.72-.65-29.06,12.42-37.95,6.55-4.46,14-5.72,22-4.75,9.93,1.21,17.27,6.4,22.61,14.36A29.25,29.25,0,0,1,170.84,139C170.43,142.39,170.75,146.08,167.87,148.82Z"/><path class="cls-1" d="M160.37,136a21.62,21.62,0,0,1-.49,5.06c-.36,1.09-1.66,1.87-2.54,2.79-1.14-1.38-4.27-.51-4-3.55.16-1.78.14-3.59.33-5.37.68-6.34-6.86-13.23-12.71-13.56-9.06-.5-15.08,4.93-16.21,13.37-.22,1.59.42,3.31.77,5,.28,1.31.43,2.16-1.29,2.79-4.53,1.65-4.58,1.8-5.61-2.94a20.64,20.64,0,0,1,9.43-21.6c6.72-4.09,13.65-4.4,20.49-1.09C156.36,120.62,160.57,127,160.37,136Z"/><path class="cls-1" d="M224.93,78.47c.56,2.53-.67,3.21-3.1,3.17s-3.54-.43-3.57-3.27c0-3.19,1.65-3.14,3.92-3.29C224.87,74.91,225.21,76.31,224.93,78.47Z"/><path class="cls-1" d="M210.53,81.58c-2.19.54-2.87-.67-2.65-2.83.16-1.65-.66-3.77,2.44-3.67,3.69.13,4.16.35,4.19,3.27C214.54,81.44,214.41,81.54,210.53,81.58Z"/><path class="cls-1" d="M203.56,78.48c.48,2.91-1.38,3-3.59,3.18-2.41.14-2.84-1-2.86-3,0-2.36.43-3.68,3.28-3.59C202.91,75.11,203.81,76.06,203.56,78.48Z"/></svg>