<svg id="Capa_1" data-name="Capa 1" xmlns="http://www.w3.org/2000/svg" viewBox="0 0 300 300"><defs><style>.cls-1{fill:#ee7f00;}</style></defs><g id="KNfSg2"><path class="cls-1" d="M148.68,74.69c16.87.16,30.62,4.83,42.71,14.32,2.8,2.2,2.89,4,.35,6.55q-20.36,20.35-40.71,40.7-23.24,23.2-46.51,46.4c-2.38,2.37-4,2.26-6.06-.38A65.89,65.89,0,0,1,84.9,151.77a63.79,63.79,0,0,1,.43-23.69A65.53,65.53,0,0,1,112.7,86.42a63.72,63.72,0,0,1,28.11-11C143.92,75,147.06,74.84,148.68,74.69Zm-58.53,63c1.16.07,1.7.13,2.24.13,7.19,0,14.38-.05,21.57,0,1.65,0,2-.57,2.18-2.08.78-6,1.62-11.91,2.71-17.82.61-3.3.84-3.25-2.34-3.82-.33-.06-.66-.18-1-.25-5.07-1.14-10.14-2.25-15.19-3.43-1.09-.25-1.75-.18-2.23,1-1.9,4.73-4.23,9.31-5.77,14.15C91.13,129.36,90.88,133.44,90.15,137.65Zm13,6.33c-3.7,0-7.4,0-11.09,0-1.24,0-1.7.38-1.6,1.69A60,60,0,0,0,100.85,175c.67,1,1.24,1.31,2.23.3,4.6-4.69,9.26-9.32,13.84-14a2.91,2.91,0,0,0,.79-2.05c-.47-4.48-1.13-8.95-1.6-13.43-.14-1.39-.64-1.89-2-1.87C110.45,144,106.82,144,103.19,144Zm18.77-6.2c4.12,0,7.71-.37,11.2.09,5.47.72,9.61-1,12.8-5.41.08-.11.22-.18.26-.3a8.07,8.07,0,0,0,1-2.54c.1-3.62,0-7.25.06-10.87,0-1.28-.36-1.82-1.73-1.9q-9-.54-18-1.3c-1.45-.12-1.93.46-2.19,1.74-.48,2.4-1.21,4.76-1.59,7.18C123.07,128.77,122.58,133.1,122,137.78Zm5.8-28.9.46.83c6,.31,12,.66,17.95.86.33,0,1-1.13,1-1.74.06-8.63,0-17.25,0-25.88a6.92,6.92,0,0,0-.54-1.85c-.62.31-1.44.45-1.83.94-3.1,3.94-6.43,7.76-9.09,12C132.76,98.78,130.4,103.92,127.76,108.88Zm-24.93-4.61a7.34,7.34,0,0,0,1.32.65c4.93,1.07,9.89,2,14.8,3.21,2.26.55,3-.49,3.84-2.32,2.6-5.45,5.38-10.81,8.26-16.12,1.23-2.26,2.88-4.3,4.67-6.92A60.37,60.37,0,0,0,102.83,104.27Zm50.82,6.58c4.86-.31,9.56-.47,14.22-1,2.21-.23,3.78-3.18,2.95-5A90.25,90.25,0,0,0,156,82.11a12.68,12.68,0,0,0-2.31-1.5Zm11.7-27.93c3.79,6.3,7.48,12.44,11.17,18.56l9-9A56.9,56.9,0,0,0,165.35,82.92ZM133.93,144c-3.81,0-7.31,0-10.81.07-.3,0-.84,1-.82,1.5.14,2.58.41,5.16.68,7.74a4.24,4.24,0,0,0,.45,1.15Zm27.24-27.11c-2.31,0-4.38,0-6.46,0-.37,0-1,.44-1,.69-.09,2.16,0,4.33,0,6.26Z"/><path class="cls-1" d="M156.22,206.86c-4.34,0-8.32.25-12.25-.05a63.08,63.08,0,0,1-35.12-14.15c-2.48-2-2.57-3.56-.36-5.77q43.68-43.72,87.38-87.43c2.46-2.46,4.23-2.31,6.41.43a61,61,0,0,1,12.88,27.51c4.83,27.38-3.82,49.77-25.67,67.13-3.64,2.89-6.59,6.68-9.78,10.13C173.84,211,168,217.38,162.2,223.74c-1.08,1.17-2.39,2-4,1.33s-2.05-2-2-3.68C156.27,216.69,156.22,212,156.22,206.86Zm42.69-101.65c-1,1-1.51,1.59-2.07,2.15q-21.22,21.3-42.45,42.58Q135.3,169,116.13,188.06c-1,1-1.15,1.67.1,2.34,4,2.18,7.89,4.63,12.08,6.39a57,57,0,0,0,28,3.86c5.34-.52,6.37-.15,6.14,5.78-.09,2.34,0,4.68,0,7.56.86-.83,1.27-1.17,1.63-1.56,3.93-4.23,7.82-8.51,11.79-12.7,3.37-3.56,6.48-7.48,10.3-10.47,13.36-10.48,21.48-23.87,23.83-40.7a57.75,57.75,0,0,0-4.67-31.66C203.56,113,201.18,109.33,198.91,105.21Z"/><path class="cls-1" d="M80.2,185.53c.32-.85.5-1.27.64-1.71a3.06,3.06,0,0,1,3.59-2.24,3.29,3.29,0,0,1,2.5,3.51c-.33,2.92-.71,5.84-1.12,8.75A3.35,3.35,0,0,1,82,196.73c-3-.39-6-.82-8.93-1.33-2.74-.48-3.91-1.8-3.58-3.81s1.62-2.67,4.44-2.4a5.39,5.39,0,0,0,1-.09c-1.48-2.48-2.9-4.75-4.22-7.09a84.41,84.41,0,0,1-4.29-73.33A81.22,81.22,0,0,1,84.52,81.56c1.58-1.57,3.65-1.73,4.9-.43s1,3.25-.44,4.76A77.52,77.52,0,0,0,70.29,116a76.47,76.47,0,0,0-3.15,37A80.26,80.26,0,0,0,80.2,185.53Z"/><path class="cls-1" d="M219.48,95.75c-.47.82-.65,1.65-1.14,1.91-1,.55-2.29,1.28-3.22,1a3.53,3.53,0,0,1-2.13-2.5,88.72,88.72,0,0,1-.08-9.65c.07-2.08,1.62-2.74,3.4-2.81,2.6-.09,5.2-.06,7.8,0s3.65,1,3.79,2.85c.16,2.09-.8,3.06-3.39,3.43-.33.05-.65.12-1.18.22a40.92,40.92,0,0,0,2.06,3.54,78.1,78.1,0,0,1,12.76,29.59,82.38,82.38,0,0,1,.89,30.39,84.26,84.26,0,0,1-22.2,45.36,13.86,13.86,0,0,1-1,1,3.28,3.28,0,0,1-4.62.16,3.22,3.22,0,0,1,.26-4.58,79.26,79.26,0,0,0,14.25-20,76.81,76.81,0,0,0,7.19-46.83,84.73,84.73,0,0,0-8.93-26C222.71,100.44,221.05,98.2,219.48,95.75Z"/><path class="cls-1" d="M162.31,171.06a6,6,0,0,1,6-6.17,6.48,6.48,0,0,1,6.22,6.13,6.3,6.3,0,0,1-6.2,6.12A5.9,5.9,0,0,1,162.31,171.06Z"/><path class="cls-1" d="M156.31,171.05a5.87,5.87,0,0,1-6,6.1,6.22,6.22,0,0,1-6.13-6.13,6.39,6.39,0,0,1,6.15-6.17A6.06,6.06,0,0,1,156.31,171.05Z"/><path class="cls-1" d="M186.33,177.15a6,6,0,0,1-6-6.15,6.09,6.09,0,1,1,12.17.1A6,6,0,0,1,186.33,177.15Z"/></g></svg>