<svg id="Layer_1" data-name="Layer 1" xmlns="http://www.w3.org/2000/svg" viewBox="0 0 300 300"><defs><style>.cls-1{fill:#ee7f00;}</style></defs><title>tmfe Artboard 1 copy 4Icons</title><path class="cls-1" d="M104.23,45.82h9c-5.92,21-11.71,41.6-17.63,62.65H203.87c-5.94-21.13-11.73-41.7-17.64-62.71h9.06l17.94,62.89H285.8c.22,3.19.4,5.73.63,9.19H267.62v22.61H241.15v-22H58.68v21.87H31.87V118.28H13.57v-9.09H85.64C92.7,88.23,97.61,66.88,104.23,45.82ZM49.69,118.64H40.87v12.42h8.82Zm200.15-.39V131.2h8.57V118.25ZM45.08,253.9h9.18c7.87-27.75,15.63-55.11,23.4-82.47,3.74-13.17,7.52-26.33,11.21-39.51a16.69,16.69,0,0,0,0-4H80.82C68.91,169.9,57.06,211.66,45.08,253.9Zm209.23.07c-12-42.49-23.71-84.49-36-126.6l-8.71.88C221.52,170.44,233.26,212,245.15,254ZM153.45,214.24h-7.6v57.7h7.6Zm-7.52-37.82h7.16l-.44-40h-6.72ZM146,73.7V99.38l7.62-.48v-25A7.38,7.38,0,0,0,146,73.7Zm-.14-29.14h7.67V27.81h-7.67ZM40.44,264.07a4.33,4.33,0,1,0,4.33,4.33A4.33,4.33,0,0,0,40.44,264.07Zm18.5,0a4.33,4.33,0,1,0,4.33,4.33A4.33,4.33,0,0,0,58.94,264.07Zm17.72,0A4.33,4.33,0,1,0,81,268.4,4.33,4.33,0,0,0,76.66,264.07Zm18.5,0a4.33,4.33,0,1,0,4.33,4.33A4.32,4.32,0,0,0,95.16,264.07Zm18.15,0a4.33,4.33,0,1,0,4.33,4.33A4.32,4.32,0,0,0,113.31,264.07Zm18.49,0a4.33,4.33,0,1,0,4.33,4.33A4.33,4.33,0,0,0,131.8,264.07Zm36.09,0a4.33,4.33,0,1,0,4.33,4.33A4.33,4.33,0,0,0,167.89,264.07Zm18.5,0a4.33,4.33,0,1,0,4.33,4.33A4.32,4.32,0,0,0,186.39,264.07Zm17.72,0a4.33,4.33,0,1,0,4.33,4.33A4.32,4.32,0,0,0,204.11,264.07Zm18.49,0a4.33,4.33,0,1,0,4.33,4.33A4.33,4.33,0,0,0,222.6,264.07Zm18.15,0a4.33,4.33,0,1,0,4.33,4.33A4.33,4.33,0,0,0,240.75,264.07Zm18.5,0a4.33,4.33,0,1,0,4.33,4.33A4.33,4.33,0,0,0,259.25,264.07ZM113.08,27.27a4.33,4.33,0,1,0,4.33,4.33A4.33,4.33,0,0,0,113.08,27.27Zm18.5,0a4.33,4.33,0,1,0,4.33,4.33A4.33,4.33,0,0,0,131.58,27.27Zm36.21,0a4.33,4.33,0,1,0,4.33,4.33A4.33,4.33,0,0,0,167.79,27.27Zm18.15,0a4.33,4.33,0,1,0,4.33,4.33A4.33,4.33,0,0,0,185.94,27.27Z"/></svg>