<svg id="Layer_1" data-name="Layer 1" xmlns="http://www.w3.org/2000/svg" viewBox="0 0 300 300"><defs><style>.cls-1{fill:#ee7f00;}</style></defs><title>tmfe Artboard 1 copy 23Icons</title><path class="cls-1" d="M130.57,240.34c3.6.74,7.06,1.51,10.54,2.16s6.64,3.6,6.17,7.77c-.1.91.18,1.28,1.14,1.25,1.72-.06,3.45,0,5.16-.05a2.48,2.48,0,0,0,1.5-.73c.67-.68,1.16-1.55,1.82-2.25a1.51,1.51,0,0,0,.33-1.74,7.79,7.79,0,0,1,1.32-7.69c1.22-1.69,2.49-3.35,3.77-5a8.54,8.54,0,0,1,7.75-3.39,1.53,1.53,0,0,0,1.51-.67c2-2.52,4-5,6-7.54,1.22-1.55,2.81-2,4.2-1.16a3,3,0,0,1,.8,4.54c-1.35,1.74-2.74,3.45-4.1,5.17-.21.25-.38.53-.68,1,1.42.22,2.7.45,4,.61a1.3,1.3,0,0,0,.91-.3,4,4,0,0,1,3-1c4.94,0,9.88,0,14.81,0,1,0,1.42-.29,1.6-1.34a165.47,165.47,0,0,1,5.63-22.65A174.9,174.9,0,0,1,217.34,184a3.5,3.5,0,0,1,3.23-2.18,46.18,46.18,0,0,0,21.89-6.37c2.32-1.35,4.21-1,5.09,1,.7,1.56,1.4,3.13,2,4.75,1.55,4.43,3.18,8.84,4.48,13.34,1.22,4.22,2.16,8.53,3.05,12.83.74,3.65,1.33,7.34,1.82,11a80.15,80.15,0,0,1,.82,9.15q.18,9.35,0,18.72c-.05,2.83-.42,5.66-.71,8.48a3.25,3.25,0,0,1-3.18,2.92c-.44,0-.89,0-1.34,0H46.22l-7.51,0a3.12,3.12,0,0,1-3.29-2.87c-.38-6.37-.92-12.74-1-19.12,0-4.88.52-9.77.91-14.64.23-2.83.54-5.66,1-8.45.66-3.78,1.46-7.53,2.3-11.28.66-2.94,1.37-5.87,2.23-8.76s1.8-5.52,2.81-8.24,2.05-5.2,3.12-7.78A2.93,2.93,0,0,1,51.16,175c3.23,1.52,6.42,3.17,9.76,4.39a56,56,0,0,0,8.35,2,44.61,44.61,0,0,0,4.9.45,3.13,3.13,0,0,1,2.8,1.94c2.35,5.27,4.82,10.49,7,15.85,1.67,4.17,3.1,8.46,4.36,12.79,1.22,4.17,2.1,8.45,3.08,12.69.41,1.78.75,3.58,1.06,5.37.15.87.75.8,1.35.8,5,0,10,0,14.93,0a4.24,4.24,0,0,1,3.34,1.24,1,1,0,0,0,.83.19c3.72-.76,7.42-1.65,11.16-2.32a7.91,7.91,0,0,1,6.41,1.27,4.66,4.66,0,0,1,1.46,6.06Zm105.37,11.17c5.48,0,11,0,16.61,0,.25,0,.68-.54.7-.85.25-2.94.53-5.88.61-8.83a140.27,140.27,0,0,0-2-29.58c-.73-3.91-1.4-7.86-2.44-11.7-1.36-5-3-10-4.64-14.94-.4-1.25-1-2.45-1.48-3.69a54.59,54.59,0,0,1-20.2,5.87,1.93,1.93,0,0,0-1.31.93c-2,4.34-4,8.65-5.76,13.08a138.44,138.44,0,0,0-6.29,20.61c-.65,2.9-1.23,5.81-1.88,8.92,1.24,0,2.31,0,3.38,0a5.81,5.81,0,0,0,4.34-1.8,11,11,0,0,0,3.71-8.42c0-5.8,0-11.59,0-17.39a3.24,3.24,0,0,1,1.38-2.9,2.71,2.71,0,0,1,3-.2,3,3,0,0,1,1.73,2.79c0,4.71.05,9.43,0,14.14,0,3.34.06,6.67-1.33,9.9a16.44,16.44,0,0,1-8.4,9,11.23,11.23,0,0,1-5.55.81c-2-.14-4,.15-6.06.18s-4.31,0-6.47,0c-.9,0-1.14.32-1.13,1.18,0,3.85.06,7.71,0,11.56,0,1.17.37,1.43,1.47,1.43,7,0,13.91,0,20.87,0a20.12,20.12,0,0,0,14.32-5.86,19,19,0,0,0,6.3-13c.33-7.49.11-15,.15-22.5a15.61,15.61,0,0,1,.33-2.89,2.45,2.45,0,0,1,2.44-2.08,2.9,2.9,0,0,1,2.71,1.46c.82,1.13.52,2.36.52,3.57,0,7.07.13,14.14,0,21.21a24.5,24.5,0,0,1-4.42,13.76C239.57,247.4,237.7,249.38,235.94,251.51ZM86.52,231.1c-.56-2.66-1.07-5.33-1.67-8-.65-2.91-1.24-5.84-2.12-8.69-1.24-4.05-2.58-8.09-4.15-12-1.86-4.7-4-9.3-6-13.92a1.54,1.54,0,0,0-1-.72c-1.1-.21-2.24-.22-3.32-.46-3.45-.78-6.92-1.5-10.3-2.51a74.21,74.21,0,0,1-7-2.88c-1.55,4.59-3.28,9.11-4.58,13.77-1.42,5.09-2.58,10.26-3.56,15.46A126.35,126.35,0,0,0,41,224.55a176.44,176.44,0,0,0-.05,24.55c.13,2.07.45,2.4,2.56,2.4H57.82c.27,0,.54-.05,1-.09a27.89,27.89,0,0,1-6.37-7.77A25.29,25.29,0,0,1,49,232.31c-.16-8.08-.07-16.16-.06-24.24a2.82,2.82,0,0,1,2-2.69c2.23-.67,4,.75,4.05,3.22,0,7.18,0,14.36,0,21.55a36.83,36.83,0,0,0,.52,5.54,15.46,15.46,0,0,0,2.76,6.18c4,5.89,9.48,9.39,16.67,9.58s14.58,0,21.88.08c1,0,1.25-.36,1.24-1.31,0-3.85-.06-7.71,0-11.56,0-1.09-.39-1.31-1.36-1.3-4.34,0-8.68,0-13,0A12.32,12.32,0,0,1,76.24,235a16.8,16.8,0,0,1-4.9-5.71,16,16,0,0,1-2.22-7.41c-.07-6.13,0-12.27,0-18.4a3.6,3.6,0,0,1,.38-1.61,3,3,0,0,1,3.31-1.54,3.2,3.2,0,0,1,2.36,3.18c0,4.56,0,9.13,0,13.69,0,.18,0,.37,0,.56-.27,3-.15,6,1.41,8.67C79.21,231.06,82,231.79,86.52,231.1Zm39.29,5.1c-1.39.25-2.54.41-3.66.66-2.91.65-5.82,1.31-8.71,2a1.22,1.22,0,0,0-.73.89c0,3.48,0,6.95,0,10.43,0,.64.25.94.93,1,1.94.08,3.88.36,5.82.29,7-.25,14-.6,20.93-1,.34,0,1-.61.91-.83a1.5,1.5,0,0,0-.87-1.05q-6.25-1.42-12.56-2.71a4.86,4.86,0,0,1-3.62-6.23C124.62,238.53,125.22,237.47,125.81,236.2Zm41.52,1.21c-1.25,1.64-2.62,3.35-3.9,5.12-1.13,1.54-.88,2.76.68,3.91,1.83,1.34,3.63,2.73,5.51,4a5.07,5.07,0,0,0,2.4,1c2.91.12,5.83,0,8.74.06.69,0,1-.21,1-1,0-3.66,0-7.32-.05-11a1.39,1.39,0,0,0-.85-1c-2.12-.41-4.26-.68-6.39-1a1.57,1.57,0,0,0-1.75.63,2.72,2.72,0,0,1-3.22.92A9.18,9.18,0,0,1,167.33,237.41Zm20.37,7.09c0,1.94.05,3.89,0,5.83,0,1,.37,1.23,1.25,1.19s1.47,0,1.46-1.13q-.06-6,0-12c0-1-.58-1.05-1.31-1s-1.43-.05-1.39,1.07C187.75,240.46,187.7,242.48,187.7,244.5Zm-83.63-.11c0,2,0,4,0,6,0,.84.25,1.13,1.08,1.09s1.29-.05,1.29-1.05q-.06-6,0-12.08c0-1-.58-1-1.3-1s-1.1.27-1.07,1.1C104.1,240.44,104.07,242.41,104.07,244.39Z"/><path class="cls-1" d="M139,35a54.74,54.74,0,0,1,23.9,4.9,14.25,14.25,0,0,0,5.59,1.2A47.38,47.38,0,0,1,189.81,47a35.82,35.82,0,0,1,12.3,10.67c4,5.71,5.89,12.05,4.76,19a27.16,27.16,0,0,1-9.69,16.78A5.6,5.6,0,0,0,195,98.75a22.48,22.48,0,0,0,3.05,9.6,3.06,3.06,0,0,1,0,3.29,2.78,2.78,0,0,1-3,1.36,32.15,32.15,0,0,1-17.51-8.27,3,3,0,0,0-3-.75,40.27,40.27,0,0,1-12.48.67,25.24,25.24,0,0,0-10.16.56,32,32,0,0,1-7.39,1.19c-4.28.13-8.58-.06-12.87-.21a25.55,25.55,0,0,1-3.86-.59,2.08,2.08,0,0,0-2,.56,35.94,35.94,0,0,1-15.36,8.77,26.93,26.93,0,0,1-5.48,1,2.81,2.81,0,0,1-2.56-4.31A26.93,26.93,0,0,0,106,101.45a27.3,27.3,0,0,0,.07-4.7,1.72,1.72,0,0,0-.71-1A36.75,36.75,0,0,1,95.69,84.4a28.23,28.23,0,0,1-3.08-9.17c-1.56-10.2,2-18.62,9-25.82a46,46,0,0,1,19.77-11.74A55.08,55.08,0,0,1,139,35Zm-28.28,73.26.22.26c1.25-.56,2.51-1.07,3.72-1.69a29.86,29.86,0,0,0,8.56-6.58,3.21,3.21,0,0,1,3.08-1.17,82.19,82.19,0,0,0,9.06,1.36,65.87,65.87,0,0,0,11-.24,46.91,46.91,0,0,0,14.07-3.87c6.23-2.82,11.68-6.63,15.54-12.38,4.37-6.51,5.54-13.55,2.79-21A28.66,28.66,0,0,0,168.39,49.9c-6.9-5.11-14.78-7.7-23.19-8.65a53.18,53.18,0,0,0-19.58,1.35,43.06,43.06,0,0,0-17.35,8.65c-4.86,4.14-8.43,9.08-9.67,15.51a21.92,21.92,0,0,0,1.91,13.83,29.31,29.31,0,0,0,9.61,11.15,3.77,3.77,0,0,1,1.72,2.5,26.25,26.25,0,0,1-.06,8.93C111.45,104.88,111.06,106.57,110.69,108.27Zm79.11-2.8a2.53,2.53,0,0,0,.11-.57,3.5,3.5,0,0,0-.09-.55A29.07,29.07,0,0,1,189,95c.09-1.51.33-2.94,1.73-3.93a26.5,26.5,0,0,0,7.41-7.8A19.23,19.23,0,0,0,201,70.2,21.59,21.59,0,0,0,194.66,58a35.91,35.91,0,0,0-14.32-8.67c-1.5-.52-3.07-.84-4.61-1.25,5.15,5.31,8.93,11.16,10,18.55a27.43,27.43,0,0,1-1.09,13,32.33,32.33,0,0,1-9.53,14.1c-1.91,1.69-4,3.2-6.24,5,2.64-.43,5-.65,7.33-1.23A3.79,3.79,0,0,1,180,98.73c1.95,1.72,4,3.37,6.08,4.89A24.92,24.92,0,0,0,189.8,105.47Z"/><path class="cls-1" d="M151.06,181.27c-9.64.08-15.59-4.42-19.93-11.51A35.05,35.05,0,0,1,127,158.37a27.09,27.09,0,0,0-1.41-3.75,26.14,26.14,0,0,1-1.36-12.86,25.61,25.61,0,0,1,7.94-15.37c.4-.39.91-.68,1.26-1.1a3.82,3.82,0,0,0,.92-1.58,15.31,15.31,0,0,1,8.74-12,16,16,0,0,1,22.81,11.74,3.09,3.09,0,0,0,1.17,2,25,25,0,0,1,8.57,14.15,27.36,27.36,0,0,1-2,17.57,43.14,43.14,0,0,0-1.43,5.28c-2.23,7.35-6.18,13.38-13.26,16.91A15.9,15.9,0,0,1,151.06,181.27Zm-.65-6.12a11.36,11.36,0,0,0,9-3.08c5.75-5.29,8.65-11.76,7.58-19.69a16.9,16.9,0,0,0-4-9c-4.75-5.48-12.73-6.74-19.22-4.45-7.89,2.8-11.24,10.41-10.76,17.79A21.91,21.91,0,0,0,136.48,167C139.61,172.05,143.75,175.53,150.41,175.15ZM170,142.73a19.77,19.77,0,0,0-19.89-17.43c-11.38,0-19.27,8.92-19.84,17.36C135,135.54,141.55,132,150.1,132S165.2,135.53,170,142.73Zm-28-22.21a25.31,25.31,0,0,1,16.11-.06,8.92,8.92,0,0,0-7.85-4.42A9.15,9.15,0,0,0,142,120.52Z"/><path class="cls-1" d="M84.76,145.63c-.23-1.55-.39-3.11-.59-4.66-.06-.47-.2-.94-.3-1.42-1.25.24-2.43.38-3.56.69a28.66,28.66,0,0,1-13.31.42c-1.91-.37-2.89.23-3.35,2.13-.29,1.2-.53,2.41-.83,3.6a3,3,0,0,1-2.74,2.53c-1.65.07-2.38-.6-3.2-2.25a18.33,18.33,0,0,0-2.44-3.41,2,2,0,0,0-2.45-.57A2.32,2.32,0,0,0,50.67,145a6.54,6.54,0,0,0,4.24,5.89,16.19,16.19,0,0,0,2.85.58,2.73,2.73,0,0,1,2.71,2.93,2.8,2.8,0,0,1-2.83,3,11.56,11.56,0,0,1-2.54-.28c-1.2-.22-1.39-.11-1.39,1.1,0,3.48-.09,7,0,10.44a3,3,0,0,1-2.89,3.4c-1.85.06-3.05-1.33-3.06-3.48,0-4.75,0-9.5,0-14.25a4.35,4.35,0,0,0-.7-2.13,14.53,14.53,0,0,1-2.32-5.63c-.13-.85-.91-1.59-1.25-2.43a23.9,23.9,0,0,1-1.42-13.71,21.58,21.58,0,0,1,6.14-11.67,19,19,0,0,1,12.84-5.56,31.93,31.93,0,0,1,7.45.37A32,32,0,0,1,75,116.05a19,19,0,0,0,12.13,1.31c.91-.2,1.82-.43,2.71-.67a3,3,0,0,1,4,2c2.07,5.71,1.19,12.53-3.71,17a1.38,1.38,0,0,0-.52,1.51c.45,2.3.74,4.64,1,7,.06.58.26,3,.26,3.36,0,3.21.18,6.43-.1,9.62-.3,3.4-1,6.78-1.6,10.14-1,5.61-4.76,7.45-9.56,7.92-1.94.19-2,.11-2,2.15A3.08,3.08,0,0,1,76.25,180a2.86,2.86,0,0,1-4.51-2,10.8,10.8,0,0,1-.11-2.34,1.62,1.62,0,0,0-1.26-1.81A19.76,19.76,0,0,1,62,167.68a2.76,2.76,0,0,1,1.15-4.54c2.37-.84,3.22,1,4.3,1.81.6.48,1.37,1.15,2.2,1.74a13,13,0,0,0,11.68,2,2.57,2.57,0,0,0,1.8-2,54,54,0,0,0,1.77-17.07C84.92,149.55,84.8,145.93,84.76,145.63Zm-26.13-6.81c2.67-3.56,4.84-4.52,9.17-4.12a43.89,43.89,0,0,0,5.9.55,26,26,0,0,0,10.12-2.58,8.5,8.5,0,0,0,5.06-7.81c.08-1.61-.14-1.74-1.72-1.46a23.25,23.25,0,0,1-14.62-2C69.21,119.8,65.82,118.66,62,119a14.8,14.8,0,0,0-9.1,3.55c-4.15,3.77-5.59,8.58-5.27,14a7.35,7.35,0,0,0,.39,1.41C51.87,135.44,55.32,136.24,58.63,138.82Z"/><path class="cls-1" d="M210.59,139.3c-.23,1.14-.53,2.22-.64,3.32a76.8,76.8,0,0,0,0,18.12,54.41,54.41,0,0,0,1.35,6.12,3,3,0,0,0,2.75,2.14c5.44,1,9.93-.77,13.51-4.9A3.27,3.27,0,0,1,231,163a2.45,2.45,0,0,1,2,2.18,3.5,3.5,0,0,1-.51,2.39,19.26,19.26,0,0,1-8.28,6.25c-1,.41-1.65.89-1.45,2.1a9,9,0,0,1,0,1.8,3,3,0,0,1-2.79,2.82,3.1,3.1,0,0,1-3.09-2.68c-.09-.81.16-1.9-.28-2.36s-1.53-.23-2.33-.35c-3.47-.52-6.61-1.7-8.1-5.16a31.72,31.72,0,0,1-1.65-6,48.53,48.53,0,0,1-1.07-13.37c.32-4.69,1-9.35,1.45-14a2.6,2.6,0,0,0-.59-1.69,21.11,21.11,0,0,1-4.21-10.1,3.29,3.29,0,0,1,1-2.94,33.49,33.49,0,0,1,10.44-7.19,37.1,37.1,0,0,1,16.57-3.2c6.76.29,12.95,2.22,17.88,7.11a22,22,0,0,1,6.38,11.92A24.13,24.13,0,0,1,251,144a11.14,11.14,0,0,1-.74,1.23,3.27,3.27,0,0,0-.56,1.18,12.79,12.79,0,0,1-2.38,5.83,4,4,0,0,0-.63,1.94c-.05,4.94,0,9.88,0,14.81a2.83,2.83,0,0,1-2,2.87,2.75,2.75,0,0,1-3.41-1.18,5.08,5.08,0,0,1-.49-2.36c0-3.36,0-6.73,0-10.1,0-1.27-.2-1.42-1.46-1.08a5.2,5.2,0,0,1-3.82-.14,2.78,2.78,0,0,1-1.43-3.22,2.59,2.59,0,0,1,2.41-2.26c3-.22,5.49-1.2,6.78-4.12a7.46,7.46,0,0,0,.53-2.7,1.85,1.85,0,0,0-1.36-2,2.86,2.86,0,0,0-2.24.5,14.65,14.65,0,0,0-2.58,3.57c-.75,1.47-1.66,2.24-3.29,2.14a2.9,2.9,0,0,1-2.63-2.49c-.31-1.23-.59-2.47-.87-3.71-.4-1.73-1.43-2.33-3.21-2.1-2.14.28-4.29.52-6.45.6a25.14,25.14,0,0,1-9.31-1.63C211.44,139.46,211.07,139.41,210.59,139.3ZM246.36,138a5.1,5.1,0,0,0,.2-.58,14.65,14.65,0,0,0-1-9,16.63,16.63,0,0,0-10.7-9.78,25.55,25.55,0,0,0-11.27-1.07,30.51,30.51,0,0,0-14.87,5.65c-2.76,2.08-2.92,1.4-1.5,4.91.71,1.77,1.59,3.59,3.36,4.47A23.43,23.43,0,0,0,226,134.79a8.53,8.53,0,0,1,7.16,1.29c1,.75,1.89,1.63,2.9,2.53C239.16,136.24,242.61,135.43,246.36,138Z"/><path class="cls-1" d="M145.32,263.15h71.92a19,19,0,0,1,2.13.1,2.91,2.91,0,0,1,2.62,3,3.13,3.13,0,0,1-2.75,2.92,8.56,8.56,0,0,1-1,0H72.07c-2,0-3.37-1.21-3.4-2.94a2.81,2.81,0,0,1,2.49-3,16.74,16.74,0,0,1,2.12-.12Z"/><path class="cls-1" d="M166.13,186.84a46,46,0,0,1-2.47,4.69A29.34,29.34,0,0,1,154,200c-.29.18-.59.33-.87.52a4.12,4.12,0,0,1-4.61.24c-4.76-2.59-9.29-5.43-12.36-10a42.13,42.13,0,0,1-2-3.86,18.85,18.85,0,0,0-6.19,3.37c-3.61,2.81-5.87,6.59-7.64,10.71q-1.2,2.76-2.22,5.6a18,18,0,0,0-.61,8.09c.28,2.6.62,5.19.84,7.79.16,1.91-.82,3.15-2.4,3.29a2.87,2.87,0,0,1-3.48-2.77c-.42-3.6-.86-7.2-1.1-10.81a21.36,21.36,0,0,1,1.62-9.19,54.27,54.27,0,0,1,5.45-11.11,27.41,27.41,0,0,1,15.09-11.12c1-.3,2-.53,3-.73a3,3,0,0,1,3.62,3.08,7,7,0,0,0,2.68,6.42c2.15,1.82,4.49,3.43,6.8,5.05a1.75,1.75,0,0,0,1.54.11,23.75,23.75,0,0,0,7.67-6.71,6.33,6.33,0,0,0,1.18-4c-.13-3.23,1.48-4.51,4.62-3.77A27.57,27.57,0,0,1,182.51,193a53.76,53.76,0,0,1,5.61,12.75,24.65,24.65,0,0,1,.55,10.22,3.06,3.06,0,0,1-3.55,2.77c-1.66-.26-2.62-1.84-2.39-3.71a19.65,19.65,0,0,0-1.12-9.89,47.81,47.81,0,0,0-5.41-10.76A20.68,20.68,0,0,0,166.13,186.84Z"/><path class="cls-1" d="M131.48,215.83c0,2.31,0,4.63,0,6.95a3.14,3.14,0,0,1-2,2.85,2.92,2.92,0,0,1-3.45-1.15,4.44,4.44,0,0,1-.56-2.12c0-4.4,0-8.81,0-13.22,0-1.84.63-2.7,2.16-3.27a2.63,2.63,0,0,1,3.08,1,4.55,4.55,0,0,1,.76,2.27C131.54,211.34,131.48,213.59,131.48,215.83Z"/><path class="cls-1" d="M168.75,214.54c0-1.87,0-3.73,0-5.6a3.15,3.15,0,0,1,2.9-3.23,3.09,3.09,0,0,1,3.14,3.12c0,3.77,0,7.54,0,11.31a3,3,0,1,1-6.05-.11C168.74,218.2,168.75,216.37,168.75,214.54Z"/><path class="cls-1" d="M227.55,269.45a3.33,3.33,0,0,1-3.29-3.36,3.57,3.57,0,0,1,3.39-3.35,3.43,3.43,0,0,1,3.33,3.39A3.29,3.29,0,0,1,227.55,269.45Z"/><path class="cls-1" d="M160.48,72.07a4.49,4.49,0,0,1-4.46,4.5,4.48,4.48,0,0,1,0-8.95A4.47,4.47,0,0,1,160.48,72.07Z"/><path class="cls-1" d="M127.11,72.08a4.38,4.38,0,0,1-4.41,4.49,4.48,4.48,0,1,1,.1-8.95A4.34,4.34,0,0,1,127.11,72.08Z"/><path class="cls-1" d="M144,72.09a4.34,4.34,0,0,1-4.41,4.48,4.48,4.48,0,1,1,.12-8.95A4.31,4.31,0,0,1,144,72.09Z"/></svg>