<svg id="Capa_1" data-name="Capa 1" xmlns="http://www.w3.org/2000/svg" viewBox="0 0 300 300"><defs><style>.cls-1{fill:#ee7f00;}</style></defs><g id="YjtduO"><path class="cls-1" d="M89.79,202.62l.95-.89-.6-.77-1.11.7-1.26-1.39-.56.66c-.09,0-.21,0-.28,0-4.06-2.66-8.25-5.15-12.15-8-5.94-4.41-5.33-13.77,1-17.81,3.67-2.37,7.31-4.77,11-7.16.16-.11.29-.26.55-.49-1.59-1.05-3.13-2-4.65-3.05-2.62-1.75-5.31-3.4-7.84-5.28a10.77,10.77,0,0,1-3.67-11.51c.92-3.23,3.08-5.36,5.85-7.08,3.35-2.09,6.6-4.31,9.89-6.48.1-.06.19-.14.44-.32l-3.16-2.11c-3.24-2.17-6.67-4.11-9.69-6.56-5.54-4.49-4.83-13.45,1.14-17.36q14.88-9.72,29.74-19.47,13.91-9.08,27.82-18.11c3.66-2.38,7.26-4.85,11-7.15,4.14-2.57,8.33-2.34,12.37.28C163,67.42,169.49,71.71,176,76c6.26,4.1,46.19,30,49.29,32.35a10.13,10.13,0,0,1,4,9.17c-.24,4.28-2.57,7.16-6.09,9.34-3.29,2-10.11,6.66-10.43,6.92,2,1.31,3.89,2.54,5.76,3.78,2.33,1.55,4.76,3,6.94,4.69a10.24,10.24,0,0,1,3.82,9c-.25,4.44-2.76,7.33-6.4,9.55-3.25,2-6.4,4.13-9.58,6.22a4.17,4.17,0,0,0-.54.49c1.44.95,2.86,1.86,4.26,2.81,2.94,2,6,3.8,8.77,6s3.65,5.16,3.5,8.54c-.19,4.16-2.35,7.09-5.78,9.29-5.7,3.65-11.34,7.38-17,11.08l-18.64,12.17q-9.43,6.17-18.88,12.34c-3.6,2.35-7.15,4.79-10.85,7a16,16,0,0,1-12.14,1.7c-2.93-.69-5.32-2.33-7.76-3.93L117.67,221,98.86,208.72c-2.61-1.7-5.23-3.39-7.83-5.1A15.11,15.11,0,0,1,89.79,202.62ZM193.46,96.22l-20.7-13.53Q162.54,76,152.32,69.32a3.78,3.78,0,0,0-4.52,0l-8,5.22-30.56,20c-9.73,6.36-19.42,12.77-29.22,19a3.82,3.82,0,0,0,.07,6.62c5.06,3.18,10,6.49,15,9.76l26.94,17.65q11.3,7.38,22.61,14.73a9.06,9.06,0,0,0,9.86.44c3.25-1.83,6.3-4,9.43-6.07l26.15-17.06q8.49-5.54,17-11.08c4.45-2.91,8.91-5.81,13.32-8.79a3.53,3.53,0,0,0-.09-6C218.18,112.32,195.9,97.81,193.46,96.22Zm-5.36,78.85a22.13,22.13,0,0,1,2-1.69c2.08-1.39,4.2-2.7,6.29-4.07l23.79-15.61c2.44-1.6,2.63-4.44.21-6.09-4.63-3.16-9.35-6.2-14.05-9.26a1,1,0,0,0-.86.1q-9.12,5.93-18.22,11.88c-10.39,6.79-20.76,13.61-31.18,20.34a10.49,10.49,0,0,1-11.95.06c-8.59-5.45-17.06-11.09-25.57-16.66q-12-7.81-23.9-15.62a1.05,1.05,0,0,0-.93,0q-7.07,4.58-14.09,9.22a3.53,3.53,0,0,0-1.34,4.11,3.34,3.34,0,0,1-.06,1.08c0,.4-.2.92,0,1.17s.72.32,1.12.39c.21,0,.47-.14.68-.11a3.18,3.18,0,0,1,.72.35,2.57,2.57,0,0,1-.56.69,1.94,1.94,0,0,1-.78.11l.08.36c1,.57,1.52-.36,2.13-1l.79.55q11.13,7.24,22.27,14.49l20.75,13.58c6.27,4.09,12.51,8.21,18.79,12.29,3.61,2.35,7.4,2.59,11.09.34,4.62-2.83,9.1-5.87,13.64-8.82,2.46-1.6,4.91-3.21,7.14-4.68a5.12,5.12,0,0,0,.76,1.34c.17.17.68-.06,1,0a9.31,9.31,0,0,1,1.06.14c-.31.27-.61.54-.93.79a6.33,6.33,0,0,1-.65.35,1.21,1.21,0,0,0,1.8-.25,1.85,1.85,0,0,0,.35-1.4c-.22-.67-.88-.5-1.45-.35a6.91,6.91,0,0,1-1,.11l-.15-.34,1.43-.85c-.4-.43-.65-.86,0-1,.61.7,1.12,1.3,1.65,1.88s1,.54,1.48-.24c-1.12-.14-1.43-.51-1.39-1.56l-1.08-.51c.88-.57,1.57-1,2.26-1.45,1.5-1,1.49-.94,2.55.44a4.16,4.16,0,0,0,.93.71c-.05-.35-.11-.7-.15-1.06,0-.05.06-.1.1-.16l1.54.24.08-.35c-.51-.27-1.21-.42-1.49-.84a1,1,0,0,1,.45-1.56c.85,1.67,1.42,2.1,2.24,1.69.65-.32.81-.75.49-1.36-.46.14-.5,1.36-1.41.52l1.24-1.1-.86-1.07,2.91.67-1.28.46v.32c.36,0,.79.13,1.06,0a1.2,1.2,0,0,0,.57-.92C190,174.62,188.86,175.3,188.1,175.07ZM150,231.49a9.12,9.12,0,0,0,5-1.42c4-2.59,8-5.21,11.95-7.81l30-19.57q11.6-7.56,23.18-15.11a3.73,3.73,0,0,0,0-6.51q-6.63-4.27-13.2-8.61a1.44,1.44,0,0,0-1.86,0Q194,179.71,182.87,187q-13.11,8.55-26.24,17.11c-4.19,2.74-8.43,3-12.7.29-5-3.15-9.86-6.39-14.78-9.61l-16.89-11c-5.63-3.68-11.3-7.32-16.9-11.06a1.9,1.9,0,0,0-2.52,0c-4.29,2.87-8.63,5.64-12.93,8.47a3.67,3.67,0,0,0-.09,6.34c4,2.65,8,5.24,12,7.87a29.26,29.26,0,0,1,3.28,2.31,19,19,0,0,1,2,2.43,1.87,1.87,0,0,0,2,.61,2,2,0,0,1,1.2.15c.69.36,1.31.86,2,1.29q9.34,6.13,18.71,12.25,11.3,7.38,22.59,14.76C145.54,230.41,147.52,231.55,150,231.49Zm33.8-50.44c-.85-1.63-1.43-2.07-2.2-1.69a.89.89,0,0,0-.51,1.33l.88-.87.24.23c-.2.25-.5.46-.57.74a5.24,5.24,0,0,0,0,1.25,5.55,5.55,0,0,0,1.24-.23A4.58,4.58,0,0,0,183.76,181.05ZM95.15,200.62c1,.79,1.08,1.57-.1,2.29l.64.71c1.75-1,1.92-2,.66-3.29C95.83,199.8,95.52,200,95.15,200.62Zm-2.49-1.75C91,200,90.94,201,92,202.21c.52.6.85.42,1.25-.21-.86-.74-1.23-1.55.1-2.36Z"/><path class="cls-1" d="M183.76,181.05a4.58,4.58,0,0,1-.91.76,5.55,5.55,0,0,1-1.24.23,5.24,5.24,0,0,1,0-1.25c.07-.28.37-.49.57-.74l-.24-.23-.88.87a.89.89,0,0,1,.51-1.33C182.33,179,182.91,179.42,183.76,181.05Z"/><path class="cls-1" d="M95.15,200.62c.37-.65.68-.82,1.2-.29,1.26,1.27,1.09,2.3-.66,3.29l-.64-.71C96.23,202.19,96.19,201.41,95.15,200.62Z"/><path class="cls-1" d="M92.66,198.87l.71.77c-1.33.81-1,1.62-.1,2.36-.4.63-.73.81-1.25.21C90.94,201,91,200,92.66,198.87Z"/></g></svg>