<svg id="Capa_1" data-name="Capa 1" xmlns="http://www.w3.org/2000/svg" viewBox="0 0 300 300"><defs><style>.cls-1{fill:#ee7f00;}</style></defs><path class="cls-1" d="M227.5,129.45q0,22.85,0,45.68a10.77,10.77,0,0,1-8.59,11,10.94,10.94,0,0,1-2.43.22q-35.41,0-70.82,0c-3,0-4.39-2.31-4-4.2a3.58,3.58,0,0,1,3.17-3c.44,0,.89,0,1.33,0h69.7c3.12,0,4.48-1.35,4.48-4.48V84.1c0-3-1.37-4.39-4.36-4.39H125.28c-3,0-4.36,1.4-4.36,4.39q0,30.3,0,60.59c0,3.44,0,6.88.06,10.32a3.71,3.71,0,0,1-3.42,3.44,3.55,3.55,0,0,1-3.83-3.31c-.1-1.53,0-3.07,0-4.6V83.73A10.88,10.88,0,0,1,125,72.48q45.63,0,91.25,0A10.84,10.84,0,0,1,227.5,83.77Q227.52,106.62,227.5,129.45Z"/><path class="cls-1" d="M203.09,102.11c-.26.24-.53.48-.78.73q-21.5,21.48-43,43c-2.48,2.48-4.9,5-7.38,7.49q-27.94,27.9-55.87,55.8c-2.5,2.51-5.65,1.32-6.4-1a3.74,3.74,0,0,1,1.14-4.07q6.38-6.35,12.72-12.7l34.17-34.17,8.21-8.21,49.82-49.84c.71-.72,1.48-1.38,2.22-2.07l-.15-.32c-.41,0-.83-.06-1.24-.06H173.88a7.18,7.18,0,0,1-1.91-.21,3.53,3.53,0,0,1-2.52-3.85,3.57,3.57,0,0,1,3.24-3.16,10.47,10.47,0,0,1,1.12,0h32.5c2.88,0,4.26,1.36,4.26,4.25q0,16.45,0,32.9a3.7,3.7,0,0,1-3.59,4c-2.12,0-3.64-1.66-3.64-4.06V102.25Z"/><path class="cls-1" d="M105.06,227.52H83.4c-6.52,0-10.9-4.39-10.9-10.91q0-21.87,0-43.73a10.32,10.32,0,0,1,10.66-10.74h22.48A3.54,3.54,0,0,1,109,164a3.44,3.44,0,0,1-.15,3.69,3.81,3.81,0,0,1-3.52,1.66c-7.15,0-14.31,0-21.46,0-.41,0-.82,0-1.23,0a3.07,3.07,0,0,0-2.89,2.8,7,7,0,0,0,0,.92v43.23c0,2.86,1.08,3.94,4,3.94h43.13c2.71,0,3.86-1.14,3.86-3.84q0-11.1,0-22.18a3.44,3.44,0,0,1,1.81-3.21,3.41,3.41,0,0,1,3.68.05,3.44,3.44,0,0,1,1.71,3.08c0,7.8.1,15.6,0,23.4a10.12,10.12,0,0,1-10.39,9.92c-7.46,0-14.92,0-22.38,0Z"/></svg>