<svg id="Capa_1" data-name="Capa 1" xmlns="http://www.w3.org/2000/svg" viewBox="0 0 300 300"><defs><style>.cls-1{fill:#ee7f00;}</style></defs><path class="cls-1" d="M149.84,71q42.54,0,85.09,0c3.95,0,7.66.62,10,4.09A19.44,19.44,0,0,1,247.5,81a19.75,19.75,0,0,1,.22,5q0,57.09,0,114.17c0,4.19-.56,8.14-4.16,10.79a18.43,18.43,0,0,1-5.29,2.58,15.34,15.34,0,0,1-4.46.29q-83.78,0-167.53,0a21.47,21.47,0,0,1-6.76-.79c-5.2-1.78-7.27-5.87-7.27-11.2,0-10,0-19.91,0-29.86q0-44.15,0-88.28c0-3.55.2-7.12,3.44-9.44a20.92,20.92,0,0,1,5.12-2.84A14.7,14.7,0,0,1,65.54,71Q107.69,71,149.84,71Zm.11,4.87c-27.83,0-55.66.1-83.49-.09-5.63,0-9.29,2.82-9.26,9.25.16,38.32.08,76.64.09,115,0,6.27,2.5,8.76,8.82,8.76q83.9,0,167.77,0c5.48,0,8.72-2.93,8.7-8.69q-.12-57.73,0-115.47c0-5.38-3.41-8.9-8.9-8.85C205.78,76,177.86,75.88,150,75.88Z"/><path class="cls-1" d="M235.63,214.83h-1.8c-56.64,0-112.07,0-167.53,0a22.13,22.13,0,0,1-7.08-.85c-5.28-1.8-7.95-5.88-7.95-12.14q0-7,0-14.07,0-7.9,0-15.79,0-44.15,0-88.28c0-4,.3-7.71,3.86-10.25a21.4,21.4,0,0,1,5.37-3A11.86,11.86,0,0,1,64.69,70h.85q35.67,0,71.33,0h31q33.51,0,67,0H235c3.83,0,8.1.54,10.81,4.52a20.4,20.4,0,0,1,2.69,6.2,13.61,13.61,0,0,1,.27,4c0,.41,0,.83,0,1.23v37q0,38.6,0,77.19c0,4.28-.55,8.64-4.57,11.6a19.09,19.09,0,0,1-5.58,2.72A9.93,9.93,0,0,1,235.63,214.83Zm-1.8-2h.91a10.6,10.6,0,0,0,3.25-.26,17.37,17.37,0,0,0,5-2.42c3.11-2.3,3.75-5.65,3.75-10q0-38.61,0-77.2V86c0-.43,0-.87,0-1.31a11.93,11.93,0,0,0-.2-3.43,18.45,18.45,0,0,0-2.41-5.59C241.94,72.45,238.44,72,235,72h0q-33.52,0-67,0h-31q-35.67,0-71.33,0h-.88a10.4,10.4,0,0,0-3.5.31A20,20,0,0,0,56.3,75c-2.8,2-3,5.09-3,8.63q0,44.15,0,88.28,0,7.89,0,15.78,0,7,0,14.08c0,5.38,2.16,8.73,6.6,10.25a20.46,20.46,0,0,0,6.43.74C121.76,212.83,177.19,212.82,233.83,212.81Zm.07-3h0c-41.09,0-82.88,0-123.28,0H66.12c-6.89,0-9.83-2.92-9.83-9.76q0-15.48,0-31c0-27.52,0-56-.09-84,0-3.29.88-5.85,2.65-7.62s4.36-2.69,7.62-2.64c20.55.14,41.44.12,61.64.1l21.84,0h0l21.61,0c20.37,0,41.42,0,62.13-.11h.11a9.22,9.22,0,0,1,9.8,9.85c-.1,35.76-.11,73.53,0,115.47a8.79,8.79,0,0,1-9.68,9.69Zm-97.23-2c32.16,0,64.9,0,97.21,0h0a7.84,7.84,0,0,0,5.75-1.95,7.76,7.76,0,0,0,1.93-5.73c-.09-42-.08-79.72,0-115.49a7.84,7.84,0,0,0-2.11-5.76,8.08,8.08,0,0,0-5.78-2.08c-20.72.16-41.78.13-62.15.11q-21.72,0-43.44,0c-20.21,0-41.11,0-61.67-.1-2.71,0-4.8.67-6.19,2S58.19,82.31,58.2,85c.12,28,.11,56.46.09,84q0,15.48,0,31c0,5.73,2.05,7.75,7.83,7.76h70.55Z"/><path class="cls-1" d="M149.83,98.09q39.88,0,79.78,0c1.94,0,4.6-.57,4.63,2.41s-2.65,2.5-4.59,2.5q-80,0-160.08,0c-3.57,0-4.58-.79-4-3.16a2.63,2.63,0,0,1,1.61-1.6,16,16,0,0,1,3.68-.17Q110.33,98.07,149.83,98.09Z"/><path class="cls-1" d="M231.12,104l-.78,0h-.69q-80,0-160.08,0c-2.53,0-3.86-.39-4.61-1.33a3.54,3.54,0,0,1-.37-3.06,3.62,3.62,0,0,1,2.34-2.34,12.21,12.21,0,0,1,3.12-.21h.8q39.48,0,79,0h79.79l.78,0c1.34,0,2.86-.11,3.9.89a4,4,0,0,1,0,5.1A4.37,4.37,0,0,1,231.12,104Zm-1.46-2h.74c1,0,2.09.06,2.53-.37a1.55,1.55,0,0,0,.31-1.13,1.52,1.52,0,0,0-.32-1.11c-.43-.41-1.5-.37-2.44-.33l-.87,0H149.83q-39.5,0-79,0H70a9.91,9.91,0,0,0-2.6.16,1.63,1.63,0,0,0-.87.86c-.12.47-.21,1.09,0,1.35s.89.57,3,.57q80,0,160.08,0Z"/><path class="cls-1" d="M129.23,133.52a24.36,24.36,0,0,1-1.89,2.56q-5.69,5.89-11.46,11.72c-1.53,1.54-3.11,3-4.76,4.42-2.58,2.19-2.48,4,0,6.29,3.93,3.72,7.67,7.63,11.49,11.46a54.34,54.34,0,0,1,4.55,4.69c.63.8,1.11,2.72.71,3.08a4.85,4.85,0,0,1-3.44.95c-.9-.09-1.78-1-2.51-1.75q-9-8.9-17.86-17.85c-3-3-2.89-4.56.07-7.5,6.11-6.06,12.14-12.2,18.29-18.22,1.41-1.38,2.82-3.52,5.32-1.81A9.14,9.14,0,0,1,129.23,133.52Z"/><path class="cls-1" d="M124.83,179.72a4.8,4.8,0,0,1-.55,0,5.48,5.48,0,0,1-3-1.89l-.16-.15c-5.41-5.37-11.25-11.21-17.86-17.85-1.75-1.76-2.49-3.1-2.47-4.48s.76-2.66,2.55-4.44c2.35-2.33,4.69-4.68,7-7,3.67-3.69,7.48-7.5,11.26-11.21l.54-.54c1.18-1.25,3.17-3.34,6-1.37a4.75,4.75,0,0,1,1.24,1.43c.16.23.32.48.52.75l.45.59-.44.6-.62.89a12.34,12.34,0,0,1-1.35,1.77c-4,4.2-7.79,8-11.47,11.74-1.6,1.6-3.22,3.11-4.82,4.47-1,.87-1.53,1.62-1.55,2.29s.49,1.52,1.55,2.52c2.78,2.62,5.5,5.39,8.13,8.06l3.38,3.42,1.34,1.31a33.74,33.74,0,0,1,3.29,3.46c.7.89,1.64,3.49.59,4.44A5.66,5.66,0,0,1,124.83,179.72Zm1.1-47.8c-.69,0-1.31.56-2.27,1.56-.19.21-.38.41-.58.6-3.77,3.7-7.57,7.51-11.25,11.19q-3.51,3.53-7,7c-1.35,1.34-2,2.27-2,3s.57,1.71,1.89,3c6.61,6.64,12.45,12.48,17.85,17.84l.16.15c.5.51,1.27,1.27,1.75,1.32a4.08,4.08,0,0,0,2.49-.56,4.36,4.36,0,0,0-.64-1.86,31.47,31.47,0,0,0-3.1-3.26c-.46-.44-.93-.89-1.38-1.34l-3.39-3.43c-2.61-2.66-5.32-5.41-8.07-8-1.52-1.43-2.21-2.71-2.18-4s.75-2.48,2.25-3.75,3.14-2.8,4.7-4.36c3.67-3.7,7.42-7.53,11.45-11.72a11.49,11.49,0,0,0,1.14-1.5l.24-.36-.17-.25a3.52,3.52,0,0,0-.7-.88A2.14,2.14,0,0,0,125.93,131.92Z"/><path class="cls-1" d="M174.23,179.44c-.79-.62-2-1.12-2.07-1.73a4.64,4.64,0,0,1,.86-3.29c4.59-4.82,9.34-9.49,14-14.21l1.69-1.66c3.12-3,3-3.51-.15-6.61q-8.19-8-16.18-16.12c-1-1-2.09-2.18-.56-3.84s3.07-1.11,4.31.11c7.16,7.07,14.22,14.24,21.34,21.35,1.33,1.34,1.32,2.6,0,3.89Q187.11,167.67,176.67,178A13.68,13.68,0,0,1,174.23,179.44Z"/><path class="cls-1" d="M174.14,180.64l-.53-.42a8.14,8.14,0,0,0-.75-.5c-.79-.5-1.61-1-1.7-1.92a5.54,5.54,0,0,1,1.14-4.07c3.49-3.67,7.13-7.31,10.64-10.82l3.4-3.41,1.42-1.39.29-.28c1-1,2-2,2-2.5s-1-1.53-2.14-2.67c-5-4.91-10.34-10.19-16.2-16.14-.9-.92-2.78-2.83-.58-5.22a3.86,3.86,0,0,1,2.7-1.4,4.15,4.15,0,0,1,3.05,1.48c4.55,4.5,9.14,9.11,13.58,13.57,2.59,2.6,5.17,5.2,7.77,7.79a3.83,3.83,0,0,1,1.29,2.67,3.76,3.76,0,0,1-1.28,2.63l-2.36,2.35q-9.23,9.17-18.49,18.29a6.65,6.65,0,0,1-1.71,1.12c-.29.15-.6.31-.93.5Zm-1-3.16a5,5,0,0,0,.78.55l.36.23c.15-.09.31-.16.45-.24a4.87,4.87,0,0,0,1.23-.76q9.27-9.12,18.48-18.29l2.36-2.35a1.86,1.86,0,0,0,.69-1.21,2,2,0,0,0-.71-1.26q-3.89-3.89-7.76-7.79c-4.44-4.46-9-9.07-13.57-13.56a2.48,2.48,0,0,0-1.58-.9h0a1.92,1.92,0,0,0-1.28.76c-.8.87-.62,1.28.54,2.46,5.84,5.94,11.13,11.21,16.17,16.1,1.7,1.66,2.74,2.77,2.74,4.11s-1,2.42-2.59,3.94l-.28.28c-.47.45-.94.9-1.4,1.36l-3.4,3.41c-3.51,3.51-7.14,7.14-10.61,10.79A3.58,3.58,0,0,0,173.15,177.48Z"/><path class="cls-1" d="M165.54,133.2a49.85,49.85,0,0,1-2.3,5.05c-2.66,4.51-5.49,8.91-8.15,13.42-3.62,6.15-7.1,12.38-10.71,18.54-1.46,2.48-3.1,4.85-4.66,7.27-.94,1.45-2.29,2.08-3.84,1.3s-1.56-2.24-.77-3.63c1.92-3.41,3.9-6.8,5.86-10.19,3.52-6.11,7-12.26,10.58-18.31,3-4.94,6.08-9.8,9.27-14.59a3,3,0,0,1,2.63-1C164.25,131.29,164.82,132.42,165.54,133.2Z"/><path class="cls-1" d="M137.2,180.12a4,4,0,0,1-1.77-.45,3.16,3.16,0,0,1-1.71-1.9,4,4,0,0,1,.51-3.11c1.37-2.43,2.77-4.84,4.17-7.26l1.7-2.94q1.59-2.76,3.17-5.54c2.41-4.21,4.89-8.55,7.43-12.79,2.72-4.55,5.76-9.34,9.29-14.62a3.28,3.28,0,0,1,5.71.3c.19.24.38.49.58.71l.45.49-.27.6c-.28.62-.53,1.21-.76,1.77a27,27,0,0,1-1.6,3.38c-1.31,2.23-2.69,4.47-4,6.63s-2.78,4.51-4.12,6.79c-1.86,3.16-3.68,6.34-5.51,9.53-1.72,3-3.44,6-5.2,9-1,1.74-2.15,3.45-3.24,5.11q-.74,1.09-1.44,2.19A4,4,0,0,1,137.2,180.12Zm25.86-48.07a2.27,2.27,0,0,0-1.41.57c-3.5,5.25-6.53,10-9.24,14.54-2.52,4.21-5,8.56-7.4,12.75-1.06,1.85-2.11,3.7-3.18,5.55l-1.7,2.94c-1.39,2.41-2.79,4.82-4.15,7.24a2.07,2.07,0,0,0-.35,1.54,1.26,1.26,0,0,0,.7.71c.36.18,1.46.73,2.55-.95.48-.74,1-1.48,1.45-2.21,1.07-1.64,2.19-3.32,3.19-5,1.75-3,3.47-6,5.19-9,1.83-3.19,3.66-6.38,5.52-9.55,1.35-2.29,2.77-4.59,4.14-6.82s2.7-4.39,4-6.6a25.48,25.48,0,0,0,1.47-3.13c.17-.4.34-.82.53-1.24l-.27-.35c-.27-.36-.69-.91-.9-1Z"/><path class="cls-1" d="M101,90.46a3.58,3.58,0,0,1-3.59-3.37c.07-2.26,1.69-2.9,3.53-3.06,2.14-.19,3.25,1.1,3.4,3.1A3.37,3.37,0,0,1,101,90.46Z"/><path class="cls-1" d="M101,91.46h0A4.82,4.82,0,0,1,97.61,90a4,4,0,0,1-1.18-2.91c.08-2.43,1.58-3.78,4.44-4a4,4,0,0,1,3,.85,4.47,4.47,0,0,1,1.44,3.17,3.89,3.89,0,0,1-1.11,3A4.5,4.5,0,0,1,101,91.46Zm0-2h0a2.51,2.51,0,0,0,1.75-.81,2,2,0,0,0,.57-1.44,2.58,2.58,0,0,0-.73-1.8A2.11,2.11,0,0,0,101,85c-2.12.19-2.58,1-2.62,2.11a2.07,2.07,0,0,0,.64,1.46,2.82,2.82,0,0,0,2,.87Z"/><path class="cls-1" d="M73.06,90.48c-1.89.06-4.07-1.81-3.91-3.34.21-2,1.62-3,3.55-3.13a3,3,0,0,1,3.43,3.09C76.19,89.16,74.8,90.18,73.06,90.48Z"/><path class="cls-1" d="M73,91.48a5.42,5.42,0,0,1-3.76-1.76A3.52,3.52,0,0,1,68.15,87c.26-2.41,1.89-3.87,4.5-4a4.22,4.22,0,0,1,3.22,1,4.16,4.16,0,0,1,1.26,3c.07,2.32-1.39,4-3.9,4.4H73ZM73,85h-.22c-2.4.14-2.56,1.71-2.62,2.23a1.69,1.69,0,0,0,.55,1.12A3.42,3.42,0,0,0,73,89.48c2.23-.42,2.18-1.87,2.17-2.35a2.19,2.19,0,0,0-.61-1.63A2.29,2.29,0,0,0,73,85Z"/><path class="cls-1" d="M87.65,90.63c-2.8-.53-4.26-1.48-4.14-3.58A3,3,0,0,1,87,84c2,.06,4.05,1.9,3.42,3.38S88.4,89.79,87.65,90.63Z"/><path class="cls-1" d="M88,91.71l-.55-.1c-1.42-.26-5.17-1-5-4.62A4,4,0,0,1,87,83a5.21,5.21,0,0,1,4,2.22,2.71,2.71,0,0,1,.3,2.55,8.86,8.86,0,0,1-2.23,2.82c-.26.25-.51.49-.7.7ZM86.8,85a2,2,0,0,0-2.29,2.12c-.05.9.13,1.83,2.8,2.43l.42-.4A7,7,0,0,0,89.49,87a.79.79,0,0,0-.15-.69A3.25,3.25,0,0,0,87,85Z"/></svg>