<svg id="Capa_1" data-name="Capa 1" xmlns="http://www.w3.org/2000/svg" viewBox="0 0 300 300"><defs><style>.cls-1{fill:#ee7f00;}</style></defs><path class="cls-1" d="M77.55,105.22a3.54,3.54,0,0,1-1.74-.46l-5.67-3.27a3.5,3.5,0,0,1,0-6.07l5.69-3.23a3.5,3.5,0,0,1,3.45,6.09l-.36.2.36.21a3.5,3.5,0,0,1-1.75,6.53Z"/><path class="cls-1" d="M90.56,91.38a3.5,3.5,0,0,1-1.73-6.54l13-7.36a3.5,3.5,0,1,1,3.45,6.09l-13,7.36A3.46,3.46,0,0,1,90.56,91.38Zm26-14.7a3.5,3.5,0,0,1-1.73-6.55l13-7.35a3.5,3.5,0,1,1,3.45,6.09l-13,7.35A3.44,3.44,0,0,1,116.51,76.68Z"/><path class="cls-1" d="M153.81,62a3.49,3.49,0,0,1-1.75-.47l-3.92-2.27-3.95,2.23a3.5,3.5,0,1,1-3.45-6.09l5.69-3.22a3.51,3.51,0,0,1,3.48,0l5.66,3.28A3.5,3.5,0,0,1,153.81,62Z"/><path class="cls-1" d="M204.49,91.35a3.49,3.49,0,0,1-1.75-.47l-12.67-7.33a3.5,3.5,0,1,1,3.51-6.06l12.67,7.33a3.5,3.5,0,0,1-1.76,6.53ZM179.15,76.69a3.59,3.59,0,0,1-1.75-.47l-12.67-7.34a3.5,3.5,0,0,1,3.51-6.06l12.67,7.34a3.5,3.5,0,0,1-1.76,6.53Z"/><path class="cls-1" d="M217.16,105.22a3.5,3.5,0,0,1-1.75-6.53l.41-.24-.41-.24a3.5,3.5,0,1,1,3.51-6.06l5.66,3.28a3.5,3.5,0,0,1,0,6.06l-5.67,3.27A3.54,3.54,0,0,1,217.16,105.22Z"/><path class="cls-1" d="M165.85,134.76a3.51,3.51,0,0,1-1.75-6.54l12.83-7.38a3.5,3.5,0,0,1,3.49,6.07l-12.82,7.38A3.46,3.46,0,0,1,165.85,134.76ZM191.51,120a3.5,3.5,0,0,1-1.75-6.53l12.82-7.39a3.5,3.5,0,0,1,3.5,6.07l-12.83,7.38A3.45,3.45,0,0,1,191.51,120Z"/><path class="cls-1" d="M147.36,145.4a3.5,3.5,0,0,1-1.75-.46l-5.67-3.27a3.5,3.5,0,1,1,3.49-6.06l3.93,2.25,3.92-2.25a3.5,3.5,0,1,1,3.49,6.06l-5.67,3.27A3.49,3.49,0,0,1,147.36,145.4Z"/><path class="cls-1" d="M128.86,134.76a3.45,3.45,0,0,1-1.74-.47l-12.83-7.38a3.5,3.5,0,0,1,3.49-6.07l12.83,7.38a3.5,3.5,0,0,1-1.75,6.54ZM103.21,120a3.46,3.46,0,0,1-1.75-.47l-12.82-7.38a3.5,3.5,0,0,1,3.49-6.07L105,113.46a3.5,3.5,0,0,1-1.74,6.53Z"/><path class="cls-1" d="M147.37,183.84l-37.68-21.09V121.2l37.66-21.3,37,20.68v42.15Zm-30.68-25.2,30.65,17.15,30-17.12v-34l-30-16.76-30.68,17.35Z"/><path class="cls-1" d="M148.15,65.28a3.5,3.5,0,0,1-3.5-3.5V55.24a3.5,3.5,0,0,1,7,0v6.54A3.49,3.49,0,0,1,148.15,65.28Z"/><path class="cls-1" d="M148.15,89a3.5,3.5,0,0,1-3.5-3.5V73.65a3.5,3.5,0,0,1,7,0V85.51A3.49,3.49,0,0,1,148.15,89Z"/><path class="cls-1" d="M148.15,107.41a3.5,3.5,0,0,1-3.5-3.5V97.38a3.5,3.5,0,0,1,7,0v6.53A3.49,3.49,0,0,1,148.15,107.41Z"/><path class="cls-1" d="M222.82,189.11a3.39,3.39,0,0,1-1.78-.49l-5.63-3.33a3.51,3.51,0,0,1,3.58-6l5.62,3.34a3.5,3.5,0,0,1-1.79,6.51Z"/><path class="cls-1" d="M207,179.69a3.39,3.39,0,0,1-1.78-.49l-10.25-6.08a3.5,3.5,0,1,1,3.57-6l10.25,6.08a3.5,3.5,0,0,1-1.79,6.51Z"/><path class="cls-1" d="M186.45,167.53a3.39,3.39,0,0,1-1.78-.49L179,163.71a3.5,3.5,0,0,1,3.58-6l5.62,3.33a3.5,3.5,0,0,1-1.79,6.51Z"/><path class="cls-1" d="M71.89,188.59a3.5,3.5,0,0,1-1.78-6.51l5.63-3.33a3.5,3.5,0,0,1,3.56,6l-5.63,3.33A3.48,3.48,0,0,1,71.89,188.59Z"/><path class="cls-1" d="M87.54,179.35a3.5,3.5,0,0,1-1.79-6.51l10-5.92a3.5,3.5,0,0,1,3.56,6l-10,5.91A3.39,3.39,0,0,1,87.54,179.35Z"/><path class="cls-1" d="M107.56,167.52a3.5,3.5,0,0,1-1.78-6.51l5.63-3.33a3.5,3.5,0,0,1,3.56,6L109.34,167A3.48,3.48,0,0,1,107.56,167.52Z"/><polygon class="cls-1" points="150.86 179.82 143.86 179.82 143.86 139.88 179.08 119.6 182.57 125.67 150.86 143.93 150.86 179.82"/><path class="cls-1" d="M147.36,189.86a3.5,3.5,0,0,1-3.5-3.5v-6.54a3.5,3.5,0,0,1,7,0v6.54A3.5,3.5,0,0,1,147.36,189.86Z"/><path class="cls-1" d="M147.36,214.14a3.5,3.5,0,0,1-3.5-3.5V198.5a3.5,3.5,0,0,1,7,0v12.14A3.5,3.5,0,0,1,147.36,214.14Z"/><path class="cls-1" d="M147.36,232.82a3.41,3.41,0,0,1-1.75-.47,3.48,3.48,0,0,1-1.75-3v-6.54a3.5,3.5,0,1,1,7,0v.47l.4-.23a3.5,3.5,0,0,1,3.51,6l-5.66,3.28A3.53,3.53,0,0,1,147.36,232.82Z"/><path class="cls-1" d="M165.85,222.11a3.5,3.5,0,0,1-1.76-6.52l12.83-7.44a3.5,3.5,0,0,1,3.51,6.06l-12.83,7.43A3.49,3.49,0,0,1,165.85,222.11Zm25.66-14.86a3.5,3.5,0,0,1-1.76-6.53l12.83-7.43a3.5,3.5,0,0,1,3.51,6.06l-12.83,7.43A3.49,3.49,0,0,1,191.51,207.25Z"/><path class="cls-1" d="M217.17,192.39a3.5,3.5,0,0,1-1.76-6.53l3.91-2.27v-4.52a3.5,3.5,0,0,1,7,0v6.54a3.49,3.49,0,0,1-1.74,3l-5.66,3.28A3.49,3.49,0,0,1,217.17,192.39Z"/><path class="cls-1" d="M222.82,167.76a3.5,3.5,0,0,1-3.5-3.5V149.44a3.5,3.5,0,0,1,7,0v14.82A3.5,3.5,0,0,1,222.82,167.76Zm0-29.63a3.5,3.5,0,0,1-3.5-3.5V119.81a3.5,3.5,0,0,1,7,0v14.82A3.5,3.5,0,0,1,222.82,138.13Z"/><path class="cls-1" d="M222.82,108.5a3.5,3.5,0,0,1-3.5-3.5V98.46a3.5,3.5,0,1,1,7,0V105A3.5,3.5,0,0,1,222.82,108.5Z"/><polygon class="cls-1" points="150.86 179.82 143.86 179.82 143.86 143.93 111.88 125.52 115.37 119.45 150.86 139.88 150.86 179.82"/><path class="cls-1" d="M71.89,108.5a3.5,3.5,0,0,1-3.5-3.5V98.46a3.5,3.5,0,0,1,7,0V105A3.5,3.5,0,0,1,71.89,108.5Z"/><path class="cls-1" d="M71.89,167.34a3.5,3.5,0,0,1-3.5-3.5V149.13a3.5,3.5,0,0,1,7,0v14.71A3.5,3.5,0,0,1,71.89,167.34Zm0-29.42a3.5,3.5,0,0,1-3.5-3.5V119.71a3.5,3.5,0,0,1,7,0v14.71A3.5,3.5,0,0,1,71.89,137.92Z"/><path class="cls-1" d="M77.53,191.9a3.57,3.57,0,0,1-1.77-.48l-5.64-3.31a3.51,3.51,0,0,1-1.73-3v-6.54a3.5,3.5,0,0,1,7,0v4.54l3.91,2.29a3.5,3.5,0,0,1-1.77,6.52Z"/><path class="cls-1" d="M128.87,222a3.41,3.41,0,0,1-1.76-.48L114.27,214a3.5,3.5,0,0,1,3.54-6l12.84,7.52a3.5,3.5,0,0,1-1.78,6.52ZM103.2,206.94a3.47,3.47,0,0,1-1.77-.48L88.6,198.94a3.5,3.5,0,0,1,3.53-6L105,200.42a3.5,3.5,0,0,1-1.77,6.52Z"/><path class="cls-1" d="M147.36,232.82a3.46,3.46,0,0,1-1.77-.48L140,229a3.5,3.5,0,1,1,3.53-6l.38.21v-.43a3.5,3.5,0,1,1,7,0v6.54a3.52,3.52,0,0,1-1.76,3A3.49,3.49,0,0,1,147.36,232.82Z"/><path class="cls-1" d="M147.36,214.14a3.5,3.5,0,0,1-3.5-3.5V198.5a3.5,3.5,0,0,1,7,0v12.14A3.5,3.5,0,0,1,147.36,214.14Z"/><path class="cls-1" d="M147.36,189.86a3.5,3.5,0,0,1-3.5-3.5v-6.54a3.5,3.5,0,0,1,7,0v6.54A3.5,3.5,0,0,1,147.36,189.86Z"/></svg>