<svg id="Layer_1" data-name="Layer 1" xmlns="http://www.w3.org/2000/svg" viewBox="0 0 300 300"><defs><style>.cls-1{fill:#ee7f00;}</style></defs><title>tmfe Artboard 1 copy 6Icons</title><path class="cls-1" d="M179.21,33.37A4.41,4.41,0,0,0,175.29,31H22.17a4.44,4.44,0,0,0-4.43,4.43V264.57A4.44,4.44,0,0,0,22.17,269h97.26a4.44,4.44,0,0,0,4.43-4.43v-147L178.93,38A4.42,4.42,0,0,0,179.21,33.37Zm-12.37,6.49-51,73.79a4.46,4.46,0,0,0-.78,2.52v144H26.6V39.86Z"/><path class="cls-1" d="M48.59,116.93H89.84a4.43,4.43,0,0,0,4.43-4.43V63.75a4.43,4.43,0,1,0-8.85,0v44.32H53V60.77h16.2a4.43,4.43,0,0,0,0-8.86H48.59a4.42,4.42,0,0,0-4.42,4.43V112.5A4.42,4.42,0,0,0,48.59,116.93Z"/><path class="cls-1" d="M72.22,163.44a4.06,4.06,0,0,0-1.22-.83l-.4-.14a4.71,4.71,0,0,0-1.2-.21,4.54,4.54,0,0,0-.49,0,4.77,4.77,0,0,0-1.1.22l-.41.15a4.63,4.63,0,0,0-1.31.88L45.88,183.74a4.42,4.42,0,0,0,0,6.26,4.52,4.52,0,0,0,6.26,0l12.65-12.64v33a4.43,4.43,0,0,0,8.86,0v-33L86.29,190a4.53,4.53,0,0,0,6.27,0,4.44,4.44,0,0,0,0-6.26Z"/><path class="cls-1" d="M271.63,69.88H186.74a38.22,38.22,0,0,0-8-14.74,6.75,6.75,0,0,0-1-.86,4.48,4.48,0,0,0-3.31-.71,4.4,4.4,0,0,0-2.85,1.84l-37.8,54.64a4.44,4.44,0,0,0,2.11,6.6,38,38,0,0,0,6.19,1.76v81a10.63,10.63,0,0,0,21.26,0v-82.8a38.73,38.73,0,0,0,7-3.47l59,59a10.89,10.89,0,0,0,15,0,10.63,10.63,0,0,0,0-15L184.43,97.18a38.27,38.27,0,0,0,2.31-6h84.89a10.63,10.63,0,0,0,0-21.26Zm-92.46,13.6a29.71,29.71,0,0,1-5,13.91l1.1.75L174,97.65l-.65.91,5.28,5.29h0l59.48,59.48a1.78,1.78,0,0,1,0,2.51,1.84,1.84,0,0,1-2.51,0L171,101.26l-.94.89a29.78,29.78,0,0,1-14.48,7.56l-1.07.21v89.49a1.77,1.77,0,0,1-3.54,0v-89.1h-1.33a30.36,30.36,0,0,1-5-.41l30.69-44.36a30,30,0,0,1,3.82,12l.12,1.2h92.33a1.77,1.77,0,0,1,0,3.54H179.29Z"/></svg>