<svg id="Layer_1" data-name="Layer 1" xmlns="http://www.w3.org/2000/svg" viewBox="0 0 148.91 146.82"><defs><style>.cls-1{fill:none;stroke:#ee7f00;stroke-linecap:round;stroke-linejoin:round;stroke-width:4px;}</style></defs><title>Iconos_Artboard 12 copy 23</title><ellipse class="cls-1" cx="65.49" cy="35.42" rx="8.74" ry="8.76"/><polyline class="cls-1" points="66.12 60.22 76.21 68.88 92.61 68.88"/><line class="cls-1" x1="66.12" y1="60.22" x2="61.86" y2="56.56"/><path class="cls-1" d="M92.61,68.88a4.11,4.11,0,0,0,0-8.22"/><line class="cls-1" x1="91.64" y1="21.96" x2="91.64" y2="60.66"/><line class="cls-1" x1="91.72" y1="69.36" x2="92.59" y2="94.58"/><path class="cls-1" d="M53.22,48.05a7.9,7.9,0,0,0-1,2.2L45.53,71.16"/><path class="cls-1" d="M92.61,60.66H80.31S68,46.29,62.25,44.52l-.09,0a8.24,8.24,0,0,0-8.63,3.06"/><path class="cls-1" d="M66.12,60.22,62.21,71.94l12.37,6.17a5.24,5.24,0,0,1,2.9,5.07L76.15,101.4"/><path class="cls-1" d="M45.46,71.36C43.2,77.7,45.4,82,50,83.2c6.75,1.72,17.25,3.47,17.25,3.47l.32,18"/><polyline class="cls-1" points="44.6 75.92 45.46 93.52 36.59 116.62"/><line class="cls-1" x1="36.59" y1="116.62" x2="36.27" y2="117.45"/><path class="cls-1" d="M55.71,84.92v8.94A6.11,6.11,0,0,1,54.83,97L47.3,112.5"/><line class="cls-1" x1="36.59" y1="116.62" x2="23.51" y2="121.65"/><line class="cls-1" x1="91.72" y1="95.42" x2="76.15" y2="101.4"/><line class="cls-1" x1="67.56" y1="104.71" x2="47.3" y2="112.5"/><line class="cls-1" x1="126.7" y1="121.65" x2="93.47" y2="95.42"/><path class="cls-1" d="M91.6,30.7c10-11.58,20,9.7,30-1.89q-.12,8.75-.26,17.49c-9.84,11.39-19.67-9.5-29.47,1.89"/><polyline class="cls-1" points="68.99 121.65 75.98 112.91 84.73 114.65 91.72 98.91"/></svg>