<svg id="Layer_1" data-name="Layer 1" xmlns="http://www.w3.org/2000/svg" viewBox="0 0 148.91 146.82"><defs><style>.cls-1{fill:none;stroke:#ee7f00;stroke-linecap:round;stroke-linejoin:round;stroke-width:4px;}</style></defs><title>Iconos_Artboard 12 copy 24</title><path class="cls-1" d="M73.68,26.58c-6.24,0-17.14,17.28-17.14,34.28,0,11.77,3.11,23,8.57,29.6h8.57"/><path class="cls-1" d="M73.68,26.58c6.23,0,17.13,17.28,17.13,34.28,0,11.77-3.11,23-8.57,29.6H73.68"/><path class="cls-1" d="M66.56,50.08a9.41,9.41,0,0,0-2.23,6.32,9.16,9.16,0,1,0,8.94-9.55"/><line class="cls-1" x1="85.36" y1="83.84" x2="67.83" y2="83.84"/><path class="cls-1" d="M57.71,73.32l-3.5,2.43a12.75,12.75,0,0,0-5.46,10.46v7l9.35-5.45"/><path class="cls-1" d="M89.64,73.32l3.5,2.43A12.75,12.75,0,0,1,98.6,86.21v7l-9.35-5.45"/><line class="cls-1" x1="66.28" y1="91.24" x2="64.33" y2="105.26"/><line class="cls-1" x1="81.08" y1="91.24" x2="82.53" y2="102.23"/><path class="cls-1" d="M82.53,102.23a9,9,0,0,1,10.18,7.92"/><path class="cls-1" d="M82.53,102.23a9,9,0,0,0-7.69,8.87"/><path class="cls-1" d="M92.71,110.15a11.61,11.61,0,0,1,4.72-1c6.46,0,12.08,6,12.08,12.46"/><path class="cls-1" d="M55.11,110.39a8.57,8.57,0,0,1,8.44-7.08"/><path class="cls-1" d="M55.11,110.39a11.58,11.58,0,0,0-3.24-.46c-6.46,0-12.47,5.23-12.47,11.68"/><path class="cls-1" d="M55.11,110.39a9.07,9.07,0,0,0-.13,1.49,8.54,8.54,0,0,0,2,5.48"/></svg>