<svg id="Layer_1" data-name="Layer 1" xmlns="http://www.w3.org/2000/svg" viewBox="0 0 148.91 146.82"><defs><style>.cls-1{fill:#ee7f00;}</style></defs><title>Iconos_Artboard 12 copy 44</title><path class="cls-1" d="M31.87,75.46V33.59c0-1.81.64-2.46,2.43-2.46H118c1.85,0,2.48.64,2.48,2.5v83.73c0,1.66-.7,2.44-2.2,2.44l-33.92,0q-25,0-50,0c-1.92,0-2.53-.62-2.53-2.54ZM78.09,116h38.67V77.38a1.41,1.41,0,0,0-.31-.08c-4.24,0-8.48,0-12.72,0-1.26,0-2-.28-2.32-1.17s-.13-1.49.75-2.32a6.78,6.78,0,0,0-1-10.25,7,7,0,0,0-9,1.39c-1.86,2.31-2,6.84.71,9.05a1.77,1.77,0,0,1,.54,2.16,1.86,1.86,0,0,1-1.9,1.18L79,77.29c-.29,0-.57,0-.89,0v9.91c5.69-1.59,9.45-.59,12.46,3.27,2.64,3.39,3.08,7.49.87,11-3.15,5.08-7.66,6.63-13.34,4.52ZM74.35,77.36h-10c1.63,5.44.68,9.2-3.07,12.31a9.34,9.34,0,0,1-10.87,1.22c-5.36-3.08-7-7.66-4.9-13.53H35.62V116h38.7c0-4.45,0-8.83,0-13.21a2,2,0,0,1,1.13-2.1,1.85,1.85,0,0,1,2.28.6,6.85,6.85,0,0,0,9,.65,7,7,0,0,0,.72-9.81c-2.39-2.7-7.49-2.86-9.76,0a1.82,1.82,0,0,1-2.22.58,1.85,1.85,0,0,1-1.17-1.9c0-4,0-8,0-11.92Zm3.78-42.5a1.43,1.43,0,0,0-.09.34c0,4.29,0,8.59,0,12.89A2,2,0,0,1,77,50.2a1.88,1.88,0,0,1-2.3-.58A6.82,6.82,0,0,0,65.6,49,7,7,0,0,0,65,58.82a6.79,6.79,0,0,0,9.64.07,2,2,0,0,1,2.28-.67,1.9,1.9,0,0,1,1.17,1.9q0,6.32,0,12.63c0,.25,0,.51.06.8H88c-1.57-5.78-.57-9.5,3.35-12.52a9.38,9.38,0,0,1,11-.82c5.07,3.17,6.62,7.67,4.52,13.35h9.91V34.86Zm-42.5,0V73.55a2.78,2.78,0,0,0,.4.06c4.18,0,8.36,0,12.54,0,1,0,1.89.09,2.37,1.1s.2,1.51-.79,2.46a6.77,6.77,0,0,0,1.26,10.33,7,7,0,0,0,8.87-1.61c1.77-2.28,2-6.77-.79-9A1.78,1.78,0,0,1,59,74.73a1.86,1.86,0,0,1,1.9-1.17l12.71,0a5.72,5.72,0,0,0,.7-.07V63.66c-5.46,1.61-9.24.66-12.3-3.08-2.72-3.31-3.27-7.45-1.15-11,3.12-5.25,7.67-6.88,13.46-4.75V34.88Z"/></svg>