<svg id="Layer_1" data-name="Layer 1" xmlns="http://www.w3.org/2000/svg" viewBox="0 0 148.91 146.82"><defs><style>.cls-1{fill:#ee7f00;}</style></defs><title>Iconos_Artboard 12 copy 36</title><path class="cls-1" d="M50.31,83.77l.2.71c.69,2.5,3.49,7.23,9.13,7.23,6.94,0,9.31-6.5,9.4-6.78l.28-.78-.17-.35a2,2,0,0,0-.63-1.3L61.63,68.28V65.44H74.86V80.08a5.62,5.62,0,0,0-4.08,5.47V98.78H67.16a2,2,0,1,0,0,4H86.55a2,2,0,1,0,0-4H82.61V85.55a5.54,5.54,0,0,0-1.85-4.35,5.65,5.65,0,0,0-1.91-1.1V65.44H91.12v2.85L83.79,83.77l.2.71c.69,2.5,3.49,7.23,9.13,7.23,6.94,0,9.31-6.5,9.4-6.78l.28-.78-.17-.35a2,2,0,0,0-.63-1.3L95.11,68.28V65.44h2a2,2,0,0,0,0-4H78.85V59.34a5.91,5.91,0,1,0-4,.12v2H56.27a2,2,0,0,0,0,4h1.37v2.85ZM55.57,82l4.09-8.62L63.83,82Zm4.07,5.77a5,5,0,0,1-3.88-1.79h8A5.61,5.61,0,0,1,59.64,87.73Zm19-2.18V98.78H74.76V85.55c0-1.76,2-1.78,2.1-1.79a2,2,0,0,1,1.27.42h0A1.73,1.73,0,0,1,78.63,85.55ZM76.7,51.9a1.94,1.94,0,1,1-1.94,1.93A1.94,1.94,0,0,1,76.7,51.9Zm20.55,34a5.61,5.61,0,0,1-4.13,1.79,5,5,0,0,1-3.88-1.79Zm-8.2-4,4.09-8.62L97.31,82ZM111,20H65.5a5,5,0,0,0-4.74-3.37h-9A5,5,0,0,0,47,20h-4.3a7.2,7.2,0,0,0-7.2,7.19v91a7.21,7.21,0,0,0,7.2,7.2H111a7.21,7.21,0,0,0,7.2-7.2v-91A7.2,7.2,0,0,0,111,20ZM42.74,24h4v23.4l9.52-4.45,9.52,4.45V24H111a3.21,3.21,0,0,1,3.21,3.21v91a3.22,3.22,0,0,1-3.21,3.22H42.74a3.22,3.22,0,0,1-3.22-3.22v-91A3.22,3.22,0,0,1,42.74,24Zm8,17.14V21.64a1.07,1.07,0,0,1,1.06-1.06h9a1.06,1.06,0,0,1,1.05,1.06V41.09L56.27,38.5Z"/></svg>