<svg id="Layer_1" data-name="Layer 1" xmlns="http://www.w3.org/2000/svg" viewBox="0 0 148.91 146.82"><defs><style>.cls-1{fill:#ee7f00;}</style></defs><title>Iconos_Artboard 12 copy 35</title><path class="cls-1" d="M115.25,57.8l-3.71-1.27a38.12,38.12,0,0,0-76.22-.11l-4,1.38a6.32,6.32,0,0,0-4.26,6v19.7a6.31,6.31,0,0,0,4.26,6l8.4,2.9h0a6.37,6.37,0,0,0,2.06.35,6.27,6.27,0,0,0,3.67-1.18,6.34,6.34,0,0,0,2.66-5.15V60.89a6.33,6.33,0,0,0-8.39-6l-.32.11a34.1,34.1,0,0,1,68.08.1l-.62-.21a6.32,6.32,0,0,0-8.38,6V86.37a6.31,6.31,0,0,0,8.38,6l8.4-2.89a6.33,6.33,0,0,0,4.26-6V63.78A6.32,6.32,0,0,0,115.25,57.8ZM41,58.69a2.3,2.3,0,0,1,2.11.3,2.33,2.33,0,0,1,1,1.9V86.37a2.33,2.33,0,0,1-1,1.9,2.3,2.3,0,0,1-2.11.3l-8.39-2.9a2.31,2.31,0,0,1-1.57-2.19V63.78a2.34,2.34,0,0,1,1.57-2.2Zm74.5,24.79a2.34,2.34,0,0,1-1.56,2.2l-8.4,2.89a2.31,2.31,0,0,1-3.08-2.2V60.89a2.32,2.32,0,0,1,1-1.9,2.35,2.35,0,0,1,1.34-.43,2.27,2.27,0,0,1,.77.13l8.4,2.89a2.34,2.34,0,0,1,1.56,2.2Z"/><path class="cls-1" d="M103.7,94.65a2,2,0,0,0-2,2v8.8c0,3.22-6.55,10-11.69,10a2,2,0,0,0-.73.15c-1.08-4-5.59-6.91-11.15-6.91-6.39,0-11.4,3.85-11.4,8.76s5,8.76,11.4,8.76c5.56,0,10.07-2.92,11.15-6.91a2,2,0,0,0,.73.15c7.27,0,15.69-8.46,15.69-14v-8.8A2,2,0,0,0,103.7,94.65ZM78.13,122.18c-4,0-7.4-2.18-7.4-4.76s3.39-4.76,7.4-4.76,7.41,2.18,7.41,4.76S82.14,122.18,78.13,122.18Z"/></svg>