<svg id="Layer_1" data-name="Layer 1" xmlns="http://www.w3.org/2000/svg" viewBox="0 0 148.91 146.82"><defs><style>.cls-1{fill:#ee7f00;}</style></defs><title>Iconos_Artboard 12 copy 34</title><path class="cls-1" d="M95.51,16.84c-.07,3.52-.13,7.05-.2,10.65H92a12.63,12.63,0,0,0-.41,2.07c-.06,1.82,0,3.64,0,5.47a6.41,6.41,0,0,1-6.5,6.7c-.58,0-1.16.06-1.73.13-.14,0-.26.17-.59.41a23.5,23.5,0,0,0,2.85,6.15,2.33,2.33,0,0,0,1.69.8c2.39.09,4.78,0,7.18,0,3.3-7.7,6.5-15.23,9.76-22.74a5.89,5.89,0,0,1,1.51-2.18c2.5-2,5.09-3.95,7.67-5.89a7,7,0,0,1,1.35-.56c.08.94.19,1.64.2,2.35.17,9.57.17,9.57-3.51,18.48-1.39,3.35-2.82,6.69-4.19,10,.29.27.39.46.51.48,2.82.33,3,.31,3.26,3.05s.36,5.78.42,8.67a58.5,58.5,0,0,1-.93,13.59,48.84,48.84,0,0,1-5.27,13.87A41.19,41.19,0,0,1,93.51,101.7c-1.63,1.18-2,2.71-2,4.53,0,6.71,0,13.43,0,20.14,0,.67,0,1.33,0,2H48.71c0-4.72.09-9.45.09-14.18,0-2.07-.19-2.25-2.31-2.26-4.23,0-8.46,0-12.69,0H31.05c-.07-1.06-.16-1.93-.17-2.81,0-5.72,0-11.45,0-17.17,0-2,.36-2.66-2.38-3.15-3.49-.64-6.92-1.61-10.74-2.53,1.09-2.07,2-4,3.07-5.81q4-7.18,8-14.33a6.27,6.27,0,0,0,.64-3.31c0-3.72.08-7.45.38-11.16.18-2.32.41-2.34,2.86-2.36s4.65,0,7,0c1.81,0,2-.23,2.06-2,0-2.57,0-5.14,0-7.71a2.48,2.48,0,0,0-1.35-2.44c-2.5-1.43-2.49-3.62-1.89-6.09.44-1.83,2.7-3.17,4.89-3.2a5.29,5.29,0,0,1,5.07,3.69,5.14,5.14,0,0,1-1.91,5.73,2.93,2.93,0,0,0-1.4,2.91c0,2.9,0,5.8,0,8.7,1.71.51,11.27.64,14.31.14a12.12,12.12,0,0,0,.2-2.29c-.33-3.88,1.61-6.25,5-7.68.38-.16.76-.3,1.45-.57l-1.91-5L58.68,36.2c1.81-6.2,3.47-11.9,5.21-17.9l17.34,7.3L76.3,28.48c1.34,3.07,2.64,6.08,4,9.08a2.15,2.15,0,0,0,.85.87c2.8,1.57,6.86-.17,7.25-3.3a63.19,63.19,0,0,0,.06-7.56h-3c-1.15-3.62-.51-7.21-.84-10.73ZM52.12,124.45c3.1.7,34.39.58,36.43-.12v-2.58c0-6,0-12,0-17.93a3.88,3.88,0,0,1,1.68-3.6,41.82,41.82,0,0,0,12.41-14A40.81,40.81,0,0,0,108,67c.07-3.73,0-7.47,0-11.2,0-3-.2-3.15-3.07-3.15H35.25c-.71,0-1.43.12-2.14.18A4.83,4.83,0,0,0,32.79,54c0,3.32,0,6.64.12,9.95a4.32,4.32,0,0,1-.5,2.55c-2.31,4-4.56,8.07-6.81,12.12-.94,1.7-1.83,3.42-2.89,5.41l11.55,2.77c0,3.83,0,7.39,0,10.94s-.12,7.07.12,10.86H52.12Zm25-85.77c-1.47-3.24-2.64-5.87-3.84-8.48-.67-1.46-1.76-2.83-.42-4.57L66,22.71l-1.54,5.6a22,22,0,0,1,2.33,3c1,1.91,1.74,3.94,2.7,5.86.29.6.91,1.39,1.44,1.44C72.81,38.79,74.7,38.68,77.16,38.68ZM98,49.27c1.5,0,2.48-.06,3.46,0a2.41,2.41,0,0,0,2.74-1.9c.82-2.34,1.88-4.59,2.84-6.88,1.18-2.82,2.35-5.65,3.52-8.47.32-.78.73-1.65-.22-2.21s-2.14-1-3.34-1.59ZM72.12,41.83c.31,2.75,1.69,4.66,2.58,6.75a1.34,1.34,0,0,0,1,.61c2,0,4,.36,6.23-.26-1-2.21-1.94-4.23-2.94-6.2a1.64,1.64,0,0,0-1.1-.86C76,41.78,74.16,41.83,72.12,41.83Zm-.87,7.42c-1-2.21-1.7-4-2.55-5.84s-1.87-2.07-3.56-1.18-2.91,4.59-1.84,6.35a1.63,1.63,0,0,0,1.22.64C66.66,49.28,68.8,49.25,71.25,49.25Zm17-25.14h3.69l.26-3.83-4,.23ZM43.45,34.79a1.78,1.78,0,0,0,.07-3.56,1.9,1.9,0,0,0-2,1.76A1.86,1.86,0,0,0,43.45,34.79Zm66-9.18c1.07.25,1.72.61,2,.42s.3-.9.58-2Z"/><path class="cls-1" d="M41.4,58.45c.12.47.19.86.32,1.25a5.31,5.31,0,0,0,5.1,4,5.22,5.22,0,0,0,5.37-3.61c.8-1.92.8-1.92,3.34-1.5.41,3-1.16,5-3.3,6.66a8.29,8.29,0,0,1-9.58.67,7.7,7.7,0,0,1-4.28-7.46Z"/></svg>