<svg id="Layer_1" data-name="Layer 1" xmlns="http://www.w3.org/2000/svg" viewBox="0 0 148.91 146.82"><defs><style>.cls-1,.cls-2{fill:none;stroke:#ee7f00;stroke-linecap:round;stroke-width:3.65px;}.cls-1{stroke-miterlimit:10;}.cls-2{stroke-linejoin:round;}</style></defs><title>fArtboard 12 copy 39</title><path class="cls-1" d="M120.89,81.88a45.9,45.9,0,1,0-88.27.4"/><path class="cls-1" d="M100.06,80.32a87.22,87.22,0,0,0,.68-10.89c0-25.35-10.77-45.9-24-45.9S52.65,44.08,52.65,69.43a87,87,0,0,0,.62,10.36"/><path class="cls-1" d="M37.85,45.05A164.18,164.18,0,0,0,76.7,49.76a164.16,164.16,0,0,0,38.84-4.71"/><line class="cls-1" x1="30.8" y1="69.43" x2="122.6" y2="69.43"/><line class="cls-1" x1="76.7" y1="23.53" x2="76.7" y2="76.73"/><path class="cls-2" d="M52.65,93.47c0,6.56-3.91,10.93-8.74,10.93S35.17,100,35.17,93.47a8.74,8.74,0,0,1,17.48,0Z"/><path class="cls-2" d="M100.74,93.47c0,6.56,3.91,10.93,8.74,10.93s8.74-4.37,8.74-10.93a8.74,8.74,0,0,0-17.48,0Z"/><path class="cls-2" d="M87.62,95.42c0,8-4.89,13.35-10.92,13.35s-10.93-5.34-10.93-13.35a10.93,10.93,0,0,1,21.85,0Z"/><path class="cls-2" d="M54.84,126.26v-4.32a5.43,5.43,0,0,1,3.22-5,46.57,46.57,0,0,1,18.75-3.81,45.55,45.55,0,0,1,18.55,3.79,5.43,5.43,0,0,1,3.19,5v4.36"/><path class="cls-2" d="M129.15,121.89v-4.36a5.5,5.5,0,0,0-2.87-5,37.4,37.4,0,0,0-16.69-3.79,38.44,38.44,0,0,0-16.88,3.81,5.12,5.12,0,0,0-2.32,2.51"/><path class="cls-2" d="M63,115.13a5,5,0,0,0-2.32-2.57A37.42,37.42,0,0,0,44,108.77a38.43,38.43,0,0,0-16.87,3.81,5.5,5.5,0,0,0-2.9,5v4.33"/></svg>