<svg id="Layer_1" data-name="Layer 1" xmlns="http://www.w3.org/2000/svg" viewBox="0 0 148.91 146.82"><defs><style>.cls-1{fill:#ee7f00;}</style></defs><title>Iconos_Artboard 12 copy 33</title><path class="cls-1" d="M96.62,125.32a7.33,7.33,0,0,1-.89-3.23c-.31-4.26-.76-8.52-1.15-12.77-.17-1.92-.28-3.84-.49-5.76a9.72,9.72,0,0,1,1-5.35q6.87-14.74,13.54-29.6a10.42,10.42,0,0,0,.78-3.51,31.57,31.57,0,0,0-5-19.36l2.36-2a8.41,8.41,0,0,1,.94,1.11,34.39,34.39,0,0,1,4.79,13.62,26,26,0,0,1,0,8.72,17.71,17.71,0,0,1-1.18,3.63c-3.42,7.54-6.9,15-10.35,22.58a49.21,49.21,0,0,1-2.35,5c-1.33,2.18-1.3,4.47-1.08,6.83s.51,4.68.73,7c.3,3.19.56,6.38.84,9.58a4,4,0,0,1-.77,3.4ZM37.38,87.1c0,4.78,0,9.57,0,14.36,0,1.73.29,2,2,2,2.14,0,4.28,0,6.43,0,1.86,0,3.71,0,5.57,0,1,0,1.4.45,1.47,1.42.1,1.35.29,2.69.43,4,.47,4.33.91,8.65,1.4,13a4.34,4.34,0,0,0,.51,1.61c.33.58.95,1.06,1.6.74A2.84,2.84,0,0,0,58,122.91a3.07,3.07,0,0,0,0-1.48c-.16-1.71-.33-3.41-.53-5.11-.52-4.46-1.09-8.91-1.58-13.37-.24-2.21-.49-2.52-2.78-2.53-3.5,0-7,0-10.51,0-.62,0-1.23-.1-2-.17,0-.93-.09-1.7-.09-2.46,0-4.65,0-9.29,0-13.94,0-2.22-.38-2.55-2.65-2.61a4.6,4.6,0,0,1-2.57-.33c.35-.76.66-1.47,1-2.16q4.41-8.82,8.86-17.61a21,21,0,0,0,1.77-5A31.4,31.4,0,0,1,74.8,31.48,30.55,30.55,0,0,1,95,36.42L97.4,38l2.37-2c-.67-.58-1.11-1-1.63-1.4-8.49-5.84-17.84-8-27.88-5.64C55.94,32.35,47.17,41.57,43.54,55.79a16.63,16.63,0,0,1-1.16,3.4c-3.58,7.23-7.22,14.43-10.84,21.65a13.57,13.57,0,0,0-.74,1.54,1.52,1.52,0,0,0,1.14,2.12,8.84,8.84,0,0,0,1.71.08c1.12,0,2.25,0,3.57,0C37.28,85.57,37.38,86.34,37.38,87.1ZM97.8,66.28A20.08,20.08,0,0,1,88,77.17,20.57,20.57,0,0,1,62.22,46.4a20.14,20.14,0,0,1,11.42-7.51c6.75-1.64,12.83,0,18.25,4.12l2.26-2.14c-7.46-7.26-22-9-32.17.69A24,24,0,0,0,94.57,76.81c8.9-7.78,9.84-20.88,5.7-27.39l-2.43,2.12A20.11,20.11,0,0,1,97.8,66.28ZM73,51.75l-11,11,1.13,3.1,9.78-9.76c2.61,2.13,4.52,4.64,6.94,6.57l33-29.18.3,2.86h3.11c0-2.79,0-5.46,0-8.28-2.94.05-5.61-.08-8.29.09v3l2.24.43C100,40.74,90,49.48,79.83,58.55Zm3.86-33.93c0,1.19,0,2.25,0,3.3s-.24,2.26.23,3.3h3.1v-6.6Zm-12.38,2.3L61.4,21.47,64,27.7l3.17-1.25ZM95.8,21.41l-3.16-1.24-2.59,6.28,3.15,1.27C94.11,25.5,94.94,23.5,95.8,21.41ZM52.37,34.87,54.55,33l-4.48-4.9-2.07,2Z"/></svg>