<svg id="Layer_1" data-name="Layer 1" xmlns="http://www.w3.org/2000/svg" viewBox="0 0 148.91 146.82"><defs><style>.cls-1{fill:#ee7f00;}</style></defs><title>fArtboard 12 copy 37</title><path class="cls-1" d="M42.29,72l12.4-12.4L68.32,73.24l15-15A21.64,21.64,0,0,0,81,54.94L68.32,67.58,54.69,54,42.32,66.32A19.74,19.74,0,0,0,42.29,72Z"/><path class="cls-1" d="M20.2,94.1,35.61,78.69a29.51,29.51,0,0,0,3.1,6.58L20.2,103.78v5.65L41.09,88.54c.58.69,1.18,1.36,1.82,2A30.06,30.06,0,0,0,84,91.9l4.64,4.64a8.66,8.66,0,0,0-1.5,4.89,7.35,7.35,0,0,0,2.24,5.44l20,20a7.29,7.29,0,0,0,5.26,2.24h.27a9.13,9.13,0,0,0,6.45-2.86,9,9,0,0,0,2.68-6.36,7.34,7.34,0,0,0-2.23-5.44l-20-20a7.37,7.37,0,0,0-5.27-2.24h-.27a8.72,8.72,0,0,0-4.79,1.51l-4.65-4.65a29.86,29.86,0,0,0,7.45-19.8,30.91,30.91,0,0,0-.6-6l17.8-17.8,7.74,7.74,9.51-35.49L93.21,27.2,101,34.94,86.64,49.27c-.39-.44-.78-.86-1.19-1.27A30.08,30.08,0,0,0,34.1,69.27a30.29,30.29,0,0,0,.4,4.87L20.2,88.44ZM38.1,69.27a26.08,26.08,0,1,1,7.64,18.44A25.87,25.87,0,0,1,38.1,69.27Zm62.84-40,22.12-5.93-5.93,22.12-5.67-5.68-19.06,19a30.16,30.16,0,0,0-3.28-6.39l17.5-17.5Zm-4.6,66.94h.18A3.36,3.36,0,0,1,99,97.28l20,20a3.44,3.44,0,0,1,1.07,2.62,5.07,5.07,0,0,1-1.54,3.57,5.14,5.14,0,0,1-3.59,1.65h-.27a3.37,3.37,0,0,1-2.44-1.07l-20-20a3.44,3.44,0,0,1-1.07-2.62,5.09,5.09,0,0,1,1.55-3.57A5.16,5.16,0,0,1,96.34,96.21Z"/><path class="cls-1" d="M54.69,69.28,44.57,79.41a21.59,21.59,0,0,0,2.22,3.43l7.9-7.9L68.32,88.57,86.19,70.71a20,20,0,0,0-.29-5.37L68.32,82.92Z"/></svg>